<svg width="44" height="44" viewBox="0 0 44 44" fill="none" xmlns="http://www.w3.org/2000/svg">
<rect width="44" height="44" rx="8" fill="#6419C8"/>
<path fill-rule="evenodd" clip-rule="evenodd" d="M22.0002 11.25C20.1724 11.25 18.6613 11.411 17.4984 11.6072L17.3635 11.6298C16.3533 11.7989 15.5137 11.9395 14.8571 12.7481C14.4361 13.2666 14.3002 13.8271 14.2689 14.4531L13.7769 14.6171C13.3137 14.7715 12.9078 14.9067 12.5858 15.0566C12.2376 15.2185 11.9186 15.4271 11.6747 15.7656C11.4308 16.104 11.3337 16.4726 11.2902 16.8541C11.2499 17.207 11.25 17.6349 11.25 18.123L11.25 18.2683C11.25 18.6701 11.25 19.025 11.2796 19.3218C11.3118 19.6435 11.383 19.9562 11.5608 20.2584C11.7387 20.5607 11.9775 20.7748 12.2431 20.9591C12.4881 21.1292 12.7984 21.3015 13.1496 21.4966L15.7908 22.964C16.3302 24.0252 17.0712 24.9713 18.0902 25.6548C18.9772 26.2497 20.0418 26.6232 21.3028 26.723C21.2687 26.8087 21.25 26.9022 21.25 27V28.75H19.8198C18.9856 28.75 18.2674 29.3388 18.1038 30.1568L17.8852 31.25H16C15.5858 31.25 15.25 31.5858 15.25 32C15.25 32.4142 15.5858 32.75 16 32.75H28C28.4142 32.75 28.75 32.4142 28.75 32C28.75 31.5858 28.4142 31.25 28 31.25H26.1149L25.8962 30.1568C25.7326 29.3388 25.0144 28.75 24.1802 28.75H22.75V27C22.75 26.9022 22.7313 26.8087 22.6972 26.723C23.9583 26.6233 25.023 26.2498 25.9101 25.6548C26.9292 24.9713 27.6703 24.025 28.2097 22.9637L30.8503 21.4966C31.2016 21.3015 31.5118 21.1292 31.7569 20.9591C32.0225 20.7748 32.2613 20.5607 32.4391 20.2584C32.617 19.9562 32.6882 19.6435 32.7203 19.3218C32.75 19.025 32.75 18.6701 32.75 18.2683L32.75 18.1231C32.75 17.6349 32.75 17.207 32.7098 16.8541C32.6662 16.4726 32.5692 16.104 32.3253 15.7656C32.0814 15.4271 31.7623 15.2185 31.4142 15.0566C31.0921 14.9067 30.6862 14.7715 30.2231 14.6171L29.7314 14.4532C29.7001 13.8271 29.5643 13.2667 29.1432 12.7481C28.4866 11.9395 27.647 11.7989 26.6368 11.6298L26.5019 11.6072C25.339 11.411 23.8279 11.25 22.0002 11.25ZM24.5852 31.25L24.4253 30.451C24.402 30.3341 24.2994 30.25 24.1802 30.25H19.8198C19.7006 30.25 19.598 30.3341 19.5747 30.451L19.4149 31.25H24.5852ZM14.2885 16.0277L14.3021 16.0232C14.3737 17.5435 14.5454 19.2238 14.973 20.7937L13.9073 20.2016C13.5181 19.9854 13.2745 19.8491 13.0983 19.7268C12.9359 19.6141 12.883 19.5476 12.8536 19.4977C12.8243 19.4479 12.7919 19.3693 12.7722 19.1726C12.7509 18.9592 12.75 18.68 12.75 18.2348L12.75 18.1623C12.75 17.6232 12.7511 17.2819 12.7805 17.0242C12.8078 16.7857 12.8523 16.697 12.8915 16.6426C12.9308 16.5882 13.0008 16.5179 13.2185 16.4166C13.4536 16.3072 13.7771 16.1982 14.2885 16.0277ZM29.6982 16.0233C29.6266 17.5435 29.4549 19.2236 29.0274 20.7935L30.0927 20.2016C30.4818 19.9854 30.7255 19.8491 30.9017 19.7268C31.0641 19.6141 31.117 19.5476 31.1463 19.4977C31.1757 19.4479 31.2081 19.3693 31.2277 19.1726C31.2491 18.9592 31.2499 18.68 31.25 18.2348L31.25 18.1623C31.25 17.6232 31.2488 17.2819 31.2194 17.0242C31.1922 16.7857 31.1477 16.697 31.1084 16.6426C31.0692 16.5882 30.9992 16.5179 30.7815 16.4166C30.5463 16.3072 30.2229 16.1982 29.7115 16.0277L29.6982 16.0233ZM17.748 13.0863C18.8332 12.9032 20.2608 12.75 22.0002 12.75C23.7395 12.75 25.1671 12.9032 26.2524 13.0863C27.4593 13.2899 27.7128 13.3661 27.9787 13.6936C28.2407 14.0163 28.2656 14.3216 28.2118 15.6767C28.1222 17.9354 27.8242 20.3727 26.9015 22.2264C26.446 23.1414 25.8505 23.8887 25.0746 24.409C24.3037 24.9261 23.3092 25.25 22.0002 25.25C20.6911 25.25 19.6966 24.9261 18.9257 24.409C18.1498 23.8887 17.5543 23.1414 17.0988 22.2264C16.1761 20.3727 15.8782 17.9354 15.7885 15.6767C15.7347 14.3216 15.7596 14.0163 16.0216 13.6936C16.2875 13.3661 16.541 13.2899 17.748 13.0863Z" fill="white"/>
</svg>
