<svg width="1920" height="1080" viewBox="0 0 1920 1080" fill="none" xmlns="http://www.w3.org/2000/svg">
<path d="M0 0V299.083L2.24109 297.962L4.58435 296.756L6.90039 295.532L9.18909 294.292L11.4506 293.037L13.6851 291.769L15.8926 290.491L18.0735 289.203L20.2281 287.909L22.3568 286.61L24.4602 285.307L26.5387 284.004L28.5931 282.702L30.624 281.402L32.6323 280.107L34.6189 278.82L40.4581 275.017L42.3682 273.776L44.2621 272.552L46.1412 271.346L48.0071 270.16L49.8611 268.996L51.7048 267.856L53.54 266.741L55.3683 265.652L57.1914 264.592L59.0114 263.561L60.8297 262.561L62.6486 261.593L64.4697 260.658L66.2954 259.757L68.1273 258.891L69.9678 258.06L71.8186 257.265L73.6818 256.507L75.5594 255.785L77.4536 255.1L79.3662 254.452L81.2991 253.841L83.2543 253.265L85.2335 252.725L87.2386 252.22L89.2712 251.749L91.3331 251.311L93.4255 250.904L95.55 250.528L97.708 250.181L99.9004 249.861L102.128 249.565L104.393 249.293L106.694 249.042L109.033 248.809L111.411 248.591L113.826 248.387L116.28 248.194L118.772 248.008L121.302 247.826L129.11 247.276L131.783 247.08L134.488 246.872L137.224 246.648L139.989 246.405L142.781 246.139L145.597 245.847L148.435 245.525L151.291 245.169L154.163 244.776L157.048 244.342L159.942 243.864L162.841 243.34L165.741 242.764L168.639 242.136L171.531 241.451L174.413 240.707L177.279 239.901L180.127 239.033L182.951 238.098L185.747 237.095L188.511 236.024L191.239 234.882L193.926 233.668L196.568 232.381L199.16 231.021L201.699 229.588L204.18 228.081L206.6 226.5L208.954 224.846L211.24 223.119L213.453 221.32L215.591 219.45L217.649 217.51L219.625 215.502L221.516 213.427L223.319 211.287L225.032 209.084L226.653 206.82L228.179 204.497L229.608 202.119L230.939 199.686L232.171 197.202L233.302 194.671L234.331 192.094L235.258 189.475L236.082 186.816L236.804 184.122L237.422 181.394L237.938 178.637L238.351 175.853L238.663 173.047L238.874 170.22L238.986 167.377L239 164.52L238.917 161.653L238.74 158.778L238.469 155.9L238.108 153.021L237.658 150.143L237.122 147.271L236.502 144.406L235.802 141.551L235.023 138.709L234.17 135.882L233.244 133.073L232.249 130.284L231.189 127.516L230.066 124.773L228.883 122.055L227.644 119.364L226.353 116.702L225.012 114.071L223.625 111.472L222.196 108.905L220.727 106.372L219.222 103.873L217.684 101.41L216.116 98.9828L214.522 96.5921L212.903 94.2382L211.264 91.9214L209.607 89.6417L207.934 87.3993L206.249 85.1941L204.553 83.0257L202.85 80.8942L201.141 78.799L199.428 76.7398L197.715 74.716L196.001 72.7272L194.291 70.7727L192.583 68.8518L190.882 66.964L189.187 65.1083L187.5 63.2841L185.823 61.4904L184.156 59.7267L182.499 57.992L180.852 56.2858L179.216 54.6073L177.589 52.9562L175.971 51.3319L174.36 49.7341L172.756 48.1625L171.157 46.617L169.561 45.0976L167.968 43.6042L166.375 42.137L164.781 40.6961L163.186 39.2817L161.588 37.894L159.985 36.5334L158.377 35.2L156.764 33.8942L155.144 32.6161L153.519 31.3657L151.888 30.1431L150.251 28.9482L148.61 27.7807L146.966 26.6401L145.321 25.5258L143.674 24.4373L142.029 23.3737L140.387 22.3342L138.749 21.3178L137.116 20.3237L135.491 19.3506L133.874 18.3974L132.269 17.4627L130.675 16.5453L129.095 15.6437L127.53 14.7564L122.94 12.1636L121.451 11.3167L119.983 10.4754L118.538 9.63803L117.118 8.80252L115.722 7.96707L114.353 7.12961L113.011 6.28836L111.696 5.44138L110.408 4.58664L109.149 3.72238L107.918 2.84659L106.716 1.95761L105.542 1.05368L104.396 0.133026L104.238 0H0Z" fill="#E1E6EB" fill-opacity="0.5"/>
<path d="M949.858 0H1887.08C1905.3 0.219714 1920 15.0583 1920 33.3309V205.197C1920 222.541 1903.28 234.982 1886.67 229.998C1874.5 226.347 1859.34 217.367 1841.76 206.947C1811.17 188.824 1773.23 166.347 1730.9 159.998C1701.37 155.568 1669.7 158.987 1637.79 162.432C1597.66 166.764 1557.14 171.138 1520 159.998C1515.41 158.62 1510.81 157.232 1506.22 155.845C1444.15 137.095 1382.07 118.344 1320 123C1291.88 125.109 1263.75 132.024 1235.63 138.938C1197.08 148.413 1158.54 157.888 1120 154.998C1071.76 151.38 1023.52 118.964 987.91 89.9549C980.767 84.1361 972.614 78.9714 964.445 73.7971C945.697 61.9215 926.87 49.9957 920 29.9975C914.325 13.4766 932.379 0.207687 949.858 0Z" fill="#E1E6EB" fill-opacity="0.5"/>
<path d="M0 1046.66V874.798C0 857.453 16.72 845.013 33.3333 849.997C66.6666 859.997 133.333 879.997 200 889.997C222.222 893.33 244.444 895.552 266.667 897.774C311.111 902.219 355.556 906.663 400 919.997C420.513 926.151 441.026 934.198 461.538 942.245C507.692 960.352 553.846 978.458 600 974.997C630 972.747 660 961.384 690 950.022C726.667 936.134 763.333 922.247 800 924.997C848.24 928.615 896.479 961.03 932.09 990.039C939.233 995.858 947.387 1001.02 955.555 1006.2C974.303 1018.07 993.13 1030 1000 1050C1005.72 1066.65 987.334 1080 969.727 1080H33.3333C14.9238 1080 0 1065.07 0 1046.66Z" fill="#E1E6EB" fill-opacity="0.5"/>
<path d="M319.476 476.471L319.772 475.317L320.098 474.17L320.456 473.03L320.844 471.899L321.263 470.778L321.711 469.667L322.187 468.567L322.692 467.479L323.225 466.404L323.784 465.342L324.37 464.293L324.981 463.259L325.616 462.241L326.275 461.238L326.956 460.251L327.659 459.281L328.383 458.328L329.127 457.393L329.889 456.476L330.669 455.577L331.466 454.697L332.278 453.836L333.104 452.994L333.944 452.172L334.796 451.369L335.658 450.585L336.531 449.821L337.412 449.077L338.301 448.352L339.197 447.646L340.098 446.96L341.003 446.293L341.911 445.645L342.821 445.016L343.732 444.404L344.643 443.811L345.553 443.235L346.461 442.677L347.366 442.135L348.267 441.609L349.163 441.1L350.053 440.605L350.937 440.125L351.814 439.659L352.682 439.206L353.542 438.767L354.393 438.339L355.233 437.923L356.063 437.517L356.883 437.122L357.69 436.736L358.486 436.359L359.27 435.991L360.042 435.629L363.717 433.917L364.416 433.59L365.103 433.267L365.778 432.948L366.443 432.632L367.096 432.318L367.74 432.008L368.373 431.7L368.996 431.395L369.61 431.091L370.216 430.79L370.812 430.49L371.401 430.192L371.983 429.895L372.557 429.6L373.125 429.306L373.686 429.014L374.241 428.723L374.79 428.432L375.334 428.143L375.873 427.855L376.407 427.568L376.937 427.281L377.462 426.994L377.983 426.708L378.499 426.422L379.012 426.135L379.52 425.847L380.024 425.558L380.525 425.268L381.021 424.976L381.514 424.681L382.003 424.384L382.489 424.083L382.971 423.779L383.45 423.471L383.925 423.158L384.398 422.841L384.868 422.519L385.336 422.192L385.801 421.858L386.264 421.519L386.726 421.173L387.186 420.821L387.645 420.462L388.103 420.096L388.561 419.723L389.019 419.342L389.477 418.954L389.936 418.558L390.396 418.155L390.858 417.744L391.321 417.325L391.787 416.898L392.257 416.464L392.729 416.023L393.205 415.574L393.686 415.118L394.171 414.656L396.169 412.744L396.685 412.253L397.208 411.758L397.739 411.258L398.278 410.756L398.826 410.25L399.383 409.743L399.948 409.234L400.523 408.724L401.108 408.215L401.703 407.706L402.308 407.198L402.924 406.693L403.55 406.191L404.187 405.692L404.834 405.199L405.493 404.71L406.162 404.228L406.842 403.753L407.533 403.286L408.234 402.828L408.946 402.381L409.669 401.944L410.402 401.52L411.145 401.109L411.897 400.712L412.659 400.331L413.43 399.966L414.21 399.619L414.998 399.29L415.793 398.981L416.595 398.692L417.404 398.424L418.219 398.179L419.039 397.957L419.863 397.759L420.691 397.585L421.522 397.437L422.356 397.314L423.19 397.218L424.026 397.149L424.861 397.107L425.696 397.092L426.528 397.106L427.358 397.148L428.184 397.219L429.006 397.318L429.823 397.446L430.634 397.602L431.437 397.787L432.233 398.001L433.021 398.243L433.799 398.514L434.567 398.813L435.323 399.14L436.068 399.494L436.801 399.875L437.52 400.283L438.226 400.716L438.917 401.175L439.594 401.657L440.256 402.162L440.903 402.69L441.534 403.238L442.149 403.807L442.748 404.394L443.331 404.999L443.899 405.619L444.45 406.255L444.987 406.904L445.508 407.565L446.014 408.237L446.507 408.918L446.985 409.607L447.45 410.303L447.903 411.004L448.345 411.709L448.775 412.417L449.195 413.126L449.606 413.835L450.009 414.544L450.405 415.25L450.795 415.953L451.18 416.652L451.939 418.034L452.315 418.716L452.691 419.391L453.067 420.058L453.445 420.716L453.826 421.366L454.21 422.007L454.599 422.639L454.994 423.261L455.396 423.874L455.806 424.478L456.224 425.072L456.651 425.658L457.088 426.235L457.536 426.804L457.995 427.364L458.465 427.918L458.948 428.465L459.443 429.006L459.95 429.541L460.47 430.072L461.003 430.599L461.549 431.123L462.107 431.644L462.677 432.165L463.26 432.685L463.854 433.205L464.459 433.727L465.075 434.251L465.701 434.779L466.337 435.31L468.292 436.937L468.957 437.493L469.626 438.057L470.3 438.631L470.976 439.213L471.653 439.807L472.331 440.411L473.008 441.026L473.682 441.654L474.353 442.293L475.02 442.946L475.68 443.611L476.332 444.29L476.976 444.983L477.61 445.689L478.233 446.408L478.843 447.142L479.44 447.889L480.021 448.649L480.587 449.423L481.136 450.21L481.667 451.01L482.18 451.823L482.673 452.647L483.146 453.483L483.597 454.331L484.027 455.189L484.434 456.058L484.818 456.936L485.178 457.824L485.513 458.72L485.823 459.625L486.108 460.536L486.366 461.454L486.598 462.379L486.803 463.308L486.981 464.242L487.131 465.18L487.254 466.121L487.349 467.065L487.415 468.01L487.454 468.956L487.464 469.902L487.447 470.847L487.401 471.791L487.328 472.733L487.227 473.673L487.099 474.608L486.944 475.54L486.761 476.466L486.553 477.387L486.318 478.302L486.058 479.21L485.773 480.111L485.463 481.004L485.13 481.888L484.773 482.763L484.394 483.629L483.993 484.485L483.57 485.331L483.128 486.166L482.665 486.99L482.183 487.802L481.684 488.603L481.167 489.393L480.633 490.17L480.084 490.935L479.52 491.688L478.942 492.429L478.351 493.157L477.747 493.873L477.133 494.576L476.507 495.268L475.872 495.947L475.228 496.614L474.575 497.269L473.915 497.913L473.248 498.544L472.573 499.164L471.893 499.772L471.207 500.369L470.515 500.954L469.819 501.528L469.117 502.09L468.411 502.641L467.701 503.18L466.986 503.709L466.267 504.226L465.545 504.731L464.819 505.225L464.09 505.708L463.358 506.18L462.623 506.64L461.885 507.09L461.145 507.528L460.402 507.955L459.657 508.371L458.91 508.776L458.162 509.17L457.412 509.553L456.661 509.927L455.909 510.289L455.157 510.642L454.405 510.985L453.653 511.319L452.901 511.643L452.15 511.959L451.4 512.267L450.652 512.567L449.906 512.86L449.162 513.146L448.421 513.426L447.683 513.701L446.948 513.97L446.216 514.236L445.488 514.497L444.764 514.756L442.617 515.519L441.91 515.772L441.207 516.024L440.508 516.277L439.814 516.53L439.124 516.786L438.438 517.043L437.757 517.303L437.078 517.566L436.404 517.832L435.733 518.102L435.065 518.376L434.4 518.655L433.737 518.938L433.077 519.226L432.418 519.519L431.761 519.818L431.105 520.122L430.45 520.431L429.795 520.746L429.139 521.066L428.483 521.392L427.827 521.723L427.168 522.059L426.508 522.4L425.845 522.745L425.18 523.095L424.511 523.449L423.839 523.807L421.106 525.268L420.41 525.638L419.708 526.01L419 526.381L418.286 526.753L417.565 527.125L416.837 527.495L416.102 527.863L415.36 528.229L414.611 528.591L413.854 528.951L413.089 529.306L412.317 529.657L411.536 530.003L410.748 530.343L409.952 530.679L409.148 531.008L408.337 531.331L407.517 531.649L406.689 531.959L405.853 532.264L405.01 532.561L404.158 532.852L403.298 533.137L402.431 533.414L401.555 533.685L400.671 533.948L399.779 534.205L398.879 534.454L397.97 534.696L397.054 534.932L396.129 535.159L395.196 535.38L394.255 535.593L393.305 535.798L392.348 535.995L391.381 536.184L390.407 536.365L389.424 536.537L388.434 536.7L387.435 536.854L386.428 536.998L385.413 537.132L384.39 537.255L383.36 537.366L382.323 537.465L381.279 537.552L380.229 537.625L379.172 537.685L378.109 537.729L377.041 537.759L375.968 537.773L374.89 537.771L373.808 537.751L372.722 537.715L371.633 537.66L370.541 537.588L369.447 537.497L368.351 537.386L367.254 537.257L366.157 537.107L365.059 536.938L363.962 536.748L362.865 536.538L361.77 536.307L360.678 536.055L359.588 535.781L358.5 535.487L357.417 535.171L356.338 534.834L355.264 534.475L354.195 534.095L353.132 533.693L352.076 533.27L351.026 532.825L349.984 532.359L348.95 531.871L347.924 531.363L346.907 530.833L345.9 530.282L344.903 529.711L343.916 529.119L342.94 528.506L341.975 527.874L341.023 527.221L340.082 526.549L339.155 525.857L338.241 525.146L337.34 524.416L336.454 523.667L335.582 522.899L334.726 522.114L333.885 521.31L333.059 520.489L332.251 519.651L331.459 518.795L330.684 517.923L329.927 517.035L329.188 516.131L328.468 515.211L327.767 514.275L327.086 513.325L326.426 512.36L325.786 511.38L325.168 510.386L324.572 509.379L323.999 508.357L323.45 507.323L322.925 506.277L322.424 505.217L321.95 504.147L321.501 503.064L321.079 501.971L320.684 500.868L320.317 499.754L319.979 498.632L319.67 497.5L319.39 496.361L319.141 495.214L318.922 494.061L318.734 492.901L318.577 491.736L318.452 490.567L318.358 489.394L318.297 488.218L318.268 487.039L318.272 485.859L318.309 484.679L318.378 483.499L318.48 482.32L318.614 481.143L318.781 479.969L318.981 478.798L319.212 477.632L319.476 476.471Z" fill="#E1E6EB" fill-opacity="0.5"/>
<path d="M1526.93 484.997L1524.9 485.01L1522.87 485.109L1520.85 485.293L1518.83 485.562L1516.82 485.913L1514.82 486.346L1512.83 486.857L1510.86 487.446L1508.9 488.109L1506.97 488.844L1505.05 489.648L1503.15 490.517L1501.27 491.449L1499.42 492.44L1497.59 493.486L1495.79 494.583L1494.02 495.728L1492.27 496.917L1490.55 498.145L1488.85 499.409L1487.18 500.704L1485.54 502.027L1483.93 503.373L1482.34 504.739L1480.78 506.12L1479.24 507.513L1477.72 508.914L1476.23 510.32L1474.76 511.726L1473.31 513.131L1471.88 514.53L1470.46 515.921L1467.68 518.666L1466.3 520.016L1464.94 521.347L1463.59 522.658L1462.24 523.948L1460.9 525.214L1459.56 526.455L1458.22 527.671L1456.89 528.86L1455.55 530.022L1454.21 531.156L1452.86 532.263L1451.51 533.341L1450.15 534.392L1448.78 535.417L1447.4 536.414L1446.01 537.386L1444.6 538.333L1443.19 539.256L1441.75 540.156L1440.31 541.035L1438.85 541.895L1437.37 542.736L1435.88 543.56L1434.37 544.37L1432.85 545.167L1431.3 545.952L1429.75 546.728L1428.17 547.496L1426.58 548.258L1424.98 549.016L1423.36 549.77L1421.72 550.522L1420.07 551.273L1418.4 552.024L1416.71 552.776L1415.01 553.529L1413.29 554.284L1411.55 555.042L1409.79 555.804L1408.01 556.57L1406.22 557.341L1404.4 558.117L1391.12 563.772L1389.14 564.621L1387.14 565.484L1385.11 566.36L1383.06 567.252L1381 568.161L1378.91 569.087L1376.8 570.032L1374.68 570.997L1372.53 571.984L1370.37 572.994L1368.19 574.027L1366 575.086L1363.79 576.171L1361.57 577.284L1359.34 578.426L1357.1 579.598L1354.85 580.801L1352.59 582.036L1350.33 583.306L1348.06 584.609L1345.8 585.948L1343.53 587.324L1341.27 588.738L1339.01 590.189L1336.75 591.68L1334.51 593.21L1332.28 594.781L1330.06 596.393L1327.86 598.046L1325.67 599.741L1323.51 601.478L1321.36 603.258L1319.25 605.08L1317.16 606.944L1315.1 608.851L1313.08 610.8L1311.09 612.792L1309.13 614.825L1307.22 616.899L1305.35 619.015L1303.52 621.17L1301.74 623.365L1300.01 625.599L1298.33 627.871L1296.7 630.179L1295.12 632.524L1293.61 634.903L1292.15 637.317L1290.75 639.762L1289.41 642.239L1288.13 644.746L1286.92 647.281L1285.77 649.842L1284.69 652.43L1283.68 655.041L1282.74 657.674L1281.87 660.328L1281.07 663.001L1280.34 665.691L1279.68 668.396L1279.09 671.115L1278.58 673.847L1278.13 676.588L1277.76 679.338L1277.47 682.095L1277.24 684.858L1277.09 687.623L1277.01 690.391L1277 693.158L1277.06 695.924L1277.19 698.687L1277.39 701.446L1277.66 704.198L1277.99 706.943L1278.39 709.679L1278.85 712.405L1279.37 715.12L1279.95 717.824L1280.59 720.515L1281.27 723.193L1282.01 725.858L1282.79 728.509L1283.61 731.147L1284.46 733.772L1285.36 736.383L1286.28 738.982L1287.23 741.569L1288.21 744.145L1289.21 746.71L1290.22 749.266L1291.25 751.814L1292.3 754.354L1293.35 756.888L1294.41 759.417L1295.48 761.942L1296.55 764.464L1297.63 766.984L1307.43 789.714L1308.53 792.256L1309.64 794.802L1310.76 797.352L1311.89 799.906L1313.02 802.463L1314.17 805.022L1315.34 807.584L1316.52 810.147L1317.72 812.709L1318.94 815.27L1320.18 817.829L1321.44 820.383L1322.73 822.932L1324.05 825.473L1325.41 828.004L1326.79 830.524L1328.21 833.031L1329.66 835.521L1331.15 837.994L1332.68 840.446L1334.25 842.876L1335.87 845.28L1337.53 847.656L1339.23 850.002L1340.98 852.315L1342.78 854.593L1344.62 856.833L1346.51 859.033L1348.45 861.191L1350.44 863.303L1352.48 865.368L1354.57 867.384L1356.7 869.348L1358.88 871.258L1361.11 873.113L1363.39 874.911L1365.71 876.65L1368.08 878.328L1370.49 879.945L1372.94 881.498L1375.43 882.987L1377.96 884.411L1380.52 885.769L1383.13 887.061L1385.76 888.285L1388.43 889.442L1391.13 890.531L1393.86 891.552L1396.61 892.506L1399.39 893.392L1402.18 894.211L1405 894.964L1407.84 895.65L1410.69 896.272L1413.56 896.829L1416.43 897.322L1419.32 897.753L1422.21 898.123L1425.11 898.432L1428.02 898.683L1430.92 898.876L1433.83 899.012L1436.73 899.094L1439.64 899.122L1442.53 899.098L1445.43 899.022L1448.31 898.895L1451.19 898.718L1454.06 898.492L1456.92 898.218L1459.76 897.896L1462.6 897.526L1465.42 897.11L1468.23 896.649L1471.02 896.141L1473.8 895.588L1476.56 894.991L1479.31 894.35L1482.03 893.665L1484.74 892.938L1487.43 892.168L1490.09 891.358L1492.74 890.508L1495.36 889.619L1497.96 888.693L1500.54 887.731L1503.09 886.736L1505.62 885.708L1508.12 884.65L1510.6 883.562L1513.05 882.448L1515.47 881.308L1517.87 880.144L1520.24 878.959L1522.58 877.753L1524.9 876.529L1527.19 875.289L1529.45 874.034L1531.69 872.766L1533.89 871.487L1536.07 870.2L1538.23 868.906L1540.36 867.606L1542.46 866.304L1544.54 865.001L1546.59 863.698L1548.62 862.399L1550.63 861.104L1552.62 859.816L1558.46 856.014L1560.37 854.773L1562.26 853.549L1564.14 852.343L1566.01 851.157L1567.86 849.993L1569.7 848.853L1571.54 847.738L1573.37 846.649L1575.19 845.589L1577.01 844.558L1578.83 843.558L1580.65 842.59L1582.47 841.655L1584.3 840.754L1586.13 839.888L1587.97 839.057L1589.82 838.262L1591.68 837.504L1593.56 836.782L1595.45 836.097L1597.37 835.449L1599.3 834.837L1601.25 834.262L1603.23 833.722L1605.24 833.217L1607.27 832.746L1609.33 832.307L1611.43 831.901L1613.55 831.525L1615.71 831.178L1617.9 830.857L1620.13 830.562L1622.39 830.29L1624.69 830.038L1627.03 829.805L1629.41 829.588L1631.83 829.384L1634.28 829.19L1636.77 829.004L1639.3 828.823L1647.11 828.273L1649.78 828.076L1652.49 827.868L1655.22 827.645L1657.99 827.402L1660.78 827.136L1663.6 826.844L1666.43 826.521L1669.29 826.166L1672.16 825.772L1675.05 825.339L1677.94 824.861L1680.84 824.336L1683.74 823.761L1686.64 823.132L1689.53 822.447L1692.41 821.703L1695.28 820.898L1698.13 820.029L1700.95 819.094L1703.75 818.092L1706.51 817.021L1709.24 815.878L1711.93 814.665L1714.57 813.378L1717.16 812.018L1719.7 810.585L1722.18 809.078L1724.6 807.497L1726.95 805.843L1729.24 804.116L1731.45 802.317L1733.59 800.447L1735.65 798.507L1737.63 796.499L1739.52 794.424L1741.32 792.284L1743.03 790.081L1744.65 787.817L1746.18 785.494L1747.61 783.115L1748.94 780.683L1750.17 778.199L1751.3 775.667L1752.33 773.09L1753.26 770.471L1754.08 767.813L1754.8 765.118L1755.42 762.391L1755.94 759.634L1756.35 756.85L1756.66 754.043L1756.87 751.217L1756.99 748.373L1757 745.517L1756.92 742.649L1756.74 739.775L1756.47 736.897L1756.11 734.018L1755.66 731.14L1755.12 728.268L1754.5 725.402L1753.8 722.548L1753.02 719.706L1752.17 716.879L1751.24 714.07L1750.25 711.28L1749.19 708.513L1748.07 705.769L1746.88 703.051L1745.64 700.361L1744.35 697.699L1743.01 695.068L1741.63 692.468L1740.2 689.901L1738.73 687.368L1737.22 684.87L1735.68 682.407L1734.12 679.979L1732.52 677.589L1730.9 675.235L1729.26 672.918L1727.61 670.638L1725.93 668.396L1724.25 666.191L1722.55 664.022L1720.85 661.891L1719.14 659.796L1717.43 657.736L1715.71 655.713L1714 653.724L1712.29 651.769L1710.58 649.849L1708.88 647.961L1707.19 646.105L1705.5 644.281L1703.82 642.487L1702.16 640.723L1700.5 638.989L1698.85 637.282L1697.22 635.604L1695.59 633.953L1693.97 632.329L1692.36 630.731L1690.76 629.159L1689.16 627.614L1687.56 626.094L1685.97 624.601L1684.38 623.134L1682.78 621.693L1681.19 620.278L1679.59 618.891L1677.98 617.53L1676.38 616.197L1674.76 614.891L1673.14 613.613L1671.52 612.362L1669.89 611.14L1668.25 609.945L1666.61 608.777L1664.97 607.637L1663.32 606.523L1661.67 605.434L1660.03 604.37L1658.39 603.331L1656.75 602.315L1655.12 601.32L1653.49 600.347L1651.87 599.394L1650.27 598.459L1648.67 597.542L1647.09 596.64L1645.53 595.753L1640.94 593.16L1639.45 592.313L1637.98 591.472L1636.54 590.635L1635.12 589.799L1633.72 588.964L1632.35 588.126L1631.01 587.285L1629.7 586.438L1628.41 585.583L1627.15 584.719L1625.92 583.843L1624.72 582.954L1623.54 582.05L1622.4 581.13L1621.28 580.191L1620.19 579.232L1619.12 578.252L1618.09 577.249L1617.07 576.223L1616.09 575.171L1615.12 574.093L1614.18 572.989L1613.25 571.857L1612.35 570.697L1611.46 569.509L1610.59 568.291L1609.73 567.044L1608.89 565.769L1608.05 564.464L1607.23 563.13L1606.41 561.768L1605.59 560.378L1604.78 558.96L1603.97 557.516L1603.16 556.047L1602.34 554.552L1601.52 553.034L1600.7 551.494L1598.16 546.75L1597.28 545.133L1596.4 543.5L1595.49 541.854L1594.57 540.195L1593.63 538.525L1592.66 536.846L1591.68 535.16L1590.67 533.467L1589.64 531.771L1588.58 530.071L1587.49 528.371L1586.38 526.671L1585.24 524.972L1584.07 523.277L1582.88 521.586L1581.65 519.902L1580.4 518.225L1579.11 516.559L1577.79 514.905L1576.45 513.266L1575.07 511.645L1573.65 510.043L1572.21 508.464L1570.73 506.911L1569.22 505.386L1567.68 503.892L1566.11 502.433L1564.5 501.01L1562.86 499.629L1561.19 498.29L1559.49 496.998L1557.75 495.755L1555.99 494.564L1554.2 493.429L1552.38 492.352L1550.54 491.337L1548.67 490.387L1546.78 489.506L1544.86 488.695L1542.92 487.959L1540.97 487.3L1539 486.72L1537.01 486.221L1535.01 485.806L1533 485.475L1530.98 485.229L1528.96 485.07L1526.93 484.997Z" fill="#E1E6EB" fill-opacity="0.5"/>
</svg>
