<svg width="168" height="112" viewBox="0 0 168 112" fill="none" xmlns="http://www.w3.org/2000/svg">
<path d="M0 16C0 7.16344 7.16344 0 16 0H160C164.418 0 168 3.58172 168 8V96C168 104.837 160.837 112 152 112H8C3.58172 112 0 108.418 0 104V16Z" fill="#E1E6EB"/>
<path fill-rule="evenodd" clip-rule="evenodd" d="M47.3293 59.5868C47.3293 60.3867 47.1258 61.1217 46.7188 61.7931C46.3119 62.4646 45.7119 62.9996 44.9199 63.3995C44.1275 63.7995 43.1671 63.9995 42.0391 63.9995C40.3397 63.9995 38.9408 63.5855 37.8414 62.7571C36.742 61.9291 36.142 60.7722 36.0425 59.2873H39.9403C39.9972 59.8588 40.2012 60.3082 40.5507 60.6367C40.9007 60.9652 41.3467 61.1292 41.8896 61.1292C42.3611 61.1292 42.7321 61.0007 43.0036 60.7437C43.275 60.4867 43.41 60.1437 43.41 59.7158C43.41 59.3303 43.2851 59.0093 43.0356 58.7518C42.7856 58.4948 42.4751 58.2844 42.1041 58.1204C41.7326 57.9559 41.2187 57.7599 40.5622 57.5309C39.6053 57.2029 38.8233 56.8849 38.2169 56.578C37.6099 56.271 37.0889 55.814 36.6535 55.2071C36.218 54.6001 36 53.8111 36 52.8402C36 51.9408 36.2285 51.1623 36.6855 50.5053C37.1424 49.8489 37.7744 49.3454 38.5808 48.9954C39.3878 48.646 40.3122 48.4705 41.3547 48.4705C43.0396 48.4705 44.378 48.8704 45.3704 49.6699C46.3629 50.4698 46.9233 51.5688 47.0518 52.9682H43.0896C43.0181 52.4682 42.8361 52.0722 42.5431 51.7798C42.2506 51.4868 41.8541 51.3408 41.3547 51.3408C40.9262 51.3408 40.5797 51.4548 40.3157 51.6833C40.0517 51.9118 39.9198 52.2472 39.9198 52.6897C39.9198 53.0467 40.0372 53.3502 40.2727 53.5997C40.5087 53.8496 40.8047 54.0531 41.1617 54.2101C41.5187 54.3671 42.0326 54.5671 42.7041 54.8101C43.6745 55.1386 44.4675 55.4635 45.0814 55.7845C45.6954 56.106 46.2239 56.5735 46.6663 57.1874C47.1088 57.8019 47.3303 58.6013 47.3303 59.5863L47.3293 59.5868ZM123.621 51.7478C124.534 51.7478 125.319 51.9548 125.976 52.3692C126.633 52.7837 127.111 53.3477 127.411 54.0611V48H131.074V63.849H127.411V61.6856C127.111 62.3996 126.633 62.9636 125.976 63.378C125.319 63.792 124.534 63.9995 123.621 63.9995C122.635 63.9995 121.753 63.753 120.975 63.2606C120.197 62.7681 119.583 62.0576 119.133 61.1292C118.684 60.2012 118.459 59.1158 118.459 57.8739C118.459 56.6175 118.684 55.5285 119.133 54.6081C119.583 53.6871 120.197 52.9802 120.975 52.4877C121.754 51.9953 122.635 51.7488 123.621 51.7488V51.7478ZM124.798 54.9606C124.014 54.9606 123.381 55.2175 122.903 55.7315C122.425 56.2455 122.186 56.9594 122.186 57.8734C122.186 58.7873 122.425 59.5013 122.903 60.0153C123.382 60.5292 124.014 60.7862 124.798 60.7862C125.57 60.7862 126.201 60.5222 126.694 59.9938C127.186 59.4658 127.433 58.7588 127.433 57.8734C127.433 56.9739 127.186 56.2635 126.694 55.7425C126.201 55.2216 125.569 54.9606 124.798 54.9606ZM113.426 54.1466C113.883 53.4182 114.472 52.8402 115.193 52.4117C115.914 51.9833 116.695 51.7693 117.538 51.7693V55.6885H116.488C115.518 55.6885 114.765 55.8955 114.229 56.31C113.693 56.724 113.426 57.4239 113.426 58.4088V63.849H109.763V51.8978H113.426V54.1466ZM107.857 57.5519C107.857 57.8519 107.822 58.1804 107.75 58.5368H99.461C99.504 59.4363 99.7325 60.0828 100.146 60.4752C100.56 60.8677 101.089 61.0642 101.731 61.0642C102.274 61.0642 102.724 60.9287 103.08 60.6567C103.437 60.3857 103.673 60.0357 103.787 59.6078H107.664C107.507 60.4502 107.164 61.2032 106.636 61.8671C106.108 62.5311 105.436 63.0521 104.622 63.431C103.808 63.8095 102.902 63.9985 101.902 63.9985C100.731 63.9985 99.6925 63.752 98.7861 63.2595C97.8796 62.7671 97.1692 62.0566 96.6552 61.1282C96.1412 60.2002 95.8843 59.1148 95.8843 57.8729C95.8843 56.6165 96.1377 55.5275 96.6442 54.6071C97.1512 53.6861 97.8616 52.9792 98.7756 52.4867C99.6895 51.9943 100.731 51.7478 101.902 51.7478C103.087 51.7478 104.13 51.9908 105.029 52.4762C105.929 52.9617 106.625 53.6436 107.118 54.5216C107.61 55.3995 107.857 56.4095 107.857 57.5519ZM104.152 56.9949C104.166 56.21 103.955 55.6205 103.52 55.228C103.085 54.8356 102.546 54.6391 101.903 54.6391C101.232 54.6391 100.675 54.8391 100.233 55.2391C99.79 55.6385 99.5405 56.224 99.483 56.9954L104.152 56.9949ZM89.6092 51.7693C90.9801 51.7693 92.0685 52.2262 92.875 53.1397C93.6819 54.0536 94.0849 55.31 94.0849 56.9094V63.849H90.4226V57.3379C90.4226 56.538 90.2116 55.9135 89.7901 55.464C89.3687 55.0141 88.8087 54.7891 88.1092 54.7891C87.3668 54.7891 86.7778 55.0251 86.3424 55.496C85.9069 55.9675 85.6889 56.6385 85.6889 57.5094V63.849H82.0266V51.8978H85.6889V54.0821C86.0314 53.3682 86.5418 52.8042 87.2203 52.3897C87.8988 51.9758 88.6952 51.7693 89.6092 51.7693ZM72.0462 51.7478C72.9602 51.7478 73.7451 51.9548 74.4021 52.3692C75.0586 52.7837 75.544 53.3477 75.8585 54.0611V51.8983H79.4998V63.8495H75.8585V61.6862C75.544 62.4001 75.0586 62.9641 74.4021 63.3785C73.7451 63.7925 72.9597 64 72.0462 64C71.0613 64 70.1789 63.7535 69.4009 63.2611C68.623 62.7686 68.009 62.0581 67.559 61.1297C67.1096 60.2017 66.8846 59.1163 66.8846 57.8744C66.8846 56.618 67.1096 55.529 67.559 54.6086C68.009 53.6876 68.623 52.9807 69.4009 52.4882C70.1789 51.9957 71.0608 51.7493 72.0462 51.7493V51.7478ZM73.2242 54.9606C72.4392 54.9606 71.8068 55.2175 71.3288 55.7315C70.8503 56.2455 70.6113 56.9594 70.6113 57.8734C70.6113 58.7873 70.8503 59.5013 71.3288 60.0153C71.8068 60.5292 72.4392 60.7862 73.2242 60.7862C73.9951 60.7862 74.6271 60.5222 75.1196 59.9938C75.612 59.4658 75.8585 58.7588 75.8585 57.8734C75.8585 56.9739 75.612 56.2635 75.1196 55.7425C74.6266 55.2216 73.9951 54.9606 73.2242 54.9606ZM61.8509 54.1466C62.3079 53.4182 62.8968 52.8402 63.6178 52.4117C64.3392 51.9833 65.1207 51.7693 65.9631 51.7693V55.6885H64.9137C63.9423 55.6885 63.1893 55.8955 62.6538 56.31C62.1189 56.724 61.8509 57.4239 61.8509 58.4088V63.849H58.1886V51.8978H61.8509V54.1466ZM56.1327 60.7002V63.849H54.4833C53.0839 63.849 51.995 63.5025 51.217 62.8101C50.4391 62.1176 50.0501 60.9717 50.0501 59.3723V54.9821H48.4437V51.8978H50.0501V48.9634H53.7124V51.8978H56.1112V54.9821H53.7124V59.4368C53.7124 59.9083 53.8089 60.2367 54.0014 60.4217C54.1944 60.6072 54.5188 60.7002 54.9763 60.7002H56.1327Z" fill="#78828C" fill-opacity="0.1"/>
</svg>
