<svg width="44" height="44" viewBox="0 0 44 44" fill="none" xmlns="http://www.w3.org/2000/svg">
<rect width="44" height="44" rx="8" fill="#FA9632"/>
<path fill-rule="evenodd" clip-rule="evenodd" d="M17.9451 12.25H26.0549C27.4225 12.25 28.5248 12.25 29.3918 12.3665C30.2919 12.4875 31.0497 12.7464 31.6517 13.3484C32.2536 13.9503 32.5125 14.7081 32.6335 15.6083C32.75 16.4752 32.75 17.5775 32.75 18.9451V20.0549C32.75 21.4225 32.75 22.5248 32.6335 23.3918C32.5125 24.2919 32.2536 25.0497 31.6517 25.6517C31.0497 26.2536 30.2919 26.5125 29.3918 26.6335C28.5248 26.75 27.4225 26.75 26.0549 26.75H22.75V28.4594L28.2372 30.2885C28.6301 30.4195 28.8425 30.8442 28.7115 31.2372C28.5805 31.6301 28.1558 31.8425 27.7628 31.7115L22 29.7906L16.2372 31.7115C15.8442 31.8425 15.4195 31.6301 15.2885 31.2372C15.1575 30.8442 15.3699 30.4195 15.7628 30.2885L21.25 28.4594V26.75H17.9451C16.5775 26.75 15.4752 26.75 14.6082 26.6335C13.7081 26.5125 12.9503 26.2536 12.3484 25.6517C11.7464 25.0497 11.4875 24.2919 11.3665 23.3918C11.25 22.5248 11.25 21.4225 11.25 20.0549V18.9451C11.25 17.5775 11.25 16.4752 11.3665 15.6082C11.4875 14.7081 11.7464 13.9503 12.3484 13.3484C12.9503 12.7464 13.7081 12.4875 14.6082 12.3665C15.4752 12.25 16.5775 12.25 17.9451 12.25ZM14.8081 13.8531C14.0743 13.9518 13.6858 14.1322 13.409 14.409C13.1322 14.6858 12.9518 15.0743 12.8531 15.8081C12.7516 16.5635 12.75 17.5646 12.75 19V20C12.75 21.4354 12.7516 22.4365 12.8531 23.1919C12.9518 23.9257 13.1322 24.3142 13.409 24.591C13.6858 24.8678 14.0743 25.0482 14.8081 25.1469C15.5635 25.2484 16.5646 25.25 18 25.25H26C27.4354 25.25 28.4365 25.2484 29.1919 25.1469C29.9257 25.0482 30.3142 24.8678 30.591 24.591C30.8678 24.3142 31.0482 23.9257 31.1469 23.1919C31.2484 22.4365 31.25 21.4354 31.25 20V19C31.25 17.5646 31.2484 16.5635 31.1469 15.8081C31.0482 15.0743 30.8678 14.6858 30.591 14.409C30.3142 14.1322 29.9257 13.9518 29.1919 13.8531C28.4365 13.7516 27.4354 13.75 26 13.75H18C16.5646 13.75 15.5635 13.7516 14.8081 13.8531Z" fill="white"/>
</svg>
