<svg width="96" height="16" viewBox="0 0 96 16" fill="#3219AF" xmlns="http://www.w3.org/2000/svg">
<path fill-rule="evenodd" clip-rule="evenodd" d="M11.3299 11.5868C11.3299 12.3867 11.1264 13.1217 10.7194 13.7931C10.3125 14.4646 9.71251 14.9996 8.92056 15.3995C8.12811 15.7995 7.16766 15.9995 6.03973 15.9995C4.34034 15.9995 2.94142 15.5855 1.84199 14.7571C0.742561 13.9291 0.1426 12.7722 0.0431058 11.2873H3.94086C3.99786 11.8588 4.20185 12.3082 4.55133 12.6367C4.90131 12.9652 5.34728 13.1292 5.89024 13.1292C6.36171 13.1292 6.73269 13.0007 7.00417 12.7437C7.27565 12.4867 7.41065 12.1437 7.41065 11.7158C7.41065 11.3303 7.28566 11.0093 7.03618 10.7518C6.78619 10.4948 6.47571 10.2844 6.10473 10.1204C5.73326 9.95588 5.21928 9.75989 4.56282 9.5309C3.60588 9.20292 2.82394 8.88495 2.21748 8.57797C1.61052 8.27099 1.08955 7.81401 0.654075 7.20705C0.218602 6.60009 0.000610352 5.81114 0.000610352 4.8402C0.000610352 3.94075 0.229097 3.1623 0.686069 2.50534C1.14304 1.84888 1.775 1.34542 2.58145 0.995437C3.3884 0.645959 4.31284 0.470472 5.35528 0.470472C7.04017 0.470472 8.37859 0.870449 9.37103 1.6699C10.3635 2.46985 10.9239 3.56878 11.0524 4.96819H7.09016C7.01867 4.46822 6.83669 4.07225 6.54371 3.77977C6.25123 3.48678 5.85475 3.34079 5.35528 3.34079C4.9268 3.34079 4.58032 3.45479 4.31634 3.68327C4.05235 3.91176 3.92037 4.24724 3.92037 4.68971C3.92037 5.04669 4.03786 5.35017 4.27334 5.59965C4.50933 5.84964 4.80531 6.05312 5.16229 6.21011C5.51927 6.3671 6.03323 6.56709 6.70469 6.81007C7.67513 7.13855 8.46808 7.46353 9.08204 7.78451C9.696 8.10599 10.2245 8.57347 10.6669 9.18743C11.1094 9.80189 11.3309 10.6013 11.3309 11.5863L11.3299 11.5868ZM87.6211 3.74777C88.5351 3.74777 89.32 3.95476 89.977 4.36923C90.6334 4.78371 91.1119 5.34767 91.4119 6.06112V0H95.0747V15.849H91.4119V13.6856C91.1119 14.3996 90.6339 14.9636 89.977 15.378C89.32 15.792 88.5346 15.9995 87.6211 15.9995C86.6357 15.9995 85.7538 15.753 84.9758 15.2606C84.1979 14.7681 83.5839 14.0576 83.1339 13.1292C82.6845 12.2012 82.4595 11.1158 82.4595 9.87388C82.4595 8.61746 82.6845 7.52853 83.1339 6.60809C83.5839 5.68714 84.1979 4.98019 84.9758 4.48772C85.7543 3.99525 86.6357 3.74877 87.6211 3.74877V3.74777ZM88.7991 6.96057C88.0141 6.96057 87.3817 7.21755 86.9037 7.73152C86.4257 8.24548 86.1862 8.95944 86.1862 9.87338C86.1862 10.7873 86.4252 11.5013 86.9037 12.0153C87.3821 12.5292 88.0141 12.7862 88.7991 12.7862C89.5705 12.7862 90.202 12.5222 90.6945 11.9938C91.1869 11.4658 91.4334 10.7588 91.4334 9.87338C91.4334 8.97394 91.1869 8.26349 90.6945 7.74252C90.202 7.22155 89.57 6.96057 88.7991 6.96057ZM77.4263 6.14662C77.8832 5.41817 78.4722 4.8402 79.1932 4.41173C79.9141 3.98325 80.6961 3.76926 81.5385 3.76926V7.68852H80.4891C79.5181 7.68852 78.7652 7.89551 78.2292 8.30999C77.6938 8.72396 77.4263 9.42391 77.4263 10.4088V15.849H73.764V3.89776H77.4263V6.14662ZM71.8576 9.55191C71.8576 9.85189 71.8221 10.1804 71.7501 10.5368H63.4616C63.5046 11.4363 63.7331 12.0828 64.1471 12.4752C64.5611 12.8677 65.0896 13.0642 65.732 13.0642C66.2745 13.0642 66.7244 12.9287 67.0809 12.6567C67.4379 12.3857 67.6734 12.0357 67.7879 11.6078H71.6641C71.5072 12.4502 71.1642 13.2032 70.6362 13.8671C70.1082 14.5311 69.4368 15.0521 68.6228 15.431C67.8089 15.8095 66.9024 15.9985 65.903 15.9985C64.7321 15.9985 63.6931 15.752 62.7867 15.2595C61.8802 14.7671 61.1698 14.0566 60.6558 13.1282C60.1419 12.2002 59.8849 11.1148 59.8849 9.87289C59.8849 8.61647 60.1384 7.52753 60.6448 6.60709C61.1518 5.68615 61.8622 4.97919 62.7762 4.48672C63.6901 3.99425 64.7321 3.74777 65.903 3.74777C67.0879 3.74777 68.1304 3.99075 69.0298 4.47622C69.9293 4.96169 70.6252 5.64365 71.1182 6.52159C71.6106 7.39954 71.8571 8.40948 71.8571 9.55191H71.8576ZM68.1524 8.99494C68.1664 8.20999 67.9559 7.62052 67.5209 7.22805C67.0854 6.83557 66.5465 6.63909 65.904 6.63909C65.2325 6.63909 64.6761 6.83908 64.2336 7.23905C63.7906 7.63853 63.5411 8.22399 63.4837 8.99544H68.1529L68.1524 8.99494ZM53.6098 3.76926C54.9807 3.76926 56.0691 4.22624 56.8756 5.13968C57.6825 6.05362 58.0855 7.31004 58.0855 8.90944V15.849H54.4232V9.33792C54.4232 8.53797 54.2122 7.91351 53.7908 7.46403C53.3693 7.01406 52.8093 6.78908 52.1099 6.78908C51.3674 6.78908 50.7784 7.02506 50.343 7.49603C49.9075 7.9675 49.6895 8.63846 49.6895 9.50941V15.849H46.0272V3.89776H49.6895V6.08212C50.032 5.36816 50.5425 4.8042 51.2209 4.38973C51.8994 3.97575 52.6953 3.76876 53.6093 3.76876L53.6098 3.76926ZM36.0469 3.74777C36.9608 3.74777 37.7458 3.95476 38.4027 4.36923C39.0592 4.78371 39.5446 5.34767 39.8591 6.06112V3.89826H43.5004V15.8495H39.8591V13.6862C39.5446 14.4001 39.0592 14.9641 38.4027 15.3785C37.7458 15.7925 36.9603 16 36.0469 16C35.0619 16 34.1795 15.7535 33.4015 15.2611C32.6236 14.7686 32.0096 14.0581 31.5596 13.1297C31.1102 12.2017 30.8852 11.1163 30.8852 9.87438C30.8852 8.61796 31.1102 7.52903 31.5596 6.60859C32.0096 5.68764 32.6236 4.98069 33.4015 4.48822C34.1795 3.99575 35.0614 3.74927 36.0469 3.74927V3.74777ZM37.2248 6.96057C36.4398 6.96057 35.8074 7.21755 35.3294 7.73152C34.8509 8.24548 34.612 8.95944 34.612 9.87338C34.612 10.7873 34.8509 11.5013 35.3294 12.0153C35.8074 12.5292 36.4398 12.7862 37.2248 12.7862C37.9957 12.7862 38.6277 12.5222 39.1202 11.9938C39.6126 11.4658 39.8591 10.7588 39.8591 9.87338C39.8591 8.97394 39.6126 8.26349 39.1202 7.74252C38.6272 7.22155 37.9957 6.96057 37.2248 6.96057ZM25.8515 6.14662C26.3085 5.41817 26.8974 4.8402 27.6184 4.41173C28.3398 3.98325 29.1213 3.76926 29.9637 3.76926V7.68852H28.9143C27.9429 7.68852 27.1899 7.89551 26.6545 8.30999C26.1195 8.72396 25.8515 9.42391 25.8515 10.4088V15.849H22.1892V3.89776H25.8515V6.14662ZM20.1334 12.7002V15.849H18.484C17.0845 15.849 15.9956 15.5025 15.2177 14.8101C14.4397 14.1176 14.0507 12.9717 14.0507 11.3723V6.98206H12.4443V3.89776H14.0507V0.963443H17.713V3.89776H20.1119V6.98206H17.713V11.4368C17.713 11.9083 17.8095 12.2367 18.002 12.4217C18.195 12.6072 18.5195 12.7002 18.9769 12.7002H20.1334Z" />
</svg>
