<svg width="1920" height="1080" viewBox="0 0 1920 1080" fill="white" xmlns="http://www.w3.org/2000/svg">
<path d="M622.415 698.919C523.329 689.097 428.878 736.16 334.527 768.015C302.106 778.968 267.706 788.296 233.971 782.516C180.025 773.273 139.591 727.397 114.222 678.907C88.8538 630.417 73.7881 576.726 44.8721 530.271C33.0994 511.347 17.8782 493.285 0 480V1080H844.472C864.116 999.965 864.908 914.63 828.77 841.591C790.046 763.366 709.304 707.526 622.415 698.919Z" fill-opacity="0.015"/>
<path d="M1479.63 269.297C1549.73 276.238 1616.56 242.981 1683.31 220.469C1706.25 212.729 1730.59 206.137 1754.46 210.222C1792.63 216.754 1821.24 249.173 1839.18 283.439C1857.13 317.705 1867.79 355.647 1888.25 388.475C1896.58 401.848 1907.35 414.612 1920 424V0H1322.51C1308.61 56.558 1308.05 116.861 1333.62 168.475C1361.02 223.755 1418.15 263.215 1479.63 269.297Z" fill-opacity="0.015"/>
<path d="M1840.9 287.443C1847.7 300.915 1853.49 314.899 1859.28 328.874C1867.81 349.484 1876.33 370.073 1888.09 388.97C1896.42 402.36 1907.19 415.14 1919.83 424.54V280H1920V1080H1396.18C1422.01 1045.83 1431.66 1009.08 1384.61 962.137C1353.06 930.663 1309.54 916.29 1266.77 902.165C1259.22 899.671 1251.69 897.185 1244.25 894.615C1204.94 881.003 1166.75 864.154 1130.2 844.273C1082.62 818.392 1035.96 785.31 1011.59 736.926C987.209 688.543 992.245 621.874 1035.36 589.076C1066.18 565.626 1109.41 564.142 1146.37 575.717C1196.98 591.556 1240.94 626.762 1284.82 661.893C1340.49 706.474 1396.02 750.934 1464.77 755.544C1527.52 759.744 1587.08 721.688 1625.44 671.836C1663.24 622.741 1684.24 563.169 1704.85 504.706L1705.8 502.005C1726.72 442.678 1748.79 382.215 1788.64 333.547C1799.2 320.658 1810.97 308.823 1823.7 298.131C1828.95 293.721 1834.74 290.182 1840.9 287.443Z" fill-opacity="0.01"/>
<path d="M0 0C46.1711 31.2188 90.5188 64.1406 124.082 108.184C156.219 150.34 176.473 200.242 196.653 249.961C221.12 310.246 245.478 370.258 290.773 415.871C334.308 459.719 393.143 485.414 452.826 501.516C537.354 524.266 629.197 529.082 711.137 498.395C793.123 467.703 862.975 397.051 877.338 310.691C900.726 170.062 820.361 65.1992 719.637 0H0Z" fill-opacity="0.01"/>
</svg>
