<svg width="288" height="144" viewBox="0 0 288 144" fill="none" xmlns="http://www.w3.org/2000/svg">
<rect width="288" height="144" rx="8" fill="white"/>
<rect x="24" y="24" width="240" height="8" rx="1" fill="#E1E6EB"/>
<rect x="24" y="46" width="240" height="8" rx="1" fill="#E1E6EB"/>
<rect x="24" y="68" width="240" height="8" rx="1" fill="#E1E6EB"/>
<rect x="24" y="90" width="240" height="8" rx="1" fill="#E1E6EB"/>
<rect x="24" y="112" width="240" height="8" rx="1" fill="#E1E6EB"/>
<path d="M138.8 56.2943V87.7057L135.265 83.6661C135.265 83.6661 135.265 83.666 135.265 83.666C133.51 81.6599 130.391 81.3422 128.199 82.7522C125.844 84.2661 125.204 87.3845 127.135 89.5915L127.135 89.5916L139.935 104.22C139.935 104.22 139.935 104.22 139.935 104.22C140.959 105.39 142.48 106 144 106C145.521 106 147.042 105.39 148.065 104.22C148.065 104.22 148.065 104.22 148.065 104.22L160.865 89.5916L160.865 89.5915C162.796 87.3846 162.157 84.2666 159.802 82.7525L138.8 56.2943ZM138.8 56.2943L135.265 60.3342L133.76 59.0172L135.265 60.3342C133.51 62.34 130.391 62.6578 128.199 61.2479C125.844 59.7342 125.204 56.6155 127.135 54.4087L138.8 56.2943ZM149.2 87.7057V56.2943L152.735 60.3342C154.49 62.34 157.609 62.6578 159.802 61.2479C162.157 59.7342 162.796 56.6155 160.865 54.4087C160.865 54.4087 160.865 54.4087 160.865 54.4086L148.066 39.7804C147.042 38.6099 145.521 38 144 38C142.48 38 140.959 38.6099 139.935 39.7801C139.935 39.7802 139.935 39.7803 139.935 39.7804L127.135 54.4086L149.2 87.7057ZM149.2 87.7057L152.735 83.6661C154.49 81.6599 157.609 81.3422 159.802 82.7522L149.2 87.7057Z" fill="#E1E6EB" stroke="white" stroke-width="4"/>
</svg>
