<svg width="32" height="32" viewBox="0 0 32 32" fill="none" xmlns="http://www.w3.org/2000/svg">
<path d="M18.9561 4.6662C17.0614 3.77793 14.9381 3.77793 13.0435 4.6662L4.12198 8.84879C2.68731 9.52139 2.31326 11.418 2.99984 12.7289L2.99984 19.3333C2.99984 19.8856 3.44755 20.3333 3.99984 20.3333C4.55212 20.3333 4.99984 19.8856 4.99984 19.3333V14.2294L13.0436 18.0005C14.9383 18.8887 17.0615 18.8887 18.9562 18.0005L27.8777 13.8179C29.8183 12.9081 29.8183 9.75866 27.8777 8.84885L18.9561 4.6662Z" fill="#3219AF"/>
<path opacity="0.5" d="M6.6665 15.0078L13.0436 17.9975C14.9383 18.8858 17.0615 18.8858 18.9562 17.9975L25.3332 15.0079V22.1641C25.3332 23.5081 24.6618 24.7664 23.4861 25.4176C21.5282 26.5018 18.3945 27.9968 15.9998 27.9968C13.6052 27.9968 10.4714 26.5018 8.51361 25.4176C7.33784 24.7664 6.6665 23.5081 6.6665 22.1641V15.0078Z" fill="#3219AF"/>
</svg>
