<svg width="44" height="44" viewBox="0 0 44 44" fill="none" xmlns="http://www.w3.org/2000/svg">
<path d="M0 16C0 7.16344 7.16344 0 16 0H36C40.4183 0 44 3.58172 44 8V28C44 36.8366 36.8366 44 28 44H8C3.58172 44 0 40.4183 0 36V16Z" fill="#6419C8"/>
<path fill-rule="evenodd" clip-rule="evenodd" d="M19.4644 12.8206C21.0871 12.0598 22.9128 12.0598 24.5356 12.8206L31.2268 15.9576C32.2791 16.4509 32.75 17.5222 32.75 18.5C32.75 19.4778 32.2791 20.5491 31.2268 21.0425L29.75 21.7348V26.6254C29.75 27.8785 29.1217 29.0883 27.978 29.7217C27.2263 30.138 26.2384 30.6391 25.1988 31.038C24.1715 31.4321 23.0339 31.75 22 31.75C20.9661 31.75 19.8285 31.4321 18.8012 31.038C17.7616 30.6391 16.7737 30.138 16.022 29.7217C14.8783 29.0883 14.25 27.8785 14.25 26.6254V21.7348L12.7732 21.0424L12.75 21.0314V24C12.75 24.4142 12.4142 24.75 12 24.75C11.5858 24.75 11.25 24.4142 11.25 24V18.5C11.25 17.5222 11.7209 16.4509 12.7732 15.9575L19.4644 12.8206ZM15.75 22.438V26.6254C15.75 27.3884 16.1287 28.0661 16.7487 28.4095C17.4653 28.8063 18.3868 29.2724 19.3384 29.6375C20.3023 30.0073 21.2379 30.25 22 30.25C22.7621 30.25 23.6977 30.0073 24.6616 29.6375C25.6132 29.2724 26.5347 28.8063 27.2513 28.4095C27.8713 28.0661 28.25 27.3884 28.25 26.6254V22.4381L24.5357 24.1794C22.9129 24.9402 21.0872 24.9402 19.4644 24.1794L15.75 22.438ZM13.41 19.6843C13.0068 19.4953 12.75 19.0444 12.75 18.5C12.75 17.9556 13.0068 17.5047 13.41 17.3157L20.1011 14.1787C21.3204 13.6071 22.6795 13.6071 23.8988 14.1787L30.59 17.3157C30.9932 17.5047 31.25 17.9556 31.25 18.5C31.25 19.0444 30.9932 19.4953 30.59 19.6843L23.8989 22.8213C22.6796 23.3929 21.3205 23.3929 20.1012 22.8213L13.41 19.6843Z" fill="white"/>
</svg>
