<svg width="44" height="44" viewBox="0 0 44 44" fill="none" xmlns="http://www.w3.org/2000/svg">
<path d="M0 16C0 7.16344 7.16344 0 16 0H36C40.4183 0 44 3.58172 44 8V28C44 36.8366 36.8366 44 28 44H8C3.58172 44 0 40.4183 0 36V16Z" fill="#AF19C8"/>
<path fill-rule="evenodd" clip-rule="evenodd" d="M21.9999 11.25C19.3765 11.25 17.2499 13.3766 17.2499 16C17.2499 18.6234 19.3765 20.75 21.9999 20.75C24.6232 20.75 26.7499 18.6234 26.7499 16C26.7499 13.3766 24.6232 11.25 21.9999 11.25ZM18.7499 16C18.7499 14.2051 20.205 12.75 21.9999 12.75C23.7948 12.75 25.2499 14.2051 25.2499 16C25.2499 17.7949 23.7948 19.25 21.9999 19.25C20.205 19.25 18.7499 17.7949 18.7499 16Z" fill="white"/>
<path fill-rule="evenodd" clip-rule="evenodd" d="M21.9999 22.25C19.6863 22.25 17.5548 22.7759 15.9753 23.6643C14.4194 24.5396 13.2499 25.8661 13.2499 27.5L13.2498 27.602C13.2487 28.7638 13.2473 30.222 14.5263 31.2635C15.1558 31.7761 16.0364 32.1406 17.2261 32.3815C18.4192 32.6229 19.9741 32.75 21.9999 32.75C24.0257 32.75 25.5806 32.6229 26.7737 32.3815C27.9634 32.1406 28.844 31.7761 29.4735 31.2635C30.7525 30.222 30.7511 28.7638 30.75 27.602L30.7499 27.5C30.7499 25.8661 29.5804 24.5396 28.0244 23.6643C26.445 22.7759 24.3134 22.25 21.9999 22.25ZM14.7499 27.5C14.7499 26.6487 15.3713 25.7251 16.7107 24.9717C18.0267 24.2315 19.8952 23.75 21.9999 23.75C24.1046 23.75 25.9731 24.2315 27.289 24.9717C28.6285 25.7251 29.2499 26.6487 29.2499 27.5C29.2499 28.8078 29.2096 29.544 28.5263 30.1004C28.1558 30.4022 27.5364 30.6967 26.4761 30.9113C25.4192 31.1252 23.9741 31.25 21.9999 31.25C20.0257 31.25 18.5806 31.1252 17.5237 30.9113C16.4634 30.6967 15.844 30.4022 15.4735 30.1004C14.7902 29.544 14.7499 28.8078 14.7499 27.5Z" fill="white"/>
</svg>
