<svg width="17" height="20" viewBox="0 0 17 20" fill="none" xmlns="http://www.w3.org/2000/svg">
<path d="M13.7416 10.6051C13.7696 13.626 16.3917 14.6313 16.4207 14.6441C16.3985 14.715 16.0017 16.0767 15.0393 17.4833C14.2073 18.6993 13.3438 19.9109 11.9835 19.936C10.6469 19.9606 10.2171 19.1434 8.68895 19.1434C7.16128 19.1434 6.68375 19.9109 5.4185 19.9606C4.10548 20.0103 3.10563 18.6456 2.26671 17.434C0.552481 14.9557 -0.757545 10.4309 1.00149 7.37654C1.87534 5.85974 3.43697 4.89924 5.13199 4.87461C6.42134 4.85002 7.63834 5.74204 8.42653 5.74204C9.21423 5.74204 10.6931 4.6693 12.2479 4.82685C12.8987 4.85394 14.7257 5.08976 15.8988 6.80694C15.8043 6.86554 13.7189 8.07958 13.7416 10.6051V10.6051ZM11.2295 3.18722C11.9266 2.34342 12.3958 1.16877 12.2678 0C11.263 0.0403841 10.048 0.669574 9.32726 1.51291C8.68135 2.25973 8.11568 3.45505 8.26831 4.60069C9.38828 4.68734 10.5324 4.03156 11.2295 3.18722" fill="#141618"/>
</svg>
