<svg width="34" height="40" viewBox="0 0 34 40" fill="none" xmlns="http://www.w3.org/2000/svg">
<path d="M8.29183 10.8334C8.29183 10.074 8.90744 9.45842 9.66683 9.45842H24.3335C25.0929 9.45842 25.7085 10.074 25.7085 10.8334C25.7085 11.5928 25.0929 12.2084 24.3335 12.2084H9.66683C8.90744 12.2084 8.29183 11.5928 8.29183 10.8334Z" fill="white"/>
<path d="M9.66683 15.8751C8.90744 15.8751 8.29183 16.4907 8.29183 17.2501C8.29183 18.0095 8.90744 18.6251 9.66683 18.6251H18.8335C19.5929 18.6251 20.2085 18.0095 20.2085 17.2501C20.2085 16.4907 19.5929 15.8751 18.8335 15.8751H9.66683Z" fill="white"/>
<path fill-rule="evenodd" clip-rule="evenodd" d="M13.2329 0.291749C10.7257 0.291712 8.70472 0.291682 7.11529 0.505376C5.46509 0.727239 4.07565 1.20188 2.97214 2.30539C1.86863 3.40891 1.39399 4.79834 1.17212 6.44854C0.95843 8.03798 0.95846 10.0589 0.958497 12.5661V27.434C0.95846 29.9413 0.95843 31.9622 1.17212 33.5516C1.39399 35.2018 1.86863 36.5913 2.97214 37.6948C4.07565 38.7983 5.46509 39.2729 7.11529 39.4948C8.70473 39.7085 10.7257 39.7085 13.2329 39.7084H20.7674C23.2747 39.7085 25.2956 39.7085 26.885 39.4948C28.5352 39.2729 29.9247 38.7983 31.0282 37.6948C32.1317 36.5913 32.6063 35.2018 32.8282 33.5516C33.0419 31.9622 33.0419 29.9413 33.0418 27.434V12.5662C33.0419 10.0589 33.0419 8.03798 32.8282 6.44854C32.6063 4.79834 32.1317 3.40891 31.0282 2.30539C29.9247 1.20188 28.5352 0.727239 26.885 0.505376C25.2956 0.291682 23.2747 0.291712 20.7675 0.291749H13.2329ZM4.91668 4.24994C5.42408 3.74254 6.13646 3.41172 7.48172 3.23085C8.86653 3.04467 10.7019 3.04175 13.3335 3.04175H20.6668C23.2984 3.04175 25.1338 3.04467 26.5186 3.23085C27.8639 3.41172 28.5763 3.74254 29.0836 4.24994C29.591 4.75733 29.9219 5.46972 30.1027 6.81497C30.2889 8.19978 30.2918 10.0352 30.2918 12.6668V25.9584L9.26713 25.9584C7.76753 25.9579 6.74425 25.9575 5.86671 26.1927C5.08208 26.4029 4.35426 26.7463 3.7085 27.1976V12.6668C3.7085 10.0352 3.71142 8.19978 3.8976 6.81497C4.07847 5.46972 4.40928 4.75733 4.91668 4.24994ZM3.75755 31.4568C3.78542 32.1054 3.82911 32.6758 3.8976 33.1852C4.07847 34.5305 4.40928 35.2428 4.91668 35.7502C5.42408 36.2576 6.13646 36.5885 7.48172 36.7693C8.86653 36.9555 10.7019 36.9584 13.3335 36.9584H20.6668C23.2984 36.9584 25.1338 36.9555 26.5186 36.7693C27.8639 36.5885 28.5763 36.2576 29.0836 35.7502C29.591 35.2428 29.9219 34.5305 30.1027 33.1852C30.2546 32.0554 30.2845 30.6257 30.2904 28.7084H9.47942C7.68595 28.7084 7.05895 28.7202 6.57846 28.849C5.25971 29.2023 4.2084 30.1826 3.75755 31.4568Z" fill="white"/>
</svg>
