<svg
  width="22"
  height="22"
  viewBox="0 0 22 22"
  fill="none"
  xmlns="http://www.w3.org/2000/svg"
>
<path
    fill-rule="evenodd"
    clip-rule="evenodd"
    d="M21.5 11C21.5 5.06294 16.6871 0.25 10.75 0.25C4.81294 0.25 0 5.06294 0 11C0 12.7183 0.403708 14.3445 1.12213 15.7869C1.22933 16.0021 1.25208 16.2219 1.2026 16.4068L0.606997 18.6328C0.199274 20.1566 1.59337 21.5507 3.1172 21.143L5.34324 20.5474C5.52814 20.4979 5.74791 20.5207 5.96315 20.6279C7.40553 21.3463 9.03169 21.75 10.75 21.75C16.6871 21.75 21.5 16.9371 21.5 11ZM10.75 1.75C15.8586 1.75 20 5.89137 20 11C20 16.1086 15.8586 20.25 10.75 20.25C9.26894 20.25 7.87121 19.9025 6.63191 19.2852C6.13451 19.0375 5.53973 18.9421 4.95553 19.0984L2.72949 19.694C2.32066 19.8034 1.94663 19.4293 2.05602 19.0205L2.65163 16.7945C2.80794 16.2103 2.71254 15.6155 2.4648 15.1181C1.84752 13.8788 1.5 12.4811 1.5 11C1.5 5.89137 5.64137 1.75 10.75 1.75Z"
    fill="#141618"
  />
</svg>
