<svg
  width="22"
  height="23"
  viewBox="0 0 22 23"
  fill="none"
  xmlns="http://www.w3.org/2000/svg"
>
<path
    fill-rule="evenodd"
    clip-rule="evenodd"
    d="M21.7483 11.5C21.7483 5.56294 16.9354 0.75 10.9983 0.75C5.06128 0.75 0.248337 5.56294 0.248337 11.5C0.248337 13.2183 0.652044 14.8445 1.37046 16.2869C1.47767 16.5021 1.50041 16.7219 1.45094 16.9068L0.855333 19.1328C0.447611 20.6566 1.8417 22.0507 3.36554 21.643L5.59158 21.0474C5.77647 20.9979 5.99624 21.0207 6.21149 21.1279C7.65386 21.8463 9.28003 22.25 10.9983 22.25C16.9354 22.25 21.7483 17.4371 21.7483 11.5ZM10.9983 2.25C16.107 2.25 20.2483 6.39137 20.2483 11.5C20.2483 16.6086 16.107 20.75 10.9983 20.75C9.51728 20.75 8.11954 20.4025 6.88024 19.7852C6.38284 19.5375 5.78807 19.4421 5.20387 19.5984L2.97783 20.194C2.569 20.3034 2.19497 19.9293 2.30436 19.5205L2.89997 17.2945C3.05628 16.7103 2.96088 16.1155 2.71313 15.6181C2.09586 14.3788 1.74834 12.9811 1.74834 11.5C1.74834 6.39137 5.8897 2.25 10.9983 2.25Z"
    fill="#3219AF"
  />
</svg>
