<svg width="40" height="40" viewBox="0 0 40 40" fill="#4BAF7D" xmlns="http://www.w3.org/2000/svg">
<path fill-rule="evenodd" clip-rule="evenodd" d="M40 20C40 31.0457 31.0457 40 20 40C8.9543 40 0 31.0457 0 20C0 8.9543 8.9543 0 20 0C31.0457 0 40 8.9543 40 20ZM28.0607 13.9393C28.6464 14.5251 28.6464 15.4749 28.0607 16.0607L18.0607 26.0607C17.4749 26.6464 16.5251 26.6464 15.9393 26.0607L11.9393 22.0607C11.3536 21.4749 11.3536 20.5251 11.9393 19.9393C12.5251 19.3536 13.4749 19.3536 14.0607 19.9393L17 22.8787L21.4697 18.409L25.9393 13.9393C26.5251 13.3536 27.4749 13.3536 28.0607 13.9393Z" />
</svg>
