<svg width="29" height="30" viewBox="0 0 29 30" fill="#FF4BC8" xmlns="http://www.w3.org/2000/svg">
<path fill-rule="evenodd" clip-rule="evenodd" d="M14.2567 0.666748H14.4097C17.4876 0.666731 19.8996 0.666718 21.7816 0.919744C23.7079 1.17873 25.2279 1.71918 26.421 2.91226C27.6141 4.10534 28.1546 5.62537 28.4135 7.55169C28.6666 9.43367 28.6666 11.8457 28.6665 14.9236V15.0766C28.6666 18.1544 28.6666 20.5665 28.4135 22.4485C28.1546 24.3748 27.6141 25.8948 26.421 27.0879C25.2279 28.281 23.7079 28.8214 21.7816 29.0804C19.8996 29.3334 17.4876 29.3334 14.4097 29.3334H14.2567C11.1789 29.3334 8.7668 29.3334 6.88482 29.0804C4.9585 28.8214 3.43847 28.281 2.24539 27.0879C1.05231 25.8948 0.51186 24.3748 0.252873 22.4485C-0.000152548 20.5665 -0.000138954 18.1544 -0.000121788 15.0766V14.9236C-0.000138954 11.8457 -0.000152548 9.43367 0.252873 7.55169C0.51186 5.62537 1.05231 4.10534 2.24539 2.91226C3.43847 1.71918 4.9585 1.17873 6.88482 0.919744C8.7668 0.666718 11.1788 0.666731 14.2567 0.666748ZM7.15131 2.90191C5.44678 3.13108 4.41915 3.56693 3.65961 4.32648C2.90006 5.08602 2.46421 6.11365 2.23504 7.81818C2.002 9.55149 1.99988 11.8291 1.99988 15.0001C1.99988 18.171 2.002 20.4487 2.23504 22.182C2.46421 23.8865 2.90006 24.9141 3.65961 25.6737C4.41915 26.4332 5.44678 26.8691 7.15131 27.0983C8.88462 27.3313 11.1622 27.3334 14.3332 27.3334C17.5042 27.3334 19.7818 27.3313 21.5151 27.0983C23.2196 26.8691 24.2473 26.4332 25.0068 25.6737C25.7664 24.9141 26.2022 23.8865 26.4314 22.182C26.6644 20.4487 26.6665 18.171 26.6665 15.0001C26.6665 11.8291 26.6644 9.55149 26.4314 7.81818C26.2022 6.11365 25.7664 5.08602 25.0068 4.32648C24.2473 3.56693 23.2196 3.13108 21.5151 2.90191C19.7818 2.66887 17.5042 2.66675 14.3332 2.66675C11.1622 2.66675 8.88462 2.66887 7.15131 2.90191ZM12.3562 7.60928C12.7561 7.99016 12.7716 8.62314 12.3907 9.02307L8.58116 13.0231C8.39242 13.2212 8.1307 13.3334 7.85702 13.3334C7.58334 13.3334 7.32163 13.2212 7.13288 13.0231L5.60907 11.4231C5.22819 11.0231 5.24363 10.3902 5.64356 10.0093C6.04349 9.62839 6.67646 9.64383 7.05735 10.0438L7.85702 10.8834L10.9424 7.64376C11.3233 7.24383 11.9563 7.22839 12.3562 7.60928ZM14.6665 11.0001C14.6665 10.4478 15.1143 10.0001 15.6665 10.0001H22.3332C22.8855 10.0001 23.3332 10.4478 23.3332 11.0001C23.3332 11.5524 22.8855 12.0001 22.3332 12.0001H15.6665C15.1143 12.0001 14.6665 11.5524 14.6665 11.0001ZM12.3562 16.9426C12.7561 17.3235 12.7716 17.9565 12.3907 18.3564L8.58116 22.3564C8.39242 22.5546 8.1307 22.6667 7.85702 22.6667C7.58334 22.6667 7.32163 22.5546 7.13288 22.3564L5.60907 20.7564C5.22819 20.3565 5.24363 19.7235 5.64356 19.3426C6.04349 18.9617 6.67646 18.9772 7.05735 19.3771L7.85702 20.2167L10.9424 16.9771C11.3233 16.5772 11.9563 16.5617 12.3562 16.9426ZM14.6665 20.3334C14.6665 19.7811 15.1143 19.3334 15.6665 19.3334H22.3332C22.8855 19.3334 23.3332 19.7811 23.3332 20.3334C23.3332 20.8857 22.8855 21.3334 22.3332 21.3334H15.6665C15.1143 21.3334 14.6665 20.8857 14.6665 20.3334Z" />
</svg>
