<svg width="22" height="22" viewBox="0 0 22 22" fill="#141618" xmlns="http://www.w3.org/2000/svg">
<path fill-rule="evenodd" clip-rule="evenodd" d="M4.948 0.750001C4.04954 0.749973 3.3003 0.749949 2.70552 0.829914C2.07773 0.914319 1.51093 1.09999 1.05546 1.55546C0.59999 2.01093 0.414319 2.57773 0.329914 3.20552C0.249949 3.8003 0.249973 4.54951 0.250001 5.44798V7.552C0.249973 8.45047 0.249949 9.19971 0.329914 9.79448C0.414319 10.4223 0.59999 10.9891 1.05546 11.4445C1.51093 11.9 2.07773 12.0857 2.70552 12.1701C3.3003 12.2501 4.04951 12.25 4.94798 12.25H5.052C5.95047 12.25 6.69971 12.2501 7.29448 12.1701C7.92228 12.0857 8.48908 11.9 8.94455 11.4445C9.40002 10.9891 9.58569 10.4223 9.67009 9.79448C9.75006 9.19971 9.75003 8.4505 9.75 7.55203V5.44801C9.75003 4.54954 9.75006 3.8003 9.67009 3.20552C9.58569 2.57773 9.40002 2.01093 8.94455 1.55546C8.48908 1.09999 7.92228 0.914319 7.29448 0.829914C6.69971 0.749949 5.9505 0.749973 5.05203 0.750001H4.948ZM2.11612 2.61612C2.24644 2.4858 2.44393 2.37858 2.9054 2.31654C3.38843 2.2516 4.03599 2.25 5 2.25C5.96401 2.25 6.61157 2.2516 7.09461 2.31654C7.55607 2.37858 7.75357 2.4858 7.88389 2.61612C8.0142 2.74644 8.12143 2.94393 8.18347 3.4054C8.24841 3.88843 8.25 4.53599 8.25 5.5V7.5C8.25 8.46401 8.24841 9.11157 8.18347 9.59461C8.12143 10.0561 8.0142 10.2536 7.88389 10.3839C7.75357 10.5142 7.55607 10.6214 7.09461 10.6835C6.61157 10.7484 5.96401 10.75 5 10.75C4.03599 10.75 3.38843 10.7484 2.9054 10.6835C2.44393 10.6214 2.24644 10.5142 2.11612 10.3839C1.9858 10.2536 1.87858 10.0561 1.81654 9.59461C1.7516 9.11157 1.75 8.46401 1.75 7.5V5.5C1.75 4.53599 1.7516 3.88843 1.81654 3.4054C1.87858 2.94393 1.9858 2.74644 2.11612 2.61612Z" />
<path fill-rule="evenodd" clip-rule="evenodd" d="M16.448 9.75C15.5495 9.74997 14.8003 9.74995 14.2055 9.82991C13.5777 9.91432 13.0109 10.1 12.5555 10.5555C12.1 11.0109 11.9143 11.5777 11.8299 12.2055C11.7499 12.8003 11.75 13.5495 11.75 14.448V16.552C11.75 17.4505 11.7499 18.1997 11.8299 18.7945C11.9143 19.4223 12.1 19.9891 12.5555 20.4445C13.0109 20.9 13.5777 21.0857 14.2055 21.1701C14.8003 21.2501 15.5495 21.25 16.4479 21.25H16.552C17.4504 21.25 18.1997 21.2501 18.7945 21.1701C19.4223 21.0857 19.9891 20.9 20.4445 20.4445C20.9 19.9891 21.0857 19.4223 21.1701 18.7945C21.2501 18.1997 21.25 17.4505 21.25 16.5521V14.448C21.25 13.5496 21.2501 12.8003 21.1701 12.2055C21.0857 11.5777 20.9 11.0109 20.4445 10.5555C19.9891 10.1 19.4223 9.91432 18.7945 9.82991C18.1997 9.74995 17.4505 9.74997 16.552 9.75H16.448ZM13.6161 11.6161C13.7464 11.4858 13.9439 11.3786 14.4054 11.3165C14.8884 11.2516 15.536 11.25 16.5 11.25C17.464 11.25 18.1116 11.2516 18.5946 11.3165C19.0561 11.3786 19.2536 11.4858 19.3839 11.6161C19.5142 11.7464 19.6214 11.9439 19.6835 12.4054C19.7484 12.8884 19.75 13.536 19.75 14.5V16.5C19.75 17.464 19.7484 18.1116 19.6835 18.5946C19.6214 19.0561 19.5142 19.2536 19.3839 19.3839C19.2536 19.5142 19.0561 19.6214 18.5946 19.6835C18.1116 19.7484 17.464 19.75 16.5 19.75C15.536 19.75 14.8884 19.7484 14.4054 19.6835C13.9439 19.6214 13.7464 19.5142 13.6161 19.3839C13.4858 19.2536 13.3786 19.0561 13.3165 18.5946C13.2516 18.1116 13.25 17.464 13.25 16.5V14.5C13.25 13.536 13.2516 12.8884 13.3165 12.4054C13.3786 11.9439 13.4858 11.7464 13.6161 11.6161Z" />
<path fill-rule="evenodd" clip-rule="evenodd" d="M15.4748 0.750001H17.5253C17.9697 0.749996 18.3408 0.749991 18.6454 0.770773C18.9625 0.792408 19.262 0.839051 19.5524 0.959334C20.2262 1.23844 20.7616 1.7738 21.0407 2.44762C21.161 2.73801 21.2076 3.03754 21.2292 3.35464C21.25 3.65925 21.25 4.03029 21.25 4.47475V4.52526C21.25 4.96972 21.25 5.34076 21.2292 5.64537C21.2076 5.96247 21.161 6.26199 21.0407 6.55238C20.7616 7.22621 20.2262 7.76156 19.5524 8.04067C19.262 8.16095 18.9625 8.2076 18.6454 8.22923C18.3408 8.25002 17.9697 8.25001 17.5253 8.25H15.4747C15.0303 8.25001 14.6592 8.25002 14.3546 8.22923C14.0375 8.2076 13.738 8.16095 13.4476 8.04067C12.7738 7.76156 12.2384 7.22621 11.9593 6.55238C11.8391 6.26199 11.7924 5.96247 11.7708 5.64537C11.75 5.34075 11.75 4.96972 11.75 4.52525V4.47475C11.75 4.03029 11.75 3.65925 11.7708 3.35464C11.7924 3.03754 11.8391 2.73801 11.9593 2.44762C12.2384 1.7738 12.7738 1.23844 13.4476 0.959334C13.738 0.839051 14.0375 0.792408 14.3546 0.770773C14.6592 0.749991 15.0303 0.749996 15.4748 0.750001ZM14.4567 2.26729C14.216 2.28372 14.0988 2.3132 14.0216 2.34515C13.7154 2.47202 13.472 2.71536 13.3452 3.02165C13.3132 3.0988 13.2837 3.21602 13.2673 3.45675C13.2504 3.70421 13.25 4.0238 13.25 4.5C13.25 4.97621 13.2504 5.2958 13.2673 5.54326C13.2837 5.78399 13.3132 5.9012 13.3452 5.97836C13.472 6.28464 13.7154 6.52799 14.0216 6.65485C14.0988 6.68681 14.216 6.71629 14.4567 6.73271C14.7042 6.7496 15.0238 6.75 15.5 6.75H17.5C17.9762 6.75 18.2958 6.7496 18.5433 6.73271C18.784 6.71629 18.9012 6.68681 18.9784 6.65485C19.2846 6.52799 19.528 6.28464 19.6549 5.97836C19.6868 5.9012 19.7163 5.78399 19.7327 5.54326C19.7496 5.2958 19.75 4.97621 19.75 4.5C19.75 4.0238 19.7496 3.70421 19.7327 3.45674C19.7163 3.21602 19.6868 3.0988 19.6549 3.02165C19.528 2.71536 19.2846 2.47202 18.9784 2.34515C18.9012 2.3132 18.784 2.28372 18.5433 2.26729C18.2958 2.25041 17.9762 2.25 17.5 2.25H15.5C15.0238 2.25 14.7042 2.25041 14.4567 2.26729Z" />
<path fill-rule="evenodd" clip-rule="evenodd" d="M3.97475 13.75C3.53029 13.75 3.15925 13.75 2.85464 13.7708C2.53754 13.7924 2.23801 13.8391 1.94762 13.9593C1.2738 14.2384 0.738443 14.7738 0.459334 15.4476C0.339051 15.738 0.292408 16.0375 0.270773 16.3546C0.249991 16.6592 0.249996 17.0302 0.250001 17.4747V17.5253C0.249996 17.9697 0.249991 18.3408 0.270773 18.6454C0.292408 18.9625 0.339051 19.262 0.459334 19.5524C0.738443 20.2262 1.2738 20.7616 1.94762 21.0407C2.23801 21.161 2.53754 21.2076 2.85464 21.2292C3.15925 21.25 3.53029 21.25 3.97475 21.25H6.02526C6.46972 21.25 6.84076 21.25 7.14537 21.2292C7.46247 21.2076 7.76199 21.161 8.05238 21.0407C8.72621 20.7616 9.26156 20.2262 9.54067 19.5524C9.66095 19.262 9.7076 18.9625 9.72923 18.6454C9.75002 18.3408 9.75001 17.9697 9.75 17.5253V17.4747C9.75001 17.0303 9.75002 16.6592 9.72923 16.3546C9.7076 16.0375 9.66095 15.738 9.54067 15.4476C9.26156 14.7738 8.72621 14.2384 8.05238 13.9593C7.76199 13.8391 7.46247 13.7924 7.14537 13.7708C6.84075 13.75 6.46972 13.75 6.02525 13.75H3.97475ZM2.52165 15.3452C2.5988 15.3132 2.71602 15.2837 2.95675 15.2673C3.20421 15.2504 3.5238 15.25 4 15.25H6C6.47621 15.25 6.7958 15.2504 7.04326 15.2673C7.28399 15.2837 7.4012 15.3132 7.47836 15.3452C7.78464 15.472 8.02799 15.7154 8.15485 16.0216C8.18681 16.0988 8.21629 16.216 8.23271 16.4567C8.2496 16.7042 8.25 17.0238 8.25 17.5C8.25 17.9762 8.2496 18.2958 8.23271 18.5433C8.21629 18.784 8.18681 18.9012 8.15485 18.9784C8.02799 19.2846 7.78464 19.528 7.47836 19.6549C7.4012 19.6868 7.28399 19.7163 7.04326 19.7327C6.7958 19.7496 6.47621 19.75 6 19.75H4C3.5238 19.75 3.20421 19.7496 2.95674 19.7327C2.71602 19.7163 2.5988 19.6868 2.52165 19.6549C2.21536 19.528 1.97202 19.2846 1.84515 18.9784C1.8132 18.9012 1.78372 18.784 1.76729 18.5433C1.75041 18.2958 1.75 17.9762 1.75 17.5C1.75 17.0238 1.75041 16.7042 1.76729 16.4567C1.78372 16.216 1.8132 16.0988 1.84515 16.0216C1.97202 15.7154 2.21536 15.472 2.52165 15.3452Z" />
</svg>
