<svg width="18" height="18" viewBox="0 0 18 18" fill="none" xmlns="http://www.w3.org/2000/svg">
<path d="M12.3584 7.35869C12.6025 7.11461 12.6025 6.71888 12.3584 6.47481C12.1144 6.23073 11.7186 6.23073 11.4746 6.47481L7.74984 10.1995L6.52511 8.97481C6.28103 8.73073 5.88531 8.73073 5.64123 8.97481C5.39715 9.21888 5.39715 9.61461 5.64123 9.85869L7.30789 11.5254C7.55197 11.7694 7.9477 11.7694 8.19178 11.5254L12.3584 7.35869Z" fill="white"/>
<path fill-rule="evenodd" clip-rule="evenodd" d="M8.99984 0.041748C4.05229 0.041748 0.0415039 4.05253 0.0415039 9.00008C0.0415039 13.9476 4.05229 17.9584 8.99984 17.9584C13.9474 17.9584 17.9582 13.9476 17.9582 9.00008C17.9582 4.05253 13.9474 0.041748 8.99984 0.041748ZM1.2915 9.00008C1.2915 4.74289 4.74264 1.29175 8.99984 1.29175C13.257 1.29175 16.7082 4.74289 16.7082 9.00008C16.7082 13.2573 13.257 16.7084 8.99984 16.7084C4.74264 16.7084 1.2915 13.2573 1.2915 9.00008Z" fill="white"/>
</svg>
