<svg width="96" height="72" viewBox="0 0 96 72" fill="none" xmlns="http://www.w3.org/2000/svg">
<rect x="1" y="1" width="94" height="70" rx="3" fill="white"/>
<path d="M36.6 20H47.4C47.7314 20 48 20.2686 48 20.6V22.4C48 22.7314 47.7314 23 47.4 23H36.6C36.2686 23 36 22.7314 36 22.4V20.6C36 20.2686 36.2686 20 36.6 20Z" fill="#E1E6EB"/>
<path d="M47.6 20H58.4C58.7314 20 59 20.2686 59 20.6V22.4C59 22.7314 58.7314 23 58.4 23H47.6C47.2686 23 47 22.7314 47 22.4V20.6C47 20.2686 47.2686 20 47.6 20Z" fill="#E1E6EB"/>
<path d="M58.6 20H69.4C69.7314 20 70 20.2686 70 20.6V22.4C70 22.7314 69.7314 23 69.4 23H58.6C58.2686 23 58 22.7314 58 22.4V20.6C58 20.2686 58.2686 20 58.6 20Z" fill="#E1E6EB"/>
<path d="M69.6 20H80.4C80.7314 20 81 20.2686 81 20.6V22.4C81 22.7314 80.7314 23 80.4 23H69.6C69.2686 23 69 22.7314 69 22.4V20.6C69 20.2686 69.2686 20 69.6 20Z" fill="#E1E6EB"/>
<path d="M15.9 17H29.1C29.5971 17 30 17.4029 30 17.9V25.1C30 25.5971 29.5971 26 29.1 26H15.9C15.4029 26 15 25.5971 15 25.1V17.9C15 17.4029 15.4029 17 15.9 17Z" fill="#A658F4"/>
<path d="M63.6 34.5H74.4C74.7314 34.5 75 34.7686 75 35.1V36.9C75 37.2314 74.7314 37.5 74.4 37.5H63.6C63.2686 37.5 63 37.2314 63 36.9V35.1C63 34.7686 63.2686 34.5 63.6 34.5Z" fill="#E1E6EB"/>
<path d="M16.05 35H34.95C35.5299 35 36 35.2686 36 35.6V37.4C36 37.7314 35.5299 38 34.95 38H16.05C15.4701 38 15 37.7314 15 37.4V35.6C15 35.2686 15.4701 35 16.05 35Z" fill="#E1E6EB"/>
<path d="M42.9 31.5H56.1C56.5971 31.5 57 31.9029 57 32.4V39.6C57 40.0971 56.5971 40.5 56.1 40.5H42.9C42.4029 40.5 42 40.0971 42 39.6V32.4C42 31.9029 42.4029 31.5 42.9 31.5Z" fill="#A658F4"/>
<path d="M26.4 52.5H15.6C15.2686 52.5 15 52.7686 15 53.1V54.9C15 55.2314 15.2686 55.5 15.6 55.5H26.4C26.7314 55.5 27 55.2314 27 54.9V53.1C27 52.7686 26.7314 52.5 26.4 52.5Z" fill="#A658F4"/>
<path d="M44.4 52.5H33.6C33.2686 52.5 33 52.7686 33 53.1V54.9C33 55.2314 33.2686 55.5 33.6 55.5H44.4C44.7314 55.5 45 55.2314 45 54.9V53.1C45 52.7686 44.7314 52.5 44.4 52.5Z" fill="#A658F4"/>
<rect x="1" y="1" width="94" height="70" rx="3" stroke="#A658F4" stroke-width="2"/>
</svg>
