<svg width="48" height="48" viewBox="0 0 48 48" fill="none" xmlns="http://www.w3.org/2000/svg">
<path opacity="0.5" d="M37.4983 18V19.4082C37.4983 21.0982 37.9806 22.7503 38.8844 24.1565L41.0993 27.6023C43.1224 30.7497 41.5779 35.0278 38.0593 36.0231C28.8545 38.6268 19.1455 38.6268 9.94072 36.0231C6.42209 35.0278 4.87765 30.7497 6.90072 27.6023L9.1156 24.1565C10.0194 22.7503 10.5017 21.0982 10.5017 19.4082V18C10.5017 10.268 16.5451 4 24 4C31.4549 4 37.4983 10.268 37.4983 18Z" fill="#78828C"/>
<path d="M14.4863 37.0938C15.7882 41.1041 19.5553 44.0033 23.9996 44.0033C28.4439 44.0033 32.2111 41.1041 33.5129 37.0938C27.2221 38.2743 20.7772 38.2743 14.4863 37.0938Z" fill="#78828C"/>
<path d="M18.6973 18C18.6973 18.8284 19.3448 19.5 20.1435 19.5H24.3653L19.1209 24.9393C18.7073 25.3683 18.5835 26.0135 18.8074 26.574C19.0312 27.1345 19.5586 27.5 20.1435 27.5H27.8568C28.6556 27.5 29.3031 26.8284 29.3031 26C29.3031 25.1716 28.6556 24.5 27.8568 24.5H23.6351L28.8795 19.0607C29.2931 18.6317 29.4168 17.9865 29.193 17.426C28.9691 16.8655 28.4418 16.5 27.8568 16.5H20.1435C19.3448 16.5 18.6973 17.1716 18.6973 18Z" fill="#78828C"/>
</svg>
