<svg width="32" height="32" viewBox="0 0 32 32" fill="none" xmlns="http://www.w3.org/2000/svg">
<path d="M18.9563 4.6662C17.0616 3.77793 14.9383 3.77793 13.0436 4.6662L4.12216 8.84879C2.68749 9.52139 2.31344 11.418 3.00002 12.7289L3.00002 19.3333C3.00002 19.8856 3.44774 20.3333 4.00002 20.3333C4.55231 20.3333 5.00002 19.8856 5.00002 19.3333V14.2294L13.0438 18.0005C14.9384 18.8887 17.0617 18.8887 18.9564 18.0005L27.8779 13.8179C29.8185 12.9081 29.8185 9.75866 27.8779 8.84885L18.9563 4.6662Z" fill="#4BAF7D"/>
<path opacity="0.5" d="M6.66669 15.0117L13.0438 18.0014C14.9384 18.8897 17.0617 18.8897 18.9564 18.0014L25.3334 15.0118V22.168C25.3334 23.512 24.662 24.7703 23.4862 25.4215C21.5284 26.5057 18.3947 28.0007 16 28.0007C13.6053 28.0007 10.4716 26.5057 8.5138 25.4215C7.33802 24.7703 6.66669 23.512 6.66669 22.168V15.0117Z" fill="#4BAF7D"/>
</svg>
