<svg
  width="22"
  height="23"
  viewBox="0 0 22 23"
  fill="none"
  xmlns="http://www.w3.org/2000/svg"
>
<path
    fill-rule="evenodd"
    clip-rule="evenodd"
    d="M10.9984 2.25C5.88972 2.25 1.74835 6.39137 1.74835 11.5C1.74835 16.6086 5.88972 20.75 10.9984 20.75C16.107 20.75 20.2484 16.6086 20.2484 11.5C20.2484 6.39137 16.107 2.25 10.9984 2.25ZM0.248352 11.5C0.248352 5.56294 5.06129 0.75 10.9984 0.75C16.9354 0.75 21.7484 5.56294 21.7484 11.5C21.7484 17.4371 16.9354 22.25 10.9984 22.25C5.06129 22.25 0.248352 17.4371 0.248352 11.5ZM12.8473 8.68125C12.2423 8.84164 11.4271 9.16626 10.2527 9.63602C9.71126 9.85259 9.6105 9.90363 9.53638 9.96863C9.51176 9.99022 9.48857 10.0134 9.46698 10.038C9.40199 10.1121 9.35095 10.2129 9.13437 10.7543C8.66461 11.9287 8.33999 12.744 8.17961 13.3489C8.01261 13.9789 8.09445 14.1399 8.12074 14.1786C8.17388 14.2568 8.24133 14.3242 8.31953 14.3774C8.35821 14.4037 8.51924 14.4855 9.14917 14.3185C9.75414 14.1581 10.5694 13.8335 11.7438 13.3637C12.2852 13.1472 12.386 13.0961 12.4601 13.0311L12.9546 13.595L12.4601 13.0311C12.4847 13.0095 12.5079 12.9864 12.5295 12.9617L13.0934 13.4562L12.5295 12.9617C12.5945 12.8876 12.6455 12.7868 12.8621 12.2454C13.3319 11.071 13.6565 10.2558 13.8169 9.65082C13.9839 9.02089 13.902 8.85986 13.8757 8.82118C13.8226 8.74298 13.7551 8.67553 13.6769 8.62239C13.6382 8.5961 13.4772 8.51425 12.8473 8.68125ZM12.4629 7.23134C13.1528 7.04845 13.899 6.95976 14.52 7.38173C14.7546 7.54115 14.957 7.7435 15.1164 7.97811C15.5384 8.59908 15.4497 9.34532 15.2668 10.0352C15.0801 10.7394 14.7198 11.64 14.2749 12.7522L14.2548 12.8025C14.2435 12.8307 14.2324 12.8586 14.2213 12.8864C14.0582 13.2958 13.9138 13.6582 13.6573 13.9507C13.5925 14.0246 13.5229 14.0941 13.4491 14.1589C13.1565 14.4155 12.7942 14.5598 12.3848 14.723C12.357 14.734 12.329 14.7452 12.3009 14.7564L12.0223 14.0601L12.3009 14.7565L12.2505 14.7766C11.1384 15.2215 10.2378 15.5817 9.53355 15.7684C8.84368 15.9513 8.09743 16.04 7.47646 15.618L7.89799 14.9977L7.47646 15.618C7.24185 15.4586 7.0395 15.2563 6.88008 15.0217C6.45811 14.4007 6.5468 13.6544 6.72969 12.9646C6.91639 12.2603 7.27664 11.3597 7.72153 10.2476L7.74166 10.1973C7.75293 10.1691 7.76407 10.1411 7.77513 10.1134C7.93828 9.70391 8.08264 9.3416 8.3392 9.04904C8.40397 8.97517 8.47352 8.90562 8.54739 8.84085C8.83995 8.58429 9.20227 8.43992 9.61172 8.27677C9.63947 8.26572 9.66743 8.25458 9.6956 8.24331L9.74593 8.22318C10.8581 7.77828 11.7587 7.41804 12.4629 7.23134Z"
    fill="#3219AF"
  />
</svg>
