<svg width="22" height="22" viewBox="0 0 22 22" fill="none" xmlns="http://www.w3.org/2000/svg">
<path fill-rule="evenodd" clip-rule="evenodd" d="M11.25 1.75C6.14137 1.75 2 5.89137 2 11C2 16.1086 6.14137 20.25 11.25 20.25C16.3586 20.25 20.5 16.1086 20.5 11C20.5 5.89137 16.3586 1.75 11.25 1.75ZM0.5 11C0.5 5.06294 5.31294 0.25 11.25 0.25C17.1871 0.25 22 5.06294 22 11C22 16.9371 17.1871 21.75 11.25 21.75C5.31294 21.75 0.5 16.9371 0.5 11ZM13.0989 8.18125C12.494 8.34164 11.6787 8.66626 10.5043 9.13602C9.96291 9.35259 9.86215 9.40363 9.78803 9.46863C9.7634 9.49022 9.74022 9.5134 9.71863 9.53803C9.65363 9.61215 9.60259 9.71291 9.38602 10.2543C8.91626 11.4287 8.59164 12.244 8.43125 12.8489C8.26425 13.4789 8.3461 13.6399 8.37239 13.6786C8.42553 13.7568 8.49298 13.8242 8.57118 13.8774C8.60986 13.9037 8.77089 13.9855 9.40082 13.8185C10.0058 13.6581 10.821 13.3335 11.9954 12.8637C12.5368 12.6472 12.6376 12.5961 12.7117 12.5311L13.2062 13.095L12.7117 12.5311C12.7364 12.5095 12.7595 12.4864 12.7811 12.4617L13.345 12.9562L12.7811 12.4617C12.8461 12.3876 12.8972 12.2868 13.1137 11.7454C13.5835 10.571 13.9081 9.75579 14.0685 9.15082C14.2355 8.52089 14.1537 8.35986 14.1274 8.32118C14.0742 8.24298 14.0068 8.17553 13.9286 8.12239C13.8899 8.0961 13.7289 8.01425 13.0989 8.18125ZM12.7146 6.73134C13.4044 6.54845 14.1507 6.45976 14.7717 6.88173C15.0063 7.04115 15.2086 7.2435 15.368 7.47811C15.79 8.09908 15.7013 8.84532 15.5184 9.5352C15.3317 10.2394 14.9715 11.14 14.5266 12.2522L14.5065 12.3025C14.4952 12.3307 14.484 12.3586 14.473 12.3864C14.3098 12.7958 14.1655 13.1582 13.9089 13.4507C13.8441 13.5246 13.7746 13.5941 13.7007 13.6589C13.4082 13.9155 13.0458 14.0598 12.6364 14.223C12.6087 14.234 12.5807 14.2452 12.5525 14.2564L12.274 13.5601L12.5525 14.2565L12.5022 14.2766C11.39 14.7215 10.4894 15.0817 9.7852 15.2684C9.09532 15.4513 8.34908 15.54 7.72811 15.118L8.14964 14.4977L7.72811 15.118C7.4935 14.9586 7.29115 14.7563 7.13173 14.5217C6.70976 13.9007 6.79845 13.1544 6.98134 12.4646C7.16804 11.7603 7.52829 10.8597 7.97318 9.74756L7.99331 9.69725C8.00458 9.66908 8.01572 9.64111 8.02677 9.61337C8.18992 9.20391 8.33429 8.8416 8.59085 8.54904C8.65562 8.47517 8.72517 8.40562 8.79904 8.34085C9.0916 8.08429 9.45391 7.93992 9.86337 7.77677C9.89112 7.76572 9.91908 7.75458 9.94725 7.74331L9.99758 7.72318C11.1098 7.27828 12.0103 6.91804 12.7146 6.73134Z" fill="#141618"/>
</svg>
