<svg width="48" height="48" viewBox="0 0 48 48" fill="none" xmlns="http://www.w3.org/2000/svg">
<path fill-rule="evenodd" clip-rule="evenodd" d="M24.0001 47.3327C13.0006 47.3327 7.50092 47.3327 4.08384 43.9156C0.666748 40.4985 0.666748 34.9988 0.666748 23.9993C0.666748 12.9999 0.666748 7.50019 4.08384 4.0831C7.50092 0.666016 13.0006 0.666016 24.0001 0.666016C34.9995 0.666016 40.4992 0.666016 43.9163 4.0831C47.3334 7.50019 47.3334 12.9999 47.3334 23.9993C47.3334 34.9988 47.3334 40.4985 43.9163 43.9156C40.4992 47.3327 34.9995 47.3327 24.0001 47.3327ZM24.0001 15.2493C24.9666 15.2493 25.7501 16.0329 25.7501 16.9993V22.2494H31.0001C31.9666 22.2494 32.7501 23.0329 32.7501 23.9994C32.7501 24.9659 31.9666 25.7494 31.0001 25.7494H25.7501L25.7501 30.9993C25.7501 31.9658 24.9666 32.7493 24.0001 32.7493C23.0336 32.7493 22.2501 31.9658 22.2501 30.9993V25.7494H17.0001C16.0336 25.7494 15.2501 24.9659 15.2501 23.9994C15.2501 23.0329 16.0336 22.2494 17.0001 22.2494H22.2501L22.2501 16.9993C22.2501 16.0329 23.0336 15.2493 24.0001 15.2493Z" fill="#E1E6EB"/>
</svg>
