<svg width="22" height="22" viewBox="0 0 22 22" fill="#413C46"
  xmlns="http://www.w3.org/2000/svg">
  <path d="M7.99834 16.25C7.58412 16.25 7.24834 16.5858 7.24834 17C7.24834 17.4142 7.58412 17.75 7.99834 17.75H13.9983C14.4125 17.75 14.7483 17.4142 14.7483 17C14.7483 16.5858 14.4125 16.25 13.9983 16.25H7.99834Z" />
  <path fill-rule="evenodd" clip-rule="evenodd" d="M10.9983 0.25C10.2902 0.25 9.64687 0.45282 8.94889 0.79224C8.27418 1.12035 7.49476 1.60409 6.5212 2.20832L4.45462 3.4909C3.53342 4.06261 2.79578 4.5204 2.22724 4.95581C1.63849 5.40669 1.18629 5.86589 0.859647 6.46263C0.533691 7.05812 0.386904 7.69174 0.316527 8.4407C0.248323 9.16654 0.248329 10.0541 0.248337 11.1672V12.7799C0.248323 14.6837 0.248312 16.1866 0.40104 17.3616C0.557709 18.567 0.8869 19.5401 1.63069 20.3094C2.37792 21.0824 3.32879 21.4277 4.50594 21.5914C5.64683 21.75 7.1039 21.75 8.94018 21.75H13.0564C14.8927 21.75 16.3498 21.75 17.4907 21.5914C18.6679 21.4277 19.6188 21.0824 20.366 20.3094C21.1098 19.5401 21.439 18.567 21.5956 17.3616C21.7484 16.1866 21.7484 14.6838 21.7483 12.7799V11.1672C21.7483 10.0541 21.7484 9.16652 21.6801 8.4407C21.6098 7.69174 21.463 7.05812 21.137 6.46263C20.8104 5.86589 20.3582 5.40669 19.7694 4.95581C19.2009 4.5204 18.4633 4.06262 17.5421 3.49091L15.4755 2.20831C14.5019 1.60409 13.7225 1.12034 13.0478 0.79224C12.3498 0.452819 11.7065 0.25 10.9983 0.25ZM7.27786 3.50412C8.29362 2.87371 9.00784 2.43153 9.60488 2.1412C10.1866 1.85833 10.5985 1.75 10.9983 1.75C11.3982 1.75 11.8101 1.85833 12.3918 2.14119C12.9888 2.43153 13.703 2.87371 14.7188 3.50412L16.7188 4.74537C17.6796 5.34169 18.3542 5.76135 18.8574 6.1467C19.347 6.52164 19.6287 6.83106 19.8212 7.18285C20.0145 7.53589 20.1273 7.94865 20.1867 8.58104C20.2476 9.22859 20.2483 10.0458 20.2483 11.2039V12.725C20.2483 14.6959 20.2468 16.1012 20.1081 17.1683C19.9719 18.2163 19.7153 18.8244 19.2875 19.2669C18.8632 19.7058 18.2855 19.9664 17.2841 20.1057C16.2585 20.2483 14.9059 20.25 12.9983 20.25H8.99834C7.09081 20.25 5.73817 20.2483 4.71256 20.1057C3.7112 19.9664 3.13347 19.7058 2.70913 19.2669C2.28135 18.8244 2.02475 18.2163 1.88853 17.1683C1.74983 16.1012 1.74834 14.6959 1.74834 12.725V11.2039C1.74834 10.0458 1.7491 9.22859 1.80995 8.58104C1.86937 7.94865 1.98218 7.53589 2.17543 7.18285C2.36799 6.83106 2.64966 6.52164 3.13926 6.1467C3.64244 5.76135 4.31703 5.34169 5.27787 4.74537L7.27786 3.50412Z" />
</svg>
