<svg width="28" height="28" viewBox="0 0 28 28" fill="none" xmlns="http://www.w3.org/2000/svg">
<path fill-rule="evenodd" clip-rule="evenodd" d="M13.9998 27.3327C7.71444 27.3327 4.57175 27.3327 2.61913 25.3801C0.666504 23.4274 0.666504 20.2847 0.666504 13.9993C0.666504 7.71395 0.666504 4.57126 2.61913 2.61864C4.57175 0.666016 7.71444 0.666016 13.9998 0.666016C20.2852 0.666016 23.4279 0.666016 25.3805 2.61864C27.3332 4.57126 27.3332 7.71395 27.3332 13.9993C27.3332 20.2847 27.3332 23.4274 25.3805 25.3801C23.4279 27.3327 20.2852 27.3327 13.9998 27.3327ZM13.9998 21.666C14.5521 21.666 14.9998 21.2183 14.9998 20.666V12.666C14.9998 12.1137 14.5521 11.666 13.9998 11.666C13.4476 11.666 12.9998 12.1137 12.9998 12.666V20.666C12.9998 21.2183 13.4476 21.666 13.9998 21.666ZM13.9998 7.33268C14.7362 7.33268 15.3332 7.92964 15.3332 8.66602C15.3332 9.4024 14.7362 9.99935 13.9998 9.99935C13.2635 9.99935 12.6665 9.4024 12.6665 8.66602C12.6665 7.92964 13.2635 7.33268 13.9998 7.33268Z" fill="#7DC8FA"/>
</svg>
