<svg width="44" height="44" viewBox="0 0 44 44" fill="none" xmlns="http://www.w3.org/2000/svg">
<path d="M0 16C0 7.16344 7.16344 0 16 0H36C40.4183 0 44 3.58172 44 8V28C44 36.8366 36.8366 44 28 44H8C3.58172 44 0 40.4183 0 36V16Z" fill="#AF19C8"/>
<path d="M28.8181 18.2724C29.2199 18.172 29.6271 18.4163 29.7276 18.8181C29.8281 19.22 29.5837 19.6272 29.1819 19.7276L25.1819 20.7276C24.7801 20.8281 24.3729 20.5838 24.2724 20.1819C24.1719 19.7801 24.4163 19.3729 24.8181 19.2724L28.8181 18.2724Z" fill="white"/>
<path d="M28.8181 22.2724C29.2199 22.172 29.6271 22.4163 29.7276 22.8181C29.8281 23.22 29.5837 23.6272 29.1819 23.7276L25.1819 24.7276C24.7801 24.8281 24.3729 24.5838 24.2724 24.1819C24.1719 23.7801 24.4163 23.3729 24.8181 23.2724L28.8181 22.2724Z" fill="white"/>
<path d="M14.2724 18.8181C14.3729 18.4163 14.7801 18.172 15.1819 18.2724L19.1819 19.2724C19.5837 19.3729 19.8281 19.7801 19.7276 20.1819C19.6271 20.5838 19.2199 20.8281 18.8181 20.7276L14.8181 19.7276C14.4163 19.6272 14.1719 19.22 14.2724 18.8181Z" fill="white"/>
<path d="M14.2724 22.8181C14.3729 22.4163 14.7801 22.172 15.1819 22.2724L19.1819 23.2724C19.5837 23.3729 19.8281 23.7801 19.7276 24.1819C19.6271 24.5838 19.2199 24.8281 18.8181 24.7276L14.8181 23.7276C14.4163 23.6272 14.1719 23.22 14.2724 22.8181Z" fill="white"/>
<path fill-rule="evenodd" clip-rule="evenodd" d="M32.75 14.9332C32.75 13.4699 31.5847 12.215 30.0559 12.2682C28.9175 12.3079 27.4296 12.4263 26.2849 12.769C25.2899 13.0669 24.1706 13.6487 23.2982 14.1537C22.4801 14.6271 21.4617 14.6507 20.6328 14.2125C19.6374 13.6861 18.3277 13.0621 17.1914 12.7623C16.2305 12.5088 15.0152 12.387 14.0284 12.3263C12.4702 12.2306 11.25 13.4987 11.25 14.9978V26.1436C11.25 27.6798 12.4938 28.8792 13.968 28.9714C14.9268 29.0314 16.0057 29.1467 16.8086 29.3586C17.8012 29.6205 19.0286 30.2029 20.0196 30.7311C21.2529 31.3885 22.7471 31.3885 23.9804 30.7311C24.9714 30.2029 26.1988 29.6205 27.1914 29.3586C27.9943 29.1467 29.0732 29.0314 30.032 28.9714C31.5062 28.8792 32.75 27.6798 32.75 26.1436V14.9332ZM30.1081 13.7673C30.7229 13.7459 31.25 14.2516 31.25 14.9332V26.1436C31.25 26.8294 30.6817 27.4278 29.9383 27.4743C28.9582 27.5356 27.7591 27.6574 26.8086 27.9082C25.6383 28.2171 24.2827 28.8701 23.2748 29.4074C23.1065 29.4971 22.9305 29.5678 22.75 29.6194V15.9421C23.2023 15.8515 23.6421 15.6877 24.0495 15.4519C24.9 14.9597 25.8949 14.4515 26.7151 14.206C27.6643 13.9218 28.9892 13.8063 30.1081 13.7673ZM21.25 15.975C20.795 15.9043 20.349 15.7592 19.9317 15.5385C18.9549 15.022 17.7708 14.4665 16.8086 14.2127C15.9964 13.9983 14.9024 13.8829 13.9364 13.8235C13.3024 13.7845 12.75 14.3007 12.75 14.9978V26.1436C12.75 26.8294 13.3183 27.4278 14.0617 27.4743C15.0418 27.5356 16.2409 27.6574 17.1914 27.9082C18.3617 28.2171 19.7173 28.8701 20.7252 29.4074C20.8935 29.4971 21.0695 29.5678 21.25 29.6194V15.975Z" fill="white"/>
</svg>
