<svg width="22" height="23" viewBox="0 0 22 23" fill="none" xmlns="http://www.w3.org/2000/svg">
<path fill-rule="evenodd" clip-rule="evenodd" d="M5.85761 0.750008C5.88736 0.750012 5.91751 0.750017 5.94809 0.750017L5.98507 0.750015C6.3365 0.749991 6.56265 0.749975 6.78374 0.77065C7.73502 0.859606 8.63737 1.23337 9.37293 1.84313C9.54389 1.98485 9.70379 2.14477 9.95228 2.39329L10.5287 2.96969C11.3744 3.8154 11.6995 4.1311 12.0751 4.34005C12.2931 4.46134 12.5244 4.55713 12.7643 4.62552C13.1776 4.74333 13.6307 4.75002 14.8268 4.75002L15.2514 4.75002C16.5243 4.75 17.5505 4.74998 18.3623 4.85206C19.2038 4.95784 19.9187 5.18358 20.5061 5.71185C20.6044 5.80032 20.698 5.89394 20.7865 5.99231C21.3148 6.57965 21.5405 7.29459 21.6463 8.13601C21.7484 8.9479 21.7484 9.97407 21.7483 11.247V13.5564C21.7484 15.3942 21.7484 16.8498 21.5952 17.989C21.4376 19.1615 21.1055 20.1104 20.3571 20.8588C19.6087 21.6071 18.6598 21.9393 17.4874 22.0969C16.3481 22.25 14.8925 22.25 13.0547 22.25H8.94193C7.10416 22.25 5.64853 22.25 4.50932 22.0969C3.33689 21.9393 2.38794 21.6071 1.63958 20.8588C0.891218 20.1104 0.559101 19.1615 0.401473 17.989C0.248309 16.8498 0.248322 15.3942 0.248338 13.5564L0.248338 6.44976C0.248338 6.41919 0.248334 6.38904 0.24833 6.35929C0.248217 5.56338 0.248146 5.05685 0.330691 4.61935C0.693223 2.69788 2.1962 1.1949 4.11767 0.83237C4.55517 0.749824 5.0617 0.749896 5.85761 0.750008ZM5.94809 2.25002C5.03144 2.25002 4.67705 2.25329 4.39578 2.30636C3.08109 2.55441 2.05273 3.58277 1.80468 4.89746C1.75162 5.17873 1.74834 5.53312 1.74834 6.44976V13.5C1.74834 15.4068 1.74993 16.7615 1.8881 17.7892C2.02336 18.7953 2.27703 19.3749 2.70024 19.7981C3.12345 20.2213 3.7031 20.475 4.70919 20.6103C5.73685 20.7484 7.09152 20.75 8.99834 20.75H12.9983C14.9052 20.75 16.2598 20.7484 17.2875 20.6103C18.2936 20.475 18.8732 20.2213 19.2964 19.7981C19.7196 19.3749 19.9733 18.7953 20.1086 17.7892C20.2467 16.7615 20.2483 15.4068 20.2483 13.5V11.2979C20.2483 9.96207 20.2469 9.0305 20.158 8.32312C20.0714 7.63448 19.9124 7.26356 19.6712 6.99539C19.6182 6.93637 19.562 6.8802 19.503 6.82712C19.2348 6.58592 18.8639 6.42692 18.1752 6.34034C17.4679 6.25141 16.5363 6.25002 15.2004 6.25002H14.8268C14.7896 6.25002 14.7528 6.25002 14.7165 6.25003C13.6685 6.25025 12.9927 6.25038 12.3531 6.06806C12.0024 5.96811 11.6644 5.82811 11.3458 5.65083C10.7646 5.32747 10.2868 4.8495 9.54597 4.10833C9.5203 4.08265 9.49432 4.05666 9.46801 4.03035L8.91776 3.48009C8.63448 3.19682 8.5261 3.08951 8.41563 2.99793C7.91235 2.58073 7.29496 2.325 6.64408 2.26413C6.50122 2.25077 6.3487 2.25002 5.94809 2.25002ZM11.2483 9.50002C11.2483 9.0858 11.5841 8.75002 11.9983 8.75002H16.9983C17.4126 8.75002 17.7483 9.0858 17.7483 9.50002C17.7483 9.91423 17.4126 10.25 16.9983 10.25H11.9983C11.5841 10.25 11.2483 9.91423 11.2483 9.50002Z" fill="#413C46"/>
</svg>
