<svg width="37" height="40" viewBox="0 0 37 40" fill="white" xmlns="http://www.w3.org/2000/svg">
<path fill-rule="evenodd" clip-rule="evenodd" d="M16.3967 0.291749H20.2703C23.6395 0.29172 26.3081 0.291696 28.3967 0.572496C30.5461 0.861481 32.2859 1.47036 33.6579 2.84236C35.0299 4.21436 35.6388 5.9541 35.9277 8.10354C36.2085 10.1921 36.2085 12.8608 36.2085 16.23V23.7702C36.2085 27.1394 36.2085 29.8081 35.9277 31.8966C35.6388 34.0461 35.0299 35.7858 33.6579 37.1578C32.2859 38.5298 30.5461 39.1387 28.3967 39.4277C26.3081 39.7085 23.6395 39.7084 20.2703 39.7084H16.3967C13.0275 39.7084 10.3588 39.7085 8.27029 39.4277C6.12085 39.1387 4.38111 38.5298 3.00911 37.1578C1.63711 35.7858 1.02823 34.0461 0.739244 31.8966C0.458444 29.8081 0.458468 27.1394 0.458497 23.7702V16.23C0.458468 12.8608 0.458444 10.1921 0.739244 8.10354C1.02823 5.9541 1.63711 4.21436 3.00911 2.84236C4.38111 1.47036 6.12085 0.861481 8.27029 0.572496C10.3588 0.291696 13.0275 0.29172 16.3967 0.291749ZM8.63672 3.29797C6.79222 3.54596 5.72954 4.01102 4.95365 4.7869C4.17777 5.56279 3.71271 6.62547 3.46472 8.46997C3.21142 10.354 3.2085 12.8376 3.2085 16.3334V23.6667C3.2085 27.1626 3.21142 29.6461 3.46472 31.5302C3.71271 33.3747 4.17777 34.4374 4.95365 35.2133C5.72954 35.9891 6.79222 36.4542 8.63672 36.7022C10.5208 36.9555 13.0043 36.9584 16.5002 36.9584H20.1668C23.6627 36.9584 26.1462 36.9555 28.0303 36.7022C29.8748 36.4542 30.9375 35.9891 31.7133 35.2133C32.4892 34.4374 32.9543 33.3747 33.2023 31.5302C33.4556 29.6461 33.4585 27.1626 33.4585 23.6667V16.3334C33.4585 12.8376 33.4556 10.354 33.2023 8.46997C32.9543 6.62547 32.4892 5.56279 31.7133 4.7869C30.9375 4.01102 29.8748 3.54596 28.0303 3.29797C26.1462 3.04467 23.6627 3.04175 20.1668 3.04175H16.5002C13.0043 3.04175 10.5208 3.04467 8.63672 3.29797ZM9.62516 12.6667C9.62516 11.9074 10.2408 11.2917 11.0002 11.2917H25.6668C26.4262 11.2917 27.0418 11.9074 27.0418 12.6667C27.0418 13.4261 26.4262 14.0417 25.6668 14.0417H11.0002C10.2408 14.0417 9.62516 13.4261 9.62516 12.6667ZM9.62516 20.0001C9.62516 19.2407 10.2408 18.6251 11.0002 18.6251H25.6668C26.4262 18.6251 27.0418 19.2407 27.0418 20.0001C27.0418 20.7595 26.4262 21.3751 25.6668 21.3751H11.0002C10.2408 21.3751 9.62516 20.7595 9.62516 20.0001ZM9.62516 27.3334C9.62516 26.574 10.2408 25.9584 11.0002 25.9584H20.1668C20.9262 25.9584 21.5418 26.574 21.5418 27.3334C21.5418 28.0928 20.9262 28.7084 20.1668 28.7084H11.0002C10.2408 28.7084 9.62516 28.0928 9.62516 27.3334Z" />
</svg>
