<svg width="22" height="22" viewBox="0 0 22 22" fill="none" xmlns="http://www.w3.org/2000/svg">
<path fill-rule="evenodd" clip-rule="evenodd" d="M11 1.75C5.89137 1.75 1.75 5.89137 1.75 11C1.75 16.1086 5.89137 20.25 11 20.25C16.1086 20.25 20.25 16.1086 20.25 11C20.25 5.89137 16.1086 1.75 11 1.75ZM0.25 11C0.25 5.06294 5.06294 0.25 11 0.25C16.9371 0.25 21.75 5.06294 21.75 11C21.75 16.9371 16.9371 21.75 11 21.75C5.06294 21.75 0.25 16.9371 0.25 11ZM11 4.25C11.4142 4.25 11.75 4.58579 11.75 5V5.31673C13.3804 5.60867 14.75 6.83361 14.75 8.5C14.75 8.91421 14.4142 9.25 14 9.25C13.5858 9.25 13.25 8.91421 13.25 8.5C13.25 7.82154 12.6859 7.10339 11.75 6.84748V10.3167C13.3804 10.6087 14.75 11.8336 14.75 13.5C14.75 15.1664 13.3804 16.3913 11.75 16.6833V17C11.75 17.4142 11.4142 17.75 11 17.75C10.5858 17.75 10.25 17.4142 10.25 17V16.6833C8.61957 16.3913 7.25 15.1664 7.25 13.5C7.25 13.0858 7.58579 12.75 8 12.75C8.41421 12.75 8.75 13.0858 8.75 13.5C8.75 14.1785 9.3141 14.8966 10.25 15.1525V11.6833C8.61957 11.3913 7.25 10.1664 7.25 8.5C7.25 6.83361 8.61957 5.60867 10.25 5.31673V5C10.25 4.58579 10.5858 4.25 11 4.25ZM10.25 6.84748C9.3141 7.10339 8.75 7.82154 8.75 8.5C8.75 9.17846 9.3141 9.89661 10.25 10.1525V6.84748ZM11.75 11.8475V15.1525C12.6859 14.8966 13.25 14.1785 13.25 13.5C13.25 12.8215 12.6859 12.1034 11.75 11.8475Z" fill="#141618"/>
</svg>
