<svg width="41" height="40" viewBox="0 0 41 40" fill="none" xmlns="http://www.w3.org/2000/svg">
<path d="M20.6668 12.2084C19.5277 12.2084 18.6043 13.1318 18.6043 14.2709C18.6043 15.0303 17.9887 15.6459 17.2293 15.6459C16.4699 15.6459 15.8543 15.0303 15.8543 14.2709C15.8543 11.613 18.009 9.45841 20.6668 9.45841C23.3247 9.45841 25.4793 11.613 25.4793 14.2709C25.4793 16.037 24.5272 17.5793 23.1148 18.4149C22.7541 18.6283 22.4563 18.8613 22.2623 19.09C22.074 19.3119 22.0418 19.4567 22.0418 19.5417V21.8334C22.0418 22.5928 21.4262 23.2084 20.6668 23.2084C19.9074 23.2084 19.2918 22.5928 19.2918 21.8334V19.5417C19.2918 18.6143 19.6979 17.8617 20.1656 17.3106C20.6276 16.7661 21.2038 16.3503 21.7145 16.0481C22.325 15.687 22.7293 15.0254 22.7293 14.2709C22.7293 13.1318 21.8059 12.2084 20.6668 12.2084Z" fill="white"/>
<path d="M20.6668 29.1667C21.6793 29.1667 22.5002 28.3459 22.5002 27.3334C22.5002 26.3209 21.6793 25.5001 20.6668 25.5001C19.6543 25.5001 18.8335 26.3209 18.8335 27.3334C18.8335 28.3459 19.6543 29.1667 20.6668 29.1667Z" fill="white"/>
<path fill-rule="evenodd" clip-rule="evenodd" d="M20.5616 0.291748H20.772C25.0041 0.291726 28.3206 0.291708 30.9084 0.639618C33.5571 0.995724 35.6471 1.73885 37.2876 3.37933C38.9281 5.01982 39.6712 7.10986 40.0273 9.75854C40.3752 12.3463 40.3752 15.6628 40.3752 19.8949V20.1053C40.3752 24.3373 40.3752 27.6539 40.0273 30.2416C39.6712 32.8903 38.9281 34.9803 37.2876 36.6208C35.6471 38.2613 33.5571 39.0044 30.9084 39.3605C28.3206 39.7085 25.0041 39.7084 20.772 39.7084H20.5616C16.3296 39.7084 13.013 39.7085 10.4253 39.3605C7.77661 39.0044 5.68656 38.2613 4.04608 36.6208C2.4056 34.9803 1.66247 32.8903 1.30637 30.2416C0.958456 27.6539 0.958474 24.3373 0.958496 20.1053V19.8949C0.958474 15.6629 0.958456 12.3463 1.30637 9.75854C1.66247 7.10986 2.4056 5.01982 4.04608 3.37933C5.68656 1.73885 7.77661 0.995724 10.4253 0.639618C13.013 0.291708 16.3296 0.291726 20.5616 0.291748ZM10.7917 3.3651C8.44798 3.6802 7.03499 4.27951 5.99062 5.32388C4.94625 6.36825 4.34695 7.78123 4.03184 10.125C3.71142 12.5083 3.7085 15.64 3.7085 20.0001C3.7085 24.3602 3.71142 27.4919 4.03184 29.8752C4.34695 32.2189 4.94625 33.6319 5.99062 34.6763C7.03499 35.7207 8.44798 36.32 10.7917 36.6351C13.175 36.9555 16.3067 36.9584 20.6668 36.9584C25.0269 36.9584 28.1586 36.9555 30.5419 36.6351C32.8857 36.32 34.2987 35.7207 35.343 34.6763C36.3874 33.6319 36.9867 32.2189 37.3018 29.8752C37.6222 27.4919 37.6252 24.3602 37.6252 20.0001C37.6252 15.64 37.6222 12.5083 37.3018 10.125C36.9867 7.78123 36.3874 6.36825 35.343 5.32388C34.2987 4.27951 32.8857 3.6802 30.5419 3.3651C28.1586 3.04467 25.0269 3.04175 20.6668 3.04175C16.3067 3.04175 13.175 3.04467 10.7917 3.3651Z" fill="white"/>
</svg>
