<svg width="30" height="30" viewBox="0 0 30 30" fill="none" xmlns="http://www.w3.org/2000/svg">
<path fill-rule="evenodd" clip-rule="evenodd" d="M14.9998 2.91602C8.18833 2.91602 2.6665 8.43784 2.6665 15.2493C2.6665 22.0609 8.18833 27.5827 14.9998 27.5827C21.8113 27.5827 27.3332 22.0609 27.3332 15.2493C27.3332 8.43784 21.8113 2.91602 14.9998 2.91602ZM0.666504 15.2493C0.666504 7.33327 7.08376 0.916016 14.9998 0.916016C22.9159 0.916016 29.3332 7.33327 29.3332 15.2493C29.3332 23.1654 22.9159 29.5827 14.9998 29.5827C7.08376 29.5827 0.666504 23.1654 0.666504 15.2493ZM14.9998 9.58268C14.1714 9.58268 13.4998 10.2543 13.4998 11.0827C13.4998 11.635 13.0521 12.0827 12.4998 12.0827C11.9476 12.0827 11.4998 11.635 11.4998 11.0827C11.4998 9.14969 13.0668 7.58268 14.9998 7.58268C16.9328 7.58268 18.4998 9.14969 18.4998 11.0827C18.4998 12.3671 17.8074 13.4888 16.7802 14.0965C16.5179 14.2517 16.3013 14.4212 16.1602 14.5874C16.0232 14.7489 15.9998 14.8542 15.9998 14.916V16.5827C15.9998 17.135 15.5521 17.5827 14.9998 17.5827C14.4476 17.5827 13.9998 17.135 13.9998 16.5827V14.916C13.9998 14.2415 14.2951 13.6942 14.6353 13.2934C14.9713 12.8974 15.3904 12.595 15.7618 12.3752C16.2058 12.1125 16.4998 11.6314 16.4998 11.0827C16.4998 10.2543 15.8283 9.58268 14.9998 9.58268ZM14.9998 21.916C15.7362 21.916 16.3332 21.3191 16.3332 20.5827C16.3332 19.8463 15.7362 19.2493 14.9998 19.2493C14.2635 19.2493 13.6665 19.8463 13.6665 20.5827C13.6665 21.3191 14.2635 21.916 14.9998 21.916Z" fill="#78828C"/>
</svg>
