<svg width="22" height="22" viewBox="0 0 22 22" fill="none" xmlns="http://www.w3.org/2000/svg">
<path fill-rule="evenodd" clip-rule="evenodd" d="M13.2544 0.364773C12.1584 0.0588351 11.132 0.389562 10.4026 1.05979C9.68445 1.71963 9.25 2.70576 9.25 3.76087V10.4554C9.25 11.7228 10.2775 12.7503 11.5449 12.7503H18.2394C19.2945 12.7503 20.2806 12.3158 20.9405 11.5977C21.6107 10.8683 21.9414 9.84186 21.6355 8.74587C20.5034 4.69027 17.31 1.49687 13.2544 0.364773ZM10.75 3.76087C10.75 3.10956 11.0201 2.52942 11.4175 2.16432C11.8035 1.80959 12.3035 1.65668 12.8511 1.80954C16.4013 2.80055 19.1997 5.599 20.1907 9.14917C20.3436 9.69678 20.1907 10.1967 19.8359 10.5828C19.4708 10.9801 18.8907 11.2503 18.2394 11.2503H11.5449C11.1059 11.2503 10.75 10.8944 10.75 10.4554V3.76087Z" fill="#141618"/>
<path d="M7.67232 3.71579C8.0675 3.59167 8.28724 3.1707 8.16312 2.77552C8.039 2.38034 7.61803 2.1606 7.22285 2.28472C3.18231 3.55378 0.25 7.32818 0.25 11.7894C0.25 17.2906 4.70962 21.7503 10.2108 21.7503C14.6721 21.7503 18.4465 18.8179 19.7155 14.7774C19.8397 14.3822 19.6199 13.9613 19.2247 13.8371C18.8296 13.713 18.4086 13.9328 18.2845 14.3279C17.2061 17.7613 13.9982 20.2503 10.2108 20.2503C5.53805 20.2503 1.75 16.4622 1.75 11.7894C1.75 8.00209 4.23899 4.79414 7.67232 3.71579Z" fill="#141618"/>
</svg>
