<svg width="18" height="19" viewBox="0 0 18 19" fill="#78828C" xmlns="http://www.w3.org/2000/svg">
<path fill-rule="evenodd" clip-rule="evenodd" d="M8.58171 1.79199C4.55463 1.79199 1.29004 5.05658 1.29004 9.08366C1.29004 13.1107 4.55463 16.3753 8.58171 16.3753C12.6088 16.3753 15.8734 13.1107 15.8734 9.08366C15.8734 5.05658 12.6088 1.79199 8.58171 1.79199ZM0.0400391 9.08366C0.0400391 4.36623 3.86427 0.541992 8.58171 0.541992C13.2991 0.541992 17.1234 4.36623 17.1234 9.08366C17.1234 11.2174 16.341 13.1684 15.0474 14.6655L17.7736 17.3917C18.0177 17.6358 18.0177 18.0315 17.7736 18.2756C17.5296 18.5197 17.1338 18.5197 16.8898 18.2756L14.1635 15.5494C12.6665 16.8429 10.7155 17.6253 8.58171 17.6253C3.86427 17.6253 0.0400391 13.8011 0.0400391 9.08366Z" />
</svg>
