<svg width="96" height="72" viewBox="0 0 96 72" fill="none" xmlns="http://www.w3.org/2000/svg">
<rect x="1" y="1" width="94" height="70" rx="3" fill="white"/>
<path d="M46.5077 48H15.4923C15.2204 48 15 48.2686 15 48.6V50.4C15 50.7314 15.2204 51 15.4923 51H46.5077C46.7796 51 47 50.7314 47 50.4V48.6C47 48.2686 46.7796 48 46.5077 48Z" fill="#E1E6EB"/>
<path d="M49.5333 39H15.4667C15.2089 39 15 39.2686 15 39.6V41.4C15 41.7314 15.2089 42 15.4667 42H49.5333C49.7911 42 50 41.7314 50 41.4V39.6C50 39.2686 49.7911 39 49.5333 39Z" fill="#E1E6EB"/>
<path d="M53.2909 30H15.7091C15.3175 30 15 30.2686 15 30.6V32.4C15 32.7314 15.3175 33 15.7091 33H53.2909C53.6825 33 54 32.7314 54 32.4V30.6C54 30.2686 53.6825 30 53.2909 30Z" fill="#E1E6EB"/>
<path d="M56.4 21H15.6C15.2686 21 15 21.2686 15 21.6V23.4C15 23.7314 15.2686 24 15.6 24H56.4C56.7314 24 57 23.7314 57 23.4V21.6C57 21.2686 56.7314 21 56.4 21Z" fill="#E1E6EB"/>
<path fill-rule="evenodd" clip-rule="evenodd" d="M73.5001 21C73.9723 21 74.4169 21.1905 74.7001 21.5143L80.7001 28.3714C81.1972 28.9395 81.0628 29.7454 80.4001 30.1713C79.7374 30.5976 78.7972 30.4824 78.3001 29.9143L75.0001 26.1429V45.8571L78.3001 42.0858C78.7972 41.5176 79.7374 41.4024 80.4001 41.8287C81.0628 42.2547 81.1972 43.0605 80.7001 43.6287L74.7001 50.4858C74.4169 50.8095 73.9723 51 73.5001 51C73.0279 51 72.5833 50.8095 72.3001 50.4858L66.3001 43.6287C65.803 43.0605 65.9374 42.2547 66.6001 41.8287C67.2628 41.4024 68.203 41.5176 68.7001 42.0858L72.0001 45.8571V26.1428L68.7001 29.9143C68.203 30.4824 67.2628 30.5976 66.6001 30.1713C65.9374 29.7454 65.803 28.9395 66.3001 28.3714L72.3001 21.5143C72.5833 21.1905 73.0279 21 73.5001 21Z" fill="#AF19C8"/>
<rect x="1" y="1" width="94" height="70" rx="3" stroke="#AF19C8" stroke-width="2"/>
</svg>
