<svg width="22" height="22" viewBox="0 0 22 22" fill="none" xmlns="http://www.w3.org/2000/svg">
<path fill-rule="evenodd" clip-rule="evenodd" d="M10.2383 1.79888C9.62426 1.88003 8.86602 2.0542 7.7874 2.30311L6.55922 2.58654C5.6482 2.79677 5.02082 2.94252 4.54162 3.10698C4.07899 3.26576 3.81727 3.42228 3.61978 3.61978C3.42228 3.81727 3.26576 4.07899 3.10698 4.54162C2.94252 5.02082 2.79677 5.6482 2.58654 6.55922L2.30311 7.7874C2.0542 8.86602 1.88003 9.62426 1.79888 10.2383C1.71982 10.8365 1.73805 11.2413 1.84358 11.6092C1.94911 11.9772 2.14817 12.3301 2.53226 12.7954C2.92651 13.2731 3.47607 13.8238 4.25882 14.6066L6.08845 16.4362C7.44794 17.7957 8.41533 18.7608 9.24701 19.3954C10.0614 20.0167 10.6569 20.25 11.2623 20.25C11.8678 20.25 12.4633 20.0167 13.2776 19.3954C14.1093 18.7608 15.0767 17.7957 16.4362 16.4362C17.7957 15.0767 18.7608 14.1093 19.3954 13.2776C20.0167 12.4633 20.25 11.8678 20.25 11.2623C20.25 10.6569 20.0167 10.0614 19.3954 9.24701C18.7608 8.41533 17.7957 7.44794 16.4362 6.08845L14.6066 4.25882C13.8238 3.47607 13.2731 2.92651 12.7954 2.53226C12.3301 2.14817 11.9772 1.94911 11.6092 1.84358C11.2413 1.73805 10.8365 1.71982 10.2383 1.79888ZM10.0418 0.31181C10.7591 0.217013 11.3881 0.219688 12.0227 0.401705C12.6574 0.583722 13.1922 0.914817 13.7502 1.37538C14.2897 1.82061 14.8905 2.4214 15.641 3.17197L17.5368 5.06774C18.8474 6.37835 19.8851 7.41598 20.5879 8.33714C21.311 9.28494 21.75 10.197 21.75 11.2623C21.75 12.3276 21.311 13.2397 20.5879 14.1875C19.8851 15.1087 18.8474 16.1463 17.5368 17.4569L17.4569 17.5368C16.1463 18.8474 15.1087 19.8851 14.1875 20.5879C13.2397 21.311 12.3276 21.75 11.2623 21.75C10.197 21.75 9.28494 21.311 8.33714 20.5879C7.41598 19.8851 6.37833 18.8474 5.06771 17.5368L3.17196 15.641C2.4214 14.8905 1.82061 14.2897 1.37538 13.7502C0.914817 13.1922 0.583722 12.6574 0.401705 12.0227C0.219688 11.3881 0.217013 10.7591 0.311809 10.0418C0.403449 9.34835 0.594505 8.52048 0.833188 7.48622L1.13385 6.18334C1.33302 5.32023 1.49543 4.61639 1.68821 4.05469C1.88955 3.46806 2.14313 2.9751 2.55912 2.55912C2.9751 2.14313 3.46806 1.88955 4.05469 1.68821C4.61639 1.49543 5.32023 1.33302 6.18335 1.13385L7.48622 0.833189C8.52047 0.594506 9.34835 0.40345 10.0418 0.31181ZM8.49094 6.99514C8.00278 6.50699 7.21133 6.50699 6.72317 6.99514C6.23502 7.4833 6.23502 8.27476 6.72317 8.76291C7.21133 9.25107 8.00278 9.25107 8.49094 8.76291C8.97909 8.27476 8.97909 7.4833 8.49094 6.99514ZM5.66251 5.93448C6.73645 4.86054 8.47766 4.86054 9.5516 5.93448C10.6255 7.00843 10.6255 8.74963 9.5516 9.82357C8.47766 10.8975 6.73645 10.8975 5.66251 9.82357C4.58857 8.74963 4.58857 7.00843 5.66251 5.93448ZM18.0511 9.99017C18.344 10.2831 18.344 10.7579 18.0511 11.0508L11.0721 18.0301C10.7792 18.323 10.3043 18.323 10.0114 18.0301C9.71853 17.7372 9.71852 17.2623 10.0114 16.9694L16.9904 9.99019C17.2833 9.69729 17.7582 9.69728 18.0511 9.99017Z" fill="#141618"/>
</svg>
