<svg width="22" height="22" viewBox="0 0 22 22" fill="none" xmlns="http://www.w3.org/2000/svg">
<path fill-rule="evenodd" clip-rule="evenodd" d="M11 1.75C5.89137 1.75 1.75 5.89137 1.75 11C1.75 16.1086 5.89137 20.25 11 20.25C16.1086 20.25 20.25 16.1086 20.25 11C20.25 5.89137 16.1086 1.75 11 1.75ZM0.25 11C0.25 5.06294 5.06294 0.25 11 0.25C16.9371 0.25 21.75 5.06294 21.75 11C21.75 16.9371 16.9371 21.75 11 21.75C5.06294 21.75 0.25 16.9371 0.25 11ZM11 6.25C11.4142 6.25 11.75 6.58579 11.75 7V10.6893L14.0303 12.9697C14.3232 13.2626 14.3232 13.7374 14.0303 14.0303C13.7374 14.3232 13.2626 14.3232 12.9697 14.0303L10.4697 11.5303C10.329 11.3897 10.25 11.1989 10.25 11V7C10.25 6.58579 10.5858 6.25 11 6.25Z" fill="#141618"/>
</svg>
