<svg width="22" height="20" viewBox="0 0 22 20" fill="none" xmlns="http://www.w3.org/2000/svg">
<path fill-rule="evenodd" clip-rule="evenodd" d="M8.46435 0.820574C10.0871 0.0598082 11.9128 0.059809 13.5356 0.820575L20.2268 3.95756C21.2791 4.4509 21.75 5.52222 21.75 6.50002C21.75 7.47782 21.2791 8.54915 20.2268 9.04248L18.75 9.73482V14.6254C18.75 15.8785 18.1217 17.0883 16.978 17.7217C16.2263 18.138 15.2384 18.6391 14.1988 19.038C13.1715 19.4321 12.0339 19.75 11 19.75C9.96609 19.75 8.82851 19.4321 7.80116 19.038C6.76158 18.6391 5.77371 18.138 5.02198 17.7217C3.87826 17.0883 3.25 15.8785 3.25 14.6254V9.73478L1.77323 9.04244L1.75 9.03141V12C1.75 12.4142 1.41421 12.75 1 12.75C0.585786 12.75 0.25 12.4142 0.25 12V6.5C0.25 5.5222 0.720948 4.45085 1.77324 3.95752L8.46435 0.820574ZM4.75 10.438V14.6254C4.75 15.3884 5.12875 16.0661 5.74868 16.4095C6.46533 16.8063 7.38678 17.2724 8.33844 17.6375C9.30234 18.0073 10.2379 18.25 11 18.25C11.7621 18.25 12.6977 18.0073 13.6616 17.6375C14.6132 17.2724 15.5347 16.8063 16.2513 16.4095C16.8713 16.0661 17.25 15.3884 17.25 14.6254V10.4381L13.5357 12.1794C11.9129 12.9402 10.0872 12.9402 8.46444 12.1794L4.75 10.438ZM2.40996 7.68429C2.00679 7.49527 1.75 7.04438 1.75 6.49998C1.75 5.95557 2.00679 5.50469 2.40997 5.31567L9.10108 2.17872C10.3204 1.60709 11.6795 1.60709 12.8988 2.17873L19.59 5.31571C19.9932 5.50473 20.25 5.95562 20.25 6.50002C20.25 7.04443 19.9932 7.49531 19.59 7.68433L12.8989 10.8213C11.6796 11.3929 10.3205 11.3929 9.10117 10.8213L2.40996 7.68429Z" fill="#4BAF7D"/>
</svg>
