<svg width="20" height="20" viewBox="0 0 20 20" fill="none" xmlns="http://www.w3.org/2000/svg">
<circle cx="9.99998" cy="9.99967" r="9.16667" fill="#3219AF"/>
<path d="M11.1289 5.66949C10.4053 5.33022 9.59431 5.33022 8.87065 5.66949L5.46314 7.26701C4.91517 7.52391 4.77231 8.24831 5.03454 8.74899L5.03454 11.2715C5.03454 11.4825 5.20554 11.6535 5.41649 11.6535C5.62743 11.6535 5.79843 11.4825 5.79843 11.2715V9.32209L8.87069 10.7624C9.59435 11.1017 10.4053 11.1017 11.129 10.7624L14.5365 9.16492C15.2777 8.81743 15.2777 7.61453 14.5365 7.26703L11.1289 5.66949Z" fill="white"/>
<path d="M6.435 10.4642V12.3539C6.435 12.8673 6.69142 13.3479 7.1405 13.5966C7.88828 14.0107 9.08519 14.5817 9.99982 14.5817C10.9145 14.5817 12.1114 14.0107 12.8591 13.5966C13.3082 13.3479 13.5646 12.8673 13.5646 12.3539V10.4642L11.4533 11.4541C10.5241 11.8897 9.47554 11.8897 8.54643 11.4541L6.435 10.4642Z" fill="white"/>
</svg>
