<svg width="21" height="20" viewBox="0 0 21 20" fill="none" xmlns="http://www.w3.org/2000/svg">
<path d="M11.0535 0.493923C10.9114 0.338518 10.7106 0.25 10.5 0.25C10.2894 0.25 10.0886 0.338518 9.94648 0.493923L5.94648 4.86892C5.66698 5.17462 5.68822 5.64902 5.99392 5.92852C6.29963 6.20802 6.77402 6.18678 7.05352 5.88108L9.75 2.9318V14C9.75 14.4142 10.0858 14.75 10.5 14.75C10.9142 14.75 11.25 14.4142 11.25 14V2.9318L13.9465 5.88108C14.226 6.18678 14.7004 6.20802 15.0061 5.92852C15.3118 5.64902 15.333 5.17462 15.0535 4.86892L11.0535 0.493923Z" fill="#3219AF"/>
<path d="M2.25 13C2.25 12.5858 1.91422 12.25 1.5 12.25C1.08579 12.25 0.750001 12.5858 0.750001 13V13.0549C0.74998 14.4225 0.749964 15.5248 0.866524 16.3918C0.987541 17.2919 1.24643 18.0497 1.84835 18.6516C2.45027 19.2536 3.20814 19.5125 4.10825 19.6335C4.97522 19.75 6.07754 19.75 7.44513 19.75H13.5549C14.9225 19.75 16.0248 19.75 16.8918 19.6335C17.7919 19.5125 18.5497 19.2536 19.1517 18.6516C19.7536 18.0497 20.0125 17.2919 20.1335 16.3918C20.25 15.5248 20.25 14.4225 20.25 13.0549V13C20.25 12.5858 19.9142 12.25 19.5 12.25C19.0858 12.25 18.75 12.5858 18.75 13C18.75 14.4354 18.7484 15.4365 18.6469 16.1919C18.5482 16.9257 18.3678 17.3142 18.091 17.591C17.8142 17.8678 17.4257 18.0482 16.6919 18.1469C15.9365 18.2484 14.9354 18.25 13.5 18.25H7.5C6.06459 18.25 5.06347 18.2484 4.30812 18.1469C3.57435 18.0482 3.18577 17.8678 2.90901 17.591C2.63225 17.3142 2.4518 16.9257 2.35315 16.1919C2.25159 15.4365 2.25 14.4354 2.25 13Z" fill="#3219AF"/>
</svg>
