<svg width="22" height="22" viewBox="0 0 22 22" fill="none" xmlns="http://www.w3.org/2000/svg">
<path fill-rule="evenodd" clip-rule="evenodd" d="M8.20646 2.18191C7.95433 2.26179 7.70533 2.35257 7.46018 2.45411C6.33792 2.91897 5.3182 3.60032 4.45926 4.45926C3.60032 5.3182 2.91897 6.33792 2.45411 7.46018C2.0852 8.35081 1.85837 9.2922 1.78045 10.25H6.26094C6.29294 9.1541 6.39498 8.0741 6.56457 7.05057C6.7725 5.79558 7.07972 4.63914 7.47522 3.65039C7.69114 3.11057 7.9351 2.61641 8.20646 2.18191ZM11 0.25C9.58829 0.25 8.1904 0.528057 6.88615 1.06829C5.5819 1.60853 4.39683 2.40037 3.3986 3.3986C2.40037 4.39683 1.60853 5.5819 1.0683 6.88615C0.528057 8.1904 0.25 9.58829 0.25 11C0.25 12.4117 0.528057 13.8096 1.06829 15.1138C1.60853 16.4181 2.40037 17.6032 3.3986 18.6014C4.39683 19.5996 5.5819 20.3915 6.88615 20.9317C8.1904 21.4719 9.58829 21.75 11 21.75C12.4117 21.75 13.8096 21.4719 15.1138 20.9317C16.4181 20.3915 17.6032 19.5996 18.6014 18.6014C19.5996 17.6032 20.3915 16.4181 20.9317 15.1138C21.4719 13.8096 21.75 12.4117 21.75 11C21.75 9.58829 21.4719 8.1904 20.9317 6.88615C20.3915 5.5819 19.5996 4.39683 18.6014 3.3986C17.6032 2.40037 16.4181 1.60853 15.1138 1.0683C13.8096 0.528057 12.4117 0.25 11 0.25ZM11 1.75C10.7387 1.75 10.4012 1.87579 10.0088 2.2822C9.61341 2.69161 9.21762 3.33326 8.86793 4.20747C8.52056 5.07589 8.2385 6.12424 8.04439 7.29576C7.88866 8.23569 7.79316 9.23313 7.76162 10.25L14.2384 10.25C14.2068 9.23313 14.1113 8.23569 13.9556 7.29576C13.7615 6.12424 13.4794 5.0759 13.1321 4.20748C12.7824 3.33326 12.3866 2.69161 11.9912 2.2822C11.5988 1.87579 11.2613 1.75 11 1.75ZM15.7391 10.25C15.7071 9.1541 15.605 8.07411 15.4354 7.05057C15.2275 5.79558 14.9203 4.63914 14.5248 3.65039C14.3089 3.11057 14.0649 2.61641 13.7935 2.18191C14.0457 2.26179 14.2947 2.35257 14.5398 2.45411C15.6621 2.91897 16.6818 3.60032 17.5407 4.45926C18.3997 5.31821 19.081 6.33792 19.5459 7.46018C19.9148 8.35082 20.1416 9.2922 20.2195 10.25H15.7391ZM14.2384 11.75L7.76162 11.75C7.79316 12.7669 7.88866 13.7643 8.04439 14.7042C8.2385 15.8758 8.52056 16.9241 8.86793 17.7925C9.21762 18.6667 9.61341 19.3084 10.0088 19.7178C10.4012 20.1242 10.7387 20.25 11 20.25C11.2613 20.25 11.5988 20.1242 11.9912 19.7178C12.3866 19.3084 12.7824 18.6667 13.1321 17.7925C13.4794 16.9241 13.7615 15.8758 13.9556 14.7042C14.1113 13.7643 14.2068 12.7669 14.2384 11.75ZM13.7935 19.8181C14.0649 19.3836 14.3089 18.8894 14.5248 18.3496C14.9203 17.3609 15.2275 16.2044 15.4354 14.9494C15.605 13.9259 15.7071 12.8459 15.7391 11.75H20.2195C20.1416 12.7078 19.9148 13.6492 19.5459 14.5398C19.081 15.6621 18.3997 16.6818 17.5407 17.5407C16.6818 18.3997 15.6621 19.081 14.5398 19.5459C14.2947 19.6474 14.0457 19.7382 13.7935 19.8181ZM8.20646 19.8181C7.9351 19.3836 7.69114 18.8894 7.47521 18.3496C7.07971 17.3609 6.7725 16.2044 6.56457 14.9494C6.39498 13.9259 6.29294 12.8459 6.26094 11.75H1.78045C1.85837 12.7078 2.0852 13.6492 2.45411 14.5398C2.91897 15.6621 3.60032 16.6818 4.45926 17.5407C5.3182 18.3997 6.33792 19.081 7.46018 19.5459C7.70533 19.6474 7.95433 19.7382 8.20646 19.8181Z" fill="#141618"/>
</svg>
