<svg width="24" height="24" viewBox="0 0 24 24" fill="none" xmlns="http://www.w3.org/2000/svg">
<g clip-path="url(#clip0_3714_2023)">
<path d="M0 24L1.69627 17.8403C0.647564 16.0323 0.0974211 13.9848 0.103152 11.8916C0.103152 5.3327 5.46704 0 12.0516 0C15.2493 0 18.2521 1.23764 20.5043 3.48479C22.7622 5.73194 24.0057 8.72053 24 11.8973C24 18.4563 18.6361 23.789 12.0458 23.789H12.0401C10.0401 23.789 8.07449 23.2871 6.32664 22.3403L0 24ZM6.63037 20.1901L6.9914 20.4068C8.51575 21.308 10.2636 21.7814 12.0458 21.7871H12.0516C17.5243 21.7871 21.9828 17.3555 21.9828 11.903C21.9828 9.26236 20.9513 6.78137 19.0773 4.91065C17.2034 3.03992 14.7049 2.01331 12.0516 2.01331C6.57879 2.0076 2.12034 6.43916 2.12034 11.8916C2.12034 13.7567 2.64183 15.576 3.63897 17.1502L3.87392 17.5266L2.87106 21.1711L6.63037 20.1901Z" fill="white"/>
<path d="M0.418457 23.5853L2.05742 17.6366C1.0431 15.8971 0.510147 13.918 0.510147 11.899C0.515878 5.56816 5.69066 0.417969 12.0517 0.417969C15.1405 0.417969 18.0345 1.61569 20.2121 3.78299C22.3898 5.95029 23.5875 8.83622 23.5875 11.9047C23.5875 18.2355 18.407 23.3857 12.0517 23.3857H12.046C10.1147 23.3857 8.21788 22.9009 6.53306 21.9883L0.418457 23.5853Z" fill="url(#paint0_linear_3714_2023)"/>
<path d="M0 24L1.69627 17.8403C0.647564 16.0323 0.0974211 13.9848 0.103152 11.8916C0.103152 5.3327 5.46704 0 12.0516 0C15.2493 0 18.2521 1.23764 20.5043 3.48479C22.7622 5.73194 24.0057 8.72053 24 11.8973C24 18.4563 18.6361 23.789 12.0458 23.789H12.0401C10.0401 23.789 8.07449 23.2871 6.32664 22.3403L0 24ZM6.63037 20.1901L6.9914 20.4068C8.51575 21.308 10.2636 21.7814 12.0458 21.7871H12.0516C17.5243 21.7871 21.9828 17.3555 21.9828 11.903C21.9828 9.26236 20.9513 6.78137 19.0773 4.91065C17.2034 3.03992 14.7049 2.01331 12.0516 2.01331C6.57879 2.0076 2.12034 6.43916 2.12034 11.8916C2.12034 13.7567 2.64183 15.576 3.63897 17.1502L3.87392 17.5266L2.87106 21.1711L6.63037 20.1901Z" fill="url(#paint1_linear_3714_2023)"/>
<path fill-rule="evenodd" clip-rule="evenodd" d="M9.066 6.91745C8.84251 6.42125 8.60755 6.40984 8.39552 6.40414C8.2236 6.39844 8.02302 6.39844 7.82245 6.39844C7.62188 6.39844 7.30096 6.47258 7.02589 6.76916C6.75082 7.06574 5.98291 7.78437 5.98291 9.25015C5.98291 10.7102 7.05454 12.1247 7.20354 12.3243C7.35254 12.5239 9.27231 15.6209 12.3038 16.8129C14.8253 17.8053 15.3411 17.6057 15.8855 17.5543C16.4299 17.503 17.6505 16.8357 17.9027 16.1399C18.1491 15.4441 18.1491 14.8509 18.0746 14.7254C18.0001 14.6 17.7995 14.5258 17.5015 14.3775C17.2035 14.2292 15.7365 13.5106 15.4614 13.4079C15.1863 13.311 14.9858 13.2597 14.7909 13.5562C14.5904 13.8528 14.0173 14.5201 13.8454 14.7197C13.6734 14.9194 13.4958 14.9422 13.1978 14.7939C12.8998 14.6456 11.9371 14.3319 10.7967 13.3167C9.90841 12.5296 9.30669 11.5543 9.13477 11.2578C8.96285 10.9612 9.11758 10.8015 9.26658 10.6532C9.39838 10.522 9.56457 10.3053 9.71357 10.1342C9.86256 9.96308 9.91414 9.8376 10.0116 9.63798C10.109 9.43836 10.0631 9.26726 9.98864 9.11897C9.91414 8.97638 9.32961 7.5049 9.066 6.91745Z" fill="white"/>
</g>
<defs>
<linearGradient id="paint0_linear_3714_2023" x1="12.0024" y1="23.5841" x2="12.0024" y2="0.417158" gradientUnits="userSpaceOnUse">
<stop stop-color="#20B038"/>
<stop offset="1" stop-color="#60D66A"/>
</linearGradient>
<linearGradient id="paint1_linear_3714_2023" x1="12.0023" y1="23.9977" x2="12.0023" y2="0" gradientUnits="userSpaceOnUse">
<stop stop-color="#F9F9F9"/>
<stop offset="1" stop-color="white"/>
</linearGradient>
<clipPath id="clip0_3714_2023">
<rect width="24" height="24" rx="6" fill="white"/>
</clipPath>
</defs>
</svg>
