<svg width="44" height="44" viewBox="0 0 44 44" fill="none" xmlns="http://www.w3.org/2000/svg">
<path d="M0 16C0 7.16344 7.16344 0 16 0H36C40.4183 0 44 3.58172 44 8V28C44 36.8366 36.8366 44 28 44H8C3.58172 44 0 40.4183 0 36V16Z" fill="#FA9632"/>
<path d="M15.6695 19.9144L18.7317 15.7713C20.711 13.0933 21.7007 11.7542 22.6241 12.0372C23.5474 12.3202 23.5474 13.9625 23.5474 17.2471V17.5568C23.5474 18.7415 23.5474 19.3339 23.926 19.7054L23.946 19.7247C24.3327 20.0884 24.9492 20.0884 26.1822 20.0884C28.4011 20.0884 29.5106 20.0884 29.8855 20.7613C29.8917 20.7724 29.8977 20.7837 29.9036 20.795C30.2576 21.4784 29.6152 22.3475 28.3304 24.0857L25.2683 28.2287C23.2889 30.9067 22.2992 32.2458 21.3758 31.9628C20.4525 31.6798 20.4525 30.0375 20.4525 26.7528L20.4526 26.4433C20.4526 25.2585 20.4526 24.6662 20.074 24.2946L20.054 24.2754C19.6673 23.9117 19.0508 23.9117 17.8178 23.9117C15.5989 23.9117 14.4894 23.9117 14.1145 23.2387C14.1083 23.2276 14.1023 23.2164 14.0964 23.205C13.7424 22.5217 14.3848 21.6526 15.6695 19.9144Z" fill="white"/>
</svg>
