<svg width="32" height="30" viewBox="0 0 32 30" fill="#ffffff"
	xmlns="http://www.w3.org/2000/svg">
	<path d="M16.0001 7.09435C17.7436 7.09435 19.1569 5.68109 19.1569 3.93803C19.1569 2.19452 17.7436 0.78125 16.0001 0.78125C14.2566 0.78125 12.8438 2.19452 12.8438 3.93803C12.8438 5.68153 14.257 7.09435 16.0001 7.09435Z" />
	<path d="M3.15678 14.6412C4.90028 14.6412 6.31355 13.228 6.31355 11.4845C6.31355 9.74095 4.90028 8.32812 3.15678 8.32812C1.41327 8.32812 0 9.7414 0 11.4845C0 13.228 1.41327 14.6412 3.15678 14.6412Z" />
	<path d="M28.8438 14.6412C30.5873 14.6412 32.0006 13.228 32.0006 11.4845C32.0006 9.74095 30.5873 8.32812 28.8438 8.32812C27.1003 8.32812 25.6875 9.7414 25.6875 11.4845C25.6875 13.228 27.1008 14.6412 28.8438 14.6412Z" />
	<path d="M5.86752 24.7478C4.6349 23.5152 4.6349 21.5165 5.86752 20.2838C7.10058 19.0512 9.09887 19.0512 10.3315 20.2838C11.5641 21.5165 11.5641 23.5152 10.3315 24.7478C9.09842 25.9804 7.10013 25.9809 5.86752 24.7478Z" />
	<path d="M21.6309 24.8181C20.3983 23.5855 20.3983 21.5868 21.6309 20.3541C22.864 19.1215 24.8623 19.1215 26.0949 20.3541C27.3275 21.5868 27.3275 23.5855 26.0949 24.8181C24.8618 26.0507 22.8636 26.0512 21.6309 24.8181Z" />
	<path fill-rule="evenodd" clip-rule="evenodd" d="M7.87221 10.1048C7.97519 10.4567 8.36846 10.6654 8.69603 10.5011L12.583 8.55434C12.9571 8.36703 12.9842 7.83039 12.6766 7.54721C12.6269 7.50149 12.5781 7.45488 12.5301 7.40695C11.6415 6.51833 11.092 5.29059 11.092 3.93547C11.092 3.54265 10.6757 3.23416 10.3246 3.40993L5.44915 5.85164L5.40166 5.87561C4.9356 6.10864 5.02703 6.91292 5.4851 7.16016C5.90811 7.3883 6.29338 7.67637 6.63028 8.01327C7.20464 8.58763 7.63785 9.30358 7.87266 10.1043L7.87221 10.1048Z" />
	<path fill-rule="evenodd" clip-rule="evenodd" d="M10.9006 14.2361C10.9006 13.8321 10.6724 13.4629 10.3111 13.2822L8.69014 12.4708C8.36256 12.307 7.9693 12.5156 7.86632 12.8676C7.63196 13.6684 7.19919 14.3843 6.62438 14.9587C6.08952 15.494 5.43083 15.9063 4.69578 16.1496C4.32693 16.2716 4.13074 16.7124 4.34291 17.0378L4.98829 18.0267C5.15297 18.2792 5.49341 18.3423 5.75796 18.198C6.4859 17.8016 7.29196 17.6028 8.09713 17.6028C8.74695 17.6028 9.39677 17.732 10.0058 17.9898C10.403 18.1581 10.9001 17.8926 10.9001 17.4608V14.2361H10.9006Z" />
	<path fill-rule="evenodd" clip-rule="evenodd" d="M21.685 13.2691C21.3228 13.4498 21.0938 13.8195 21.0938 14.2243L21.0942 17.5187C21.0942 17.9479 21.5864 18.2134 21.9828 18.0487C22.5829 17.7997 23.2216 17.675 23.8595 17.675C24.674 17.675 25.4894 17.8778 26.224 18.2835C26.4934 18.4322 26.8423 18.3652 27.0052 18.1037L27.6736 17.0296C27.876 16.7042 27.6785 16.2741 27.3145 16.1552C26.5737 15.9124 25.9106 15.4982 25.3713 14.9598C24.7947 14.3837 24.3611 13.6646 24.1276 12.8608C24.0255 12.5088 23.6327 12.2993 23.3046 12.4626L21.6845 13.2691H21.685Z" />
	<path fill-rule="evenodd" clip-rule="evenodd" d="M19.3243 7.55403C19.0158 7.83766 19.0429 8.37562 19.4175 8.56294L23.308 10.5097C23.636 10.674 24.0293 10.4645 24.1318 10.1125C24.3657 9.30996 24.7994 8.59223 25.3746 8.01654C25.7102 7.68097 26.0941 7.39335 26.5154 7.16564C26.9734 6.91841 27.0635 6.11413 26.5979 5.88154L26.5438 5.85446L21.6728 3.41719C21.3252 3.2432 20.9124 3.54902 20.9124 3.93741C20.9124 5.29297 20.3629 6.52071 19.4743 7.40933C19.425 7.4586 19.3749 7.50698 19.3234 7.55403H19.3243Z" />
	<path fill-rule="evenodd" clip-rule="evenodd" d="M18.9868 21.9775L16.4834 23.2323C16.1829 23.3827 15.8291 23.3827 15.5286 23.2327L13.4758 22.2065C13.2614 22.0991 13.0084 22.2735 13.0084 22.5132C13.0084 23.7698 12.529 25.0259 11.5702 25.9851C11.4513 26.1036 11.3283 26.215 11.201 26.3189C10.8614 26.5968 10.8698 27.176 11.2622 27.3718L13.8819 28.6816C14.5468 29.0203 15.2756 29.1881 15.9987 29.1881C16.7213 29.1881 17.4497 29.0203 18.1137 28.6914L20.6633 27.413C21.0526 27.2177 21.0637 26.646 20.7285 26.3677C20.6118 26.271 20.4991 26.168 20.3899 26.0588C20.3885 26.0575 20.3877 26.0552 20.3877 26.053C20.3877 26.0508 20.3868 26.049 20.385 26.0473C19.428 25.0885 18.9491 23.8355 18.9491 22.5847C18.9491 22.3814 18.9615 22.1785 18.9868 21.977C18.9868 21.977 18.9868 21.9766 18.9864 21.9766L18.9868 21.9775Z" />
</svg>
