<svg width="30" height="30" viewBox="0 0 30 30" fill="none" xmlns="http://www.w3.org/2000/svg">
<path fill-rule="evenodd" clip-rule="evenodd" d="M23.6667 0.666016C24.219 0.666016 24.6667 1.11373 24.6667 1.66602V5.33268H28.3333C28.8856 5.33268 29.3333 5.7804 29.3333 6.33268C29.3333 6.88497 28.8856 7.33268 28.3333 7.33268H24.6667V10.9993C24.6667 11.5516 24.219 11.9993 23.6667 11.9993C23.1144 11.9993 22.6667 11.5516 22.6667 10.9993V7.33268H19C18.4477 7.33268 18 6.88497 18 6.33268C18 5.7804 18.4477 5.33268 19 5.33268H22.6667V1.66602C22.6667 1.11373 23.1144 0.666016 23.6667 0.666016Z" fill="#141618"/>
<path fill-rule="evenodd" clip-rule="evenodd" d="M15 0.666016L14.9235 0.666016C11.8457 0.665999 9.43361 0.665985 7.55163 0.919011C5.62531 1.178 4.10528 1.71845 2.9122 2.91153C1.71912 4.10461 1.17867 5.62464 0.919683 7.55096C0.666657 9.43294 0.66667 11.845 0.666687 14.9228V15.0759C0.66667 18.1537 0.666657 20.5658 0.919683 22.4477C1.17867 24.3741 1.71912 25.8941 2.9122 27.0872C4.10528 28.2802 5.62531 28.8207 7.55163 29.0797C9.43361 29.3327 11.8457 29.3327 14.9235 29.3327H15.0765C18.1544 29.3327 20.5664 29.3327 22.4484 29.0797C24.3747 28.8207 25.8948 28.2802 27.0878 27.0872C28.2809 25.8941 28.8214 24.3741 29.0804 22.4477C29.3334 20.5658 29.3334 18.1537 29.3334 15.0758V14.9993C29.3334 14.4471 28.8856 13.9993 28.3334 13.9993C27.7811 13.9993 27.3334 14.4471 27.3334 14.9993C27.3334 18.1703 27.3312 20.4479 27.0982 22.1812C27.089 22.2496 27.0795 22.3169 27.0696 22.3831L23.3709 19.0543C21.6384 17.495 19.0582 17.3398 17.1512 18.68L16.7536 18.9594C16.0909 19.4251 15.1894 19.347 14.6167 18.7743L8.89711 13.0547C7.38323 11.5408 4.95487 11.46 3.34363 12.8698L2.66799 13.461C2.67405 11.0713 2.70834 9.25671 2.90185 7.81745C3.13102 6.11291 3.56687 5.08529 4.32642 4.32574C5.08596 3.5662 6.11358 3.13035 7.81812 2.90118C9.55143 2.66814 11.8291 2.66602 15 2.66602C15.5523 2.66602 16 2.2183 16 1.66602C16 1.11373 15.5523 0.666016 15 0.666016ZM2.90185 22.1812C3.13102 23.8858 3.56687 24.9134 4.32642 25.673C5.08596 26.4325 6.11358 26.8684 7.81812 27.0975C9.55143 27.3306 11.8291 27.3327 15 27.3327C18.171 27.3327 20.4486 27.3306 22.1819 27.0975C23.8865 26.8684 24.9141 26.4325 25.6736 25.673C25.9983 25.3482 26.2639 24.9745 26.4794 24.5199C26.4276 24.4882 26.3779 24.4513 26.3311 24.4092L22.033 20.5409C20.9935 19.6053 19.4454 19.5122 18.3011 20.3163L17.9035 20.5958C16.4458 21.6203 14.4625 21.4485 13.2025 20.1886L7.48289 14.4689C6.71355 13.6996 5.47946 13.6585 4.66064 14.375L2.6672 16.1192C2.67063 18.7172 2.6972 20.6591 2.90185 22.1812Z" fill="#141618"/>
</svg>
