<svg width="44" height="44" viewBox="0 0 44 44" fill="none" xmlns="http://www.w3.org/2000/svg">
<path d="M0 16C0 7.16344 7.16344 0 16 0H36C40.4183 0 44 3.58172 44 8V28C44 36.8366 36.8366 44 28 44H8C3.58172 44 0 40.4183 0 36V16Z" fill="#3296C8"/>
<path fill-rule="evenodd" clip-rule="evenodd" d="M16.0075 13.4069C17.6875 11.7268 20.5227 11.8545 21.6925 13.9506L22.3415 15.1136C23.1054 16.4824 22.7799 18.2095 21.6616 19.3414C21.6467 19.3618 21.5677 19.4768 21.5579 19.6776C21.5454 19.9339 21.6364 20.5267 22.5548 21.4451C23.4729 22.3632 24.0656 22.4545 24.3221 22.442C24.5231 22.4322 24.6381 22.3533 24.6585 22.3383C25.7905 21.2201 27.5176 20.8945 28.8864 21.6584L30.0493 22.3075C32.1454 23.4773 32.2731 26.3124 30.5931 27.9925C29.6944 28.8911 28.4995 29.6896 27.0953 29.7429C25.0144 29.8218 21.5591 29.2844 18.1373 25.8626C14.7156 22.4408 14.1782 18.9856 14.2571 16.9046C14.3103 15.5004 15.1088 14.3055 16.0075 13.4069ZM20.3827 14.6816C19.7836 13.6083 18.1739 13.3617 17.0681 14.4675C16.2928 15.2429 15.7887 16.0987 15.756 16.9615C15.6902 18.6968 16.1186 21.7226 19.198 24.8019C22.2774 27.8813 25.3031 28.3097 27.0385 28.2439C27.9013 28.2112 28.7571 27.7072 29.5324 26.9318C30.6382 25.826 30.3916 24.2163 29.3183 23.6173L28.1554 22.9683C27.432 22.5645 26.4158 22.7023 25.7025 23.4156L25.7023 23.4158C25.6322 23.4858 25.1864 23.9018 24.395 23.9403C23.5847 23.9797 22.604 23.6156 21.4942 22.5058C20.384 21.3956 20.02 20.4146 20.0597 19.6042C20.0985 18.8127 20.5147 18.3671 20.5843 18.2975L20.5844 18.2974C21.2977 17.5841 21.4354 16.568 21.0317 15.8446L20.3827 14.6816Z" fill="white"/>
</svg>
