<svg width="30" height="30" viewBox="0 0 30 30" fill="none" xmlns="http://www.w3.org/2000/svg">
<path fill-rule="evenodd" clip-rule="evenodd" d="M15 30C7.92893 30 4.3934 30 2.1967 27.8033C0 25.6066 0 22.0711 0 15C0 7.92893 0 4.3934 2.1967 2.1967C4.3934 0 7.92893 0 15 0C22.0711 0 25.6066 0 27.8033 2.1967C30 4.3934 30 7.92893 30 15C30 22.0711 30 25.6066 27.8033 27.8033C25.6066 30 22.0711 30 15 30ZM15 9.375C15.6213 9.375 16.125 9.87868 16.125 10.5V13.875H19.5C20.1213 13.875 20.625 14.3787 20.625 15C20.625 15.6214 20.1213 16.125 19.5 16.125H16.125L16.125 19.5C16.125 20.1213 15.6213 20.625 15 20.625C14.3787 20.625 13.875 20.1213 13.875 19.5V16.125H10.5C9.87868 16.125 9.375 15.6214 9.375 15C9.375 14.3787 9.87868 13.875 10.5 13.875H13.875L13.875 10.5C13.875 9.87868 14.3787 9.375 15 9.375Z" fill="#E1E6EB"/>
</svg>
