<svg width="20" height="22" viewBox="0 0 20 22" fill="#3219AF" xmlns="http://www.w3.org/2000/svg">
<path fill-rule="evenodd" clip-rule="evenodd" d="M10 1.75C9.34226 1.75 8.69515 1.96164 7.08062 2.5143L6.5078 2.71037C4.99521 3.22814 3.8921 3.60605 3.11759 3.92069C2.731 4.07774 2.4509 4.20935 2.25429 4.32353C2.15722 4.3799 2.09034 4.42642 2.04567 4.46273C2.0078 4.49351 1.99336 4.51095 1.99129 4.51349C1.98936 4.51663 1.97693 4.5374 1.95943 4.58654C1.93944 4.64265 1.91729 4.72309 1.89571 4.83506C1.85204 5.06169 1.81894 5.37301 1.79608 5.79292C1.75028 6.63411 1.75 7.80833 1.75 9.41666V10.9914C1.75 16.1665 5.6199 18.7135 8.19879 19.84C8.57027 20.0023 8.78479 20.0941 9.0236 20.1552C9.25168 20.2136 9.53 20.25 10 20.25C10.47 20.25 10.7483 20.2136 10.9764 20.1552C11.2152 20.0941 11.4297 20.0023 11.8012 19.84C14.3801 18.7135 18.25 16.1665 18.25 10.9914V9.41666C18.25 7.80833 18.2497 6.63411 18.2039 5.79292C18.1811 5.37301 18.148 5.06169 18.1043 4.83506C18.0827 4.72309 18.0606 4.64265 18.0406 4.58654C18.0231 4.53737 18.0106 4.5166 18.0087 4.51348C18.0066 4.51092 17.9922 4.49349 17.9543 4.46273C17.9097 4.42642 17.8428 4.3799 17.7457 4.32353C17.5491 4.20935 17.269 4.07774 16.8824 3.92069C16.1079 3.60605 15.0048 3.22814 13.4922 2.71037L12.9194 2.5143C11.3049 1.96164 10.6577 1.75 10 1.75ZM6.72339 1.05112C8.16732 0.556583 9.06248 0.25 10 0.25C10.9375 0.25 11.8327 0.556583 13.2766 1.05112C13.319 1.06563 13.3618 1.0803 13.4052 1.09514L14.004 1.30013C15.4854 1.8072 16.6286 2.19852 17.447 2.53099C17.8592 2.69846 18.2136 2.86067 18.499 3.02641C18.7737 3.1859 19.0492 3.38484 19.2364 3.65154C19.4214 3.91516 19.5171 4.23924 19.5772 4.55122C19.6397 4.87556 19.6774 5.26464 19.7017 5.71136C19.75 6.5984 19.75 7.81361 19.75 9.38982V10.9914C19.75 17.0924 15.142 20.0175 12.4017 21.2146L12.3746 21.2264C12.0348 21.3749 11.7154 21.5144 11.3484 21.6084C10.9609 21.7076 10.5493 21.75 10 21.75C9.45074 21.75 9.03907 21.7076 8.6516 21.6084C8.28462 21.5144 7.96523 21.3749 7.62543 21.2264L7.59833 21.2146C4.85803 20.0175 0.25 17.0924 0.25 10.9914V9.3899C0.249998 7.81365 0.249997 6.59841 0.298299 5.71136C0.322624 5.26464 0.360312 4.87556 0.422814 4.55122C0.482934 4.23924 0.578605 3.91516 0.763632 3.65154C0.950822 3.38484 1.22634 3.1859 1.50098 3.02641C1.78637 2.86067 2.14078 2.69846 2.55303 2.53099C3.37141 2.19852 4.51463 1.8072 5.99596 1.30013L6.59483 1.09514C6.63817 1.0803 6.68101 1.06563 6.72339 1.05112ZM10 6.90049C9.88106 7.07699 9.73452 7.33717 9.51636 7.72853L9.38528 7.96367C9.37555 7.98113 9.36551 7.99937 9.35511 8.01826C9.24654 8.21556 9.09904 8.48359 8.85546 8.66849C8.6074 8.85681 8.30824 8.92266 8.09436 8.96974C8.07405 8.97421 8.05452 8.97851 8.03587 8.98273L7.78133 9.04032C7.31615 9.14557 7.02625 9.21294 6.83146 9.28104C6.9519 9.462 7.15408 9.70102 7.48204 10.0845L7.65557 10.2874C7.66833 10.3024 7.68164 10.3178 7.69537 10.3337C7.84312 10.5047 8.03967 10.7322 8.13052 11.0244C8.22042 11.3135 8.18999 11.6126 8.16672 11.8412C8.16455 11.8626 8.16244 11.8833 8.1605 11.9034L8.13426 12.1741C8.08739 12.6577 8.05852 12.9706 8.05934 13.1919C8.25155 13.1238 8.51482 13.0042 8.9166 12.8192L9.15492 12.7095C9.17246 12.7014 9.19082 12.6928 9.20995 12.6839C9.4078 12.5913 9.68846 12.4599 10 12.4599C10.3115 12.4599 10.5922 12.5913 10.79 12.6839C10.8092 12.6928 10.8275 12.7014 10.8451 12.7095L11.0834 12.8192C11.4852 13.0042 11.7484 13.1238 11.9407 13.1919C11.9415 12.9706 11.9126 12.6577 11.8657 12.1741L11.8395 11.9034C11.8376 11.8833 11.8355 11.8626 11.8333 11.8412C11.81 11.6126 11.7796 11.3135 11.8695 11.0244C11.9603 10.7322 12.1569 10.5047 12.3046 10.3337C12.3184 10.3178 12.3317 10.3024 12.3444 10.2874L12.518 10.0845C12.8459 9.70102 13.0481 9.462 13.1685 9.28104C12.9737 9.21294 12.6838 9.14557 12.2187 9.04032L11.9641 8.98273C11.9455 8.97851 11.9259 8.97421 11.9056 8.96974C11.6918 8.92266 11.3926 8.85681 11.1445 8.66849C10.901 8.48359 10.7535 8.21557 10.6449 8.01827C10.6345 7.99937 10.6245 7.98113 10.6147 7.96367L10.4836 7.72853C10.2655 7.33717 10.1189 7.07699 10 6.90049ZM12.1529 13.2502C12.1541 13.2502 12.1546 13.2503 12.1547 13.2503L12.1529 13.2502ZM7.84533 13.2503C7.84534 13.2503 7.84594 13.2502 7.84707 13.2502L7.84533 13.2503ZM8.88315 5.88484C9.09882 5.60321 9.45096 5.25 10 5.25C10.549 5.25 10.9012 5.60321 11.1169 5.88484C11.3245 6.15603 11.5371 6.53751 11.7683 6.95239C11.7768 6.9676 11.7853 6.98287 11.7938 6.99817L11.9249 7.23332C11.9617 7.29933 11.9902 7.35037 12.0155 7.39411C12.0324 7.42352 12.0458 7.44573 12.0565 7.46286C12.0733 7.46751 12.0946 7.47303 12.1219 7.47967C12.1689 7.49111 12.2235 7.50351 12.2952 7.51971L12.5497 7.5773C12.5671 7.58123 12.5844 7.58514 12.6016 7.58905C13.0485 7.69009 13.4657 7.78439 13.7807 7.90852C14.1219 8.04302 14.5343 8.28543 14.6932 8.79638C14.8496 9.29916 14.6571 9.73321 14.4626 10.0421C14.2799 10.3323 13.9979 10.662 13.6916 11.0201C13.6804 11.0332 13.6692 11.0463 13.658 11.0594L13.4844 11.2623C13.4357 11.3193 13.3981 11.3633 13.3662 11.4018C13.3401 11.4334 13.322 11.4562 13.309 11.4734C13.3107 11.5291 13.3179 11.6075 13.3325 11.7587L13.3637 12.0803C13.4102 12.5596 13.4526 12.997 13.4373 13.3415C13.4213 13.6994 13.3369 14.1785 12.9114 14.5015C12.4737 14.8337 11.9847 14.7689 11.6378 14.6695C11.3132 14.5765 10.9231 14.3969 10.5049 14.2042C10.4886 14.1967 10.4724 14.1892 10.4561 14.1817L10.2177 14.072C10.1507 14.0411 10.0994 14.0175 10.0548 13.9979C10.0329 13.9882 10.0149 13.9805 10 13.9744C9.9851 13.9805 9.9671 13.9882 9.94516 13.9979C9.90059 14.0175 9.8493 14.0411 9.78227 14.072L9.54394 14.1817C9.52763 14.1892 9.51136 14.1967 9.49513 14.2042C9.0769 14.3969 8.68684 14.5765 8.3622 14.6695C8.01533 14.7689 7.52629 14.8337 7.08858 14.5015C6.66311 14.1785 6.57866 13.6994 6.56272 13.3415C6.54737 12.997 6.58982 12.5596 6.63631 12.0804C6.63796 12.0634 6.6396 12.0465 6.64125 12.0294L6.66749 11.7587C6.68214 11.6075 6.68928 11.5291 6.69097 11.4734C6.67803 11.4562 6.65995 11.4334 6.63378 11.4018C6.60187 11.3633 6.56431 11.3193 6.51557 11.2623L6.34204 11.0594C6.33081 11.0463 6.3196 11.0332 6.30843 11.0201C6.00207 10.662 5.72006 10.3323 5.53738 10.0421C5.34293 9.73321 5.15045 9.29916 5.3068 8.79638C5.46569 8.28543 5.87805 8.04302 6.21935 7.90852C6.53433 7.78439 6.95146 7.69009 7.39836 7.58905C7.41563 7.58514 7.43295 7.58123 7.4503 7.5773L7.70484 7.51971C7.77645 7.50351 7.83113 7.49112 7.87814 7.47967C7.90542 7.47303 7.92669 7.46751 7.94352 7.46287C7.95424 7.44573 7.96756 7.42352 7.98455 7.39411C8.00983 7.35037 8.03829 7.29934 8.07509 7.23332L8.20617 6.99817C8.2147 6.98287 8.22321 6.96761 8.23169 6.95239C8.46289 6.53751 8.67547 6.15603 8.88315 5.88484Z"/>
</svg>
