<svg width="28" height="24" viewBox="0 0 28 24" fill="none" xmlns="http://www.w3.org/2000/svg">
<path fill-rule="evenodd" clip-rule="evenodd" d="M5.08212 10.3487C8.97327 3.44955 10.9188 0 13.9998 0C17.0808 0 19.0264 3.44955 22.9175 10.3486L23.4024 11.2084C26.636 16.9415 28.2527 19.808 26.7915 21.904C25.3303 24 21.7151 24 14.4847 24H13.515C6.28458 24 2.6694 24 1.20818 21.904C-0.25304 19.808 1.36372 16.9415 4.59724 11.2084L5.08212 10.3487ZM13.9998 5.66667C14.5521 5.66667 14.9998 6.11438 14.9998 6.66667V13.3333C14.9998 13.8856 14.5521 14.3333 13.9998 14.3333C13.4476 14.3333 12.9998 13.8856 12.9998 13.3333V6.66667C12.9998 6.11438 13.4476 5.66667 13.9998 5.66667ZM13.9998 18.6667C14.7362 18.6667 15.3332 18.0697 15.3332 17.3333C15.3332 16.597 14.7362 16 13.9998 16C13.2635 16 12.6665 16.597 12.6665 17.3333C12.6665 18.0697 13.2635 18.6667 13.9998 18.6667Z" fill="#FA9632"/>
</svg>
