<svg width="28" height="28" viewBox="0 0 28 28" fill="none"
	xmlns="http://www.w3.org/2000/svg">
	<path fill-rule="evenodd" clip-rule="evenodd" d="M27.3332 13.9993C27.3332 21.3631 21.3636 27.3327 13.9998 27.3327C6.63604 27.3327 0.666504 21.3631 0.666504 13.9993C0.666504 6.63555 6.63604 0.666016 13.9998 0.666016C21.3636 0.666016 27.3332 6.63555 27.3332 13.9993ZM9.95934 9.95888C10.3499 9.56836 10.983 9.56836 11.3736 9.95888L13.9998 12.5851L16.626 9.95891C17.0165 9.56839 17.6497 9.56839 18.0402 9.95891C18.4307 10.3494 18.4307 10.9826 18.0402 11.3731L15.414 13.9993L18.0402 16.6255C18.4307 17.016 18.4307 17.6492 18.0402 18.0397C17.6497 18.4303 17.0165 18.4303 16.626 18.0397L13.9998 15.4136L11.3736 18.0398C10.9831 18.4303 10.3499 18.4303 9.95937 18.0398C9.56885 17.6492 9.56885 17.0161 9.95937 16.6255L12.5856 13.9993L9.95934 11.3731C9.56882 10.9826 9.56882 10.3494 9.95934 9.95888Z" fill="#F55F5F"/>
</svg>