<svg
  width="22"
  height="23"
  viewBox="0 0 22 23"
  fill="none"
  xmlns="http://www.w3.org/2000/svg"
>
<path
    fill-rule="evenodd"
    clip-rule="evenodd"
    d="M11.0477 0.750002H10.949C10.2841 0.749966 9.71124 0.749935 9.25251 0.811611C8.76087 0.87771 8.28961 1.02677 7.90736 1.40901C7.52512 1.79126 7.37606 2.26252 7.30996 2.75416C7.24828 3.2129 7.24831 3.78577 7.24835 4.45063L7.24835 6.87804C7.01377 6.79512 6.76133 6.75001 6.49835 6.75001H3.49835C2.25571 6.75001 1.24835 7.75737 1.24835 9.00001V20.75H0.998352C0.584138 20.75 0.248352 21.0858 0.248352 21.5C0.248352 21.9142 0.584138 22.25 0.998352 22.25H20.9984C21.4126 22.25 21.7484 21.9142 21.7484 21.5C21.7484 21.0858 21.4126 20.75 20.9984 20.75H20.7484V14C20.7484 12.7574 19.741 11.75 18.4984 11.75H15.4984C15.2354 11.75 14.9829 11.7951 14.7484 11.878L14.7484 4.45064C14.7484 3.78577 14.7484 3.21291 14.6867 2.75416C14.6206 2.26252 14.4716 1.79126 14.0893 1.40902C13.7071 1.02677 13.2358 0.877709 12.7442 0.811611C12.2855 0.749935 11.7126 0.749966 11.0477 0.750002ZM19.2484 20.75V14C19.2484 13.5858 18.9126 13.25 18.4984 13.25H15.4984C15.0841 13.25 14.7484 13.5858 14.7484 14V20.75H19.2484ZM13.2484 20.75V4.50001C13.2484 3.7717 13.2468 3.30091 13.2001 2.95403C13.1564 2.62873 13.0858 2.52677 13.0287 2.46967C12.9716 2.41258 12.8696 2.34197 12.5443 2.29823C12.1974 2.2516 11.7267 2.25001 10.9984 2.25001C10.27 2.25001 9.79926 2.2516 9.45238 2.29823C9.12708 2.34197 9.02512 2.41258 8.96802 2.46968C8.91093 2.52677 8.84032 2.62873 8.79658 2.95403C8.74994 3.30091 8.74835 3.7717 8.74835 4.50001V20.75H13.2484ZM7.24835 20.75V9.00001C7.24835 8.58579 6.91257 8.25001 6.49835 8.25001H3.49835C3.08414 8.25001 2.74835 8.58579 2.74835 9.00001V20.75H7.24835Z"
    fill="#3219AF"
  />
</svg>
