<svg width="44" height="44" viewBox="0 0 44 44" fill="none" xmlns="http://www.w3.org/2000/svg">
<path d="M0 16C0 7.16344 7.16344 0 16 0H36C40.4183 0 44 3.58172 44 8V28C44 36.8366 36.8366 44 28 44H8C3.58172 44 0 40.4183 0 36V16Z" fill="#3296C8"/>
<path fill-rule="evenodd" clip-rule="evenodd" d="M20.9436 11.25H23.0564C24.8942 11.25 26.3498 11.25 27.489 11.4031C28.6614 11.5608 29.6104 11.8929 30.3588 12.6412C30.6516 12.9341 30.6516 13.409 30.3588 13.7019C30.0659 13.9948 29.591 13.9948 29.2981 13.7019C28.8749 13.2787 28.2952 13.025 27.2892 12.8898C26.2615 12.7516 24.9068 12.75 23 12.75H21C19.0932 12.75 17.7385 12.7516 16.7108 12.8898C15.7048 13.025 15.1251 13.2787 14.7019 13.7019C14.2787 14.1251 14.025 14.7048 13.8898 15.7108C13.7516 16.7385 13.75 18.0932 13.75 20V24C13.75 25.9068 13.7516 27.2615 13.8898 28.2892C14.025 29.2952 14.2787 29.8749 14.7019 30.2981C15.1251 30.7213 15.7048 30.975 16.7108 31.1102C17.7385 31.2484 19.0932 31.25 21 31.25H23C24.9068 31.25 26.2615 31.2484 27.2892 31.1102C28.2952 30.975 28.8749 30.7213 29.2981 30.2981C29.994 29.6022 30.2048 28.5208 30.2414 25.9892C30.2474 25.575 30.588 25.2441 31.0022 25.2501C31.4163 25.2561 31.7472 25.5967 31.7412 26.0108C31.7061 28.4383 31.549 30.1685 30.3588 31.3588C29.6104 32.1071 28.6614 32.4392 27.489 32.5969C26.3498 32.75 24.8942 32.75 23.0564 32.75H20.9436C19.1058 32.75 17.6502 32.75 16.511 32.5969C15.3386 32.4392 14.3896 32.1071 13.6412 31.3588C12.8929 30.6104 12.5608 29.6614 12.4031 28.489C12.25 27.3498 12.25 25.8942 12.25 24.0564V19.9436C12.25 18.1058 12.25 16.6502 12.4031 15.511C12.5608 14.3386 12.8929 13.3896 13.6412 12.6412C14.3896 11.8929 15.3386 11.5608 16.511 11.4031C17.6502 11.25 19.1058 11.25 20.9436 11.25ZM28.1131 17.0456C29.1739 15.9848 30.8937 15.9848 31.9544 17.0456C33.0152 18.1063 33.0152 19.8261 31.9544 20.8869L27.1991 25.6422C26.9404 25.901 26.7654 26.076 26.5693 26.2289C26.3387 26.4088 26.0892 26.563 25.8252 26.6889C25.6007 26.7958 25.3659 26.8741 25.0187 26.9897L22.9351 27.6843C22.4751 27.8376 21.9679 27.7179 21.625 27.375C21.2821 27.0321 21.1624 26.5249 21.3157 26.0649L21.9963 24.0232C22.001 24.0091 22.0056 23.9951 22.0102 23.9813C22.1259 23.6342 22.2042 23.3993 22.3111 23.1748C22.437 22.9108 22.5912 22.6613 22.7711 22.4307C22.924 22.2346 23.099 22.0596 23.3578 21.8009C23.3681 21.7906 23.3785 21.7802 23.3891 21.7696L28.1131 17.0456ZM30.8938 18.1062C30.4188 17.6313 29.6488 17.6313 29.1738 18.1062L28.992 18.288C29.0019 18.3215 29.0132 18.3571 29.0262 18.3945C29.1202 18.6657 29.2988 19.0243 29.6372 19.3628C29.9757 19.7012 30.3343 19.8798 30.6055 19.9738C30.6429 19.9868 30.6785 19.9981 30.712 20.008L30.8938 19.8262C31.3687 19.3512 31.3687 18.5812 30.8938 18.1062ZM29.5664 21.1536C29.2485 20.9866 28.9053 20.7521 28.5766 20.4234C28.2479 20.0947 28.0134 19.7515 27.8464 19.4336L24.4497 22.8303C24.1487 23.1314 24.043 23.2388 23.9538 23.3532C23.841 23.4979 23.7442 23.6545 23.6652 23.8202C23.6028 23.9511 23.5539 24.0936 23.4193 24.4976L23.019 25.6985L23.3015 25.981L24.5024 25.5807C24.9064 25.4461 25.0489 25.3972 25.1798 25.3348C25.3455 25.2558 25.5021 25.159 25.6468 25.0462C25.7612 24.957 25.8686 24.8513 26.1697 24.5503L29.5664 21.1536ZM17.25 19C17.25 18.5858 17.5858 18.25 18 18.25H24.5C24.9142 18.25 25.25 18.5858 25.25 19C25.25 19.4142 24.9142 19.75 24.5 19.75H18C17.5858 19.75 17.25 19.4142 17.25 19ZM17.25 23C17.25 22.5858 17.5858 22.25 18 22.25H20.5C20.9142 22.25 21.25 22.5858 21.25 23C21.25 23.4142 20.9142 23.75 20.5 23.75H18C17.5858 23.75 17.25 23.4142 17.25 23ZM17.25 27C17.25 26.5858 17.5858 26.25 18 26.25H19.5C19.9142 26.25 20.25 26.5858 20.25 27C20.25 27.4142 19.9142 27.75 19.5 27.75H18C17.5858 27.75 17.25 27.4142 17.25 27Z" fill="white"/>
</svg>
