<svg width="18" height="22" viewBox="0 0 18 22" fill="none" xmlns="http://www.w3.org/2000/svg">
<path fill-rule="evenodd" clip-rule="evenodd" d="M9.00013 0.25C6.37678 0.25 4.25013 2.37665 4.25013 5C4.25013 7.62335 6.37678 9.75 9.00013 9.75C11.6235 9.75 13.7501 7.62335 13.7501 5C13.7501 2.37665 11.6235 0.25 9.00013 0.25ZM5.75013 5C5.75013 3.20507 7.20521 1.75 9.00013 1.75C10.7951 1.75 12.2501 3.20507 12.2501 5C12.2501 6.79493 10.7951 8.25 9.00013 8.25C7.20521 8.25 5.75013 6.79493 5.75013 5Z" fill="#141618"/>
<path fill-rule="evenodd" clip-rule="evenodd" d="M9.00013 11.25C6.68658 11.25 4.55506 11.7759 2.97558 12.6643C1.41962 13.5396 0.250134 14.8661 0.250134 16.5L0.250068 16.602C0.248938 17.7638 0.24752 19.222 1.52655 20.2635C2.15602 20.7761 3.03661 21.1406 4.22634 21.3815C5.4194 21.6229 6.97436 21.75 9.00013 21.75C11.0259 21.75 12.5809 21.6229 13.7739 21.3815C14.9637 21.1406 15.8443 20.7761 16.4737 20.2635C17.7527 19.222 17.7513 17.7638 17.7502 16.602L17.7501 16.5C17.7501 14.8661 16.5807 13.5396 15.0247 12.6643C13.4452 11.7759 11.3137 11.25 9.00013 11.25ZM1.75013 16.5C1.75013 15.6487 2.37151 14.7251 3.71098 13.9717C5.02693 13.2315 6.89541 12.75 9.00013 12.75C11.1049 12.75 12.9733 13.2315 14.2893 13.9717C15.6288 14.7251 16.2501 15.6487 16.2501 16.5C16.2501 17.8078 16.2098 18.544 15.5265 19.1004C15.156 19.4022 14.5366 19.6967 13.4763 19.9113C12.4194 20.1252 10.9744 20.25 9.00013 20.25C7.02591 20.25 5.58087 20.1252 4.52393 19.9113C3.46366 19.6967 2.84425 19.4022 2.47372 19.1004C1.79045 18.544 1.75013 17.8078 1.75013 16.5Z" fill="#141618"/>
</svg>
