<svg width="64" height="64" viewBox="0 0 64 64" fill="none" xmlns="http://www.w3.org/2000/svg">
<rect width="64" height="64" rx="32" fill="white"/>
<path d="M34.9563 20.6662C33.0616 19.7779 30.9383 19.7779 29.0436 20.6662L20.1222 24.8488C18.6875 25.5214 18.3134 27.418 19 28.7289L19 35.3333C19 35.8856 19.4477 36.3333 20 36.3333C20.5523 36.3333 21 35.8856 21 35.3333V30.2294L29.0438 34.0005C30.9384 34.8887 33.0617 34.8887 34.9564 34.0005L43.8779 29.8179C45.8185 28.9081 45.8185 25.7587 43.8779 24.8489L34.9563 20.6662Z" fill="#4BAF7D"/>
<path d="M22.6667 33.2196V38.1672C22.6667 39.5113 23.338 40.7696 24.5138 41.4208C26.4716 42.505 29.6053 44 32 44C34.3947 44 37.5284 42.505 39.4862 41.4208C40.662 40.7696 41.3334 39.5113 41.3334 38.1672V33.2197L35.8054 35.8113C33.3728 36.9518 30.6274 36.9518 28.1948 35.8113L22.6667 33.2196Z" fill="#4BAF7D"/>
</svg>
