<svg width="22" height="22" viewBox="0 0 22 22" fill="#141618" xmlns="http://www.w3.org/2000/svg">
<path fill-rule="evenodd" clip-rule="evenodd" d="M13.948 0.250001H16.052C16.9505 0.249972 17.6997 0.249947 18.2945 0.329913C18.9223 0.414318 19.4891 0.599989 19.9445 1.05546C20.4 1.51093 20.5857 2.07773 20.6701 2.70552C20.7501 3.30031 20.75 4.04953 20.75 4.94801V20.25H21C21.4142 20.25 21.75 20.5858 21.75 21C21.75 21.4142 21.4142 21.75 21 21.75H1C0.585786 21.75 0.25 21.4142 0.25 21C0.25 20.5858 0.585786 20.25 1 20.25H1.25L1.25 7.948C1.24997 7.04952 1.24994 6.3003 1.32991 5.70552C1.41432 5.07773 1.59999 4.51093 2.05546 4.05546C2.51093 3.59999 3.07773 3.41432 3.70552 3.32991C4.3003 3.24995 5.04952 3.24997 5.948 3.25L9.27799 3.25C9.32944 2.37583 9.4906 1.62032 10.0555 1.05546C10.5109 0.599989 11.0777 0.414318 11.7055 0.329913C12.3003 0.249947 13.0495 0.249972 13.948 0.250001ZM10.0068 4.75C10.0055 4.75 10.0043 4.75 10.003 4.75C10.002 4.75 10.001 4.75 10 4.75H6C5.03599 4.75 4.38843 4.7516 3.90539 4.81654C3.44393 4.87858 3.24643 4.9858 3.11612 5.11612C2.9858 5.24644 2.87858 5.44393 2.81654 5.90539C2.75159 6.38843 2.75 7.03599 2.75 8V20.25H7.25V18C7.25 17.5858 7.58579 17.25 8 17.25C8.41421 17.25 8.75 17.5858 8.75 18V20.25H13.25V8C13.25 7.03599 13.2484 6.38843 13.1835 5.90539C13.1214 5.44393 13.0142 5.24644 12.8839 5.11612C12.7536 4.9858 12.5561 4.87858 12.0946 4.81654C11.6127 4.75175 10.9671 4.75001 10.0068 4.75ZM14.75 20.25L14.75 7.94801C14.75 7.04953 14.7501 6.30031 14.6701 5.70552C14.5857 5.07773 14.4 4.51093 13.9445 4.05546C13.4891 3.59999 12.9223 3.41432 12.2945 3.32991C11.8691 3.27273 11.3648 3.25645 10.7834 3.25183C10.8335 2.55219 10.9436 2.28863 11.1161 2.11612C11.2464 1.9858 11.4439 1.87858 11.9054 1.81654C12.3884 1.7516 13.036 1.75 14 1.75H16C16.964 1.75 17.6116 1.7516 18.0946 1.81654C18.5561 1.87858 18.7536 1.9858 18.8839 2.11612C19.0142 2.24644 19.1214 2.44393 19.1835 2.90539C19.2484 3.38843 19.25 4.03599 19.25 5V20.25H14.75ZM4.25 7C4.25 6.58579 4.58579 6.25 5 6.25H11C11.4142 6.25 11.75 6.58579 11.75 7C11.75 7.41422 11.4142 7.75 11 7.75H5C4.58579 7.75 4.25 7.41422 4.25 7ZM4.25 10C4.25 9.58579 4.58579 9.25 5 9.25H11C11.4142 9.25 11.75 9.58579 11.75 10C11.75 10.4142 11.4142 10.75 11 10.75H5C4.58579 10.75 4.25 10.4142 4.25 10ZM4.25 13C4.25 12.5858 4.58579 12.25 5 12.25H11C11.4142 12.25 11.75 12.5858 11.75 13C11.75 13.4142 11.4142 13.75 11 13.75H5C4.58579 13.75 4.25 13.4142 4.25 13Z" />
</svg>
