<svg width="18" height="18" viewBox="0 0 18 18" fill="none" xmlns="http://www.w3.org/2000/svg">
<path fill-rule="evenodd" clip-rule="evenodd" d="M9.00011 0.0419922C5.43328 0.0419922 2.54178 2.93349 2.54178 6.50033V7.08708C2.54178 7.66785 2.36987 8.23562 2.04772 8.71885L1.09055 10.1546C-0.0203618 11.821 0.827728 14.086 2.75989 14.6129C3.38956 14.7847 4.02456 14.9299 4.66323 15.0487L4.66481 15.053C5.30564 16.7629 7.0184 17.9587 9.00006 17.9587C10.9817 17.9587 12.6945 16.7629 13.3353 15.053L13.3369 15.0487C13.9756 14.9299 14.6106 14.7847 15.2403 14.6129C17.1725 14.086 18.0206 11.821 16.9097 10.1546L15.9525 8.71885C15.6304 8.23562 15.4584 7.66785 15.4584 7.08708V6.50033C15.4584 2.93349 12.567 0.0419922 9.00011 0.0419922ZM11.8138 15.2811C9.94466 15.5045 8.05545 15.5044 6.18632 15.2811C6.77878 16.1324 7.80926 16.7087 9.00006 16.7087C10.1909 16.7087 11.2213 16.1324 11.8138 15.2811ZM3.79178 6.50033C3.79178 3.62384 6.12363 1.29199 9.00011 1.29199C11.8766 1.29199 14.2084 3.62384 14.2084 6.50033V7.08708C14.2084 7.91463 14.4534 8.72366 14.9124 9.41222L15.8696 10.848C16.5073 11.8044 16.0205 13.1045 14.9114 13.407C11.0412 14.4625 6.959 14.4625 3.08878 13.407C1.97976 13.1045 1.49297 11.8044 2.13061 10.848L3.08778 9.41222C3.54683 8.72366 3.79178 7.91463 3.79178 7.08708V6.50033Z" fill="#413C46"/>
</svg>
