<svg width="33" height="32" viewBox="0 0 33 32" fill="none" xmlns="http://www.w3.org/2000/svg">
<path fill-rule="evenodd" clip-rule="evenodd" d="M13.5936 1.66675H19.0733C20.8967 1.66672 22.3665 1.6667 23.5224 1.82211C24.7226 1.98347 25.7331 2.32866 26.5356 3.13122C27.3382 3.93377 27.6834 4.94427 27.8447 6.14441C28.0001 7.30037 28.0001 8.77013 28.0001 10.5936V21.4066C28.0001 23.23 28.0001 24.6998 27.8447 25.8558C27.6834 27.0559 27.3382 28.0664 26.5356 28.8689C25.7331 29.6715 24.7226 30.0167 23.5224 30.1781C22.3665 30.3335 20.8967 30.3334 19.0732 30.3334H13.5936C11.7701 30.3334 10.3004 30.3335 9.14442 30.1781C7.94427 30.0167 6.93377 29.6715 6.13122 28.8689C5.32866 28.0664 4.98347 27.0559 4.82212 25.8558C4.77052 25.472 4.73606 25.0536 4.71304 24.5993C4.66093 24.4348 4.65078 24.255 4.69176 24.0758C4.66672 23.2866 4.66674 22.3989 4.66675 21.4066V10.5936C4.66672 8.77013 4.6667 7.30037 4.82212 6.14441C4.98347 4.94427 5.32866 3.93377 6.13122 3.13122C6.93377 2.32866 7.94427 1.98347 9.14442 1.82211C10.3004 1.6667 11.7701 1.66672 13.5936 1.66675ZM6.70243 24.3322C6.7227 24.8039 6.75447 25.2188 6.80428 25.5893C6.93582 26.5676 7.17641 27.0857 7.54543 27.4547C7.91445 27.8238 8.43255 28.0644 9.41091 28.1959C10.418 28.3313 11.7529 28.3334 13.6668 28.3334H19.0001C20.914 28.3334 22.2488 28.3313 23.2559 28.1959C24.2343 28.0644 24.7524 27.8238 25.1214 27.4547C25.4904 27.0857 25.731 26.5676 25.8626 25.5893C25.973 24.7676 25.9948 23.7278 25.9991 22.3334H10.8638C9.55944 22.3334 9.10344 22.342 8.754 22.4356C7.79491 22.6926 7.03032 23.4055 6.70243 24.3322ZM26.0001 20.3334V10.6667C26.0001 8.75286 25.998 7.41804 25.8626 6.41091C25.731 5.43254 25.4904 4.91445 25.1214 4.54543C24.7524 4.17641 24.2343 3.93582 23.2559 3.80428C22.2488 3.66887 20.914 3.66675 19.0001 3.66675H13.6668C12.4563 3.66675 11.4775 3.6676 10.6668 3.70248V20.3334C10.6809 20.3334 10.6951 20.3334 10.7094 20.3334C10.7601 20.3334 10.8116 20.3334 10.8638 20.3334H26.0001ZM8.66675 20.4153C8.51674 20.438 8.37408 20.4669 8.23636 20.5038C7.66572 20.6567 7.1364 20.9064 6.66675 21.2346V10.6667C6.66675 8.75286 6.66888 7.41804 6.80428 6.41091C6.93582 5.43254 7.17641 4.91445 7.54543 4.54543C7.80718 4.28368 8.14394 4.08654 8.66675 3.94711V20.4153Z" fill="#3296C8"/>
</svg>
