<svg width="22" height="22" viewBox="0 0 22 22" fill="none" xmlns="http://www.w3.org/2000/svg">
<path d="M11.75 7.75C11.75 7.33579 11.4142 7 11 7C10.5858 7 10.25 7.33579 10.25 7.75L10.25 10H8C7.58579 10 7.25 10.3358 7.25 10.75C7.25 11.1642 7.58579 11.5 8 11.5H10.25V13.75C10.25 14.1642 10.5858 14.5 11 14.5C11.4142 14.5 11.75 14.1642 11.75 13.75L11.75 11.5H14C14.4142 11.5 14.75 11.1642 14.75 10.75C14.75 10.3358 14.4142 10 14 10H11.75V7.75Z" fill="#78828C"/>
<path fill-rule="evenodd" clip-rule="evenodd" d="M11.0574 2.0119e-07H10.9426C8.63424 -1.22504e-05 6.82519 -2.19941e-05 5.41371 0.189747C3.96897 0.383987 2.82895 0.789327 1.93414 1.68414C1.03933 2.57895 0.633987 3.71897 0.439747 5.16371C0.249978 6.57519 0.249988 8.38422 0.25 10.6926V10.8074C0.249988 13.1158 0.249978 14.9248 0.439747 16.3363C0.633987 17.781 1.03933 18.9211 1.93414 19.8159C2.82895 20.7107 3.96897 21.116 5.41371 21.3103C6.82519 21.5 8.63423 21.5 10.9426 21.5H11.0574C13.3658 21.5 15.1748 21.5 16.5863 21.3103C18.031 21.116 19.1711 20.7107 20.0659 19.8159C20.9607 18.9211 21.366 17.781 21.5603 16.3363C21.75 14.9248 21.75 13.1158 21.75 10.8074V10.6926C21.75 8.38423 21.75 6.57519 21.5603 5.16371C21.366 3.71897 20.9607 2.57895 20.0659 1.68414C19.1711 0.789327 18.031 0.383987 16.5863 0.189747C15.1748 -2.19941e-05 13.3658 -1.22504e-05 11.0574 2.0119e-07ZM2.9948 2.7448C3.56445 2.17514 4.33517 1.84825 5.61358 1.67637C6.91356 1.50159 8.62177 1.5 11 1.5C13.3782 1.5 15.0864 1.50159 16.3864 1.67637C17.6648 1.84825 18.4355 2.17514 19.0052 2.7448C19.5749 3.31445 19.9018 4.08517 20.0736 5.36358C20.2484 6.66356 20.25 8.37177 20.25 10.75C20.25 13.1282 20.2484 14.8364 20.0736 16.1364C19.9018 17.4148 19.5749 18.1855 19.0052 18.7552C18.4355 19.3249 17.6648 19.6518 16.3864 19.8236C15.0864 19.9984 13.3782 20 11 20C8.62177 20 6.91356 19.9984 5.61358 19.8236C4.33517 19.6518 3.56445 19.3249 2.9948 18.7552C2.42514 18.1855 2.09825 17.4148 1.92637 16.1364C1.75159 14.8364 1.75 13.1282 1.75 10.75C1.75 8.37177 1.75159 6.66356 1.92637 5.36358C2.09825 4.08517 2.42514 3.31445 2.9948 2.7448Z" fill="#78828C"/>
</svg>
