<svg width="22" height="22" viewBox="0 0 22 22" fill="#141618" xmlns="http://www.w3.org/2000/svg">
<path d="M16 13C16.5523 13 17 12.5523 17 12C17 11.4477 16.5523 11 16 11C15.4477 11 15 11.4477 15 12C15 12.5523 15.4477 13 16 13Z" />
<path d="M16 17C16.5523 17 17 16.5523 17 16C17 15.4477 16.5523 15 16 15C15.4477 15 15 15.4477 15 16C15 16.5523 15.4477 17 16 17Z" />
<path d="M12 12C12 12.5523 11.5523 13 11 13C10.4477 13 10 12.5523 10 12C10 11.4477 10.4477 11 11 11C11.5523 11 12 11.4477 12 12Z" />
<path d="M12 16C12 16.5523 11.5523 17 11 17C10.4477 17 10 16.5523 10 16C10 15.4477 10.4477 15 11 15C11.5523 15 12 15.4477 12 16Z" />
<path d="M6 13C6.55229 13 7 12.5523 7 12C7 11.4477 6.55229 11 6 11C5.44772 11 5 11.4477 5 12C5 12.5523 5.44772 13 6 13Z" />
<path d="M6 17C6.55229 17 7 16.5523 7 16C7 15.4477 6.55229 15 6 15C5.44772 15 5 15.4477 5 16C5 16.5523 5.44772 17 6 17Z" />
<path fill-rule="evenodd" clip-rule="evenodd" d="M6 0.75C6.41421 0.75 6.75 1.08579 6.75 1.5V2.26272C7.412 2.24999 8.14133 2.24999 8.94346 2.25H13.0564C13.8586 2.24999 14.588 2.24999 15.25 2.26272V1.5C15.25 1.08579 15.5858 0.75 16 0.75C16.4142 0.75 16.75 1.08579 16.75 1.5V2.32709C17.0099 2.34691 17.2561 2.37182 17.489 2.40313C18.6614 2.56076 19.6104 2.89288 20.3588 3.64124C21.1071 4.38961 21.4392 5.33855 21.5969 6.51098C21.75 7.65018 21.75 9.1058 21.75 10.9435V13.0564C21.75 14.8941 21.75 16.3498 21.5969 17.489C21.4392 18.6614 21.1071 19.6104 20.3588 20.3588C19.6104 21.1071 18.6614 21.4392 17.489 21.5969C16.3498 21.75 14.8942 21.75 13.0565 21.75H8.94359C7.10585 21.75 5.65018 21.75 4.51098 21.5969C3.33856 21.4392 2.38961 21.1071 1.64124 20.3588C0.89288 19.6104 0.560763 18.6614 0.403135 17.489C0.249972 16.3498 0.249985 14.8942 0.25 13.0564V10.9436C0.249985 9.10582 0.249972 7.65019 0.403135 6.51098C0.560763 5.33855 0.89288 4.38961 1.64124 3.64124C2.38961 2.89288 3.33856 2.56076 4.51098 2.40313C4.7439 2.37182 4.99006 2.34691 5.25 2.32709V1.5C5.25 1.08579 5.58579 0.75 6 0.75ZM4.71085 3.88976C3.70476 4.02502 3.12511 4.27869 2.7019 4.7019C2.27869 5.12511 2.02502 5.70476 1.88976 6.71085C1.86685 6.88123 1.8477 7.06061 1.83168 7.25H20.1683C20.1523 7.06061 20.1331 6.88124 20.1102 6.71085C19.975 5.70476 19.7213 5.12511 19.2981 4.7019C18.8749 4.27869 18.2952 4.02502 17.2892 3.88976C16.2615 3.75159 14.9068 3.75 13 3.75H9C7.09318 3.75 5.73851 3.75159 4.71085 3.88976ZM1.75 11C1.75 10.146 1.75032 9.40273 1.76309 8.75H20.2369C20.2497 9.40273 20.25 10.146 20.25 11V13C20.25 14.9068 20.2484 16.2615 20.1102 17.2892C19.975 18.2952 19.7213 18.8749 19.2981 19.2981C18.8749 19.7213 18.2952 19.975 17.2892 20.1102C16.2615 20.2484 14.9068 20.25 13 20.25H9C7.09318 20.25 5.73851 20.2484 4.71085 20.1102C3.70476 19.975 3.12511 19.7213 2.7019 19.2981C2.27869 18.8749 2.02502 18.2952 1.88976 17.2892C1.75159 16.2615 1.75 14.9068 1.75 13V11Z" />
</svg>
