<svg width="22" height="22" viewBox="0 0 22 22" fill="none" xmlns="http://www.w3.org/2000/svg">
<path fill-rule="evenodd" clip-rule="evenodd" d="M6 0.0839844C6.41421 0.0839844 6.75 0.419771 6.75 0.833984V1.5967C7.41203 1.58397 8.1414 1.58398 8.94358 1.58398H13.0564C13.8586 1.58398 14.588 1.58397 15.25 1.5967V0.833984C15.25 0.419771 15.5858 0.0839844 16 0.0839844C16.4142 0.0839844 16.75 0.419771 16.75 0.833984V1.66107C17.0099 1.68089 17.2561 1.7058 17.489 1.73712C18.6614 1.89475 19.6104 2.22686 20.3588 2.97523C21.1071 3.72359 21.4392 4.67254 21.5969 5.84496C21.6472 6.21965 21.681 6.62857 21.7037 7.07406C21.7337 7.15504 21.75 7.2426 21.75 7.33398C21.75 7.40331 21.7406 7.47043 21.723 7.53415C21.75 8.33613 21.75 9.24673 21.75 10.2776V12.3904C21.75 14.2282 21.75 15.6838 21.5969 16.823C21.4392 17.9954 21.1071 18.9444 20.3588 19.6927C19.6104 20.4411 18.6614 20.7732 17.489 20.9308C16.3498 21.084 14.8942 21.084 13.0564 21.084H8.94359C7.10583 21.084 5.65019 21.084 4.51098 20.9308C3.33856 20.7732 2.38961 20.4411 1.64124 19.6927C0.89288 18.9444 0.560763 17.9954 0.403135 16.823C0.249972 15.6838 0.249984 14.2282 0.25 12.3904V10.2776C0.249991 9.24673 0.249984 8.33613 0.277009 7.53415C0.259406 7.47043 0.250001 7.40331 0.250001 7.33398C0.250001 7.2426 0.266345 7.15503 0.296269 7.07405C0.318954 6.62856 0.35276 6.21965 0.403135 5.84496C0.560763 4.67254 0.89288 3.72359 1.64124 2.97523C2.38961 2.22686 3.33856 1.89475 4.51098 1.73712C4.7439 1.7058 4.99006 1.68089 5.25 1.66107V0.833984C5.25 0.419771 5.58579 0.0839844 6 0.0839844ZM1.76309 8.08398C1.75032 8.73671 1.75 9.47997 1.75 10.334V12.334C1.75 14.2408 1.75159 15.5955 1.88976 16.6231C2.02502 17.6292 2.27869 18.2089 2.7019 18.6321C3.12511 19.0553 3.70476 19.309 4.71085 19.4442C5.73851 19.5824 7.09318 19.584 9 19.584H13C14.9068 19.584 16.2615 19.5824 17.2892 19.4442C18.2952 19.309 18.8749 19.0553 19.2981 18.6321C19.7213 18.2089 19.975 17.6292 20.1102 16.6231C20.2484 15.5955 20.25 14.2408 20.25 12.334V10.334C20.25 9.47997 20.2497 8.73671 20.2369 8.08398H1.76309ZM20.1683 6.58398H1.83168C1.8477 6.39459 1.86685 6.21522 1.88976 6.04483C2.02502 5.03874 2.27869 4.4591 2.7019 4.03589C3.12511 3.61268 3.70476 3.35901 4.71085 3.22374C5.73851 3.08558 7.09318 3.08398 9 3.08398H13C14.9068 3.08398 16.2615 3.08558 17.2892 3.22374C18.2952 3.35901 18.8749 3.61268 19.2981 4.03589C19.7213 4.4591 19.975 5.03874 20.1102 6.04483C20.1331 6.21522 20.1523 6.39459 20.1683 6.58398Z" fill="#141618"/>
</svg>
