<svg width="30" height="26" viewBox="0 0 30 26" fill="white" xmlns="http://www.w3.org/2000/svg">
<path fill-rule="evenodd" clip-rule="evenodd" d="M9.13132 2.98221C9.48709 1.23571 11.0413 0 12.8219 0H17.1783C18.9589 0 20.5131 1.23571 20.8688 2.98221C20.951 3.38539 21.3162 3.68114 21.6961 3.68114H21.7179L21.7398 3.6821C23.611 3.76392 25.0483 3.99355 26.2483 4.78077C27.0043 5.27676 27.6547 5.91489 28.1614 6.65951C28.7919 7.58596 29.07 8.64926 29.2033 9.93527C29.3334 11.1917 29.3334 12.7667 29.3334 14.7614V14.875C29.3334 16.8697 29.3334 18.4446 29.2033 19.7011C29.07 20.9871 28.7919 22.0504 28.1614 22.9769C27.6547 23.7215 27.0043 24.3596 26.2483 24.8556C25.3103 25.4709 24.235 25.7422 22.9308 25.8725C21.6539 26 20.0521 26 18.018 26H11.9822C9.94806 26 8.3463 26 7.06936 25.8725C5.76514 25.7422 4.68983 25.4709 3.75188 24.8556C2.99584 24.3596 2.34549 23.7215 1.83873 22.9769C1.20824 22.0504 0.930155 20.9871 0.796911 19.7011C0.666727 18.4446 0.666737 16.8697 0.666748 14.875V14.7614C0.666737 12.7667 0.666727 11.1917 0.796911 9.93527C0.930155 8.64926 1.20824 7.58596 1.83873 6.65951C2.34549 5.91489 2.99584 5.27676 3.75188 4.78077C4.95185 3.99356 6.38915 3.76392 8.26039 3.6821L8.28222 3.68114H8.30408C8.68392 3.68114 9.04919 3.3854 9.13132 2.98221ZM12.8219 2C11.967 2 11.2522 2.59066 11.0911 3.38142C10.8302 4.66212 9.69475 5.66915 8.32852 5.68104C6.53038 5.76093 5.56723 5.98181 4.84893 6.45304C4.31087 6.80602 3.8501 7.2588 3.49216 7.78476C3.12396 8.3258 2.90269 9.01767 2.78626 10.1414C2.668 11.2828 2.66675 12.7541 2.66675 14.8182C2.66675 16.8822 2.668 18.3536 2.78626 19.495C2.90269 20.6187 3.12396 21.3106 3.49216 21.8516C3.8501 22.3776 4.31087 22.8303 4.84893 23.1833C5.40564 23.5485 6.118 23.7675 7.26813 23.8824C8.43406 23.9988 9.93599 24 12.0371 24H17.963C20.0642 24 21.5661 23.9988 22.732 23.8824C23.8822 23.7675 24.5945 23.5485 25.1512 23.1833C25.6893 22.8303 26.1501 22.3776 26.508 21.8516C26.8762 21.3106 27.0975 20.6187 27.2139 19.495C27.3322 18.3536 27.3334 16.8822 27.3334 14.8182C27.3334 12.7541 27.3322 11.2828 27.2139 10.1414C27.0975 9.01767 26.8762 8.3258 26.508 7.78476C26.1501 7.2588 25.6893 6.80602 25.1512 6.45304C24.4329 5.98181 23.4698 5.76093 21.6716 5.68104C20.3054 5.66915 19.17 4.66212 18.9091 3.38142C18.748 2.59066 18.0331 2 17.1783 2H12.8219ZM15.0001 11.3333C13.3432 11.3333 12.0001 12.6765 12.0001 14.3333C12.0001 15.9902 13.3432 17.3333 15.0001 17.3333C16.6569 17.3333 18.0001 15.9902 18.0001 14.3333C18.0001 12.6765 16.6569 11.3333 15.0001 11.3333ZM10.0001 14.3333C10.0001 11.5719 12.2387 9.33333 15.0001 9.33333C17.7615 9.33333 20.0001 11.5719 20.0001 14.3333C20.0001 17.0948 17.7615 19.3333 15.0001 19.3333C12.2387 19.3333 10.0001 17.0948 10.0001 14.3333ZM22.0001 10.3333C22.0001 9.78105 22.4478 9.33333 23.0001 9.33333H24.3334C24.8857 9.33333 25.3334 9.78105 25.3334 10.3333C25.3334 10.8856 24.8857 11.3333 24.3334 11.3333H23.0001C22.4478 11.3333 22.0001 10.8856 22.0001 10.3333Z" />
</svg>
