<svg width="22" height="18" viewBox="0 0 22 18" fill="none" xmlns="http://www.w3.org/2000/svg">
<path fill-rule="evenodd" clip-rule="evenodd" d="M8.94358 0.25H13.0564C14.8942 0.249984 16.3498 0.249972 17.489 0.403135C18.6614 0.560763 19.6104 0.89288 20.3588 1.64124C21.1071 2.38961 21.4392 3.33856 21.5969 4.51098C21.6873 5.18385 21.7244 5.9671 21.7395 6.87428C21.7464 6.91516 21.75 6.95716 21.75 7C21.75 7.03525 21.7476 7.06994 21.7429 7.1039C21.75 7.66962 21.75 8.28183 21.75 8.94359V9.05641C21.75 10.8942 21.75 12.3498 21.5969 13.489C21.4392 14.6614 21.1071 15.6104 20.3588 16.3588C19.6104 17.1071 18.6614 17.4392 17.489 17.5969C16.3498 17.75 14.8942 17.75 13.0564 17.75H8.94359C7.10583 17.75 5.65019 17.75 4.51098 17.5969C3.33856 17.4392 2.38961 17.1071 1.64124 16.3588C0.89288 15.6104 0.560763 14.6614 0.403135 13.489C0.249972 12.3498 0.249984 10.8942 0.25 9.05642V8.94358C0.249995 8.28182 0.249989 7.66961 0.257136 7.10388C0.252432 7.06993 0.250001 7.03525 0.250001 7C0.250001 6.95716 0.253592 6.91517 0.260489 6.87429C0.275642 5.96711 0.31267 5.18385 0.403135 4.51098C0.560763 3.33856 0.89288 2.38961 1.64124 1.64124C2.38961 0.89288 3.33856 0.560763 4.51098 0.403135C5.65019 0.249972 7.10582 0.249984 8.94358 0.25ZM1.75199 7.75C1.75009 8.13839 1.75 8.5541 1.75 9C1.75 10.9068 1.75159 12.2615 1.88976 13.2892C2.02502 14.2952 2.27869 14.8749 2.7019 15.2981C3.12511 15.7213 3.70476 15.975 4.71085 16.1102C5.73851 16.2484 7.09318 16.25 9 16.25H13C14.9068 16.25 16.2615 16.2484 17.2892 16.1102C18.2952 15.975 18.8749 15.7213 19.2981 15.2981C19.7213 14.8749 19.975 14.2952 20.1102 13.2892C20.2484 12.2615 20.25 10.9068 20.25 9C20.25 8.5541 20.2499 8.13839 20.248 7.75H1.75199ZM20.2239 6.25H1.77607C1.79564 5.66327 1.82987 5.15634 1.88976 4.71085C2.02502 3.70476 2.27869 3.12511 2.7019 2.7019C3.12511 2.27869 3.70476 2.02502 4.71085 1.88976C5.73851 1.75159 7.09318 1.75 9 1.75H13C14.9068 1.75 16.2615 1.75159 17.2892 1.88976C18.2952 2.02502 18.8749 2.27869 19.2981 2.7019C19.7213 3.12511 19.975 3.70476 20.1102 4.71085C20.1701 5.15634 20.2044 5.66327 20.2239 6.25ZM4.25 13C4.25 12.5858 4.58579 12.25 5 12.25H9C9.41421 12.25 9.75 12.5858 9.75 13C9.75 13.4142 9.41421 13.75 9 13.75H5C4.58579 13.75 4.25 13.4142 4.25 13ZM10.75 13C10.75 12.5858 11.0858 12.25 11.5 12.25H13C13.4142 12.25 13.75 12.5858 13.75 13C13.75 13.4142 13.4142 13.75 13 13.75H11.5C11.0858 13.75 10.75 13.4142 10.75 13Z" fill="#141618"/>
</svg>
