<svg width="32" height="32" viewBox="0 0 32 32" fill="none" xmlns="http://www.w3.org/2000/svg">
<path opacity="0.5" d="M14.2225 8.18054L13.5533 7.70693C12.5982 7.03097 11.4569 6.66797 10.2867 6.66797H9.47011C8.93119 6.66797 8.3868 6.70195 7.87888 6.8821C4.70195 8.00885 2.51667 12.128 2.67474 21.4715C2.70658 23.354 3.14709 25.4346 4.84566 26.2469C5.37497 26.5001 5.99558 26.668 6.7023 26.668C7.55032 26.668 8.22376 26.4262 8.74353 26.0856C9.28856 25.7283 9.76845 25.2641 10.2482 24.7999L10.2482 24.7999L10.2482 24.7999C10.841 24.2264 11.4335 23.6532 12.1483 23.2825C12.9269 22.8787 13.7912 22.668 14.6682 22.668H17.3318C18.2089 22.668 19.0731 22.8787 19.8517 23.2825C20.5665 23.6532 21.1591 24.2264 21.7518 24.7999L21.7519 24.7999C22.2316 25.264 22.7115 25.7283 23.2565 26.0856C23.7763 26.4262 24.4497 26.668 25.2977 26.668C26.0045 26.668 26.6251 26.5001 27.1544 26.2469C28.853 25.4346 29.2935 23.354 29.3253 21.4715C29.4834 12.128 27.2981 8.00884 24.1211 6.88209C23.6132 6.70195 23.0688 6.66797 22.5299 6.66797H21.7133C20.5432 6.66797 19.4019 7.03097 18.4468 7.70693L17.7776 8.18052C17.2578 8.54835 16.6368 8.74589 16 8.74589C15.3633 8.74589 14.7423 8.54836 14.2225 8.18054Z" fill="#3219AF"/>
<path d="M22.3333 12C22.8856 12 23.3333 12.4477 23.3333 13C23.3333 13.5523 22.8856 14 22.3333 14C21.781 14 21.3333 13.5523 21.3333 13C21.3333 12.4477 21.781 12 22.3333 12Z" fill="#3219AF"/>
<path d="M10 12.3333C10.5523 12.3333 11 12.781 11 13.3333V14.3333H12C12.5523 14.3333 13 14.781 13 15.3333C13 15.8856 12.5523 16.3333 12 16.3333H11V17.3333C11 17.8856 10.5523 18.3333 10 18.3333C9.44772 18.3333 9 17.8856 9 17.3333V16.3333H8C7.44772 16.3333 7 15.8856 7 15.3333C7 14.781 7.44772 14.3333 8 14.3333H9V13.3333C9 12.781 9.44772 12.3333 10 12.3333Z" fill="#3219AF"/>
<path d="M25.3333 15C25.3333 15.5523 24.8856 16 24.3333 16C23.781 16 23.3333 15.5523 23.3333 15C23.3333 14.4477 23.781 14 24.3333 14C24.8856 14 25.3333 14.4477 25.3333 15Z" fill="#3219AF"/>
<path d="M20.3333 16C20.8856 16 21.3333 15.5523 21.3333 15C21.3333 14.4477 20.8856 14 20.3333 14C19.781 14 19.3333 14.4477 19.3333 15C19.3333 15.5523 19.781 16 20.3333 16Z" fill="#3219AF"/>
<path d="M23.3333 17C23.3333 16.4477 22.8856 16 22.3333 16C21.781 16 21.3333 16.4477 21.3333 17C21.3333 17.5523 21.781 18 22.3333 18C22.8856 18 23.3333 17.5523 23.3333 17Z" fill="#3219AF"/>
</svg>
