<svg width="44" height="44" viewBox="0 0 44 44" fill="none" xmlns="http://www.w3.org/2000/svg">
<path d="M0 16C0 7.16344 7.16344 0 16 0H36C40.4183 0 44 3.58172 44 8V28C44 36.8366 36.8366 44 28 44H8C3.58172 44 0 40.4183 0 36V16Z" fill="#AF19C8"/>
<path fill-rule="evenodd" clip-rule="evenodd" d="M22 14.75C20.9396 14.75 20.0907 15.078 18.0658 15.8879L15.2574 17.0113C14.2469 17.4154 13.5468 17.6966 13.0929 17.9345C13.0486 17.9578 13.0086 17.9796 12.9727 18C13.0086 18.0204 13.0486 18.0422 13.0929 18.0655C13.5468 18.3034 14.2469 18.5846 15.2574 18.9887L18.0658 20.1121C20.0907 20.922 20.9396 21.25 22 21.25C23.0604 21.25 23.9093 20.922 25.9342 20.1121L28.7426 18.9887C29.7531 18.5846 30.4532 18.3034 30.9071 18.0655C30.9514 18.0422 30.9914 18.0204 31.0273 18C30.9914 17.9796 30.9514 17.9578 30.9071 17.9345C30.4532 17.6966 29.7531 17.4154 28.7426 17.0113L25.9342 15.8879C23.9093 15.078 23.0604 14.75 22 14.75ZM17.6244 14.4489C19.5012 13.698 20.6208 13.25 22 13.25C23.3792 13.25 24.4988 13.698 26.3756 14.4489C26.4138 14.4642 26.4524 14.4796 26.4912 14.4952L29.3451 15.6367C30.2996 16.0185 31.0728 16.3278 31.6035 16.606C31.8721 16.7468 32.1323 16.9065 32.333 17.0989C32.5392 17.2967 32.75 17.5966 32.75 18C32.75 18.4034 32.5392 18.7033 32.333 18.9011C32.1323 19.0935 31.8721 19.2532 31.6035 19.394C31.0728 19.6722 30.2996 19.9815 29.3451 20.3633L26.4912 21.5048C26.4524 21.5204 26.4138 21.5358 26.3756 21.5511C24.4988 22.302 23.3792 22.75 22 22.75C20.6208 22.75 19.5012 22.302 17.6244 21.5511C17.5862 21.5358 17.5476 21.5204 17.5088 21.5048L14.655 20.3633C13.7004 19.9815 12.9272 19.6722 12.3965 19.394C12.1279 19.2532 11.8677 19.0935 11.667 18.9011C11.4608 18.7033 11.25 18.4034 11.25 18C11.25 17.5966 11.4608 17.2967 11.667 17.0989C11.8677 16.9065 12.1279 16.7468 12.3965 16.606C12.9272 16.3278 13.7004 16.0185 14.655 15.6367L17.5088 14.4952C17.5476 14.4796 17.5862 14.4642 17.6244 14.4489ZM12.499 21.4401L12.5026 21.4432C12.507 21.4471 12.5152 21.4541 12.5272 21.4641C12.5512 21.4842 12.5904 21.5161 12.6448 21.5581C12.7535 21.6422 12.9229 21.7663 13.1528 21.9154C13.6126 22.2136 14.3142 22.6114 15.2574 22.9887L18.0658 24.1121C20.0907 24.922 20.9396 25.25 22 25.25C23.0604 25.25 23.9093 24.922 25.9342 24.1121L28.7426 22.9887C29.6858 22.6114 30.3874 22.2136 30.8472 21.9154C31.0771 21.7663 31.2465 21.6422 31.3552 21.5581C31.4096 21.5161 31.4488 21.4842 31.4728 21.4641C31.4848 21.4541 31.493 21.4471 31.4974 21.4432L31.4995 21.4415C31.5 21.441 31.5006 21.4405 31.5011 21.44C31.8095 21.1652 32.2823 21.1915 32.5583 21.4992C32.8349 21.8075 32.8091 22.2817 32.5008 22.5583L32 22C32.5008 22.5583 32.501 22.5581 32.5008 22.5583L32.4994 22.5595L32.4977 22.5611L32.493 22.5652L32.4793 22.5772C32.4682 22.5868 32.4532 22.5997 32.4341 22.6155C32.3961 22.6473 32.3422 22.6911 32.2724 22.745C32.1329 22.8528 31.9299 23.001 31.6634 23.1739C31.1303 23.5196 30.3424 23.9644 29.2997 24.3814L26.4912 25.5048C26.4524 25.5204 26.4138 25.5358 26.3756 25.5511C24.4988 26.302 23.3792 26.75 22 26.75C20.6208 26.75 19.5012 26.302 17.6244 25.5511C17.5862 25.5358 17.5476 25.5204 17.5088 25.5048L14.7003 24.3814C13.6576 23.9644 12.8697 23.5196 12.3366 23.1739C12.0701 23.001 11.8671 22.8528 11.7276 22.745C11.6578 22.6911 11.6039 22.6473 11.5659 22.6155C11.5468 22.5997 11.5318 22.5868 11.5207 22.5772L11.507 22.5652L11.5023 22.5611L11.5006 22.5595L11.4995 22.5586C11.4993 22.5584 11.4992 22.5583 12 22L11.4995 22.5586C11.1912 22.282 11.1651 21.8075 11.4417 21.4992C11.7178 21.1915 12.1906 21.1652 12.499 21.4401ZM31.4996 25.4414C31.5001 25.4409 31.5006 25.4405 31.5011 25.44C31.8095 25.1652 32.2823 25.1915 32.5583 25.4992C32.8349 25.8075 32.8091 26.2817 32.5008 26.5583L32 26C32.5008 26.5583 32.501 26.5581 32.5008 26.5583L32.4994 26.5595L32.4977 26.5611L32.493 26.5652L32.4793 26.5772C32.4682 26.5868 32.4532 26.5997 32.4341 26.6155C32.3961 26.6473 32.3422 26.6911 32.2724 26.745C32.1329 26.8528 31.9299 27.001 31.6634 27.1739C31.1303 27.5196 30.3424 27.9644 29.2997 28.3814L26.4912 29.5048C26.4524 29.5204 26.4138 29.5358 26.3756 29.5511C24.4988 30.302 23.3792 30.75 22 30.75C20.6208 30.75 19.5012 30.302 17.6244 29.5511C17.5862 29.5358 17.5476 29.5204 17.5088 29.5048L14.7003 28.3814C13.6576 27.9644 12.8697 27.5196 12.3366 27.1739C12.0701 27.001 11.8671 26.8528 11.7276 26.745C11.6578 26.6911 11.6039 26.6473 11.5659 26.6155C11.5468 26.5997 11.5318 26.5868 11.5207 26.5772L11.507 26.5652L11.5023 26.5611L11.5006 26.5595L11.4995 26.5586C11.4993 26.5584 11.4992 26.5583 12 26L11.4995 26.5586C11.1912 26.282 11.1651 25.8075 11.4417 25.4992C11.7177 25.1915 12.1905 25.1652 12.4989 25.44C12.4987 25.4398 12.4991 25.4402 12.4989 25.44C12.4991 25.4402 12.4999 25.4409 12.5001 25.441C12.4999 25.4409 12.5002 25.4412 12.5001 25.441L12.5026 25.4432C12.507 25.4471 12.5152 25.4541 12.5272 25.4641C12.5512 25.4842 12.5904 25.5161 12.6448 25.5581C12.7535 25.6422 12.9229 25.7663 13.1528 25.9154C13.6126 26.2136 14.3142 26.6114 15.2574 26.9887L18.0658 28.1121C20.0907 28.922 20.9396 29.25 22 29.25C23.0604 29.25 23.9093 28.922 25.9342 28.1121L28.7426 26.9887C29.6858 26.6114 30.3874 26.2136 30.8472 25.9154C31.0771 25.7663 31.2465 25.6422 31.3552 25.5581C31.4096 25.5161 31.4488 25.4842 31.4728 25.4641C31.4848 25.4541 31.493 25.4471 31.4974 25.4432L31.4996 25.4414Z" fill="white"/>
</svg>
