<svg width="24" height="24" viewBox="0 0 24 24" fill="#4BAF7D" xmlns="http://www.w3.org/2000/svg">
<path fill-rule="evenodd" clip-rule="evenodd" d="M12.0003 25.3333C5.71493 25.3333 2.57224 25.3333 0.619614 23.3807C-1.33301 21.4281 -1.33301 18.2854 -1.33301 12C-1.33301 5.7146 -1.33301 2.5719 0.619614 0.619278C2.57224 -1.33334 5.71493 -1.33334 12.0003 -1.33334C18.2857 -1.33334 21.4284 -1.33334 23.381 0.619278C25.3337 2.5719 25.3337 5.7146 25.3337 12C25.3337 18.2854 25.3337 21.4281 23.381 23.3807C21.4284 25.3333 18.2857 25.3333 12.0003 25.3333ZM17.3741 7.95955C17.7646 8.35007 17.7646 8.98324 17.3741 9.37376L10.7074 16.0404C10.3169 16.431 9.68374 16.431 9.29322 16.0404L6.62655 13.3738C6.23603 12.9832 6.23603 12.3501 6.62655 11.9595C7.01708 11.569 7.65024 11.569 8.04077 11.9595L10.0003 13.9191L15.9599 7.95955C16.3504 7.56903 16.9836 7.56903 17.3741 7.95955Z" />
</svg>
