<svg width="18" height="22" viewBox="0 0 18 22" fill="#141618" xmlns="http://www.w3.org/2000/svg">
<path fill-rule="evenodd" clip-rule="evenodd" d="M6.94531 0.250001H11.0551C12.4227 0.24998 13.525 0.249963 14.3919 0.366524C15.292 0.48754 16.0499 0.746434 16.6518 1.34835C17.2538 1.95027 17.5126 2.70814 17.6337 3.60825C17.7502 4.47522 17.7502 5.57754 17.7502 6.94513V15.0549C17.7502 16.4225 17.7502 17.5248 17.6337 18.3918C17.5126 19.2919 17.2538 20.0497 16.6518 20.6517C16.0499 21.2536 15.292 21.5125 14.3919 21.6335C13.525 21.75 12.4226 21.75 11.0551 21.75H6.94532C5.57773 21.75 4.4754 21.75 3.60844 21.6335C2.70833 21.5125 1.95045 21.2536 1.34854 20.6517C0.746619 20.0497 0.487726 19.2919 0.366709 18.3918C0.328013 18.1039 0.302165 17.7902 0.2849 17.4494C0.24582 17.326 0.238209 17.1912 0.268946 17.0568C0.250164 16.4649 0.250174 15.7991 0.250186 15.0549V6.94513C0.250165 5.57754 0.250148 4.47522 0.366709 3.60825C0.487726 2.70814 0.746619 1.95027 1.34854 1.34835C1.95045 0.746434 2.70833 0.48754 3.60843 0.366524C4.4754 0.249963 5.57772 0.24998 6.94531 0.250001ZM1.77694 17.2491C1.79214 17.6029 1.81597 17.914 1.85333 18.1919C1.95199 18.9257 2.13243 19.3142 2.4092 19.591C2.68596 19.8678 3.07453 20.0482 3.80831 20.1469C4.56366 20.2484 5.56477 20.25 7.00019 20.25H11.0002C12.4356 20.25 13.4367 20.2484 14.1921 20.1469C14.9258 20.0482 15.3144 19.8678 15.5912 19.591C15.8679 19.3142 16.0484 18.9257 16.147 18.1919C16.2299 17.5756 16.2462 16.7958 16.2494 15.75H4.89796C3.91971 15.75 3.5777 15.7564 3.31562 15.8267C2.5963 16.0194 2.02286 16.5541 1.77694 17.2491ZM16.2502 14.25V7C16.2502 5.56458 16.2486 4.56347 16.147 3.80812C16.0484 3.07435 15.8679 2.68577 15.5912 2.40901C15.3144 2.13225 14.9258 1.9518 14.1921 1.85315C13.4367 1.75159 12.4356 1.75 11.0002 1.75H7.00019C6.09237 1.75 5.35827 1.75064 4.75019 1.7768V14.25C4.7608 14.25 4.77146 14.25 4.78217 14.25C4.8202 14.25 4.85879 14.25 4.89796 14.25H16.2502ZM3.25019 14.3114C3.13768 14.3284 3.03068 14.3501 2.92739 14.3778C2.49941 14.4925 2.10242 14.6798 1.75019 14.9259V7C1.75019 5.56458 1.75178 4.56347 1.85333 3.80812C1.95199 3.07435 2.13243 2.68577 2.4092 2.40901C2.60551 2.2127 2.85807 2.06485 3.25019 1.96027V14.3114Z" />
</svg>
