<svg width="22" height="22" viewBox="0 0 22 22" fill="#141618" xmlns="http://www.w3.org/2000/svg">
<path fill-rule="evenodd" clip-rule="evenodd" d="M9.58137 0.250004L9.56096 0.250002C9.44744 0.249985 9.35909 0.249971 9.27551 0.255034C8.21507 0.319256 7.28648 0.988547 6.89021 1.97425C6.85898 2.05196 6.83104 2.1358 6.79516 2.24351L6.78872 2.26283L6.76306 2.33981C6.74407 2.39678 6.73878 2.41248 6.73417 2.4252C6.5743 2.86717 6.04303 3.236 5.481 3.25024L3.6616 3.33925C2.87537 3.43163 2.20216 3.62833 1.63325 4.09123C1.43454 4.25291 1.25292 4.43454 1.09123 4.63325C0.62833 5.20216 0.431634 5.87537 0.339252 6.6616C0.249976 7.42138 0.249988 8.37673 0.250004 9.56166L0.250004 9.60893L0.250002 9.6402C0.249972 9.92411 0.249943 10.1903 0.272683 10.4144C0.297844 10.6624 0.355737 10.9257 0.513864 11.18C0.565263 11.2627 0.623469 11.3409 0.687876 11.4139C0.856989 11.6055 1.05339 11.7291 1.25048 11.8205C1.25336 13.4357 1.27381 15.0682 1.41875 16.4664C1.50368 17.2856 1.63401 18.0548 1.84074 18.7106C2.04411 19.3557 2.34441 19.9665 2.81975 20.389C3.64319 21.1209 4.67956 21.4436 5.97328 21.5983C7.2432 21.75 8.87087 21.75 10.9488 21.75H11.0512C13.1291 21.75 14.7568 21.75 16.0267 21.5983C17.3204 21.4436 18.3568 21.1209 19.1803 20.389C19.6556 19.9665 19.9559 19.3557 20.1593 18.7106C20.366 18.0548 20.4963 17.2856 20.5813 16.4664C20.7262 15.0682 20.7466 13.4357 20.7495 11.8205C20.9466 11.7291 21.143 11.6055 21.3121 11.4139C21.3765 11.3409 21.4347 11.2627 21.4861 11.18C21.6443 10.9257 21.7022 10.6624 21.7273 10.4144C21.7501 10.1903 21.75 9.92412 21.75 9.64021L21.75 9.56165C21.75 8.37672 21.75 7.42138 21.6608 6.6616C21.5684 5.87537 21.3717 5.20216 20.9088 4.63325C20.7471 4.43454 20.5655 4.25291 20.3668 4.09123C19.7978 3.62833 19.1246 3.43163 18.3384 3.33925L16.519 3.25024C15.9572 3.23601 15.4262 2.86731 15.2663 2.42518C15.2617 2.41254 15.2563 2.39649 15.2374 2.33981L15.2053 2.24347C15.1694 2.13578 15.1415 2.05195 15.1102 1.97426C14.714 0.988549 13.7854 0.319256 12.725 0.255034C12.6414 0.249971 12.553 0.249985 12.4395 0.250002L9.58137 0.250004ZM6.57032 4.75L6.60893 4.75H15.3911L15.4297 4.75C16.6524 4.75004 17.5082 4.75202 18.1634 4.829C18.809 4.90486 19.1619 5.04466 19.4201 5.25474C19.5393 5.35175 19.6483 5.46072 19.7453 5.57995C19.9553 5.83814 20.0951 6.19102 20.171 6.83664C20.2488 7.49864 20.25 8.3656 20.25 9.60893C20.25 9.93503 20.2491 10.1238 20.235 10.263C20.2266 10.3452 20.2161 10.3786 20.2122 10.3882C20.2049 10.3999 20.1967 10.4109 20.1876 10.4212C20.1795 10.4277 20.1506 10.4474 20.0742 10.479C19.945 10.5326 19.7644 10.5877 19.4521 10.6814L14.25 12.242V12C14.25 11.3096 13.6904 10.75 13 10.75H9C8.30965 10.75 7.75 11.3096 7.75 12V12.242L2.54792 10.6814C2.23557 10.5877 2.05502 10.5326 1.92578 10.479C1.84942 10.4474 1.82047 10.4277 1.81236 10.4212L7.75 12.242L1.78785 10.3882C1.78391 10.3786 1.77336 10.3452 1.76502 10.263C1.7509 10.1238 1.75 9.93503 1.75 9.60893C1.75 8.3656 1.75122 7.49864 1.829 6.83664C1.90487 6.19102 2.04466 5.83814 2.25474 5.57995C2.35175 5.46072 2.46072 5.35175 2.57995 5.25474C2.83814 5.04466 3.19102 4.90486 3.83665 4.829C4.49176 4.75202 5.34762 4.75004 6.57032 4.75ZM9.58137 1.75C9.43799 1.75 9.39845 1.75034 9.36618 1.75229C8.88417 1.78148 8.46208 2.08571 8.28196 2.53375C8.26991 2.56374 8.25708 2.60117 8.21174 2.73717L8.18338 2.82225C8.16835 2.86736 8.15665 2.90246 8.14472 2.93544C8.10527 3.04452 8.05863 3.14944 8.00558 3.25H13.9949C13.9418 3.14945 13.8952 3.04453 13.8557 2.93547C13.8438 2.90249 13.8321 2.86736 13.8171 2.82225L13.7887 2.73717C13.7434 2.60117 13.7305 2.56374 13.7185 2.53375C13.5384 2.08571 13.1163 1.78148 12.6343 1.75229C12.602 1.75034 12.5625 1.75 12.4191 1.75H9.58137ZM2.7521 12.3087C2.7589 13.7455 2.78782 15.1259 2.91076 16.3118C2.99059 17.0818 3.10738 17.7394 3.27134 18.2596C3.43867 18.7904 3.63263 19.1046 3.8163 19.2679C4.31088 19.7075 4.99418 19.9706 6.15128 20.1089C7.32178 20.2487 8.85979 20.25 11 20.25C13.1402 20.25 14.6782 20.2487 15.8487 20.1089C17.0058 19.9706 17.6891 19.7075 18.1837 19.2679C18.3674 19.1046 18.5613 18.7904 18.7287 18.2596C18.8926 17.7394 19.0094 17.0818 19.0892 16.3118C19.2122 15.1259 19.2411 13.7455 19.2479 12.3087L14.25 13.808V14.1615C14.25 14.6726 13.9388 15.1323 13.4642 15.3221L12.7641 15.6021C11.6317 16.0551 10.3684 16.0551 9.2359 15.6021L8.53577 15.3221C8.06119 15.1323 7.75 14.6726 7.75 14.1615V13.808L2.7521 12.3087ZM9.25 12.25V13.9922L9.79298 14.2094C10.5678 14.5194 11.4322 14.5194 12.207 14.2094L12.75 13.9922V12.25H9.25Z" />
</svg>
