<svg width="22" height="20" viewBox="0 0 22 20" fill="none" xmlns="http://www.w3.org/2000/svg">
<path fill-rule="evenodd" clip-rule="evenodd" d="M7.04829 0.488264C7.33092 0.791077 7.31455 1.26567 7.01174 1.54829L2.72603 5.54829C2.57391 5.69027 2.36965 5.76267 2.16208 5.74818C1.9545 5.7337 1.76228 5.63363 1.63135 5.4719L0.417068 3.9719C0.156446 3.64996 0.206158 3.17769 0.528103 2.91707C0.850049 2.65645 1.32231 2.70616 1.58294 3.0281L2.29087 3.90261L5.98826 0.451711C6.29108 0.169086 6.76567 0.185451 7.04829 0.488264ZM10.25 3C10.25 2.58579 10.5858 2.25 11 2.25H21C21.4142 2.25 21.75 2.58579 21.75 3C21.75 3.41422 21.4142 3.75 21 3.75H11C10.5858 3.75 10.25 3.41422 10.25 3ZM7.04829 7.48826C7.33092 7.79108 7.31455 8.26567 7.01174 8.54829L2.72603 12.5483C2.57391 12.6903 2.36965 12.7627 2.16208 12.7482C1.9545 12.7337 1.76228 12.6336 1.63135 12.4719L0.417068 10.9719C0.156446 10.65 0.206158 10.1777 0.528103 9.91707C0.850049 9.65645 1.32231 9.70616 1.58294 10.0281L2.29087 10.9026L5.98826 7.45171C6.29108 7.16909 6.76567 7.18545 7.04829 7.48826ZM10.25 10C10.25 9.58579 10.5858 9.25 11 9.25H21C21.4142 9.25 21.75 9.58579 21.75 10C21.75 10.4142 21.4142 10.75 21 10.75H11C10.5858 10.75 10.25 10.4142 10.25 10ZM7.04829 14.4883C7.33092 14.7911 7.31455 15.2657 7.01174 15.5483L2.72603 19.5483C2.57391 19.6903 2.36965 19.7627 2.16208 19.7482C1.9545 19.7337 1.76228 19.6336 1.63135 19.4719L0.417068 17.9719C0.156446 17.65 0.206158 17.1777 0.528103 16.9171C0.850049 16.6564 1.32231 16.7062 1.58294 17.0281L2.29087 17.9026L5.98826 14.4517C6.29108 14.1691 6.76567 14.1855 7.04829 14.4883ZM10.25 17C10.25 16.5858 10.5858 16.25 11 16.25H21C21.4142 16.25 21.75 16.5858 21.75 17C21.75 17.4142 21.4142 17.75 21 17.75H11C10.5858 17.75 10.25 17.4142 10.25 17Z" fill="#141618"/>
</svg>
