<svg width="24" height="24" viewBox="0 0 24 24" fill="141618" xmlns="http://www.w3.org/2000/svg">
<path d="M7.25 7C7.25 6.80109 7.32902 6.61032 7.46967 6.46967C7.61032 6.32902 7.80109 6.25 8 6.25H16C16.1989 6.25 16.3897 6.32902 16.5303 6.46967C16.671 6.61032 16.75 6.80109 16.75 7C16.75 7.19891 16.671 7.38968 16.5303 7.53033C16.3897 7.67098 16.1989 7.75 16 7.75H8C7.80109 7.75 7.61032 7.67098 7.46967 7.53033C7.32902 7.38968 7.25 7.19891 7.25 7ZM8 9.75C7.80109 9.75 7.61032 9.82902 7.46967 9.96967C7.32902 10.1103 7.25 10.3011 7.25 10.5C7.25 10.6989 7.32902 10.8897 7.46967 11.0303C7.61032 11.171 7.80109 11.25 8 11.25H13C13.1989 11.25 13.3897 11.171 13.5303 11.0303C13.671 10.8897 13.75 10.6989 13.75 10.5C13.75 10.3011 13.671 10.1103 13.5303 9.96967C13.3897 9.82902 13.1989 9.75 13 9.75H8Z" />
<path fill-rule="evenodd" clip-rule="evenodd" d="M9.945 1.25C8.578 1.25 7.475 1.25 6.608 1.367C5.708 1.487 4.95 1.747 4.348 2.348C3.746 2.95 3.488 3.708 3.367 4.608C3.25 5.475 3.25 6.578 3.25 7.945V16.055C3.25 17.422 3.25 18.525 3.367 19.392C3.487 20.292 3.747 21.05 4.348 21.652C4.95 22.254 5.708 22.512 6.608 22.634C7.475 22.75 8.578 22.75 9.945 22.75H14.055C15.422 22.75 16.525 22.75 17.392 22.634C18.292 22.512 19.05 22.254 19.652 21.652C20.254 21.05 20.512 20.292 20.634 19.392C20.75 18.525 20.75 17.422 20.75 16.055V7.945C20.75 6.578 20.75 5.475 20.634 4.608C20.512 3.708 20.254 2.95 19.652 2.348C19.05 1.746 18.292 1.488 17.392 1.367C16.525 1.25 15.422 1.25 14.055 1.25H9.945ZM5.41 3.409C5.687 3.132 6.075 2.952 6.81 2.853C7.564 2.752 8.566 2.75 10.001 2.75H14.001C15.436 2.75 16.437 2.752 17.193 2.853C17.927 2.952 18.315 3.133 18.592 3.409C18.869 3.686 19.049 4.074 19.148 4.809C19.249 5.563 19.251 6.565 19.251 8V15.25H7.782C6.964 15.25 6.406 15.25 5.927 15.378C5.50577 15.4908 5.10747 15.6763 4.75 15.926V8C4.75 6.565 4.752 5.563 4.853 4.808C4.952 4.074 5.134 3.686 5.41 3.409ZM4.777 18.249C4.792 18.603 4.816 18.914 4.853 19.192C4.952 19.926 5.133 20.314 5.409 20.591C5.686 20.868 6.074 21.048 6.809 21.147C7.563 21.248 8.565 21.25 10 21.25H14C15.435 21.25 16.436 21.248 17.192 21.147C17.926 21.048 18.314 20.867 18.591 20.591C18.868 20.314 19.048 19.926 19.147 19.191C19.23 18.576 19.246 17.796 19.249 16.75H7.898C6.92 16.75 6.578 16.756 6.315 16.827C5.96255 16.9215 5.63837 17.1004 5.37043 17.3481C5.10249 17.5958 4.89883 17.905 4.777 18.249Z" />
</svg>
