<svg width="32" height="32" viewBox="0 0 32 32" fill="none" xmlns="http://www.w3.org/2000/svg">
<path fill-rule="evenodd" clip-rule="evenodd" d="M5.33331 6.25781V24.9245C5.33331 27.1336 7.12417 28.9245 9.33331 28.9245H22.6666C24.8758 28.9245 26.6666 27.1336 26.6666 24.9245V11.5911C26.6666 9.38201 24.8758 7.59115 22.6666 7.59115H6.66665C5.93027 7.59115 5.33331 6.99419 5.33331 6.25781ZM9.66665 15.5911C9.66665 15.0389 10.1144 14.5911 10.6666 14.5911H21.3333C21.8856 14.5911 22.3333 15.0389 22.3333 15.5911C22.3333 16.1434 21.8856 16.5911 21.3333 16.5911H10.6666C10.1144 16.5911 9.66665 16.1434 9.66665 15.5911ZM9.66665 20.2578C9.66665 19.7055 10.1144 19.2578 10.6666 19.2578H18C18.5523 19.2578 19 19.7055 19 20.2578C19 20.8101 18.5523 21.2578 18 21.2578H10.6666C10.1144 21.2578 9.66665 20.8101 9.66665 20.2578Z" fill="#FA9632"/>
<path opacity="0.5" d="M24 5.33514V7.82136C23.5829 7.67396 23.1342 7.59375 22.6666 7.59375H6.66665C5.93027 7.59375 5.33331 6.9968 5.33331 6.26042V6.16569C5.33331 5.455 5.85589 4.85246 6.55944 4.75195L20.9562 2.69527C22.5627 2.46577 24 3.71234 24 5.33514Z" fill="#FA9632"/>
</svg>
