<svg width="30" height="30" viewBox="0 0 30 30" fill="none" xmlns="http://www.w3.org/2000/svg">
<path fill-rule="evenodd" clip-rule="evenodd" d="M5.99984 18.0827C5.99984 17.5305 6.44755 17.0827 6.99984 17.0827H17.6665C18.2188 17.0827 18.6665 17.5305 18.6665 18.0827C18.6665 18.635 18.2188 19.0827 17.6665 19.0827H6.99984C6.44755 19.0827 5.99984 18.635 5.99984 18.0827Z" fill="#78828C"/>
<path fill-rule="evenodd" clip-rule="evenodd" d="M5.99984 22.7494C5.99984 22.1971 6.44755 21.7494 6.99984 21.7494H14.3332C14.8855 21.7494 15.3332 22.1971 15.3332 22.7494C15.3332 23.3017 14.8855 23.7494 14.3332 23.7494H6.99984C6.44755 23.7494 5.99984 23.3017 5.99984 22.7494Z" fill="#78828C"/>
<path fill-rule="evenodd" clip-rule="evenodd" d="M15.3332 2.5283C14.7193 2.42399 13.8825 2.41608 12.3729 2.41608C9.81732 2.41608 8.00083 2.41819 6.62364 2.60251C5.27446 2.78308 4.49921 3.12179 3.93571 3.68529C3.37143 4.24957 3.0332 5.02243 2.85285 6.36388C2.66863 7.7341 2.6665 9.54032 2.6665 12.0827V17.4161C2.6665 19.9585 2.66863 21.7647 2.85285 23.135C3.0332 24.4764 3.37143 25.2493 3.93571 25.8135C4.49999 26.3778 5.27285 26.7161 6.6143 26.8964C7.98452 27.0806 9.79074 27.0827 12.3332 27.0827H17.6665C20.2089 27.0827 22.0152 27.0806 23.3854 26.8964C24.7268 26.7161 25.4997 26.3778 26.064 25.8135C26.6282 25.2493 26.9665 24.4764 27.1468 23.135C27.331 21.7647 27.3332 19.9585 27.3332 17.4161V16.8333C27.3332 14.7853 27.3188 13.8144 27.1014 13.0827H22.9283C21.4178 13.0828 20.1835 13.0828 19.209 12.9518C18.1904 12.8148 17.3073 12.5185 16.6024 11.8135C15.8975 11.1086 15.6011 10.2255 15.4641 9.2069C15.3331 8.23242 15.3331 6.99811 15.3332 5.48767V2.5283ZM17.3332 3.56202V5.41608C17.3332 7.0157 17.3353 8.11482 17.4463 8.94041C17.5534 9.73723 17.7452 10.1279 18.0166 10.3993C18.288 10.6707 18.6787 10.8625 19.4755 10.9696C20.3011 11.0806 21.4002 11.0827 22.9998 11.0827H25.6925C25.2972 10.6994 24.7908 10.24 24.1332 9.6481L18.8548 4.89757C18.2076 4.31512 17.726 3.88518 17.3332 3.56202ZM12.5671 0.416049C14.4132 0.415555 15.606 0.415237 16.7037 0.836487C17.8015 1.25773 18.6841 2.05248 20.0496 3.28208C20.0967 3.32453 20.1444 3.3675 20.1927 3.41098L25.4711 8.16151C25.5273 8.21209 25.5828 8.26202 25.6376 8.31134C27.2158 9.73086 28.2364 10.6488 28.7853 11.8814C29.3343 13.1139 29.3339 14.4866 29.3332 16.6092C29.3332 16.683 29.3332 16.7577 29.3332 16.8333V17.4913C29.3332 19.9416 29.3332 21.8825 29.129 23.4014C28.9188 24.9647 28.476 26.2299 27.4782 27.2278C26.4804 28.2256 25.2151 28.6684 23.6519 28.8786C22.1329 29.0828 20.1921 29.0828 17.7417 29.0827H12.258C9.80761 29.0828 7.86676 29.0828 6.34781 28.8786C4.78458 28.6684 3.51931 28.2256 2.5215 27.2278C1.52368 26.2299 1.08085 24.9647 0.870684 23.4014C0.666466 21.8825 0.666483 19.9417 0.666504 17.4913V12.0075C0.666483 9.55718 0.666466 7.61634 0.870684 6.09738C1.08085 4.53416 1.52368 3.26889 2.5215 2.27107C3.52009 1.27248 4.78959 0.830137 6.35833 0.620183C7.88361 0.416045 9.83411 0.416062 12.2979 0.416083L12.3729 0.416083C12.4384 0.416083 12.5032 0.416066 12.5671 0.416049Z" fill="#78828C"/>
</svg>
