<svg width="44" height="44" viewBox="0 0 44 44" fill="none" xmlns="http://www.w3.org/2000/svg">
<path d="M0 16C0 7.16344 7.16344 0 16 0H36C40.4183 0 44 3.58172 44 8V28C44 36.8366 36.8366 44 28 44H8C3.58172 44 0 40.4183 0 36V16Z" fill="#6419C8"/>
<path fill-rule="evenodd" clip-rule="evenodd" d="M22.25 12.8342C21.7896 12.756 21.162 12.7501 20.0298 12.7501C18.1131 12.7501 16.7507 12.7516 15.7179 12.8899C14.706 13.0253 14.1245 13.2793 13.7019 13.702C13.2787 14.1252 13.025 14.7048 12.8898 15.7109C12.7516 16.7386 12.75 18.0932 12.75 20.0001V24.0001C12.75 25.9069 12.7516 27.2615 12.8898 28.2892C13.025 29.2953 13.2787 29.8749 13.7019 30.2981C14.1251 30.7214 14.7048 30.975 15.7108 31.1103C16.7385 31.2485 18.0932 31.2501 20 31.2501H24C25.9068 31.2501 27.2615 31.2485 28.2892 31.1103C29.2952 30.975 29.8749 30.7214 30.2981 30.2981C30.7213 29.8749 30.975 29.2953 31.1102 28.2892C31.2484 27.2615 31.25 25.9069 31.25 24.0001V23.5629C31.25 22.0269 31.2392 21.2988 31.0762 20.7501H27.9463C26.8135 20.7501 25.8877 20.7501 25.1569 20.6518C24.3929 20.5491 23.7306 20.3268 23.2019 19.7981C22.6732 19.2695 22.4509 18.6071 22.3482 17.8432C22.25 17.1123 22.25 16.1866 22.25 15.0537V12.8342ZM23.75 13.6095V15.0001C23.75 16.1998 23.7516 17.0241 23.8348 17.6433C23.9152 18.2409 24.059 18.5339 24.2626 18.7375C24.4661 18.941 24.7591 19.0849 25.3568 19.1652C25.976 19.2485 26.8003 19.2501 28 19.2501H30.0195C29.723 18.9625 29.3432 18.618 28.85 18.1741L24.8912 14.6112C24.4058 14.1743 24.0446 13.8519 23.75 13.6095ZM20.1755 11.25C21.5601 11.2497 22.4546 11.2494 23.2779 11.5654C24.1012 11.8813 24.7632 12.4773 25.7873 13.3996C25.8226 13.4314 25.8584 13.4636 25.8947 13.4962L29.8534 17.0591C29.8956 17.0971 29.9372 17.1345 29.9783 17.1715C31.162 18.2361 31.9274 18.9246 32.3391 19.849C32.7508 20.7734 32.7505 21.8029 32.75 23.3949C32.75 23.4502 32.75 23.5062 32.75 23.5629V24.0565C32.75 25.8942 32.75 27.3499 32.5969 28.4891C32.4392 29.6615 32.1071 30.6104 31.3588 31.3588C30.6104 32.1072 29.6614 32.4393 28.489 32.5969C27.3498 32.7501 25.8942 32.7501 24.0564 32.7501H19.9436C18.1058 32.7501 16.6502 32.7501 15.511 32.5969C14.3386 32.4393 13.3896 32.1072 12.6412 31.3588C11.8929 30.6104 11.5608 29.6615 11.4031 28.4891C11.25 27.3499 11.25 25.8942 11.25 24.0565V19.9436C11.25 18.1059 11.25 16.6502 11.4031 15.511C11.5608 14.3386 11.8929 13.3897 12.6412 12.6413C13.3902 11.8923 14.3423 11.5606 15.5189 11.4031C16.6628 11.25 18.1257 11.25 19.9735 11.2501L20.0298 11.2501C20.0789 11.2501 20.1275 11.25 20.1755 11.25Z" fill="white"/>
</svg>
