<svg width="24" height="25" viewBox="0 0 24 25" fill="none" xmlns="http://www.w3.org/2000/svg">
<path fill-rule="evenodd" clip-rule="evenodd" d="M10.9436 1.75H13.0564C14.8942 1.74998 16.3498 1.74997 17.489 1.90314C18.6614 2.06076 19.6104 2.39288 20.3588 3.14124C21.1071 3.88961 21.4392 4.83856 21.5969 6.01098C21.75 7.15019 21.75 8.60583 21.75 10.4436V14.5564C21.75 16.3942 21.75 17.8498 21.5969 18.989C21.4392 20.1614 21.1071 21.1104 20.3588 21.8588C19.6104 22.6071 18.6614 22.9392 17.489 23.0969C16.3498 23.25 14.8942 23.25 13.0564 23.25H10.9436C9.10583 23.25 7.65019 23.25 6.51098 23.0969C5.33856 22.9392 4.38961 22.6071 3.64124 21.8588C2.89288 21.1104 2.56076 20.1614 2.40314 18.989C2.24997 17.8498 2.24998 16.3942 2.25 14.5564V10.4436C2.24998 8.60582 2.24997 7.15019 2.40314 6.01098C2.56076 4.83856 2.89288 3.88961 3.64124 3.14124C4.38961 2.39288 5.33856 2.06076 6.51098 1.90314C7.65019 1.74997 9.10582 1.74998 10.9436 1.75ZM6.71085 3.38976C5.70476 3.52502 5.12511 3.77869 4.7019 4.2019C4.27869 4.62511 4.02502 5.20476 3.88976 6.21085C3.75159 7.23851 3.75 8.59318 3.75 10.5V14.5C3.75 16.4068 3.75159 17.7615 3.88976 18.7892C4.02502 19.7952 4.27869 20.3749 4.7019 20.7981C5.12511 21.2213 5.70476 21.475 6.71085 21.6102C7.73851 21.7484 9.09318 21.75 11 21.75H13C14.9068 21.75 16.2615 21.7484 17.2892 21.6102C18.2952 21.475 18.8749 21.2213 19.2981 20.7981C19.7213 20.3749 19.975 19.7952 20.1102 18.7892C20.2484 17.7615 20.25 16.4068 20.25 14.5V10.5C20.25 8.59318 20.2484 7.23851 20.1102 6.21085C19.975 5.20476 19.7213 4.62511 19.2981 4.2019C18.8749 3.77869 18.2952 3.52502 17.2892 3.38976C16.2615 3.25159 14.9068 3.25 13 3.25H11C9.09318 3.25 7.73851 3.25159 6.71085 3.38976ZM7.25 8.5C7.25 8.08579 7.58579 7.75 8 7.75H16C16.4142 7.75 16.75 8.08579 16.75 8.5C16.75 8.91421 16.4142 9.25 16 9.25H8C7.58579 9.25 7.25 8.91421 7.25 8.5ZM7.25 12.5C7.25 12.0858 7.58579 11.75 8 11.75H16C16.4142 11.75 16.75 12.0858 16.75 12.5C16.75 12.9142 16.4142 13.25 16 13.25H8C7.58579 13.25 7.25 12.9142 7.25 12.5ZM7.25 16.5C7.25 16.0858 7.58579 15.75 8 15.75H13C13.4142 15.75 13.75 16.0858 13.75 16.5C13.75 16.9142 13.4142 17.25 13 17.25H8C7.58579 17.25 7.25 16.9142 7.25 16.5Z" fill="#141618"/>
</svg>
