<svg width="22" height="23" viewBox="0 0 22 23" fill="none" xmlns="http://www.w3.org/2000/svg">
<path d="M11 5.75C11.4142 5.75 11.75 6.08579 11.75 6.5V12.5C11.75 12.9142 11.4142 13.25 11 13.25C10.5858 13.25 10.25 12.9142 10.25 12.5V6.5C10.25 6.08579 10.5858 5.75 11 5.75Z" fill="#E1324B"/>
<path d="M11 16.5C11.5523 16.5 12 16.0523 12 15.5C12 14.9477 11.5523 14.5 11 14.5C10.4477 14.5 10 14.9477 10 15.5C10 16.0523 10.4477 16.5 11 16.5Z" fill="#E1324B"/>
<path fill-rule="evenodd" clip-rule="evenodd" d="M0.25 11.5C0.25 5.56294 5.06294 0.75 11 0.75C16.9371 0.75 21.75 5.56294 21.75 11.5C21.75 17.4371 16.9371 22.25 11 22.25C5.06294 22.25 0.25 17.4371 0.25 11.5ZM11 2.25C5.89137 2.25 1.75 6.39137 1.75 11.5C1.75 16.6086 5.89137 20.75 11 20.75C16.1086 20.75 20.25 16.6086 20.25 11.5C20.25 6.39137 16.1086 2.25 11 2.25Z" fill="#E1324B"/>
</svg>
