<svg width="44" height="44" viewBox="0 0 44 44" fill="none" xmlns="http://www.w3.org/2000/svg">
<path d="M0 16C0 7.16344 7.16344 0 16 0H36C40.4183 0 44 3.58172 44 8V28C44 36.8366 36.8366 44 28 44H8C3.58172 44 0 40.4183 0 36V16Z" fill="#3296C8"/>
<path fill-rule="evenodd" clip-rule="evenodd" d="M28.9059 13.9219C27.892 12.8865 26.446 12.5045 25.0305 12.9073C24.6321 13.0207 24.2172 12.7896 24.1038 12.3912C23.9905 11.9928 24.2215 11.5779 24.6199 11.4646C26.5581 10.9131 28.5746 11.4396 29.9776 12.8725C30.2674 13.1685 30.2624 13.6433 29.9665 13.9331C29.6705 14.2229 29.1957 14.2179 28.9059 13.9219ZM21.1902 13.3084C20.9762 12.9413 20.3524 12.7187 19.7187 13.0808C19.0873 13.4417 18.9763 14.0777 19.1866 14.4384L21.7123 18.7695C21.9209 19.1273 21.8 19.5866 21.4422 19.7952C21.0844 20.0039 20.6252 19.883 20.4165 19.5251L17.8909 15.194C17.8907 15.1938 17.891 15.1942 17.8909 15.194L17.049 13.7503C16.8349 13.3832 16.2111 13.1606 15.5774 13.5228C14.9461 13.8836 14.835 14.5196 15.0454 14.8803L18.8338 21.377C19.0425 21.7348 18.9216 22.1941 18.5638 22.4027C18.2059 22.6114 17.7467 22.4905 17.5381 22.1326L15.8543 19.2452C15.6402 18.8781 15.0164 18.6555 14.3828 19.0177C13.7514 19.3785 13.6404 20.0145 13.8507 20.3752L17.6392 26.8719C19.2481 29.631 23.2185 30.5264 26.5855 28.6021C29.9501 26.6792 31.1461 22.8377 29.5409 20.085L27.0153 15.7539C26.8012 15.3868 26.1774 15.1642 25.5437 15.5263C24.9124 15.8872 24.8013 16.5232 25.0117 16.8839L26.6954 19.7713C26.7962 19.9441 26.8238 20.15 26.772 20.3432C26.7202 20.5365 26.5934 20.701 26.4197 20.8003C24.8772 21.6818 24.4045 23.3863 25.0798 24.5443C25.2885 24.9022 25.1676 25.3614 24.8097 25.57C24.4519 25.7787 23.9927 25.6578 23.7841 25.3C22.7248 23.4835 23.3916 21.2368 25.0474 19.9229L21.1902 13.3084ZM23.9184 15.0092L22.486 12.5528C21.7702 11.3252 20.1629 11.0993 18.9744 11.7785C18.6081 11.9879 18.2966 12.2748 18.0617 12.6078C17.2616 11.7269 15.8838 11.62 14.8331 12.2205C13.6423 12.901 13.03 14.402 13.7496 15.636L14.7518 17.3545C14.3667 17.3963 13.9848 17.5174 13.6385 17.7154C12.4476 18.3959 11.8353 19.8969 12.5549 21.1309L16.3434 27.6275C18.4541 31.2471 23.4079 32.1458 27.3297 29.9044C31.2539 27.6617 32.9512 22.9554 30.8367 19.3294L28.3111 14.9982C27.5952 13.7707 25.988 13.5448 24.7994 14.224C24.4494 14.4241 24.1494 14.695 23.9184 15.0092ZM14.4139 27.859C14.7717 27.6504 15.2309 27.7713 15.4396 28.1291C16.2664 29.5471 17.5305 30.6193 19.0894 31.3151C19.4677 31.4839 19.6374 31.9274 19.4686 32.3057C19.2998 32.6839 18.8563 32.8537 18.4781 32.6849C16.6666 31.8764 15.1468 30.6046 14.1438 28.8847C13.9352 28.5269 14.0561 28.0677 14.4139 27.859Z" fill="white"/>
</svg>
