<svg width="22" height="22" viewBox="0 0 22 22" fill="none" xmlns="http://www.w3.org/2000/svg">
<path d="M7.27953 3.50412C8.29529 2.87371 9.0095 2.43153 9.60655 2.1412C10.1882 1.85833 10.6002 1.75 11 1.75C11.3998 1.75 11.8118 1.85833 12.3935 2.14119C12.9905 2.43153 13.7047 2.87371 14.7205 3.50412L16.7205 4.74537C17.6813 5.34169 18.3559 5.76135 18.8591 6.1467C19.3487 6.52164 19.6304 6.83106 19.8229 7.18285C20.0162 7.53589 20.129 7.94865 20.1884 8.58104C20.2492 9.22859 20.25 10.0458 20.25 11.2039V12.725C20.25 14.6959 20.2485 16.1012 20.1098 17.1683C19.9736 18.2163 19.717 18.8244 19.2892 19.2669C18.8649 19.7058 18.2871 19.9664 17.2858 20.1057C16.2602 20.2483 14.9075 20.25 13 20.25C12.5858 20.25 12.25 20.5858 12.25 21C12.25 21.4142 12.5858 21.75 13 21.75H13.0581C14.8944 21.75 16.3515 21.75 17.4924 21.5914C18.6695 21.4277 19.6204 21.0824 20.3676 20.3094C21.1114 19.5401 21.4406 18.567 21.5973 17.3616C21.75 16.1866 21.75 14.6838 21.75 12.7799V11.1672C21.75 10.0541 21.75 9.16652 21.6818 8.4407C21.6114 7.69174 21.4647 7.05812 21.1387 6.46263C20.8121 5.86589 20.3599 5.40669 19.7711 4.95581C19.2026 4.5204 18.4649 4.0626 17.5437 3.49088L15.4771 2.20831C14.5036 1.60409 13.7242 1.12034 13.0495 0.79224C12.3515 0.452819 11.7081 0.25 11 0.25C10.2919 0.25 9.64854 0.45282 8.95056 0.79224C8.27587 1.12034 7.49646 1.60407 6.52292 2.20829L4.45629 3.4909C3.53509 4.06261 2.79745 4.5204 2.22891 4.95581C1.64016 5.40669 1.18796 5.86589 0.861317 6.46263C0.46281 7.19067 0.331286 7.97857 0.281377 8.96199C0.260383 9.37567 0.578718 9.72804 0.992399 9.74904C1.40608 9.77003 1.75845 9.45169 1.77945 9.03801C1.82532 8.13408 1.94045 7.61519 2.1771 7.18285C2.36966 6.83106 2.65133 6.52164 3.14093 6.1467C3.64411 5.76135 4.3187 5.34169 5.27954 4.74537L7.27953 3.50412Z" fill="#141618"/>
<path d="M1 11.2498C0.585786 11.2498 0.25 11.5856 0.25 11.9998C0.25 12.414 0.585786 12.7498 1 12.7498C5.55635 12.7498 9.25 16.4434 9.25 20.9998C9.25 21.414 9.58579 21.7498 10 21.7498C10.4142 21.7498 10.75 21.414 10.75 20.9998C10.75 15.615 6.38478 11.2498 1 11.2498Z" fill="#141618"/>
<path d="M0.25 14.9998C0.25 14.5856 0.585786 14.2498 1 14.2498C4.72792 14.2498 7.75 17.2719 7.75 20.9998C7.75 21.414 7.41421 21.7498 7 21.7498C6.58579 21.7498 6.25 21.414 6.25 20.9998C6.25 18.1003 3.8995 15.7498 1 15.7498C0.585786 15.7498 0.25 15.414 0.25 14.9998Z" fill="#141618"/>
<path d="M1 17.2498C0.585786 17.2498 0.25 17.5856 0.25 17.9998C0.25 18.414 0.585786 18.7498 1 18.7498C2.24264 18.7498 3.25 19.7571 3.25 20.9998C3.25 21.414 3.58579 21.7498 4 21.7498C4.41421 21.7498 4.75 21.414 4.75 20.9998C4.75 18.9287 3.07107 17.2498 1 17.2498Z" fill="#141618"/>
</svg>
