<svg width="96" height="72" viewBox="0 0 96 72" fill="none" xmlns="http://www.w3.org/2000/svg">
<rect x="1" y="1" width="94" height="70" rx="3" fill="white"/>
<path d="M38.4 19.5H15.6C15.2686 19.5 15 19.7686 15 20.1V21.9C15 22.2314 15.2686 22.5 15.6 22.5H38.4C38.7314 22.5 39 22.2314 39 21.9V20.1C39 19.7686 38.7314 19.5 38.4 19.5Z" fill="#E1E6EB"/>
<path d="M65.1 16.5H45.9C45.4029 16.5 45 16.9029 45 17.4V24.6C45 25.0971 45.4029 25.5 45.9 25.5H65.1C65.5971 25.5 66 25.0971 66 24.6V17.4C66 16.9029 65.5971 16.5 65.1 16.5Z" fill="#197DFA"/>
<path d="M80.4 19.5H72.6C72.2686 19.5 72 19.7686 72 20.1V21.9C72 22.2314 72.2686 22.5 72.6 22.5H80.4C80.7314 22.5 81 22.2314 81 21.9V20.1C81 19.7686 80.7314 19.5 80.4 19.5Z" fill="#E1E6EB"/>
<path d="M35.1 31.5H15.9C15.4029 31.5 15 31.9029 15 32.4V39.6C15 40.0971 15.4029 40.5 15.9 40.5H35.1C35.5971 40.5 36 40.0971 36 39.6V32.4C36 31.9029 35.5971 31.5 35.1 31.5Z" fill="#197DFA"/>
<path d="M80.4 34.5H42.6C42.2686 34.5 42 34.7686 42 35.1V36.9C42 37.2314 42.2686 37.5 42.6 37.5H80.4C80.7314 37.5 81 37.2314 81 36.9V35.1C81 34.7686 80.7314 34.5 80.4 34.5Z" fill="#E1E6EB"/>
<path d="M69.6 49.5H80.4C80.7314 49.5 81 49.7686 81 50.1V51.9C81 52.2314 80.7314 52.5 80.4 52.5H69.6C69.2686 52.5 69 52.2314 69 51.9V50.1C69 49.7686 69.2686 49.5 69.6 49.5Z" fill="#E1E6EB"/>
<path d="M42.9 46.5H62.1C62.5971 46.5 63 46.9029 63 47.4V54.6C63 55.0971 62.5971 55.5 62.1 55.5H42.9C42.4029 55.5 42 55.0971 42 54.6V47.4C42 46.9029 42.4029 46.5 42.9 46.5Z" fill="#197DFA"/>
<path d="M15.6 49.5H35.4C35.7314 49.5 36 49.7686 36 50.1V51.9C36 52.2314 35.7314 52.5 35.4 52.5H15.6C15.2686 52.5 15 52.2314 15 51.9V50.1C15 49.7686 15.2686 49.5 15.6 49.5Z" fill="#E1E6EB"/>
<rect x="1" y="1" width="94" height="70" rx="3" stroke="#197DFA" stroke-width="2"/>
</svg>
