<svg width="23" height="22" viewBox="0 0 23 22" fill="none" xmlns="http://www.w3.org/2000/svg">
<path d="M15.6429 0.25C15.2286 0.25 14.8929 0.585786 14.8929 1C14.8929 1.41421 15.2286 1.75 15.6429 1.75H19.6893L13.9697 7.46967C13.6768 7.76256 13.6768 8.23744 13.9697 8.53033C14.2626 8.82322 14.7374 8.82322 15.0303 8.53033L20.75 2.81066V6.85714C20.75 7.27136 21.0858 7.60714 21.5 7.60714C21.9142 7.60714 22.25 7.27136 22.25 6.85714V1C22.25 0.585786 21.9142 0.25 21.5 0.25H15.6429Z" fill="#141618"/>
<path d="M7.35714 21.75C7.77136 21.75 8.10714 21.4142 8.10714 21C8.10714 20.5858 7.77136 20.25 7.35714 20.25H3.31066L9.03033 14.5303C9.32322 14.2374 9.32322 13.7626 9.03033 13.4697C8.73744 13.1768 8.26256 13.1768 7.96967 13.4697L2.25 19.1893V15.1429C2.25 14.7286 1.91421 14.3929 1.5 14.3929C1.08579 14.3929 0.75 14.7286 0.75 15.1429V21C0.75 21.4142 1.08579 21.75 1.5 21.75H7.35714Z" fill="#141618"/>
</svg>
