<svg width="20" height="20" viewBox="0 0 20 20" fill="none" xmlns="http://www.w3.org/2000/svg">
<path d="M19.8003 10.2223C19.8003 9.40005 19.7336 8.80004 19.5892 8.17783H10.2003V11.8889H15.7113C15.6003 12.8112 15.0003 14.2001 13.6669 15.1334L13.6482 15.2576L16.6168 17.5573L16.8225 17.5779C18.7114 15.8334 19.8003 13.2667 19.8003 10.2223Z" fill="#4285F4"/>
<path d="M10.2002 20C12.9002 20 15.1669 19.1112 16.8225 17.5779L13.6669 15.1334C12.8225 15.7222 11.6891 16.1333 10.2002 16.1333C7.55581 16.1333 5.31137 14.3889 4.51129 11.9777L4.39401 11.9877L1.30721 14.3766L1.26685 14.4888C2.91128 17.7555 6.28908 20 10.2002 20Z" fill="#34A853"/>
<path d="M4.51129 11.9777C4.30018 11.3555 4.178 10.6889 4.178 10C4.178 9.3111 4.30018 8.64446 4.50018 8.02224L4.49458 7.88973L1.3691 5.46245L1.26684 5.51109C0.58909 6.86667 0.200195 8.38892 0.200195 10C0.200195 11.6112 0.589094 13.1332 1.26685 14.4888L4.51129 11.9777Z" fill="#FBBC05"/>
<path d="M10.2002 3.86666C12.078 3.86666 13.3446 4.67777 14.0669 5.3556L16.8891 2.60001C15.1558 0.988898 12.9002 0 10.2002 0C6.28908 0 2.91128 2.24443 1.26684 5.51109L4.50018 8.02224C5.31136 5.61113 7.5558 3.86666 10.2002 3.86666Z" fill="#EB4335"/>
</svg>
