<svg width="22" height="12" viewBox="0 0 22 12" fill="none" xmlns="http://www.w3.org/2000/svg">
<path fill-rule="evenodd" clip-rule="evenodd" d="M21.2954 0.31065C21.6761 0.473817 21.8524 0.914726 21.6893 1.29545L20.9999 1.00001C21.6893 1.29545 21.6894 1.29527 21.6893 1.29545L21.6886 1.29713L21.6875 1.29961L21.6843 1.30697L21.6736 1.33105C21.6646 1.35118 21.6518 1.3794 21.6352 1.41508C21.6019 1.48643 21.5533 1.58776 21.4888 1.71416C21.3599 1.96681 21.1675 2.32069 20.9084 2.73647C20.4828 3.41951 19.8724 4.27766 19.0619 5.13019L20.0303 6.09852C20.3231 6.39141 20.3231 6.86628 20.0303 7.15918C19.7374 7.45207 19.2625 7.45207 18.9696 7.15918L17.969 6.1586C17.3093 6.71129 16.5528 7.23004 15.695 7.65624L16.6286 9.09097C16.8545 9.43816 16.7562 9.90274 16.409 10.1286C16.0618 10.3546 15.5972 10.2562 15.3713 9.90905L14.2821 8.23516C13.5028 8.48967 12.659 8.66262 11.7499 8.72463V10.5C11.7499 10.9142 11.4141 11.25 10.9999 11.25C10.5857 11.25 10.2499 10.9142 10.2499 10.5V8.72463C9.36889 8.66453 8.54909 8.50022 7.78982 8.25841L6.71575 9.90912C6.48984 10.2563 6.02526 10.3546 5.67807 10.1287C5.33089 9.90281 5.23257 9.43822 5.45847 9.09104L6.37089 7.68878C5.5065 7.26666 4.74381 6.75018 4.07842 6.19827L3.11744 7.15925C2.82455 7.45214 2.34968 7.45214 2.05678 7.15925C1.76389 6.86635 1.76389 6.39148 2.05678 6.09859L2.98055 5.17482C2.15599 4.31513 1.53525 3.44656 1.10277 2.75468C0.839844 2.33404 0.644595 1.97566 0.513882 1.7197C0.448481 1.59164 0.399104 1.48895 0.36537 1.41665C0.3485 1.38048 0.33553 1.35189 0.326415 1.33149L0.315621 1.3071L0.312378 1.29966L0.311293 1.29714L0.310885 1.29619C0.310808 1.29602 0.310565 1.29545 0.999924 1.00001L0.310885 1.29619C0.147718 0.915471 0.323762 0.473817 0.704484 0.31065C1.08489 0.147618 1.52539 0.323557 1.68888 0.70363C1.68882 0.703499 1.68894 0.703761 1.68888 0.70363L1.68983 0.705821L1.69591 0.719535C1.7018 0.73273 1.7114 0.753917 1.72472 0.782488C1.75139 0.839648 1.79296 0.926259 1.84976 1.03748C1.96345 1.2601 2.13762 1.58028 2.37472 1.95961C2.85033 2.72048 3.57157 3.7071 4.55561 4.6216C5.42151 5.42632 6.48259 6.16757 7.75165 6.65582C8.70614 7.02304 9.78537 7.25001 10.9999 7.25001C12.2416 7.25001 13.342 7.01277 14.3124 6.63082C15.5738 6.13433 16.6277 5.38826 17.4866 4.582C18.4562 3.67198 19.1668 2.69517 19.6354 1.94321C19.869 1.56832 20.0405 1.25228 20.1525 1.03268C20.2085 0.922963 20.2494 0.837578 20.2757 0.781255C20.2888 0.753101 20.2983 0.732235 20.3041 0.71925L20.31 0.705767L20.3106 0.70457C20.3105 0.704668 20.3106 0.704472 20.3106 0.70457M21.2954 0.31065C20.9147 0.147526 20.4738 0.32405 20.3106 0.70457L21.2954 0.31065ZM1.68888 0.70363C1.68882 0.703499 1.68894 0.703761 1.68888 0.70363V0.70363Z" fill="#78828C"/>
</svg>
