<svg width="24" height="34" viewBox="0 0 24 34" fill="none" xmlns="http://www.w3.org/2000/svg">
<path fill-rule="evenodd" clip-rule="evenodd" d="M7.41659 28.1801C7.41659 27.481 7.97623 26.9143 8.66659 26.9143H15.3333C16.0236 26.9143 16.5833 27.481 16.5833 28.1801C16.5833 28.8792 16.0236 29.446 15.3333 29.446H8.66659C7.97623 29.446 7.41659 28.8792 7.41659 28.1801ZM8.5277 32.3995C8.5277 31.7004 9.08734 31.1337 9.7777 31.1337H14.2221C14.9125 31.1337 15.4721 31.7004 15.4721 32.3995C15.4721 33.0986 14.9125 33.6654 14.2221 33.6654H9.7777C9.08734 33.6654 8.5277 33.0986 8.5277 32.3995Z" fill="#FFAF4B"/>
<path d="M4.35089 20.0459L6.19096 21.7998C6.7072 22.2918 6.99992 22.9779 6.99992 23.6958C6.99992 24.7742 7.86326 25.6485 8.92824 25.6485H15.0716C16.1366 25.6485 16.9999 24.7742 16.9999 23.6958C16.9999 22.9779 17.2926 22.2918 17.8089 21.7998L19.6489 20.0459C22.2176 17.5788 23.652 14.3378 23.6665 10.9682L23.6666 10.8267C23.6666 5.06941 18.4432 0.332031 11.9999 0.332031C5.5566 0.332031 0.333252 5.06941 0.333252 10.8267L0.333362 10.9682C0.347839 14.3378 1.78224 17.5788 4.35089 20.0459Z" fill="#FFAF4B"/>
</svg>
