<svg width="29" height="30" viewBox="0 0 29 30" fill="#78828C" xmlns="http://www.w3.org/2000/svg">
<path fill-rule="evenodd" clip-rule="evenodd" d="M20.8584 1.9443L20.9471 1.96806C22.4129 2.36082 23.5745 2.67207 24.4882 3.00212C25.4227 3.33973 26.1849 3.72593 26.8127 4.31397C27.7269 5.17025 28.3667 6.2784 28.6512 7.4983C28.8465 8.33605 28.7999 9.18916 28.625 10.1673C28.454 11.1237 28.1427 12.2853 27.7499 13.7512L27.036 16.4156C26.6433 17.8814 26.332 19.043 26.002 19.9566C25.6644 20.8912 25.2782 21.6533 24.6901 22.2812C23.8611 23.1663 22.7959 23.7942 21.6219 24.0914C21.2789 24.8778 20.778 25.5898 20.146 26.1817C19.5182 26.7697 18.7561 27.1559 17.8215 27.4936C16.9078 27.8236 15.7463 28.1348 14.2805 28.5276L14.1919 28.5513C12.726 28.9441 11.5643 29.2554 10.608 29.4264C9.62984 29.6013 8.77672 29.6479 7.93897 29.4526C6.71908 29.1681 5.61093 28.5283 4.75465 27.6141C4.16661 26.9863 3.7804 26.2241 3.44279 25.2896C3.11274 24.3759 2.80149 23.2143 2.40873 21.7484L1.6948 19.084C1.30202 17.6182 0.990764 16.4566 0.819764 15.5003C0.644849 14.5221 0.598251 13.669 0.793588 12.8312C1.07803 11.6113 1.71782 10.5032 2.63206 9.64691C3.2599 9.05886 4.02202 8.67266 4.95661 8.33505C5.87027 8.005 7.03189 7.69375 8.49772 7.301L8.54204 7.28912C8.89466 7.19463 9.2283 7.10539 9.54417 7.02193C10.0663 5.15643 10.5258 3.83769 11.4213 2.88157C12.2776 1.96733 13.3857 1.32754 14.6056 1.0431C15.4434 0.847763 16.2965 0.894361 17.2747 1.06928C18.231 1.24027 19.3926 1.55153 20.8584 1.9443ZM8.93986 9.25308C7.48269 9.64362 6.43857 9.9262 5.63611 10.2161C4.82354 10.5096 4.34644 10.7814 3.99924 11.1066C3.37371 11.6925 2.93596 12.4507 2.74134 13.2854C2.63332 13.7487 2.63646 14.2978 2.78854 15.1482C2.94281 16.011 3.23124 17.0907 3.63853 18.6107L4.32871 21.1865C4.736 22.7065 5.02606 23.7858 5.32383 24.6101C5.61736 25.4226 5.88919 25.8997 6.21438 26.2469C6.80025 26.8725 7.55846 27.3102 8.39312 27.5048C8.8564 27.6128 9.4055 27.6097 10.256 27.4576C11.1187 27.3034 12.1984 27.0149 13.7184 26.6076C15.2384 26.2003 16.3177 25.9103 17.142 25.6125C17.9546 25.319 18.4317 25.0472 18.7789 24.722C18.9623 24.5502 19.1296 24.3636 19.2793 24.1646C19.0406 24.131 18.795 24.088 18.5408 24.0375C17.645 23.8594 16.569 23.571 15.2409 23.2152L15.1644 23.1947C13.6986 22.8019 12.5369 22.4907 11.6233 22.1606C10.6887 21.823 9.92657 21.4368 9.29872 20.8488C8.38448 19.9925 7.74469 18.8843 7.46025 17.6644C7.26492 16.8267 7.31152 15.9736 7.48643 14.9954C7.65743 14.0391 7.96869 12.8775 8.36147 11.4117L8.93986 9.25308ZM16.9226 3.03805C16.0722 2.88597 15.5231 2.88283 15.0598 2.99085C14.2251 3.18547 13.4669 3.62322 12.881 4.24875C12.2996 4.86959 11.9417 5.82871 11.3194 8.10698C11.2183 8.47726 11.1114 8.87632 10.9954 9.30919L10.3052 11.885C9.89791 13.405 9.60947 14.4847 9.4552 15.3474C9.30313 16.1979 9.29999 16.747 9.40801 17.2103C9.60262 18.045 10.0404 18.8032 10.6659 19.389C11.0131 19.7142 11.4902 19.9861 12.3028 20.2796C13.1271 20.5774 14.2063 20.8674 15.7263 21.2747C17.0936 21.6411 18.1068 21.912 18.9308 22.0759C19.7511 22.239 20.3078 22.279 20.7641 22.2227C20.8633 22.2105 20.9587 22.1936 21.0516 22.1719C21.8863 21.9773 22.6445 21.5395 23.2304 20.914C23.5556 20.5668 23.8274 20.0897 24.1209 19.2771C24.4187 18.4528 24.7088 17.3736 25.1161 15.8536L25.8062 13.2777C26.2135 11.7577 26.502 10.678 26.6562 9.81529C26.8083 8.96483 26.8114 8.41573 26.7034 7.95245C26.5088 7.11779 26.0711 6.35958 25.4455 5.7737C25.0983 5.44851 24.6212 5.17668 23.8087 4.88315C22.9844 4.58539 21.9051 4.29532 20.3851 3.88804C18.8651 3.48075 17.7854 3.19232 16.9226 3.03805ZM13.7364 12.3239C13.8793 11.7904 14.4277 11.4738 14.9611 11.6167L21.4006 13.3422C21.9341 13.4851 22.2507 14.0335 22.1077 14.567C21.9648 15.1004 21.4165 15.417 20.883 15.2741L14.4435 13.5486C13.91 13.4057 13.5934 12.8573 13.7364 12.3239ZM12.7006 16.1875C12.8435 15.654 13.3918 15.3374 13.9253 15.4804L17.789 16.5156C18.3225 16.6586 18.6391 17.2069 18.4961 17.7404C18.3532 18.2738 17.8048 18.5904 17.2714 18.4475L13.4077 17.4122C12.8742 17.2693 12.5576 16.7209 12.7006 16.1875Z" />
</svg>
