<svg width="22" height="22" viewBox="0 0 22 22" fill="none" xmlns="http://www.w3.org/2000/svg">
<path d="M8 11C8 11.5523 7.55228 12 7 12C6.44772 12 6 11.5523 6 11C6 10.4477 6.44772 10 7 10C7.55228 10 8 10.4477 8 11Z" fill="#141618"/>
<path d="M12 11C12 11.5523 11.5523 12 11 12C10.4477 12 10 11.5523 10 11C10 10.4477 10.4477 10 11 10C11.5523 10 12 10.4477 12 11Z" fill="#141618"/>
<path d="M15 12C15.5523 12 16 11.5523 16 11C16 10.4477 15.5523 10 15 10C14.4477 10 14 10.4477 14 11C14 11.5523 14.4477 12 15 12Z" fill="#141618"/>
<path fill-rule="evenodd" clip-rule="evenodd" d="M11 0.25C5.06294 0.25 0.25 5.06294 0.25 11C0.25 16.9371 5.06294 21.75 11 21.75C16.9371 21.75 21.75 16.9371 21.75 11C21.75 5.06294 16.9371 0.25 11 0.25ZM1.75 11C1.75 5.89137 5.89137 1.75 11 1.75C16.1086 1.75 20.25 5.89137 20.25 11C20.25 16.1086 16.1086 20.25 11 20.25C5.89137 20.25 1.75 16.1086 1.75 11Z" fill="#141618"/>
</svg>
