<svg width="28" height="30" viewBox="0 0 28 30" fill="#3219AF" xmlns="http://www.w3.org/2000/svg">
<path fill-rule="evenodd" clip-rule="evenodd" d="M10.26 0.666749H18.4064C20.2298 0.666721 21.6996 0.666699 22.8555 0.822113C24.0557 0.983469 25.0662 1.32866 25.8687 2.13122C26.6713 2.93377 27.0165 3.94427 27.1778 5.14441C27.3333 6.30037 27.3332 7.77013 27.3332 9.59359V20.4066C27.3332 22.23 27.3333 23.6998 27.1778 24.8558C27.0165 26.0559 26.6713 27.0664 25.8687 27.8689C25.0662 28.6715 24.0557 29.0167 22.8555 29.1781C21.6996 29.3335 20.2298 29.3334 18.4064 29.3334H10.2601C9.84203 29.3334 9.4426 29.3334 9.06128 29.3316C9.04097 29.3328 9.0205 29.3334 8.99988 29.3334C8.97547 29.3334 8.95126 29.3325 8.92728 29.3308C7.70395 29.3232 6.67062 29.2936 5.81088 29.1781C4.61073 29.0167 3.60023 28.6715 2.79768 27.8689C1.99512 27.0664 1.64993 26.0559 1.48858 24.8558C1.36041 23.9025 1.33795 22.7358 1.33403 21.3334H0.999878C0.447593 21.3334 -0.00012207 20.8857 -0.00012207 20.3334C-0.00012207 19.7811 0.447593 19.3334 0.999878 19.3334H1.33321V16.0001H0.999878C0.447593 16.0001 -0.00012207 15.5524 -0.00012207 15.0001C-0.00012207 14.4478 0.447593 14.0001 0.999878 14.0001H1.33321V10.6667H0.999878C0.447593 10.6667 -0.00012207 10.219 -0.00012207 9.66675C-0.00012207 9.11446 0.447593 8.66675 0.999878 8.66675H1.33403C1.33795 7.26432 1.36041 6.09767 1.48858 5.14441C1.64993 3.94427 1.99512 2.93377 2.79768 2.13122C3.60023 1.32866 4.61073 0.983469 5.81088 0.822113C6.96683 0.666699 8.43659 0.666721 10.26 0.666749ZM3.33321 10.6667H3.66654C4.21883 10.6667 4.66654 10.219 4.66654 9.66675C4.66654 9.11446 4.21883 8.66675 3.66654 8.66675H3.33425C3.33851 7.27235 3.36027 6.23258 3.47074 5.41091C3.60228 4.43254 3.84287 3.91445 4.21189 3.54543C4.58091 3.17641 5.099 2.93582 6.07737 2.80428C6.61294 2.73227 7.24118 2.69796 7.99988 2.68161V27.3186C7.24118 27.3022 6.61294 27.2679 6.07737 27.1959C5.099 27.0644 4.58091 26.8238 4.21189 26.4547C3.84287 26.0857 3.60228 25.5676 3.47074 24.5893C3.36027 23.7676 3.33851 22.7278 3.33425 21.3334H3.66654C4.21883 21.3334 4.66654 20.8857 4.66654 20.3334C4.66654 19.7811 4.21883 19.3334 3.66654 19.3334H3.33321V16.0001H3.66654C4.21883 16.0001 4.66654 15.5524 4.66654 15.0001C4.66654 14.4478 4.21883 14.0001 3.66654 14.0001H3.33321V10.6667ZM9.99988 27.3334C10.109 27.3334 10.2201 27.3334 10.3332 27.3334H18.3332C20.2471 27.3334 21.5819 27.3313 22.5891 27.1959C23.5674 27.0644 24.0855 26.8238 24.4545 26.4547C24.8236 26.0857 25.0641 25.5676 25.1957 24.5893C25.3311 23.5821 25.3332 22.2473 25.3332 20.3334V9.66675C25.3332 7.75286 25.3311 6.41804 25.1957 5.41091C25.0641 4.43254 24.8236 3.91445 24.4545 3.54543C24.0855 3.17641 23.5674 2.93582 22.5891 2.80428C21.5819 2.66887 20.2471 2.66675 18.3332 2.66675H10.3332C10.2201 2.66675 10.109 2.66676 9.99988 2.6668V27.3334ZM12.6665 7.66675C12.6665 7.11446 13.1143 6.66675 13.6665 6.66675H20.3332C20.8855 6.66675 21.3332 7.11446 21.3332 7.66675C21.3332 8.21903 20.8855 8.66675 20.3332 8.66675H13.6665C13.1143 8.66675 12.6665 8.21903 12.6665 7.66675ZM12.6665 12.3334C12.6665 11.7811 13.1143 11.3334 13.6665 11.3334H20.3332C20.8855 11.3334 21.3332 11.7811 21.3332 12.3334C21.3332 12.8857 20.8855 13.3334 20.3332 13.3334H13.6665C13.1143 13.3334 12.6665 12.8857 12.6665 12.3334Z" />
</svg>
