<svg
  width="22"
  height="22"
  viewBox="0 0 22 22"
  fill="none"
  xmlns="http://www.w3.org/2000/svg"
>
<path
    fill-rule="evenodd"
    clip-rule="evenodd"
    d="M5.85929 0.250008C5.88904 0.250012 5.91919 0.250017 5.94976 0.250017L5.98675 0.250015C6.33818 0.249991 6.56433 0.249975 6.78542 0.27065C7.7367 0.359606 8.63905 0.733371 9.37461 1.34313C9.54556 1.48485 9.70547 1.64477 9.95395 1.89329L10.5303 2.46969C11.3761 3.3154 11.7012 3.6311 12.0768 3.84005C12.2948 3.96134 12.526 4.05713 12.766 4.12552C13.1793 4.24333 13.6324 4.25002 14.8284 4.25002L15.253 4.25002C16.526 4.25 17.5521 4.24998 18.364 4.35206C19.2054 4.45784 19.9204 4.68358 20.5077 5.21185C20.6061 5.30032 20.6997 5.39394 20.7882 5.49231C21.3165 6.07965 21.5422 6.79459 21.648 7.63601C21.75 8.4479 21.75 9.47407 21.75 10.747V13.0564C21.75 14.8942 21.75 16.3498 21.5969 17.489C21.4393 18.6615 21.1071 19.6104 20.3588 20.3588C19.6104 21.1071 18.6615 21.4393 17.489 21.5969C16.3498 21.75 14.8942 21.75 13.0564 21.75H8.94361C7.10584 21.75 5.65021 21.75 4.51099 21.5969C3.33857 21.4393 2.38962 21.1071 1.64126 20.3588C0.892896 19.6104 0.560779 18.6615 0.403151 17.489C0.249988 16.3498 0.25 14.8942 0.250016 13.0564L0.250017 5.94976C0.250017 5.91919 0.250012 5.88904 0.250008 5.85929C0.249896 5.06338 0.249824 4.55685 0.33237 4.11935C0.694902 2.19788 2.19788 0.694902 4.11935 0.33237C4.55685 0.249824 5.06338 0.249896 5.85929 0.250008ZM5.94976 1.75002C5.03312 1.75002 4.67873 1.75329 4.39746 1.80636C3.08277 2.05441 2.05441 3.08277 1.80636 4.39746C1.75329 4.67873 1.75002 5.03312 1.75002 5.94976V13C1.75002 14.9068 1.75161 16.2615 1.88978 17.2892C2.02504 18.2953 2.27871 18.8749 2.70192 19.2981C3.12513 19.7213 3.70478 19.975 4.71087 20.1103C5.73853 20.2484 7.0932 20.25 9.00002 20.25H13C14.9068 20.25 16.2615 20.2484 17.2892 20.1103C18.2953 19.975 18.8749 19.7213 19.2981 19.2981C19.7213 18.8749 19.975 18.2953 20.1103 17.2892C20.2484 16.2615 20.25 14.9068 20.25 13V10.7979C20.25 9.46207 20.2486 8.5305 20.1597 7.82312C20.0731 7.13448 19.9141 6.76356 19.6729 6.49539C19.6198 6.43637 19.5637 6.3802 19.5046 6.32712C19.2365 6.08592 18.8656 5.92692 18.1769 5.84034C17.4695 5.75141 16.538 5.75002 15.2021 5.75002H14.8284C14.7912 5.75002 14.7545 5.75002 14.7182 5.75003C13.6702 5.75025 12.9944 5.75038 12.3548 5.56806C12.0041 5.46811 11.6661 5.32811 11.3475 5.15083C10.7663 4.82747 10.2885 4.3495 9.54765 3.60833C9.52198 3.58265 9.496 3.55666 9.46969 3.53035L8.91943 2.98009C8.63616 2.69682 8.52778 2.58951 8.41731 2.49793C7.91403 2.08073 7.29664 1.825 6.64576 1.76413C6.50289 1.75077 6.35038 1.75002 5.94976 1.75002ZM11.25 9.00002C11.25 8.5858 11.5858 8.25002 12 8.25002H17C17.4142 8.25002 17.75 8.5858 17.75 9.00002C17.75 9.41423 17.4142 9.75002 17 9.75002H12C11.5858 9.75002 11.25 9.41423 11.25 9.00002Z"
    fill="#3219AF"
  />
</svg>
