<svg width="24" height="24" viewBox="0 0 24 24" fill="none" xmlns="http://www.w3.org/2000/svg">
<path d="M17.252 12.4899C16.968 14.8549 15.419 15.7999 14.75 16.4859C14.08 17.1739 14.2 17.3109 14.245 18.3199C14.2525 18.4447 14.2344 18.5698 14.1917 18.6873C14.1491 18.8049 14.0828 18.9125 13.997 19.0034C13.9111 19.0944 13.8076 19.1668 13.6927 19.2163C13.5779 19.2657 13.4541 19.2911 13.329 19.2909H10.671C10.5459 19.2909 10.4222 19.2655 10.3073 19.216C10.1925 19.1665 10.0889 19.0941 10.0031 19.0032C9.91719 18.9122 9.85081 18.8047 9.80798 18.6872C9.76515 18.5697 9.74679 18.4447 9.75401 18.3199C9.75401 17.3299 9.84601 17.0999 9.25001 16.4859C8.49001 15.7259 6.70201 14.6529 6.70201 11.7019C6.69744 10.9689 6.84478 10.2429 7.13472 9.56963C7.42466 8.8964 7.85093 8.29053 8.38665 7.79022C8.92238 7.2899 9.55593 6.90599 10.2474 6.66269C10.9389 6.41938 11.6732 6.32196 12.4042 6.37656C13.1352 6.43116 13.8469 6.63659 14.4946 6.97992C15.1422 7.32324 15.7117 7.79701 16.1671 8.37136C16.6226 8.9457 16.9541 9.60817 17.1408 10.317C17.3276 11.0258 17.3654 11.7657 17.252 12.4899Z" stroke="white" stroke-width="1.5" stroke-linecap="round" stroke-linejoin="round"/>
<path d="M10.46 19.236V20.748C10.46 21.161 10.69 21.5 10.973 21.5H13.026C13.311 21.5 13.54 21.16 13.54 20.748V19.236M11.22 8.69595C10.6295 8.69622 10.0633 8.93097 9.64588 9.34858C9.22845 9.7662 8.99396 10.3325 8.99396 10.923M19.332 11.904H21.166M17.486 5.89195L18.787 4.59095M18.486 17L19.787 18.3M12 2.37695V3.85995M5.23996 4.58995L6.53196 5.89195M4.23996 18.3L5.53196 17M4.66796 11.904H2.83496" stroke="white" stroke-width="1.5" stroke-linecap="round" stroke-linejoin="round"/>
</svg>
