<svg width="30" height="30" viewBox="0 0 30 30" fill="none" xmlns="http://www.w3.org/2000/svg">
<path fill-rule="evenodd" clip-rule="evenodd" d="M6.00008 11.404V9.66699C6.00008 4.69643 10.0295 0.666992 15.0001 0.666992C19.9706 0.666992 24.0001 4.69643 24.0001 9.66699V11.404C24.3025 11.4253 24.5876 11.453 24.8558 11.489C26.0559 11.6504 27.0664 11.9956 27.869 12.7981C28.6715 13.6007 29.0167 14.6112 29.1781 15.8113C29.3335 16.9673 29.3334 18.437 29.3334 20.2605V20.4068C29.3334 22.2303 29.3335 23.7 29.1781 24.856C29.0167 26.0561 28.6715 27.0666 27.869 27.8692C27.0664 28.6717 26.0559 29.0169 24.8558 29.1783C23.6998 29.3337 22.23 29.3337 20.4066 29.3337H9.59359C7.77014 29.3337 6.30037 29.3337 5.14441 29.1783C3.94427 29.0169 2.93377 28.6717 2.13122 27.8692C1.32866 27.0666 0.983469 26.0561 0.822114 24.856C0.6667 23.7 0.666722 22.2303 0.666749 20.4068V20.2605C0.666722 18.437 0.6667 16.9673 0.822114 15.8113C0.983469 14.6112 1.32866 13.6007 2.13122 12.7981C2.93377 11.9956 3.94427 11.6504 5.14441 11.489C5.41258 11.453 5.69764 11.4253 6.00008 11.404ZM8.00008 9.66699C8.00008 5.801 11.1341 2.66699 15.0001 2.66699C18.8661 2.66699 22.0001 5.801 22.0001 9.66699V11.3383C21.502 11.3336 20.9713 11.3336 20.4066 11.3337H9.59358C9.02889 11.3336 8.49812 11.3336 8.00008 11.3383V9.66699ZM3.54543 14.2123C3.91445 13.8433 4.43254 13.6027 5.41091 13.4712C6.41804 13.3358 7.75286 13.3337 9.66675 13.3337H20.3334C22.2473 13.3337 23.5821 13.3358 24.5893 13.4712C25.5676 13.6027 26.0857 13.8433 26.4547 14.2123C26.8238 14.5814 27.0644 15.0995 27.1959 16.0778C27.3313 17.085 27.3334 18.4198 27.3334 20.3337C27.3334 22.2475 27.3313 23.5824 27.1959 24.5895C27.0644 25.5679 26.8238 26.086 26.4547 26.455C26.0857 26.824 25.5676 27.0646 24.5893 27.1961C23.5821 27.3315 22.2473 27.3337 20.3334 27.3337H9.66675C7.75286 27.3337 6.41804 27.3315 5.41091 27.1961C4.43254 27.0646 3.91445 26.824 3.54543 26.455C3.17641 26.086 2.93582 25.5679 2.80428 24.5895C2.66887 23.5824 2.66675 22.2475 2.66675 20.3337C2.66675 18.4198 2.66887 17.085 2.80428 16.0778C2.93582 15.0995 3.17641 14.5814 3.54543 14.2123Z" fill="white"/>
</svg>
