<svg width="30" height="30" viewBox="0 0 30 30" fill="white" xmlns="http://www.w3.org/2000/svg">
<path fill-rule="evenodd" clip-rule="evenodd" d="M11.3337 20.3337C11.3337 18.3086 12.9753 16.667 15.0003 16.667C17.0254 16.667 18.667 18.3086 18.667 20.3337C18.667 22.3587 17.0254 24.0003 15.0003 24.0003C12.9753 24.0003 11.3337 22.3587 11.3337 20.3337ZM15.0003 18.667C14.0799 18.667 13.3337 19.4132 13.3337 20.3337C13.3337 21.2541 14.0799 22.0003 15.0003 22.0003C15.9208 22.0003 16.667 21.2541 16.667 20.3337C16.667 19.4132 15.9208 18.667 15.0003 18.667Z"/>
<path fill-rule="evenodd" clip-rule="evenodd" d="M6.00033 11.404V9.66699C6.00033 4.69643 10.0298 0.666992 15.0003 0.666992C19.9709 0.666992 24.0003 4.69643 24.0003 9.66699V11.404C24.3028 11.4253 24.5878 11.453 24.856 11.489C26.0561 11.6504 27.0666 11.9956 27.8692 12.7981C28.6718 13.6007 29.0169 14.6112 29.1783 15.8113C29.3337 16.9673 29.3337 18.437 29.3337 20.2605V20.4068C29.3337 22.2303 29.3337 23.7 29.1783 24.856C29.0169 26.0561 28.6718 27.0666 27.8692 27.8692C27.0666 28.6717 26.0561 29.0169 24.856 29.1783C23.7 29.3337 22.2303 29.3337 20.4068 29.3337H9.59384C7.77038 29.3337 6.30062 29.3337 5.14466 29.1783C3.94452 29.0169 2.93402 28.6717 2.13146 27.8692C1.3289 27.0666 0.983713 26.0561 0.822358 24.856C0.666944 23.7 0.666966 22.2303 0.666993 20.4068V20.2605C0.666966 18.437 0.666944 16.9673 0.822358 15.8113C0.983713 14.6112 1.3289 13.6007 2.13146 12.7981C2.93402 11.9956 3.94451 11.6504 5.14466 11.489C5.41283 11.453 5.69788 11.4253 6.00033 11.404ZM8.00033 9.66699C8.00033 5.801 11.1343 2.66699 15.0003 2.66699C18.8663 2.66699 22.0003 5.801 22.0003 9.66699V11.3383C21.5023 11.3336 20.9715 11.3337 20.4068 11.3337H9.59383C9.02914 11.3337 8.49836 11.3336 8.00033 11.3383V9.66699ZM5.41115 13.4712C4.43279 13.6027 3.91469 13.8433 3.54567 14.2123C3.17666 14.5814 2.93606 15.0995 2.80452 16.0778C2.66912 17.085 2.66699 18.4198 2.66699 20.3337C2.66699 22.2475 2.66912 23.5824 2.80452 24.5895C2.93606 25.5679 3.17666 26.086 3.54567 26.455C3.91469 26.824 4.43279 27.0646 5.41115 27.1961C6.41829 27.3315 7.75311 27.3337 9.66699 27.3337H20.3337C22.2476 27.3337 23.5824 27.3315 24.5895 27.1961C25.5679 27.0646 26.086 26.824 26.455 26.455C26.824 26.086 27.0646 25.5679 27.1961 24.5895C27.3315 23.5824 27.3337 22.2475 27.3337 20.3337C27.3337 18.4198 27.3315 17.085 27.1961 16.0778C27.0646 15.0995 26.824 14.5814 26.455 14.2123C26.086 13.8433 25.5679 13.6027 24.5895 13.4712C23.5824 13.3358 22.2476 13.3337 20.3337 13.3337H9.66699C7.75311 13.3337 6.41829 13.3358 5.41115 13.4712Z"/>
</svg>
