<svg width="56" height="44" viewBox="0 0 56 44" fill="none" xmlns="http://www.w3.org/2000/svg">
<rect width="56" height="44" rx="22" fill="#FFAF4B"/>
<path fill-rule="evenodd" clip-rule="evenodd" d="M25.25 26C25.25 24.4812 26.4812 23.25 28 23.25C29.5188 23.25 30.75 24.4812 30.75 26C30.75 27.5188 29.5188 28.75 28 28.75C26.4812 28.75 25.25 27.5188 25.25 26ZM28 24.75C27.3096 24.75 26.75 25.3096 26.75 26C26.75 26.6904 27.3096 27.25 28 27.25C28.6904 27.25 29.25 26.6904 29.25 26C29.25 25.3096 28.6904 24.75 28 24.75Z" fill="#141618"/>
<path fill-rule="evenodd" clip-rule="evenodd" d="M21.25 19.3028V18C21.25 14.2721 24.2721 11.25 28 11.25C31.7279 11.25 34.75 14.2721 34.75 18V19.3028C34.9768 19.3187 35.1906 19.3395 35.3918 19.3665C36.2919 19.4875 37.0497 19.7464 37.6517 20.3483C38.2536 20.9503 38.5125 21.7081 38.6335 22.6082C38.75 23.4752 38.75 24.5775 38.75 25.9451V26.0549C38.75 27.4225 38.75 28.5248 38.6335 29.3918C38.5125 30.2919 38.2536 31.0497 37.6517 31.6516C37.0497 32.2536 36.2919 32.5125 35.3918 32.6335C34.5248 32.75 33.4225 32.75 32.0549 32.75H23.9451C22.5775 32.75 21.4752 32.75 20.6083 32.6335C19.7081 32.5125 18.9503 32.2536 18.3484 31.6516C17.7464 31.0497 17.4875 30.2919 17.3665 29.3918C17.25 28.5248 17.25 27.4225 17.25 26.0549V25.9451C17.25 24.5775 17.25 23.4752 17.3665 22.6082C17.4875 21.7081 17.7464 20.9503 18.3484 20.3483C18.9503 19.7464 19.7081 19.4875 20.6083 19.3665C20.8094 19.3395 21.0232 19.3187 21.25 19.3028ZM22.75 18C22.75 15.1005 25.1005 12.75 28 12.75C30.8995 12.75 33.25 15.1005 33.25 18V19.2534C32.8765 19.25 32.4784 19.25 32.0549 19.25H23.9451C23.5216 19.25 23.1235 19.25 22.75 19.2534V18ZM20.8081 20.8531C20.0743 20.9518 19.6858 21.1322 19.409 21.409C19.1322 21.6858 18.9518 22.0743 18.8531 22.8081C18.7516 23.5635 18.75 24.5646 18.75 26C18.75 27.4354 18.7516 28.4365 18.8531 29.1919C18.9518 29.9257 19.1322 30.3142 19.409 30.591C19.6858 30.8678 20.0743 31.0482 20.8081 31.1469C21.5635 31.2484 22.5646 31.25 24 31.25H32C33.4354 31.25 34.4365 31.2484 35.1919 31.1469C35.9257 31.0482 36.3142 30.8678 36.591 30.591C36.8678 30.3142 37.0482 29.9257 37.1469 29.1919C37.2484 28.4365 37.25 27.4354 37.25 26C37.25 24.5646 37.2484 23.5635 37.1469 22.8081C37.0482 22.0743 36.8678 21.6858 36.591 21.409C36.3142 21.1322 35.9257 20.9518 35.1919 20.8531C34.4365 20.7516 33.4354 20.75 32 20.75H24C22.5646 20.75 21.5635 20.7516 20.8081 20.8531Z" fill="#141618"/>
</svg>
