<svg width="22" height="23" viewBox="0 0 22 23" fill="none" xmlns="http://www.w3.org/2000/svg">
<path fill-rule="evenodd" clip-rule="evenodd" d="M6.30541 0.750024C5.50444 0.749755 4.95484 0.749571 4.46635 0.883482C3.44074 1.16464 2.58273 1.86804 2.1059 2.8186C1.87879 3.27133 1.77118 3.8103 1.61436 4.59577L0.994759 7.69389C0.763154 8.85192 1.0805 9.97182 1.74836 10.8115L1.74836 13.5565C1.74835 15.3942 1.74833 16.8499 1.9015 17.9891C2.05913 19.1615 2.39124 20.1104 3.13961 20.8588C3.88797 21.6072 4.83692 21.9393 6.00934 22.0969C7.14856 22.2501 8.60419 22.2501 10.442 22.25H11.5548C13.3925 22.2501 14.8482 22.2501 15.9874 22.0969C17.1598 21.9393 18.1088 21.6072 18.8571 20.8588C19.6055 20.1104 19.9376 19.1615 20.0952 17.9891C20.2484 16.8499 20.2484 15.3942 20.2484 13.5565V10.8116C20.9162 9.97184 21.2336 8.85193 21.002 7.69389L20.3824 4.59576C20.2256 3.8103 20.118 3.27133 19.8908 2.8186C19.414 1.86804 18.556 1.16464 17.5304 0.883482C17.0419 0.749571 16.4923 0.749755 15.6913 0.750024H6.30541ZM17.2668 12.25C17.7957 12.25 18.2955 12.1436 18.7484 11.9524V13.5C18.7484 15.4069 18.7468 16.7615 18.6086 17.7892C18.4733 18.7953 18.2197 19.3749 17.7965 19.7981C17.3733 20.2214 16.7936 20.475 15.7875 20.6103C15.342 20.6702 14.8351 20.7044 14.2484 20.724V17.9678C14.2484 17.528 14.2484 17.1487 14.2202 16.8374C14.1903 16.5082 14.1243 16.1823 13.9469 15.875C13.7494 15.533 13.4654 15.249 13.1234 15.0515C12.8161 14.8741 12.4902 14.8081 12.161 14.7782C11.8497 14.75 11.4704 14.75 11.0306 14.75H10.9661C10.5264 14.75 10.147 14.75 9.83571 14.7782C9.50653 14.8081 9.18058 14.8741 8.87336 15.0515C8.53132 15.249 8.24728 15.533 8.04981 15.875C7.87244 16.1823 7.80638 16.5082 7.77654 16.8374C7.74833 17.1487 7.74835 17.528 7.74836 17.9678L7.74836 20.724C7.16164 20.7044 6.6547 20.6702 6.20921 20.6103C5.20312 20.475 4.62348 20.2214 4.20027 19.7981C3.77706 19.3749 3.52339 18.7953 3.38812 17.7892C3.24996 16.7615 3.24836 15.4069 3.24836 13.5V11.9524C3.70124 12.1436 4.20103 12.25 4.72991 12.25C6.00383 12.25 7.14282 11.6217 7.83643 10.6459C8.54593 11.614 9.69152 12.25 10.9982 12.25C12.3049 12.25 13.4506 11.6139 14.1601 10.6456C14.8537 11.6215 15.9928 12.25 17.2668 12.25ZM9.24836 20.7481C9.63676 20.75 10.0525 20.75 10.4984 20.75H11.4984C11.9443 20.75 12.36 20.75 12.7484 20.7481V18C12.7484 17.5189 12.7476 17.2083 12.7263 16.9728C12.7059 16.7477 12.6715 16.6659 12.6479 16.625C12.5821 16.511 12.4874 16.4164 12.3734 16.3505C12.3325 16.3269 12.2508 16.2925 12.0256 16.2721C11.7902 16.2508 11.4795 16.25 10.9984 16.25C10.5173 16.25 10.2066 16.2508 9.97111 16.2721C9.74596 16.2925 9.66423 16.3269 9.62336 16.3505C9.50935 16.4164 9.41467 16.511 9.34884 16.625C9.32525 16.6659 9.29083 16.7476 9.27042 16.9728C9.24908 17.2083 9.24836 17.5189 9.24836 18V20.7481ZM7.66942 2.25005H6.41607C5.46162 2.25005 5.13106 2.25661 4.86293 2.33011C4.24756 2.4988 3.73276 2.92084 3.44665 3.49118C3.322 3.73968 3.25074 4.06254 3.06355 4.99846L2.46563 7.98807C2.17986 9.41693 3.27275 10.75 4.72991 10.75C5.91623 10.75 6.90953 9.85112 7.02758 8.67069L7.09617 7.98481L7.10014 7.94279L7.66942 2.25005ZM8.58962 8.12505L9.17712 2.25005H12.8194L13.4036 8.09204C13.5459 9.51517 12.4284 10.75 10.9982 10.75C9.57901 10.75 8.46771 9.53421 8.58962 8.12505ZM17.1338 2.33011C16.8657 2.25661 16.5351 2.25005 15.5807 2.25005H14.3271L14.9692 8.67069C15.0872 9.85112 16.0805 10.75 17.2668 10.75C18.724 10.75 19.8169 9.41693 19.5311 7.98807L18.9332 4.99846C18.746 4.06254 18.6747 3.73968 18.5501 3.49118C18.264 2.92084 17.7492 2.4988 17.1338 2.33011Z" fill="#413C46"/>
</svg>
