<svg width="96" height="72" viewBox="0 0 96 72" fill="none" xmlns="http://www.w3.org/2000/svg">
<rect x="1" y="1" width="94" height="70" rx="3" fill="white"/>
<path d="M42.6 18H15.9C15.4029 18 15 18.4029 15 18.9V23.1C15 23.5971 15.4029 24 15.9 24H42.6C43.0971 24 43.5 23.5971 43.5 23.1V18.9C43.5 18.4029 43.0971 18 42.6 18Z" fill="#E1E6EB"/>
<path d="M80.1 18H53.4C52.9029 18 52.5 18.4029 52.5 18.9V23.1C52.5 23.5971 52.9029 24 53.4 24H80.1C80.5971 24 81 23.5971 81 23.1V18.9C81 18.4029 80.5971 18 80.1 18Z" fill="#FA9632"/>
<path d="M42.6 33H15.9C15.4029 33 15 33.4029 15 33.9V38.1C15 38.5971 15.4029 39 15.9 39H42.6C43.0971 39 43.5 38.5971 43.5 38.1V33.9C43.5 33.4029 43.0971 33 42.6 33Z" fill="#E1E6EB"/>
<path d="M80.1 33H53.4C52.9029 33 52.5 33.4029 52.5 33.9V38.1C52.5 38.5971 52.9029 39 53.4 39H80.1C80.5971 39 81 38.5971 81 38.1V33.9C81 33.4029 80.5971 33 80.1 33Z" fill="#FA9632"/>
<path d="M42.6 48H15.9C15.4029 48 15 48.4029 15 48.9V53.1C15 53.5971 15.4029 54 15.9 54H42.6C43.0971 54 43.5 53.5971 43.5 53.1V48.9C43.5 48.4029 43.0971 48 42.6 48Z" fill="#E1E6EB"/>
<path d="M80.1 48H53.4C52.9029 48 52.5 48.4029 52.5 48.9V53.1C52.5 53.5971 52.9029 54 53.4 54H80.1C80.5971 54 81 53.5971 81 53.1V48.9C81 48.4029 80.5971 48 80.1 48Z" fill="#FA9632"/>
<rect x="1" y="1" width="94" height="70" rx="3" stroke="#FA9632" stroke-width="2"/>
</svg>
