<svg width="6" height="20" viewBox="0 0 6 20" fill="none" xmlns="http://www.w3.org/2000/svg">
<path fill-rule="evenodd" clip-rule="evenodd" d="M3 19.75C1.48122 19.75 0.25 18.5188 0.25 17C0.25 15.4812 1.48122 14.25 3 14.25C4.51878 14.25 5.75 15.4812 5.75 17C5.75 18.5188 4.51878 19.75 3 19.75ZM1.75 17C1.75 17.6904 2.30964 18.25 3 18.25C3.69036 18.25 4.25 17.6904 4.25 17C4.25 16.3096 3.69036 15.75 3 15.75C2.30964 15.75 1.75 16.3096 1.75 17Z" fill="#141618"/>
<path fill-rule="evenodd" clip-rule="evenodd" d="M3 12.75C1.48122 12.75 0.25 11.5188 0.25 10C0.25 8.48122 1.48122 7.25 3 7.25C4.51878 7.25 5.75 8.48122 5.75 10C5.75 11.5188 4.51878 12.75 3 12.75ZM1.75 10C1.75 10.6904 2.30964 11.25 3 11.25C3.69036 11.25 4.25 10.6904 4.25 10C4.25 9.30964 3.69036 8.75 3 8.75C2.30964 8.75 1.75 9.30964 1.75 10Z" fill="#141618"/>
<path fill-rule="evenodd" clip-rule="evenodd" d="M0.25 3C0.25 4.51878 1.48122 5.75 3 5.75C4.51878 5.75 5.75 4.51878 5.75 3C5.75 1.48122 4.51878 0.25 3 0.25C1.48122 0.25 0.25 1.48122 0.25 3ZM3 4.25C2.30964 4.25 1.75 3.69036 1.75 3C1.75 2.30964 2.30964 1.75 3 1.75C3.69036 1.75 4.25 2.30964 4.25 3C4.25 3.69036 3.69036 4.25 3 4.25Z" fill="#141618"/>
</svg>
