<svg width="24" height="25" viewBox="0 0 24 25" fill="none" xmlns="http://www.w3.org/2000/svg">
<path d="M18.8181 8.77145C19.2199 8.67099 19.6271 8.91531 19.7276 9.31716C19.8281 9.719 19.5837 10.1262 19.1819 10.2267L15.1819 11.2267C14.7801 11.3271 14.3729 11.0828 14.2724 10.681C14.1719 10.2791 14.4163 9.87191 14.8181 9.77145L18.8181 8.77145Z" fill="#141618"/>
<path d="M18.8181 12.7715C19.2199 12.671 19.6271 12.9153 19.7276 13.3172C19.8281 13.719 19.5837 14.1262 19.1819 14.2267L15.1819 15.2267C14.7801 15.3271 14.3729 15.0828 14.2724 14.681C14.1719 14.2791 14.4163 13.8719 14.8181 13.7715L18.8181 12.7715Z" fill="#141618"/>
<path d="M4.27239 9.31716C4.37285 8.91531 4.78006 8.67099 5.1819 8.77145L9.1819 9.77145C9.58375 9.87191 9.82807 10.2791 9.72761 10.681C9.62715 11.0828 9.21994 11.3271 8.8181 11.2267L4.8181 10.2267C4.41625 10.1262 4.17193 9.719 4.27239 9.31716Z" fill="#141618"/>
<path d="M4.27239 13.3172C4.37285 12.9153 4.78006 12.671 5.1819 12.7715L9.1819 13.7715C9.58375 13.8719 9.82807 14.2791 9.72761 14.681C9.62715 15.0828 9.21994 15.3271 8.8181 15.2267L4.8181 14.2267C4.41625 14.1262 4.17193 13.719 4.27239 13.3172Z" fill="#141618"/>
<path fill-rule="evenodd" clip-rule="evenodd" d="M22.75 5.43225C22.75 3.96895 21.5847 2.71401 20.0559 2.76726C18.9175 2.80691 17.4296 2.92533 16.2849 3.26801C15.2899 3.5659 14.1706 4.14774 13.2982 4.65268C12.4801 5.12615 11.4617 5.14976 10.6328 4.7115C9.63736 4.18512 8.32766 3.56117 7.19136 3.26133C6.23055 3.00779 5.01517 2.88601 4.02841 2.82536C2.47017 2.72959 1.25 3.9977 1.25 5.49686V16.6426C1.25 18.1789 2.49378 19.3782 3.96804 19.4704C4.9268 19.5304 6.00566 19.6457 6.80864 19.8576C7.8012 20.1195 9.0286 20.7019 10.0196 21.2301C11.2529 21.8876 12.7471 21.8876 13.9804 21.2301C14.9714 20.7019 16.1988 20.1195 17.1914 19.8576C17.9943 19.6457 19.0732 19.5304 20.032 19.4704C21.5062 19.3782 22.75 18.1789 22.75 16.6426V5.43225ZM20.1081 4.26635C20.7229 4.24494 21.25 4.75066 21.25 5.43225V16.6426C21.25 17.3284 20.6817 17.9268 19.9383 17.9733C18.9582 18.0346 17.7591 18.1564 16.8086 18.4072C15.6383 18.7161 14.2827 19.3692 13.2748 19.9065C13.1065 19.9961 12.9305 20.0668 12.75 20.1184V6.44109C13.2023 6.35055 13.6421 6.18674 14.0495 5.95094C14.9 5.45874 15.8949 4.95055 16.7151 4.705C17.6643 4.42085 18.9892 4.30532 20.1081 4.26635ZM11.25 6.47404C10.795 6.40328 10.349 6.25821 9.93167 6.03753C8.95486 5.52102 7.77076 4.96556 6.80864 4.71168C5.99643 4.49735 4.90238 4.3819 3.93639 4.32253C3.30243 4.28357 2.75 4.79968 2.75 5.49686V16.6426C2.75 17.3284 3.31831 17.9268 4.06168 17.9733C5.04176 18.0346 6.24092 18.1564 7.19136 18.4072C8.3617 18.7161 9.71727 19.3692 10.7252 19.9065C10.8935 19.9961 11.0695 20.0668 11.25 20.1184V6.47404Z" fill="#141618"/>
</svg>
