<svg width="24" height="25" viewBox="0 0 24 25" fill="none" xmlns="http://www.w3.org/2000/svg">
<path fill-rule="evenodd" clip-rule="evenodd" d="M11.602 19.1334C11.7218 19.2066 11.8597 19.2447 12 19.2434C12.1403 19.2447 12.2782 19.2066 12.398 19.1334L13.533 18.4524C14.6313 17.7934 15.8671 17.3972 17.1439 17.2949C18.4206 17.1925 19.7037 17.3868 20.893 17.8624C21.783 18.2184 22.75 17.5624 22.75 16.6054V4.94743C22.75 4.36943 22.398 3.85043 21.861 3.63543C20.3292 3.02276 18.6765 2.77257 17.0319 2.90441C15.3874 3.03625 13.7956 3.54655 12.381 4.39543L12 4.62143L11.618 4.39243C10.2034 3.54355 8.61159 3.03325 6.96707 2.90141C5.32255 2.76957 3.66982 3.01976 2.138 3.63243C1.87536 3.73754 1.65031 3.91907 1.49199 4.15351C1.33367 4.38796 1.24937 4.66453 1.25 4.94743V16.6074C1.25 17.5644 2.217 18.2194 3.107 17.8634C4.29626 17.3878 5.57939 17.1935 6.85615 17.2959C8.13291 17.3982 9.36871 17.7944 10.467 18.4534L11.602 19.1334ZM2.75 5.00543V16.3924C4.13205 15.8745 5.61316 15.6751 7.08297 15.8091C8.55279 15.9431 9.97342 16.4071 11.239 17.1664L11.25 17.1724V5.92243L10.847 5.68043C9.6391 4.95559 8.28088 4.51778 6.87705 4.40075C5.47322 4.28372 4.06126 4.4906 2.75 5.00543ZM12.761 17.1654L12.75 17.1724V5.92243L13.153 5.68043C14.3609 4.95559 15.7191 4.51778 17.123 4.40075C18.5268 4.28372 19.9388 4.4906 21.25 5.00543V16.3924C19.868 15.8745 18.3868 15.6751 16.917 15.8091C15.4472 15.9431 14.0266 16.4071 12.761 17.1664" fill="#FA9632"/>
<path d="M9.27495 19.5416C8.2809 18.9618 7.15074 18.6562 5.99995 18.6562C4.84916 18.6562 3.71899 18.9618 2.72495 19.5416L2.62195 19.6016C2.53685 19.6512 2.46237 19.7171 2.40274 19.7956C2.34312 19.874 2.29953 19.9634 2.27446 20.0587C2.24938 20.1539 2.24332 20.2532 2.25662 20.3508C2.26992 20.4485 2.30231 20.5425 2.35195 20.6276C2.40159 20.7127 2.4675 20.7872 2.54593 20.8468C2.62435 20.9064 2.71376 20.95 2.80903 20.9751C2.9043 21.0002 3.00358 21.0062 3.1012 20.9929C3.19881 20.9796 3.29285 20.9472 3.37795 20.8976L3.48095 20.8376C4.24554 20.3917 5.11481 20.1567 5.99995 20.1567C6.88508 20.1567 7.75435 20.3917 8.51895 20.8376L9.60695 21.4716C10.3333 21.8952 11.1591 22.1184 11.9999 22.1184C12.8408 22.1184 13.6666 21.8952 14.3929 21.4716L15.4809 20.8376C16.2455 20.3917 17.1148 20.1567 17.9999 20.1567C18.8851 20.1567 19.7544 20.3917 20.5189 20.8376L20.6219 20.8976C20.7938 20.9978 20.9985 21.0257 21.1909 20.9751C21.3833 20.9245 21.5477 20.7995 21.6479 20.6276C21.7482 20.4557 21.7761 20.2511 21.7254 20.0587C21.6748 19.8663 21.5498 19.7018 21.3779 19.6016L21.2749 19.5416C20.2809 18.9618 19.1507 18.6562 17.9999 18.6562C16.8492 18.6562 15.719 18.9618 14.7249 19.5416L13.6379 20.1756C13.1408 20.4657 12.5755 20.6186 11.9999 20.6186C11.4244 20.6186 10.8591 20.4657 10.3619 20.1756L9.27495 19.5416Z" fill="#FA9632"/>
</svg>
