<svg width="22" height="22" viewBox="0 0 22 22" fill="none" xmlns="http://www.w3.org/2000/svg">
<path fill-rule="evenodd" clip-rule="evenodd" d="M9.948 0.250001H12.052C12.9505 0.249972 13.6997 0.249947 14.2945 0.329913C14.9223 0.414318 15.4891 0.599989 15.9445 1.05546C16.4 1.51093 16.5857 2.07773 16.6701 2.70552C16.7501 3.30031 16.75 4.04953 16.75 4.94801L16.75 6.25005C17.3266 6.25051 17.8152 6.25491 18.219 6.29599C18.6925 6.34415 19.1318 6.44886 19.5278 6.71346C19.8281 6.9141 20.0859 7.17191 20.2865 7.47218C20.5511 7.86818 20.6559 8.30755 20.704 8.78102C20.75 9.23336 20.75 9.79209 20.75 10.4617V20.25H21C21.4142 20.25 21.75 20.5858 21.75 21C21.75 21.4142 21.4142 21.75 21 21.75H1C0.585786 21.75 0.25 21.4142 0.25 21C0.25 20.5858 0.585786 20.25 1 20.25H1.25L1.25 10.4617C1.24998 9.79208 1.24997 9.23335 1.29598 8.78102C1.34415 8.30755 1.44886 7.86818 1.71346 7.47218C1.91409 7.17191 2.17191 6.9141 2.47218 6.71346C2.86818 6.44886 3.30755 6.34415 3.78102 6.29599C4.18483 6.25491 4.67343 6.25051 5.25 6.25005L5.25 4.94801C5.24997 4.04953 5.24995 3.30031 5.32991 2.70552C5.41432 2.07773 5.59999 1.51093 6.05546 1.05546C6.51093 0.599989 7.07773 0.414318 7.70552 0.329913C8.3003 0.249947 9.04952 0.249972 9.948 0.250001ZM5.25 7.7501C4.66741 7.75075 4.25586 7.75542 3.93283 7.78828C3.57796 7.82438 3.41399 7.8882 3.30554 7.96067C3.16905 8.05186 3.05186 8.16905 2.96066 8.30554C2.8882 8.41399 2.82438 8.57796 2.78828 8.93283C2.75091 9.30023 2.75 9.78216 2.75 10.5V20.25H5.25V7.7501ZM6.75 20.25H10.25V18C10.25 17.5858 10.5858 17.25 11 17.25C11.4142 17.25 11.75 17.5858 11.75 18V20.25H15.25V5C15.25 4.03599 15.2484 3.38843 15.1835 2.90539C15.1214 2.44393 15.0142 2.24644 14.8839 2.11612C14.7536 1.9858 14.5561 1.87858 14.0946 1.81654C13.6116 1.7516 12.964 1.75 12 1.75H10C9.03599 1.75 8.38843 1.7516 7.90539 1.81654C7.44393 1.87858 7.24643 1.9858 7.11612 2.11612C6.9858 2.24644 6.87858 2.44393 6.81654 2.90539C6.75159 3.38843 6.75 4.03599 6.75 5V20.25ZM16.75 20.25H19.25V10.5C19.25 9.78216 19.2491 9.30023 19.2117 8.93283C19.1756 8.57796 19.1118 8.41399 19.0393 8.30554C18.9481 8.16905 18.8309 8.05186 18.6945 7.96067C18.586 7.8882 18.422 7.82438 18.0672 7.78828C17.7441 7.75542 17.3326 7.75075 16.75 7.7501V20.25ZM8.25 4C8.25 3.58579 8.58579 3.25 9 3.25H13C13.4142 3.25 13.75 3.58579 13.75 4C13.75 4.41422 13.4142 4.75 13 4.75H9C8.58579 4.75 8.25 4.41422 8.25 4ZM8.25 7C8.25 6.58579 8.58579 6.25 9 6.25H13C13.4142 6.25 13.75 6.58579 13.75 7C13.75 7.41422 13.4142 7.75 13 7.75H9C8.58579 7.75 8.25 7.41422 8.25 7ZM8.25 10C8.25 9.58579 8.58579 9.25 9 9.25H13C13.4142 9.25 13.75 9.58579 13.75 10C13.75 10.4142 13.4142 10.75 13 10.75H9C8.58579 10.75 8.25 10.4142 8.25 10ZM8.25 13C8.25 12.5858 8.58579 12.25 9 12.25H13C13.4142 12.25 13.75 12.5858 13.75 13C13.75 13.4142 13.4142 13.75 13 13.75H9C8.58579 13.75 8.25 13.4142 8.25 13Z" fill="#141618"/>
</svg>
