<svg width="56" height="56" viewBox="0 0 56 56" fill="none" xmlns="http://www.w3.org/2000/svg">
<rect width="56" height="56" rx="28" fill="white"/>
<path fill-rule="evenodd" clip-rule="evenodd" d="M37.25 24.5C37.25 23.0955 37.25 22.3933 36.9129 21.8889C36.767 21.6705 36.5795 21.483 36.3611 21.3371C35.9199 21.0422 35.3274 21.0053 34.246 21.0007C34.2501 21.2921 34.25 21.5966 34.25 21.9105L34.25 22V23.25H35.25C35.6642 23.25 36 23.5858 36 24C36 24.4142 35.6642 24.75 35.25 24.75H34.25V26.25H35.25C35.6642 26.25 36 26.5858 36 27C36 27.4142 35.6642 27.75 35.25 27.75H34.25V29.25H35.25C35.6642 29.25 36 29.5858 36 30C36 30.4142 35.6642 30.75 35.25 30.75H34.25V37.25H32.75V22C32.75 20.1144 32.75 19.1716 32.1642 18.5858C31.5784 18 30.6356 18 28.75 18H26.75C24.8644 18 23.9216 18 23.3358 18.5858C22.75 19.1716 22.75 20.1144 22.75 22V37.25H21.25V30.75H20.25C19.8358 30.75 19.5 30.4142 19.5 30C19.5 29.5858 19.8358 29.25 20.25 29.25H21.25V27.75H20.25C19.8358 27.75 19.5 27.4142 19.5 27C19.5 26.5858 19.8358 26.25 20.25 26.25H21.25V24.75H20.25C19.8358 24.75 19.5 24.4142 19.5 24C19.5 23.5858 19.8358 23.25 20.25 23.25H21.25V22L21.25 21.9105C21.25 21.5965 21.2499 21.2921 21.254 21.0007C20.1726 21.0053 19.5801 21.0422 19.1389 21.3371C18.9205 21.483 18.733 21.6705 18.5871 21.8889C18.25 22.3933 18.25 23.0955 18.25 24.5V37.25H17.75C17.3358 37.25 17 37.5858 17 38C17 38.4142 17.3358 38.75 17.75 38.75H37.75C38.1642 38.75 38.5 38.4142 38.5 38C38.5 37.5858 38.1642 37.25 37.75 37.25H37.25V24.5ZM25 27.75C25 27.3358 25.3358 27 25.75 27H29.75C30.1642 27 30.5 27.3358 30.5 27.75C30.5 28.1642 30.1642 28.5 29.75 28.5H25.75C25.3358 28.5 25 28.1642 25 27.75ZM25 30.75C25 30.3358 25.3358 30 25.75 30H29.75C30.1642 30 30.5 30.3358 30.5 30.75C30.5 31.1642 30.1642 31.5 29.75 31.5H25.75C25.3358 31.5 25 31.1642 25 30.75ZM27.75 34.25C28.1642 34.25 28.5 34.5858 28.5 35V37.25H27V35C27 34.5858 27.3358 34.25 27.75 34.25ZM25 22.25C25 21.8358 25.3358 21.5 25.75 21.5H29.75C30.1642 21.5 30.5 21.8358 30.5 22.25C30.5 22.6642 30.1642 23 29.75 23H25.75C25.3358 23 25 22.6642 25 22.25ZM25 25.25C25 24.8358 25.3358 24.5 25.75 24.5H29.75C30.1642 24.5 30.5 24.8358 30.5 25.25C30.5 25.6642 30.1642 26 29.75 26H25.75C25.3358 26 25 25.6642 25 25.25Z" fill="#6419C8"/>
</svg>
