<svg width="40" height="40" viewBox="0 0 40 40" fill="none" xmlns="http://www.w3.org/2000/svg">
<path fill-rule="evenodd" clip-rule="evenodd" d="M23.4961 3.98519C26.0319 1.44943 30.1432 1.44943 32.6789 3.98519C35.2147 6.52096 35.2147 10.6322 32.6789 13.168L20.0223 25.8247C19.3089 26.5381 18.8733 26.9738 18.3878 27.3525C17.8157 27.7987 17.1968 28.1812 16.5418 28.4933C15.986 28.7582 15.4015 28.953 14.4444 29.272L9.98994 30.7568L8.9205 31.1133C7.96325 31.4324 6.90788 31.1832 6.19439 30.4697C5.48089 29.7563 5.23176 28.7009 5.55084 27.7436L7.39212 22.2198C7.7111 21.2627 7.9059 20.6782 8.17081 20.1223C8.48293 19.4674 8.86547 18.8484 9.31166 18.2764C9.69037 17.7908 10.1261 17.3552 10.8395 16.6419L23.4961 3.98519ZM9.93227 28.1408L8.52333 26.7319L9.73737 23.0898C10.0908 22.0293 10.2368 21.5982 10.4276 21.1978C10.6616 20.7069 10.9484 20.2428 11.2829 19.8139C11.5557 19.4642 11.876 19.1408 12.6664 18.3505L22.4847 8.53216C22.89 9.54882 23.5757 10.7759 24.732 11.9322C25.8883 13.0885 27.1153 13.7742 28.132 14.1794L18.3137 23.9977C17.5233 24.7881 17.1999 25.1085 16.8502 25.3812C16.4213 25.7157 15.9573 26.0025 15.4663 26.2365C15.066 26.4273 14.6348 26.5733 13.5744 26.9268L9.93227 28.1408ZM30.124 12.1874C29.9176 12.1421 29.6596 12.0739 29.3662 11.9721C28.5595 11.6922 27.4984 11.163 26.4997 10.1644C25.5011 9.16577 24.9719 8.10463 24.692 7.29793C24.5902 7.00454 24.5221 6.74649 24.4768 6.54011L25.2639 5.75296C26.8234 4.19351 29.3517 4.19351 30.9112 5.75296C32.4706 7.31241 32.4706 9.84078 30.9112 11.4002L30.124 12.1874ZM5.4141 36.6667C5.4141 35.9764 5.97374 35.4167 6.6641 35.4167H33.3308V37.9167H6.6641C5.97374 37.9167 5.4141 37.3571 5.4141 36.6667Z"/>
</svg>
