<svg width="44" height="44" viewBox="0 0 44 44" fill="none" xmlns="http://www.w3.org/2000/svg">
<path d="M0 16C0 7.16344 7.16344 0 16 0H36C40.4183 0 44 3.58172 44 8V28C44 36.8366 36.8366 44 28 44H8C3.58172 44 0 40.4183 0 36V16Z" fill="#4BAF7D"/>
<path fill-rule="evenodd" clip-rule="evenodd" d="M22 11.25C19.3767 11.25 17.25 13.3766 17.25 16C17.25 18.6234 19.3767 20.75 22 20.75C24.6234 20.75 26.75 18.6234 26.75 16C26.75 13.3766 24.6234 11.25 22 11.25ZM18.75 16C18.75 14.2051 20.2051 12.75 22 12.75C23.7949 12.75 25.25 14.2051 25.25 16C25.25 17.7949 23.7949 19.25 22 19.25C20.2051 19.25 18.75 17.7949 18.75 16Z" fill="white"/>
<path d="M29.8555 24.5729C30.1528 24.8614 30.1599 25.3362 29.8714 25.6334L28.0382 27.5223C27.8901 27.6749 27.6842 27.7575 27.4717 27.7495C27.2592 27.7414 27.0601 27.6436 26.9239 27.4802L26.0904 26.4802C25.8252 26.162 25.8681 25.6891 26.1863 25.4239C26.5045 25.1587 26.9774 25.2016 27.2426 25.5198L27.5424 25.8794L28.795 24.5888C29.0835 24.2915 29.5583 24.2844 29.8555 24.5729Z" fill="white"/>
<path fill-rule="evenodd" clip-rule="evenodd" d="M24.7747 22.5129C23.9019 22.3421 22.9685 22.25 22 22.25C19.6865 22.25 17.5549 22.7759 15.9755 23.6643C14.4195 24.5396 13.25 25.8661 13.25 27.5L13.2499 27.602C13.2488 28.7638 13.2474 30.222 14.5264 31.2635C15.1559 31.7761 16.0365 32.1406 17.2262 32.3815C18.4193 32.6229 19.9742 32.75 22 32.75C24.8681 32.75 26.8099 32.4961 28.1196 32.0085C29.2985 31.5697 29.9973 30.9266 30.3704 30.1172C31.7927 29.2966 32.75 27.7601 32.75 26C32.75 23.3766 30.6234 21.25 28 21.25C26.7549 21.25 25.6217 21.7291 24.7747 22.5129ZM24.75 26C24.75 24.2051 26.2051 22.75 28 22.75C29.7949 22.75 31.25 24.2051 31.25 26C31.25 27.7949 29.7949 29.25 28 29.25C26.2051 29.25 24.75 27.7949 24.75 26ZM23.7557 23.865C23.4322 24.5069 23.25 25.2322 23.25 26C23.25 28.3893 25.0141 30.3666 27.3108 30.7004C26.2401 31.0366 24.578 31.25 22 31.25C20.0258 31.25 18.5808 31.1252 17.5238 30.9113C16.4635 30.6967 15.8441 30.4022 15.4736 30.1004C14.7903 29.544 14.75 28.8078 14.75 27.5C14.75 26.6487 15.3714 25.7251 16.7109 24.9717C18.0268 24.2315 19.8953 23.75 22 23.75C22.6061 23.75 23.194 23.79 23.7557 23.865Z" fill="white"/>
</svg>
