<svg width="44" height="44" viewBox="0 0 44 44" fill="none" xmlns="http://www.w3.org/2000/svg">
<path d="M0 16C0 7.16344 7.16344 0 16 0H36C40.4183 0 44 3.58172 44 8V28C44 36.8366 36.8366 44 28 44H8C3.58172 44 0 40.4183 0 36V16Z" fill="#6419C8"/>
<path d="M22.787 15.8071C23.0673 15.9232 23.25 16.1967 23.25 16.5V20.5C23.25 20.9142 22.9142 21.25 22.5 21.25C22.0858 21.25 21.75 20.9142 21.75 20.5V18.3107L21.5303 18.5303C21.2374 18.8232 20.7626 18.8232 20.4697 18.5303C20.1768 18.2374 20.1768 17.7626 20.4697 17.4697L21.9697 15.9697C22.1842 15.7552 22.5068 15.691 22.787 15.8071Z" fill="white"/>
<path fill-rule="evenodd" clip-rule="evenodd" d="M17.4984 11.6072C18.6613 11.411 20.1724 11.25 22.0002 11.25C23.8279 11.25 25.339 11.411 26.5019 11.6072L26.6368 11.6298C27.647 11.7989 28.4866 11.9395 29.1432 12.7481C29.5643 13.2667 29.7001 13.8271 29.7314 14.4532L30.2231 14.6171C30.6862 14.7715 31.0921 14.9067 31.4142 15.0566C31.7623 15.2185 32.0814 15.4271 32.3253 15.7656C32.5692 16.104 32.6662 16.4726 32.7097 16.8541C32.75 17.207 32.75 17.6349 32.7499 18.1231L32.7499 18.2683C32.7499 18.6701 32.75 19.025 32.7203 19.3218C32.6881 19.6435 32.6169 19.9562 32.4391 20.2584C32.2613 20.5607 32.0225 20.7748 31.7569 20.9591C31.5118 21.1292 31.2016 21.3015 30.8503 21.4966L28.2097 22.9637C27.6703 24.025 26.9292 24.9713 25.9101 25.6548C25.0354 26.2414 23.9881 26.6128 22.75 26.7187V28.75H24.1802C25.0144 28.75 25.7326 29.3388 25.8962 30.1568L26.1149 31.25H28C28.4142 31.25 28.75 31.5858 28.75 32C28.75 32.4142 28.4142 32.75 28 32.75H16C15.5858 32.75 15.25 32.4142 15.25 32C15.25 31.5858 15.5858 31.25 16 31.25H17.8852L18.1038 30.1568C18.2674 29.3388 18.9856 28.75 19.8198 28.75H21.25V26.7187C20.012 26.6127 18.9648 26.2414 18.0902 25.6548C17.0712 24.9713 16.3302 24.0252 15.7908 22.964L13.1496 21.4966C12.7984 21.3015 12.4881 21.1292 12.2431 20.9591C11.9775 20.7748 11.7387 20.5607 11.5608 20.2584C11.383 19.9562 11.3118 19.6435 11.2796 19.3218C11.25 19.025 11.25 18.6701 11.25 18.2683L11.25 18.123C11.25 17.6349 11.2499 17.207 11.2902 16.8541C11.3337 16.4726 11.4308 16.104 11.6747 15.7656C11.9186 15.4271 12.2376 15.2185 12.5858 15.0566C12.9078 14.9067 13.3137 14.7715 13.7769 14.6171L14.2689 14.4531C14.3002 13.8271 14.4361 13.2666 14.8571 12.7481C15.5137 11.9395 16.3533 11.7989 17.3635 11.6298L17.4984 11.6072ZM19.4149 31.25H24.5852L24.4253 30.451C24.402 30.3341 24.2994 30.25 24.1802 30.25H19.8198C19.7006 30.25 19.598 30.3341 19.5747 30.451L19.4149 31.25ZM14.3021 16.0232C14.3737 17.5435 14.5454 19.2238 14.973 20.7937L13.9073 20.2016C13.5181 19.9854 13.2745 19.8491 13.0983 19.7268C12.9359 19.6141 12.883 19.5476 12.8536 19.4977C12.8243 19.4479 12.7919 19.3693 12.7722 19.1726C12.7509 18.9592 12.75 18.68 12.75 18.2348L12.75 18.1623C12.75 17.6232 12.7511 17.2819 12.7805 17.0242C12.8078 16.7857 12.8523 16.697 12.8915 16.6426C12.9308 16.5882 13.0008 16.5179 13.2185 16.4166C13.4536 16.3072 13.7771 16.1982 14.2885 16.0277L14.3021 16.0232ZM29.0274 20.7934L30.0927 20.2016C30.4818 19.9854 30.7255 19.8491 30.9016 19.7268C31.0641 19.6141 31.117 19.5476 31.1463 19.4977C31.1757 19.4479 31.2081 19.3693 31.2277 19.1726C31.2491 18.9592 31.2499 18.68 31.2499 18.2348L31.2499 18.1623C31.25 17.6232 31.2488 17.2819 31.2194 17.0242C31.1922 16.7857 31.1476 16.697 31.1084 16.6426C31.0692 16.5882 30.9991 16.5179 30.7815 16.4166C30.5463 16.3072 30.2229 16.1982 29.7115 16.0277L29.6982 16.0233C29.6266 17.5435 29.4549 19.2236 29.0274 20.7934ZM22.0002 12.75C20.2608 12.75 18.8332 12.9032 17.748 13.0863C16.541 13.2899 16.2875 13.3661 16.0216 13.6936C15.7596 14.0163 15.7347 14.3216 15.7885 15.6767C15.8782 17.9354 16.1761 20.3727 17.0988 22.2264C17.5543 23.1414 18.1498 23.8887 18.9257 24.409C19.6966 24.9261 20.6911 25.25 22.0002 25.25C23.3092 25.25 24.3037 24.9261 25.0746 24.409C25.8505 23.8887 26.446 23.1414 26.9015 22.2264C27.8242 20.3727 28.1222 17.9354 28.2118 15.6767C28.2656 14.3216 28.2407 14.0163 27.9787 13.6936C27.7128 13.3661 27.4593 13.2899 26.2524 13.0863C25.1671 12.9032 23.7395 12.75 22.0002 12.75Z" fill="white"/>
</svg>
