<svg width="21" height="20" viewBox="0 0 21 20" fill="none" xmlns="http://www.w3.org/2000/svg">
<path fill-rule="evenodd" clip-rule="evenodd" d="M1.24876 0.29266C0.85799 0.155274 0.429839 0.36068 0.292454 0.751446C0.155068 1.14221 0.360474 1.57036 0.75124 1.70775L1.01245 1.79958C1.68006 2.0343 2.11881 2.18985 2.44165 2.34826C2.74488 2.49704 2.87855 2.61747 2.96661 2.74634C3.05687 2.87842 3.12657 3.05984 3.1659 3.42319C3.20706 3.8034 3.20808 4.29862 3.20808 5.03856V7.7602C3.20808 9.21273 3.2217 10.2601 3.35876 11.0603C3.50508 11.9146 3.79721 12.5263 4.34345 13.1024C4.93731 13.7288 5.69012 14.0015 6.58636 14.1285C7.44459 14.2502 8.53444 14.2502 9.88015 14.2502L15.2859 14.2502C16.0276 14.2502 16.6516 14.2502 17.1566 14.1884C17.6923 14.1229 18.1809 13.9796 18.6074 13.632C19.0339 13.2844 19.2729 12.8349 19.4453 12.3234C19.6077 11.8413 19.7337 11.2301 19.8834 10.5037L20.3923 8.03436L20.3933 8.02976L20.4037 7.97747C20.5684 7.15259 20.7069 6.4587 20.7414 5.90058C20.7775 5.31438 20.7108 4.73637 20.329 4.23998C20.094 3.93456 19.7636 3.76166 19.4632 3.65607C19.1567 3.54838 18.8101 3.48608 18.4604 3.44698C17.7733 3.37018 16.9387 3.37019 16.12 3.3702L4.66788 3.3702C4.66459 3.33345 4.66104 3.29731 4.65719 3.26177C4.60346 2.76539 4.48704 2.31268 4.20507 1.90003C3.92088 1.48417 3.54304 1.21784 3.1024 1.00163C2.69032 0.799432 2.16668 0.615356 1.55016 0.398624L1.24876 0.29266ZM4.70807 4.8702H16.0888C16.9452 4.8702 17.6989 4.87121 18.2937 4.9377C18.5893 4.97074 18.8105 5.01664 18.9659 5.07125C19.0929 5.11589 19.1359 5.15234 19.1421 5.15762C19.142 5.15751 19.1424 5.15783 19.1421 5.15762C19.2035 5.23902 19.2702 5.38672 19.2442 5.80818C19.2168 6.25174 19.1003 6.844 18.9227 7.73393L18.9223 7.73615L18.4235 10.1563C18.2621 10.9391 18.1535 11.4595 18.0238 11.8444C17.9007 12.2097 17.785 12.3672 17.6598 12.4692C17.5346 12.5712 17.3571 12.6527 16.9744 12.6996C16.5712 12.7489 16.0397 12.7502 15.2404 12.7502H9.93747C8.52069 12.7502 7.53763 12.7484 6.79696 12.6434C6.08214 12.542 5.70452 12.3578 5.43198 12.0704C5.11181 11.7327 4.93913 11.402 4.83723 10.8071C4.72607 10.1581 4.70808 9.24924 4.70808 7.7602L4.70807 4.8702Z" fill="#141618"/>
<path fill-rule="evenodd" clip-rule="evenodd" d="M6.5 19.7502C5.25736 19.7502 4.25 18.7428 4.25 17.5002C4.25 16.2576 5.25736 15.2502 6.5 15.2502C7.74264 15.2502 8.75 16.2576 8.75 17.5002C8.75 18.7428 7.74264 19.7502 6.5 19.7502ZM5.75 17.5002C5.75 17.9144 6.08578 18.2502 6.5 18.2502C6.91421 18.2502 7.25 17.9144 7.25 17.5002C7.25 17.086 6.91421 16.7502 6.5 16.7502C6.08578 16.7502 5.75 17.086 5.75 17.5002Z" fill="#141618"/>
<path fill-rule="evenodd" clip-rule="evenodd" d="M15.5 19.7503C14.2574 19.7503 13.25 18.7429 13.25 17.5003C13.25 16.2576 14.2574 15.2503 15.5 15.2503C16.7426 15.2503 17.75 16.2576 17.75 17.5003C17.75 18.7429 16.7426 19.7503 15.5 19.7503ZM14.75 17.5003C14.75 17.9145 15.0858 18.2503 15.5 18.2503C15.9142 18.2503 16.25 17.9145 16.25 17.5003C16.25 17.0861 15.9142 16.7503 15.5 16.7503C15.0858 16.7503 14.75 17.0861 14.75 17.5003Z" fill="#141618"/>
</svg>
