<svg width="56" height="56" viewBox="0 0 56 56" fill="none" xmlns="http://www.w3.org/2000/svg">
<rect width="56" height="56" rx="8" fill="#3219AF"/>
<path d="M27.4001 34.1612L27.4001 34.1612L34.796 26.7653C33.7894 26.3464 32.5972 25.6582 31.4697 24.5307C30.342 23.403 29.6537 22.2106 29.2348 21.2039L21.8388 28.5999L21.8388 28.5999C21.2617 29.1771 20.9731 29.4657 20.7249 29.7838C20.4321 30.1592 20.1811 30.5653 19.9763 30.995C19.8027 31.3593 19.6737 31.7465 19.4156 32.5208L18.0544 36.6042C17.9274 36.9852 18.0266 37.4053 18.3106 37.6894C18.5947 37.9734 19.0148 38.0726 19.3958 37.9456L23.4792 36.5844C24.2535 36.3263 24.6407 36.1973 25.005 36.0237C25.4347 35.8189 25.8408 35.5679 26.2162 35.2751C26.5343 35.0269 26.823 34.7383 27.4001 34.1612Z" fill="white"/>
<path d="M36.8482 24.7131C38.3839 23.1774 38.3839 20.6875 36.8482 19.1518C35.3125 17.6161 32.8226 17.6161 31.2869 19.1518L30.3999 20.0388C30.4121 20.0755 30.4246 20.1127 30.4377 20.1504C30.7628 21.0875 31.3763 22.316 32.5303 23.47C33.6843 24.624 34.9128 25.2375 35.85 25.5626C35.8875 25.5756 35.9245 25.5882 35.961 25.6003L36.8482 24.7131Z" fill="white"/>
</svg>
