<svg width="56" height="56" viewBox="0 0 56 56" fill="none" xmlns="http://www.w3.org/2000/svg">
<rect width="56" height="56" rx="8" fill="#AF19C8"/>
<path d="M31.75 18C31.75 17.5858 31.4142 17.25 31 17.25C30.5858 17.25 30.25 17.5858 30.25 18V38C30.25 38.4142 30.5858 38.75 31 38.75C31.4142 38.75 31.75 38.4142 31.75 38V35.9944C34.3859 35.9668 35.8541 35.8028 36.8284 34.8284C38 33.6569 38 31.7712 38 28C38 24.2288 38 22.3431 36.8284 21.1716C35.8541 20.1972 34.3859 20.0332 31.75 20.0056V18Z" fill="white"/>
<path fill-rule="evenodd" clip-rule="evenodd" d="M26 36C22.2288 36 20.3431 36 19.1716 34.8284C18 33.6569 18 31.7712 18 28C18 24.2288 18 22.3431 19.1716 21.1716C20.3431 20 22.2288 20 26 20H29V36H26ZM22.8178 23.7873C23.1178 23.7499 23.4843 23.75 23.8838 23.75H26.1162C26.5157 23.75 26.8822 23.7499 27.1822 23.7873C27.5109 23.8283 27.8612 23.9242 28.1624 24.1919C28.2138 24.2375 28.2625 24.2862 28.3081 24.3376C28.5758 24.6388 28.6717 24.9892 28.7127 25.3178C28.7501 25.6178 28.7501 25.9843 28.75 26.3838L28.75 26.425C28.75 26.8392 28.4142 27.175 28 27.175C27.5858 27.175 27.25 26.8392 27.25 26.425C27.25 25.9705 27.2486 25.6993 27.2242 25.5035C27.1998 25.3077 26.9965 25.2758 26.9965 25.2758C26.8007 25.2514 26.5295 25.25 26.075 25.25H25.75V30.75H27C27.4142 30.75 27.75 31.0858 27.75 31.5C27.75 31.9142 27.4142 32.25 27 32.25H23C22.5858 32.25 22.25 31.9142 22.25 31.5C22.25 31.0858 22.5858 30.75 23 30.75H24.25V25.25H23.925C23.4705 25.25 23.1993 25.2514 23.0035 25.2758C23.0035 25.2758 22.8002 25.3077 22.7758 25.5035C22.7514 25.6993 22.75 25.9705 22.75 26.425C22.75 26.8392 22.4142 27.175 22 27.175C21.5858 27.175 21.25 26.8392 21.25 26.425L21.25 26.3838C21.25 25.9843 21.2499 25.6178 21.2873 25.3178C21.3283 24.9892 21.4242 24.6388 21.6919 24.3376C21.7375 24.2862 21.7862 24.2375 21.8376 24.1919C22.1388 23.9242 22.4892 23.8283 22.8178 23.7873Z" fill="white"/>
</svg>
