<svg width="96" height="72" viewBox="0 0 96 72" fill="none" xmlns="http://www.w3.org/2000/svg">
<rect x="1" y="1" width="94" height="70" rx="3" fill="white"/>
<path d="M21 24C21 21.5147 18.9853 19.5 16.5 19.5C14.0147 19.5 12 21.5147 12 24C12 26.4853 14.0147 28.5 16.5 28.5C18.9853 28.5 21 26.4853 21 24Z" fill="#E1E6EB"/>
<path d="M74.4 22.5H27.6C27.2686 22.5 27 22.7686 27 23.1V24.9C27 25.2314 27.2686 25.5 27.6 25.5H74.4C74.7314 25.5 75 25.2314 75 24.9V23.1C75 22.7686 74.7314 22.5 74.4 22.5Z" fill="#E1E6EB"/>
<path d="M19.875 36C19.875 34.136 18.364 32.625 16.5 32.625C14.636 32.625 13.125 34.136 13.125 36C13.125 37.864 14.636 39.375 16.5 39.375C18.364 39.375 19.875 37.864 19.875 36Z" stroke="#6419C8" stroke-width="2"/>
<path d="M27.6 35H83.4C83.4552 35 83.5 35.0448 83.5 35.1V36.9C83.5 36.9552 83.4552 37 83.4 37H27.6C27.5448 37 27.5 36.9552 27.5 36.9V35.1C27.5 35.0448 27.5448 35 27.6 35Z" fill="#6419C8" stroke="#6419C8"/>
<path d="M21 48C21 45.5147 18.9853 43.5 16.5 43.5C14.0147 43.5 12 45.5147 12 48C12 50.4853 14.0147 52.5 16.5 52.5C18.9853 52.5 21 50.4853 21 48Z" fill="#E1E6EB"/>
<path d="M68.4 46.5H27.6C27.2686 46.5 27 46.7686 27 47.1V48.9C27 49.2314 27.2686 49.5 27.6 49.5H68.4C68.7314 49.5 69 49.2314 69 48.9V47.1C69 46.7686 68.7314 46.5 68.4 46.5Z" fill="#E1E6EB"/>
<rect x="1" y="1" width="94" height="70" rx="3" stroke="#6419C8" stroke-width="2"/>
</svg>
