<svg width="30" height="30" viewBox="0 0 30 30" fill="#78828C" xmlns="http://www.w3.org/2000/svg">
<path d="M15 9.33268C14.1716 9.33268 13.5 10.0043 13.5 10.8327C13.5 11.385 13.0523 11.8327 12.5 11.8327C11.9477 11.8327 11.5 11.385 11.5 10.8327C11.5 8.89968 13.067 7.33268 15 7.33268C16.933 7.33268 18.5 8.89968 18.5 10.8327C18.5 12.1171 17.8076 13.2388 16.7804 13.8465C16.518 14.0017 16.3015 14.1712 16.1604 14.3374C16.0234 14.4989 16 14.6042 16 14.666V16.3327C16 16.885 15.5523 17.3327 15 17.3327C14.4477 17.3327 14 16.885 14 16.3327V14.666C14 13.9915 14.2953 13.4442 14.6355 13.0434C14.9715 12.6474 15.3905 12.345 15.762 12.1252C16.2059 11.8625 16.5 11.3814 16.5 10.8327C16.5 10.0043 15.8284 9.33268 15 9.33268Z" />
<path d="M15 21.666C15.7364 21.666 16.3334 21.0691 16.3334 20.3327C16.3334 19.5963 15.7364 18.9993 15 18.9993C14.2636 18.9993 13.6667 19.5963 13.6667 20.3327C13.6667 21.0691 14.2636 21.666 15 21.666Z" />
<path fill-rule="evenodd" clip-rule="evenodd" d="M14.9235 0.666016H15.0765C18.1544 0.665999 20.5664 0.665986 22.4484 0.919012C24.3747 1.178 25.8948 1.71845 27.0878 2.91153C28.2809 4.10461 28.8214 5.62464 29.0804 7.55096C29.3334 9.43294 29.3334 11.845 29.3334 14.9229V15.0758C29.3334 18.1537 29.3334 20.5658 29.0804 22.4477C28.8214 24.3741 28.2809 25.8941 27.0878 27.0872C25.8948 28.2802 24.3747 28.8207 22.4484 29.0797C20.5664 29.3327 18.1544 29.3327 15.0765 29.3327H14.9235C11.8457 29.3327 9.43361 29.3327 7.55163 29.0797C5.62531 28.8207 4.10528 28.2802 2.9122 27.0872C1.71912 25.8941 1.17867 24.3741 0.919683 22.4477C0.666658 20.5658 0.666671 18.1537 0.666687 15.0759V14.9228C0.666671 11.845 0.666658 9.43293 0.919683 7.55096C1.17867 5.62464 1.71912 4.10461 2.9122 2.91153C4.10528 1.71845 5.62531 1.178 7.55163 0.919012C9.43361 0.665986 11.8457 0.665999 14.9235 0.666016ZM7.81812 2.90118C6.11358 3.13035 5.08596 3.5662 4.32642 4.32574C3.56687 5.08529 3.13102 6.11291 2.90185 7.81745C2.66881 9.55076 2.66669 11.8284 2.66669 14.9993C2.66669 18.1703 2.66881 20.4479 2.90185 22.1812C3.13102 23.8858 3.56687 24.9134 4.32642 25.673C5.08596 26.4325 6.11358 26.8684 7.81812 27.0975C9.55143 27.3306 11.8291 27.3327 15 27.3327C18.171 27.3327 20.4486 27.3306 22.1819 27.0975C23.8865 26.8684 24.9141 26.4325 25.6736 25.673C26.4332 24.9134 26.869 23.8858 27.0982 22.1812C27.3312 20.4479 27.3334 18.1703 27.3334 14.9993C27.3334 11.8284 27.3312 9.55076 27.0982 7.81745C26.869 6.11291 26.4332 5.08529 25.6736 4.32574C24.9141 3.5662 23.8865 3.13035 22.1819 2.90118C20.4486 2.66814 18.171 2.66602 15 2.66602C11.8291 2.66602 9.55143 2.66814 7.81812 2.90118Z" />
</svg>
