<svg width="96" height="72" viewBox="0 0 96 72" fill="none" xmlns="http://www.w3.org/2000/svg">
<g clip-path="url(#clip0_2588_26356)">
<path d="M1.54839 41H94.4516C94.7238 41 95 41.2375 95 41.6V70.4C95 70.7625 94.7238 71 94.4516 71H1.54839C1.27618 71 1 70.7625 1 70.4V41.6C1 41.2375 1.27618 41 1.54839 41Z" fill="white" stroke="#F55F5F" stroke-width="2"/>
<path d="M45.2727 51.8042C44.8671 51.3986 44.2098 51.3986 43.8042 51.8042C43.3986 52.2098 43.3986 52.8671 43.8042 53.2727L46.5315 56L43.8042 58.7273C43.3986 59.1329 43.3986 59.7902 43.8042 60.1958C44.2098 60.6014 44.8671 60.6014 45.2727 60.1958L48 57.4685L50.7273 60.1958C51.1329 60.6014 51.7902 60.6014 52.1958 60.1958C52.6014 59.7902 52.6014 59.1329 52.1958 58.7273L49.4685 56L52.1958 53.2727C52.6014 52.8671 52.6014 52.2098 52.1958 51.8042C51.7902 51.3986 51.1329 51.3986 50.7273 51.8042L48 54.5315L45.2727 51.8042Z" fill="#F55F5F"/>
<path d="M1.54839 1H94.4516C94.7238 1 95 1.23747 95 1.6V30.4C95 30.7625 94.7238 31 94.4516 31H1.54839C1.27618 31 1 30.7625 1 30.4V1.6C1 1.23747 1.27618 1 1.54839 1Z" fill="white" stroke="#4BAF7D" stroke-width="2"/>
<path fill-rule="evenodd" clip-rule="evenodd" d="M53.5766 12.2197C54.0555 12.5724 54.141 13.225 53.7673 13.6772L48.0473 20.6002C47.8433 20.8473 47.5319 20.9941 47.1998 20.9998C46.8681 21.0055 46.5512 20.8694 46.3377 20.6295L43.2578 17.1679C42.867 16.7288 42.9273 16.0738 43.3926 15.7049C43.8578 15.336 44.5515 15.3929 44.9423 15.8321L47.1483 18.3114L52.0325 12.3998C52.4062 11.9476 53.0974 11.8669 53.5766 12.2197Z" fill="#4BAF7D"/>
</g>
<defs>
<clipPath id="clip0_2588_26356">
<rect width="96" height="72" fill="white"/>
</clipPath>
</defs>
</svg>
