<svg width="56" height="56" viewBox="0 0 56 56" fill="none" xmlns="http://www.w3.org/2000/svg">
<rect width="56" height="56" rx="8" fill="#6419C8"/>
<path fill-rule="evenodd" clip-rule="evenodd" d="M30 38H26C22.2288 38 20.3431 38 19.1716 36.8284C18 35.6569 18 33.7712 18 30V26C18 22.2288 18 20.3431 19.1716 19.1716C20.3431 18 22.2387 18 26.0298 18C26.6358 18 27.1214 18 27.53 18.0167C27.5166 18.0966 27.5095 18.1781 27.5092 18.2606L27.5 21.095C27.4999 22.1921 27.4998 23.1616 27.6049 23.9432C27.7188 24.7903 27.9803 25.6373 28.6716 26.3285C29.3628 27.0198 30.2098 27.2813 31.0569 27.3952C31.8385 27.5003 32.808 27.5002 33.9051 27.5001L34 27.5001H37.9574C38 28.0344 38 28.6901 38 29.5629V30C38 33.7712 38 35.6569 36.8284 36.8284C35.6569 38 33.7712 38 30 38ZM21.25 30.5C21.25 30.0858 21.5858 29.75 22 29.75H30C30.4142 29.75 30.75 30.0858 30.75 30.5C30.75 30.9142 30.4142 31.25 30 31.25H22C21.5858 31.25 21.25 30.9142 21.25 30.5ZM21.25 34C21.25 33.5858 21.5858 33.25 22 33.25H27.5C27.9142 33.25 28.25 33.5858 28.25 34C28.25 34.4142 27.9142 34.75 27.5 34.75H22C21.5858 34.75 21.25 34.4142 21.25 34Z" fill="white"/>
<path d="M35.3517 23.6167L31.3929 20.0538C30.2651 19.0387 29.7012 18.5311 29.0092 18.2656L29 21.0001C29 23.3571 29 24.5356 29.7322 25.2679C30.4645 26.0001 31.643 26.0001 34 26.0001H37.5801C37.2175 25.2959 36.5684 24.7116 35.3517 23.6167Z" fill="white"/>
</svg>
