<svg width="24" height="24" viewBox="0 0 24 24" fill="white"
	xmlns="http://www.w3.org/2000/svg">
	<path d="M18.8181 8.27145C19.2199 8.17099 19.6271 8.41531 19.7276 8.81716C19.8281 9.219 19.5837 9.6262 19.1819 9.72667L15.1819 10.7267C14.7801 10.8271 14.3729 10.5828 14.2724 10.181C14.1719 9.77911 14.4163 9.37191 14.8181 9.27145L18.8181 8.27145Z"/>
	<path d="M18.8181 12.2715C19.2199 12.171 19.6271 12.4153 19.7276 12.8172C19.8281 13.219 19.5837 13.6262 19.1819 13.7267L15.1819 14.7267C14.7801 14.8271 14.3729 14.5828 14.2724 14.181C14.1719 13.7791 14.4163 13.3719 14.8181 13.2715L18.8181 12.2715Z"/>
	<path d="M4.27239 8.81716C4.37285 8.41531 4.78006 8.17099 5.1819 8.27145L9.1819 9.27145C9.58375 9.37191 9.82807 9.77911 9.72761 10.181C9.62715 10.5828 9.21994 10.8271 8.8181 10.7267L4.8181 9.72667C4.41625 9.6262 4.17193 9.219 4.27239 8.81716Z"/>
	<path d="M4.27239 12.8172C4.37285 12.4153 4.78006 12.171 5.1819 12.2715L9.1819 13.2715C9.58375 13.3719 9.82807 13.7791 9.72761 14.181C9.62715 14.5828 9.21994 14.8271 8.8181 14.7267L4.8181 13.7267C4.41625 13.6262 4.17193 13.219 4.27239 12.8172Z"/>
	<path fill-rule="evenodd" clip-rule="evenodd" d="M22.75 4.93225C22.75 3.46895 21.5847 2.21401 20.0559 2.26726C18.9175 2.30691 17.4296 2.42533 16.2849 2.76801C15.2899 3.0659 14.1706 3.64774 13.2982 4.15268C12.4801 4.62615 11.4617 4.64976 10.6328 4.2115C9.63736 3.68512 8.32766 3.06117 7.19136 2.76133C6.23055 2.50779 5.01517 2.38601 4.02841 2.32536C2.47017 2.22959 1.25 3.4977 1.25 4.99686V16.1426C1.25 17.6789 2.49378 18.8782 3.96804 18.9704C4.9268 19.0304 6.00566 19.1457 6.80864 19.3576C7.8012 19.6195 9.0286 20.2019 10.0196 20.7301C11.2529 21.3876 12.7471 21.3876 13.9804 20.7301C14.9714 20.2019 16.1988 19.6195 17.1914 19.3576C17.9943 19.1457 19.0732 19.0304 20.032 18.9704C21.5062 18.8782 22.75 17.6789 22.75 16.1426V4.93225ZM20.1081 3.76635C20.7229 3.74494 21.25 4.25066 21.25 4.93225V16.1426C21.25 16.8284 20.6817 17.4268 19.9383 17.4733C18.9582 17.5346 17.7591 17.6564 16.8086 17.9072C15.6383 18.2161 14.2827 18.8692 13.2748 19.4065C13.1065 19.4961 12.9305 19.5668 12.75 19.6184V5.94109C13.2023 5.85055 13.6421 5.68674 14.0495 5.45094C14.9 4.95874 15.8949 4.45055 16.7151 4.205C17.6643 3.92085 18.9892 3.80532 20.1081 3.76635ZM11.25 5.97404C10.795 5.90328 10.349 5.75821 9.93167 5.53753C8.95486 5.02102 7.77076 4.46556 6.80864 4.21168C5.99643 3.99735 4.90238 3.8819 3.93639 3.82253C3.30243 3.78357 2.75 4.29968 2.75 4.99686V16.1426C2.75 16.8284 3.31831 17.4268 4.06168 17.4733C5.04176 17.5346 6.24092 17.6564 7.19136 17.9072C8.3617 18.2161 9.71727 18.8692 10.7252 19.4065C10.8935 19.4961 11.0695 19.5668 11.25 19.6184V5.97404Z"/>
</svg>
