<svg width="16" height="22" viewBox="0 0 16 22" fill="none" xmlns="http://www.w3.org/2000/svg">
<path fill-rule="evenodd" clip-rule="evenodd" d="M1 0.25C1.41421 0.25 1.75 0.585786 1.75 1V2.08515L3.32358 1.77043C5.11678 1.41179 6.97557 1.58245 8.67347 2.26161L8.87711 2.34307C10.2919 2.90898 11.849 3.01466 13.3273 2.64509C14.5579 2.33744 15.75 3.2682 15.75 4.53669V11.9037C15.75 12.8922 15.0773 13.7538 14.1183 13.9935L13.9039 14.0471C11.9814 14.5277 9.95631 14.3903 8.11639 13.6543C6.68865 13.0832 5.12562 12.9397 3.61776 13.2413L1.75 13.6149V21C1.75 21.4142 1.41421 21.75 1 21.75C0.585786 21.75 0.25 21.4142 0.25 21V1C0.25 0.585786 0.585786 0.25 1 0.25ZM1.75 12.0851L3.32358 11.7704C5.11678 11.4118 6.97557 11.5825 8.67347 12.2616C10.2206 12.8805 11.9235 12.996 13.5401 12.5919L13.7545 12.5383C14.0457 12.4655 14.25 12.2039 14.25 11.9037V4.53669C14.25 4.24405 13.975 4.02933 13.6911 4.10031C11.9069 4.54635 10.0276 4.4188 8.32003 3.73578L8.11639 3.65433C6.68865 3.08323 5.12562 2.93973 3.61776 3.2413L1.75 3.61485V12.0851Z" fill="#141618"/>
</svg>
