<svg width="40" height="40" viewBox="0 0 40 40" fill="none" xmlns="http://www.w3.org/2000/svg">
<path fill-rule="evenodd" clip-rule="evenodd" d="M20.0007 4.58203C11.4863 4.58203 4.58398 11.4843 4.58398 19.9987C4.58398 28.5131 11.4863 35.4154 20.0007 35.4154C28.515 35.4154 35.4173 28.5131 35.4173 19.9987C35.4173 11.4843 28.515 4.58203 20.0007 4.58203ZM2.08398 19.9987C2.08398 10.1036 10.1055 2.08203 20.0007 2.08203C29.8958 2.08203 37.9173 10.1036 37.9173 19.9987C37.9173 29.8938 29.8958 37.9154 20.0007 37.9154C10.1055 37.9154 2.08398 29.8938 2.08398 19.9987ZM20.7834 14.1148C21.2716 13.6267 22.063 13.6267 22.5512 14.1148L27.5512 19.1148C28.0394 19.603 28.0394 20.3944 27.5512 20.8826L22.5512 25.8826C22.063 26.3707 21.2716 26.3707 20.7834 25.8826C20.2953 25.3944 20.2953 24.603 20.7834 24.1148L23.6496 21.2487H13.334C12.6436 21.2487 12.084 20.6891 12.084 19.9987C12.084 19.3083 12.6436 18.7487 13.334 18.7487H23.6496L20.7834 15.8826C20.2953 15.3944 20.2953 14.603 20.7834 14.1148Z" fill="#141618"/>
</svg>
