<svg width="40" height="40" viewBox="0 0 40 40" fill="#141618" xmlns="http://www.w3.org/2000/svg">
<g opacity="0.25">
<path fill-rule="evenodd" clip-rule="evenodd" d="M20.0007 4.58203C11.4863 4.58203 4.58398 11.4843 4.58398 19.9987C4.58398 28.5131 11.4863 35.4154 20.0007 35.4154C28.515 35.4154 35.4173 28.5131 35.4173 19.9987C35.4173 11.4843 28.515 4.58203 20.0007 4.58203ZM2.08398 19.9987C2.08398 10.1036 10.1055 2.08203 20.0007 2.08203C29.8958 2.08203 37.9173 10.1036 37.9173 19.9987C37.9173 29.8938 29.8958 37.9154 20.0007 37.9154C10.1055 37.9154 2.08398 29.8938 2.08398 19.9987ZM19.2179 14.1148C19.706 14.603 19.706 15.3944 19.2179 15.8826L16.3517 18.7487H26.6673C27.3577 18.7487 27.9173 19.3083 27.9173 19.9987C27.9173 20.6891 27.3577 21.2487 26.6673 21.2487H16.3517L19.2179 24.1148C19.706 24.603 19.706 25.3944 19.2179 25.8826C18.7297 26.3707 17.9383 26.3707 17.4501 25.8826L12.4501 20.8826C11.9619 20.3944 11.9619 19.603 12.4501 19.1148L17.4501 14.1148C17.9383 13.6267 18.7297 13.6267 19.2179 14.1148Z" />
</g>
</svg>
