<svg width="19" height="18" viewBox="0 0 19 18" fill="#141618" xmlns="http://www.w3.org/2000/svg">
<path fill-rule="evenodd" clip-rule="evenodd" d="M12.124 1.88497C12.1368 1.89639 12.1497 1.90785 12.1626 1.91933L16.1765 5.48717C16.9254 6.15286 17.5463 6.7047 17.9726 7.20566C18.4206 7.73216 18.7396 8.29901 18.7396 9.00045C18.7396 9.70189 18.4206 10.2687 17.9726 10.7952C17.5463 11.2962 16.9254 11.848 16.1765 12.5137L12.1626 16.0816C12.1497 16.0931 12.1368 16.1045 12.124 16.1159C11.7996 16.4044 11.4968 16.6736 11.2352 16.8464C10.9783 17.016 10.5112 17.2623 9.98793 17.0273C9.46466 16.7923 9.33846 16.2796 9.29456 15.9749C9.24986 15.6646 9.24992 15.2595 9.24999 14.8253C9.25 14.8081 9.25 14.7909 9.25 14.7736V13.2051C7.7985 13.3051 6.32763 13.6906 5.04102 14.3175C3.52808 15.0547 2.31979 16.1 1.66405 17.3491C1.50365 17.6546 1.1555 17.8112 0.820468 17.7286C0.485439 17.646 0.25 17.3455 0.25 17.0005C0.25 12.2795 1.63138 9.20551 3.6065 7.31569C5.3281 5.66845 7.42636 4.99252 9.25 4.85106V3.2273C9.25 3.21002 9.25 3.19278 9.24999 3.17558C9.24992 2.74145 9.24986 2.33628 9.29456 2.02602C9.33846 1.72135 9.46466 1.20856 9.98793 0.973575C10.5112 0.738591 10.9783 0.984952 11.2352 1.15455C11.4968 1.32726 11.7996 1.59649 12.124 1.88497ZM10.7531 2.67741C10.8661 2.77431 11.0011 2.89382 11.1661 3.04044L15.1384 6.57137C15.9395 7.28346 16.48 7.76624 16.8302 8.17776C17.1665 8.57296 17.2396 8.80376 17.2396 9.00045C17.2396 9.19714 17.1665 9.42795 16.8302 9.82315C16.48 10.2347 15.9395 10.7174 15.1384 11.4295L11.1661 14.9605C11.0011 15.1071 10.8661 15.2266 10.7531 15.3235C10.7504 15.1746 10.75 14.9943 10.75 14.7736V12.429C10.75 12.0148 10.4142 11.679 10 11.679C8.08743 11.679 6.09995 12.133 4.38398 12.9691C3.46516 13.4168 2.6098 13.9815 1.88393 14.6572C2.25269 11.6103 3.34242 9.64439 4.6435 8.3995C6.26355 6.84942 8.31042 6.32188 10 6.32188C10.4142 6.32188 10.75 5.9861 10.75 5.57188V3.2273C10.75 3.0066 10.7504 2.8263 10.7531 2.67741Z" />
</svg>
