<svg width="24" height="25" viewBox="0 0 24 25" fill="white" xmlns="http://www.w3.org/2000/svg">
<path d="M0 24.6401L1.687 18.4771C0.645998 16.6731 0.0989998 14.6281 0.0999998 12.5311C0.103 5.97512 5.43799 0.640137 11.993 0.640137C15.174 0.641137 18.16 1.88013 20.406 4.12813C22.6509 6.37612 23.8869 9.36412 23.8859 12.5421C23.8829 19.0991 18.548 24.4341 11.993 24.4341C10.003 24.4331 8.04198 23.9341 6.30499 22.9861L0 24.6401ZM6.59698 20.8331C8.27298 21.8281 9.87298 22.4241 11.989 22.4251C17.437 22.4251 21.875 17.9911 21.878 12.5401C21.88 7.07812 17.463 2.65013 11.997 2.64813C6.54498 2.64813 2.11 7.08212 2.108 12.5321C2.107 14.7571 2.75899 16.4231 3.85399 18.1661L2.85499 21.8141L6.59698 20.8331ZM17.984 15.3691C17.91 15.2451 17.712 15.1711 17.414 15.0221C17.117 14.8731 15.656 14.1541 15.383 14.0551C15.111 13.9561 14.913 13.9061 14.714 14.2041C14.516 14.5011 13.946 15.1711 13.773 15.3691C13.6 15.5671 13.426 15.5921 13.129 15.4431C12.832 15.2941 11.874 14.9811 10.739 13.9681C9.85598 13.1801 9.25898 12.2071 9.08598 11.9091C8.91298 11.6121 9.06798 11.4511 9.21598 11.3031C9.34998 11.1701 9.51298 10.9561 9.66198 10.7821C9.81298 10.6101 9.86198 10.4861 9.96198 10.2871C10.061 10.0891 10.012 9.91512 9.93698 9.76612C9.86198 9.61812 9.26798 8.15512 9.02098 7.56012C8.77898 6.98112 8.53398 7.05912 8.35198 7.05012L7.78198 7.04012C7.58398 7.04012 7.26198 7.11412 6.98998 7.41212C6.71798 7.71012 5.94999 8.42812 5.94999 9.89112C5.94999 11.3541 7.01498 12.7671 7.16298 12.9651C7.31198 13.1631 9.25798 16.1651 12.239 17.4521C12.948 17.7581 13.502 17.9411 13.933 18.0781C14.645 18.3041 15.293 18.2721 15.805 18.1961C16.376 18.1111 17.563 17.4771 17.811 16.7831C18.059 16.0881 18.059 15.4931 17.984 15.3691Z" />
</svg>
