<svg width="24" height="25" viewBox="0 0 24 25" fill="white" xmlns="http://www.w3.org/2000/svg">
<g clip-path="url(#clip0_823_3311)">
<path d="M12 2.80107C15.2063 2.80107 15.5859 2.81514 16.8469 2.87139C18.0188 2.92295 18.6516 3.11982 19.0734 3.28389C19.6313 3.49951 20.0344 3.76201 20.4516 4.1792C20.8734 4.60107 21.1313 4.99951 21.3469 5.55732C21.5109 5.9792 21.7078 6.6167 21.7594 7.78389C21.8156 9.04951 21.8297 9.4292 21.8297 12.6308C21.8297 15.837 21.8156 16.2167 21.7594 17.4776C21.7078 18.6495 21.5109 19.2823 21.3469 19.7042C21.1313 20.262 20.8688 20.6651 20.4516 21.0823C20.0297 21.5042 19.6313 21.762 19.0734 21.9776C18.6516 22.1417 18.0141 22.3386 16.8469 22.3901C15.5813 22.4464 15.2016 22.4604 12 22.4604C8.79375 22.4604 8.41406 22.4464 7.15313 22.3901C5.98125 22.3386 5.34844 22.1417 4.92656 21.9776C4.36875 21.762 3.96563 21.4995 3.54844 21.0823C3.12656 20.6604 2.86875 20.262 2.65313 19.7042C2.48906 19.2823 2.29219 18.6448 2.24063 17.4776C2.18438 16.212 2.17031 15.8323 2.17031 12.6308C2.17031 9.42451 2.18438 9.04482 2.24063 7.78389C2.29219 6.61201 2.48906 5.9792 2.65313 5.55732C2.86875 4.99951 3.13125 4.59639 3.54844 4.1792C3.97031 3.75732 4.36875 3.49951 4.92656 3.28389C5.34844 3.11982 5.98594 2.92295 7.15313 2.87139C8.41406 2.81514 8.79375 2.80107 12 2.80107ZM12 0.640137C8.74219 0.640137 8.33438 0.654199 7.05469 0.710449C5.77969 0.766699 4.90313 0.972949 4.14375 1.26826C3.35156 1.57764 2.68125 1.98545 2.01563 2.65576C1.34531 3.32139 0.9375 3.9917 0.628125 4.7792C0.332812 5.54326 0.126563 6.41514 0.0703125 7.69014C0.0140625 8.97451 0 9.38232 0 12.6401C0 15.8979 0.0140625 16.3058 0.0703125 17.5854C0.126563 18.8604 0.332812 19.737 0.628125 20.4964C0.9375 21.2886 1.34531 21.9589 2.01563 22.6245C2.68125 23.2901 3.35156 23.7026 4.13906 24.0073C4.90313 24.3026 5.775 24.5089 7.05 24.5651C8.32969 24.6214 8.7375 24.6354 11.9953 24.6354C15.2531 24.6354 15.6609 24.6214 16.9406 24.5651C18.2156 24.5089 19.0922 24.3026 19.8516 24.0073C20.6391 23.7026 21.3094 23.2901 21.975 22.6245C22.6406 21.9589 23.0531 21.2886 23.3578 20.5011C23.6531 19.737 23.8594 18.8651 23.9156 17.5901C23.9719 16.3105 23.9859 15.9026 23.9859 12.6448C23.9859 9.38701 23.9719 8.9792 23.9156 7.69951C23.8594 6.42451 23.6531 5.54795 23.3578 4.78857C23.0625 3.9917 22.6547 3.32139 21.9844 2.65576C21.3188 1.99014 20.6484 1.57764 19.8609 1.27295C19.0969 0.977637 18.225 0.771387 16.95 0.715137C15.6656 0.654199 15.2578 0.640137 12 0.640137Z" />
<path d="M12 6.47607C8.59688 6.47607 5.83594 9.23701 5.83594 12.6401C5.83594 16.0433 8.59688 18.8042 12 18.8042C15.4031 18.8042 18.1641 16.0433 18.1641 12.6401C18.1641 9.23701 15.4031 6.47607 12 6.47607ZM12 16.6386C9.79219 16.6386 8.00156 14.8479 8.00156 12.6401C8.00156 10.4323 9.79219 8.6417 12 8.6417C14.2078 8.6417 15.9984 10.4323 15.9984 12.6401C15.9984 14.8479 14.2078 16.6386 12 16.6386Z" />
<path d="M19.8469 6.23228C19.8469 7.02915 19.2 7.67134 18.4078 7.67134C17.6109 7.67134 16.9688 7.02447 16.9688 6.23228C16.9688 5.4354 17.6156 4.79321 18.4078 4.79321C19.2 4.79321 19.8469 5.44009 19.8469 6.23228Z" />
</g>
<defs>
<clipPath id="clip0_823_3311">
<rect width="24" height="24" transform="translate(0 0.640137)"/>
</clipPath>
</defs>
</svg>
