<svg width="24" height="25" viewBox="0 0 24 25" fill="white"
	xmlns="http://www.w3.org/2000/svg">
	<path d="M23.7609 7.84019C23.7609 7.84019 23.5266 6.1855 22.8047 5.45894C21.8906 4.50269 20.8688 4.498 20.4 4.44175C17.0438 4.198 12.0047 4.198 12.0047 4.198H11.9953C11.9953 4.198 6.95625 4.198 3.6 4.44175C3.13125 4.498 2.10938 4.50269 1.19531 5.45894C0.473438 6.1855 0.24375 7.84019 0.24375 7.84019C0.24375 7.84019 0 9.7855 0 11.7261V13.5449C0 15.4855 0.239062 17.4308 0.239062 17.4308C0.239062 17.4308 0.473437 19.0855 1.19062 19.8121C2.10469 20.7683 3.30469 20.7355 3.83906 20.8386C5.76094 21.0214 12 21.0777 12 21.0777C12 21.0777 17.0438 21.0683 20.4 20.8292C20.8688 20.773 21.8906 20.7683 22.8047 19.8121C23.5266 19.0855 23.7609 17.4308 23.7609 17.4308C23.7609 17.4308 24 15.4902 24 13.5449V11.7261C24 9.7855 23.7609 7.84019 23.7609 7.84019ZM9.52031 15.7527V9.00737L16.0031 12.3917L9.52031 15.7527Z" />
</svg>
