<svg width="24" height="25" viewBox="0 0 24 25" fill="white" xmlns="http://www.w3.org/2000/svg">
<g clip-path="url(#clip0_823_3314)">
<path d="M17.0725 0.640137H13.0278V16.9879C13.0278 18.9358 11.4722 20.5358 9.53626 20.5358C7.60034 20.5358 6.04469 18.9358 6.04469 16.9879C6.04469 15.0749 7.56577 13.5097 9.43257 13.4401V9.3358C5.31872 9.40534 2 12.7793 2 16.9879C2 21.2315 5.38786 24.6401 9.57085 24.6401C13.7538 24.6401 17.1416 21.1967 17.1416 16.9879V8.60534C18.6627 9.7184 20.5295 10.3793 22.5 10.4141V6.3097C19.4579 6.20536 17.0725 3.701 17.0725 0.640137Z" />
</g>
<defs>
<clipPath id="clip0_823_3314">
<rect width="24" height="24" transform="translate(0 0.640137)"/>
</clipPath>
</defs>
</svg>
