<svg width="18" height="18" viewBox="0 0 18 18" fill="none" xmlns="http://www.w3.org/2000/svg">
<path d="M6.62772 3.50682C7.68326 1.61328 8.21103 0.666504 9.00008 0.666504C9.78913 0.666504 10.3169 1.61327 11.3724 3.50682L11.6455 3.9967C11.9455 4.53478 12.0955 4.80383 12.3293 4.98134C12.5631 5.15886 12.8544 5.22475 13.4368 5.35654L13.9671 5.47653C16.0169 5.9403 17.0417 6.17219 17.2856 6.95628C17.5294 7.74037 16.8307 8.5574 15.4333 10.1914L15.0718 10.6142C14.6747 11.0785 14.4762 11.3107 14.3869 11.5979C14.2975 11.8852 14.3276 12.1949 14.3876 12.8145L14.4423 13.3785C14.6535 15.5587 14.7591 16.6488 14.1208 17.1334C13.4824 17.618 12.5229 17.1761 10.6037 16.2925L10.1072 16.0639C9.56181 15.8128 9.28913 15.6872 9.00008 15.6872C8.71104 15.6872 8.43835 15.8128 7.89299 16.0639L7.39648 16.2925C5.47731 17.1761 4.51773 17.6179 3.87937 17.1334C3.24102 16.6488 3.34665 15.5587 3.55791 13.3785L3.61257 12.8145C3.6726 12.1949 3.70262 11.8852 3.6133 11.5979C3.52398 11.3107 3.32544 11.0785 2.92835 10.6142L2.56683 10.1914C1.16946 8.5574 0.470768 7.74037 0.714599 6.95628C0.958429 6.17219 1.9833 5.9403 4.03303 5.47653L4.56332 5.35654C5.14579 5.22476 5.43703 5.15886 5.67087 4.98134C5.90471 4.80383 6.05469 4.53478 6.35464 3.9967L6.62772 3.50682Z" fill="#FFAF4B"/>
</svg>
