<svg width="18" height="18" viewBox="0 0 18 18" fill="none" xmlns="http://www.w3.org/2000/svg">
<path d="M6.62766 3.50731C7.6832 1.61376 8.21097 0.666992 9.00002 0.666992C9.78907 0.666992 10.3168 1.61376 11.3724 3.5073L11.6455 3.99719C11.9454 4.53527 12.0954 4.80431 12.3292 4.98183C12.5631 5.15935 12.8543 5.22524 13.4368 5.35703L13.9671 5.47702C16.0168 5.94079 17.0417 6.17267 17.2855 6.95677C17.5293 7.74086 16.8306 8.55788 15.4333 10.1919L15.0718 10.6147C14.6747 11.079 14.4761 11.3112 14.3868 11.5984C14.2975 11.8857 14.3275 12.1954 14.3875 12.815L14.4422 13.379C14.6535 15.5592 14.7591 16.6492 14.1207 17.1338C13.4824 17.6184 12.5228 17.1766 10.6036 16.293L10.1071 16.0644C9.56175 15.8133 9.28907 15.6877 9.00002 15.6877C8.71098 15.6877 8.43829 15.8133 7.89293 16.0644L7.39642 16.293C5.47725 17.1766 4.51767 17.6184 3.87931 17.1338C3.24095 16.6492 3.34659 15.5592 3.55785 13.379L3.61251 12.815C3.67254 12.1954 3.70256 11.8857 3.61324 11.5984C3.52392 11.3112 3.32538 11.079 2.92829 10.6147L2.56677 10.1919C1.16939 8.55789 0.470707 7.74086 0.714538 6.95677C0.958368 6.17267 1.98323 5.94079 4.03297 5.47702L4.56326 5.35703C5.14573 5.22524 5.43696 5.15935 5.67081 4.98183C5.90465 4.80431 6.05462 4.53527 6.35458 3.99719L6.62766 3.50731Z" fill="#78828C"/>
</svg>
