<svg width="44" height="44" viewBox="0 0 44 44" fill="none" xmlns="http://www.w3.org/2000/svg">
<path d="M0 16C0 7.16344 7.16344 0 16 0H36C40.4183 0 44 3.58172 44 8V28C44 36.8366 36.8366 44 28 44H8C3.58172 44 0 40.4183 0 36V16Z" fill="#FF4BC8"/>
<path fill-rule="evenodd" clip-rule="evenodd" d="M22 12.75C16.8914 12.75 12.75 16.8914 12.75 22C12.75 27.1086 16.8914 31.25 22 31.25C27.1086 31.25 31.25 27.1086 31.25 22C31.25 16.8914 27.1086 12.75 22 12.75ZM11.25 22C11.25 16.0629 16.0629 11.25 22 11.25C27.9371 11.25 32.75 16.0629 32.75 22C32.75 27.9371 27.9371 32.75 22 32.75C16.0629 32.75 11.25 27.9371 11.25 22ZM22 17.25C22.4142 17.25 22.75 17.5858 22.75 18V21.6893L25.0303 23.9697C25.3232 24.2626 25.3232 24.7374 25.0303 25.0303C24.7374 25.3232 24.2626 25.3232 23.9697 25.0303L21.4697 22.5303C21.329 22.3897 21.25 22.1989 21.25 22V18C21.25 17.5858 21.5858 17.25 22 17.25Z" fill="white"/>
</svg>
