<svg width="44" height="44" viewBox="0 0 44 44" fill="none" xmlns="http://www.w3.org/2000/svg">
<path d="M0 16C0 7.16344 7.16344 0 16 0H36C40.4183 0 44 3.58172 44 8V28C44 36.8366 36.8366 44 28 44H8C3.58172 44 0 40.4183 0 36V16Z" fill="#6419C8"/>
<path fill-rule="evenodd" clip-rule="evenodd" d="M20.9451 11.25H23.0549C24.4225 11.25 25.5248 11.25 26.3918 11.3665C27.2919 11.4875 28.0497 11.7464 28.6516 12.3484C28.9501 12.6468 29.1642 12.9836 29.319 13.3571C30.2511 13.4739 31.0336 13.7303 31.6517 14.3484C32.2536 14.9503 32.5125 15.7082 32.6335 16.6083C32.75 17.4753 32.75 18.5776 32.75 19.9452V24.0549C32.75 25.4225 32.75 26.5248 32.6335 27.3918C32.5125 28.2919 32.2536 29.0498 31.6517 29.6517C31.0336 30.2698 30.2511 30.5262 29.319 30.643C29.1642 31.0164 28.9501 31.3532 28.6516 31.6517C28.0497 32.2536 27.2919 32.5125 26.3918 32.6335C25.5248 32.75 24.4225 32.75 23.0549 32.75H20.9451C19.5775 32.75 18.4752 32.75 17.6082 32.6335C16.7081 32.5125 15.9503 32.2536 15.3484 31.6517C15.0499 31.3532 14.8358 31.0164 14.681 30.643C13.7489 30.5262 12.9664 30.2698 12.3484 29.6517C11.7464 29.0498 11.4875 28.2919 11.3665 27.3918C11.25 26.5248 11.25 25.4225 11.25 24.0549V19.9452C11.25 18.5776 11.25 17.4753 11.3665 16.6083C11.4875 15.7082 11.7464 14.9503 12.3484 14.3484C12.9664 13.7303 13.7489 13.4739 14.681 13.3571C14.8358 12.9836 15.0499 12.6468 15.3484 12.3484C15.9503 11.7464 16.7081 11.4875 17.6082 11.3665C18.4752 11.25 19.5775 11.25 20.9451 11.25ZM14.3284 14.9405C13.8908 15.0459 13.618 15.2001 13.409 15.4091C13.1322 15.6858 12.9518 16.0744 12.8531 16.8082C12.7516 17.5635 12.75 18.5646 12.75 20.0001V24.0001C12.75 25.4355 12.7516 26.4366 12.8531 27.1919C12.9518 27.9257 13.1322 28.3143 13.409 28.591C13.618 28.8 13.8908 28.9542 14.3284 29.0596C14.25 28.2484 14.25 27.2535 14.25 26.0549V17.9451C14.25 16.7465 14.25 15.7517 14.3284 14.9405ZM29.6716 29.0596C30.1092 28.9542 30.382 28.8 30.591 28.591C30.8678 28.3143 31.0482 27.9257 31.1469 27.1919C31.2484 26.4366 31.25 25.4355 31.25 24.0001V20.0001C31.25 18.5646 31.2484 17.5635 31.1469 16.8082C31.0482 16.0744 30.8678 15.6858 30.591 15.4091C30.382 15.2001 30.1092 15.0459 29.6716 14.9405C29.75 15.7517 29.75 16.7465 29.75 17.9451V26.0549C29.75 27.2535 29.75 28.2484 29.6716 29.0596ZM17.8081 12.8531C17.0743 12.9518 16.6858 13.1322 16.409 13.409C16.1322 13.6858 15.9518 14.0743 15.8531 14.8081C15.7516 15.5635 15.75 16.5646 15.75 18V26C15.75 27.4354 15.7516 28.4365 15.8531 29.1919C15.9518 29.9257 16.1322 30.3142 16.409 30.591C16.6858 30.8678 17.0743 31.0482 17.8081 31.1469C18.5635 31.2484 19.5646 31.25 21 31.25H23C24.4354 31.25 25.4365 31.2484 26.1919 31.1469C26.9257 31.0482 27.3142 30.8678 27.591 30.591C27.8678 30.3142 28.0482 29.9257 28.1469 29.1919C28.2484 28.4365 28.25 27.4354 28.25 26V18C28.25 16.5646 28.2484 15.5635 28.1469 14.8081C28.0482 14.0743 27.8678 13.6858 27.591 13.409C27.3142 13.1322 26.9257 12.9518 26.1919 12.8531C25.4365 12.7516 24.4354 12.75 23 12.75H21C19.5646 12.75 18.5635 12.7516 17.8081 12.8531ZM18.25 19C18.25 18.5858 18.5858 18.25 19 18.25H25C25.4142 18.25 25.75 18.5858 25.75 19C25.75 19.4142 25.4142 19.75 25 19.75H19C18.5858 19.75 18.25 19.4142 18.25 19ZM18.25 23C18.25 22.5858 18.5858 22.25 19 22.25H25C25.4142 22.25 25.75 22.5858 25.75 23C25.75 23.4142 25.4142 23.75 25 23.75H19C18.5858 23.75 18.25 23.4142 18.25 23ZM18.25 27C18.25 26.5858 18.5858 26.25 19 26.25H22C22.4142 26.25 22.75 26.5858 22.75 27C22.75 27.4142 22.4142 27.75 22 27.75H19C18.5858 27.75 18.25 27.4142 18.25 27Z" fill="white"/>
</svg>
