<svg width="44" height="44" viewBox="0 0 44 44" fill="none" xmlns="http://www.w3.org/2000/svg">
<path d="M0 16C0 7.16344 7.16344 0 16 0H36C40.4183 0 44 3.58172 44 8V28C44 36.8366 36.8366 44 28 44H8C3.58172 44 0 40.4183 0 36V16Z" fill="#4BAF7D"/>
<path fill-rule="evenodd" clip-rule="evenodd" d="M26.3939 12.0212L26.4604 12.039C27.5598 12.3336 28.431 12.567 29.1162 12.8146C29.8172 13.0678 30.3888 13.3574 30.8597 13.7985C31.5453 14.4407 32.0252 15.2718 32.2385 16.1867C32.385 16.815 32.3501 17.4549 32.2189 18.1885C32.0906 18.9057 31.8572 19.777 31.5626 20.8764L31.0271 22.8747C30.7326 23.974 30.4991 24.8452 30.2516 25.5305C29.9984 26.2314 29.7087 26.803 29.2677 27.2739C28.6459 27.9377 27.8471 28.4087 26.9665 28.6316C26.7093 29.2213 26.3336 29.7554 25.8597 30.1993C25.3888 30.6403 24.8172 30.9299 24.1162 31.1832C23.431 31.4307 22.5598 31.6641 21.4605 31.9587L21.394 31.9765C20.2946 32.2711 19.4234 32.5045 18.7061 32.6328C17.9725 32.764 17.3327 32.7989 16.7043 32.6524C15.7894 32.4391 14.9583 31.9592 14.3161 31.2736C13.8751 30.8027 13.5854 30.2311 13.3322 29.5302C13.0847 28.8449 12.8512 27.9737 12.5567 26.8743L12.0212 24.876C11.7266 23.7766 11.4932 22.9054 11.3649 22.1882C11.2338 21.4546 11.1988 20.8147 11.3453 20.1864C11.5586 19.2715 12.0385 18.4404 12.7242 17.7982C13.1951 17.3571 13.7666 17.0675 14.4676 16.8143C15.1528 16.5667 16.024 16.3333 17.1234 16.0387L17.1567 16.0298C17.4211 15.959 17.6713 15.892 17.9083 15.8294C18.2999 14.4303 18.6445 13.4413 19.3161 12.7242C19.9583 12.0385 20.7894 11.5586 21.7043 11.3453C22.3327 11.1988 22.9725 11.2338 23.7061 11.3649C24.4233 11.4932 25.2945 11.7266 26.3939 12.0212ZM17.455 17.5028C16.3621 17.7957 15.5791 18.0076 14.9772 18.2251C14.3678 18.4452 14.01 18.6491 13.7496 18.893C13.2804 19.3324 12.9521 19.901 12.8061 20.527C12.7251 20.8745 12.7275 21.2863 12.8415 21.9242C12.9572 22.5712 13.1736 23.381 13.479 24.521L13.9967 26.4529C14.3021 27.5929 14.5197 28.4023 14.743 29.0205C14.9631 29.63 15.167 29.9878 15.4109 30.2482C15.8503 30.7173 16.419 31.0456 17.045 31.1916C17.3924 31.2726 17.8042 31.2703 18.4421 31.1562C19.0892 31.0405 19.8989 30.8242 21.0389 30.5187C22.1789 30.2132 22.9884 29.9957 23.6066 29.7724C24.216 29.5522 24.5739 29.3484 24.8343 29.1045C24.9719 28.9756 25.0973 28.8357 25.2096 28.6865C25.0306 28.6612 24.8463 28.629 24.6557 28.5911C23.9839 28.4575 23.1769 28.2413 22.1808 27.9744L22.1234 27.959C21.024 27.6644 20.1528 27.431 19.4676 27.1835C18.7666 26.9302 18.195 26.6406 17.7242 26.1996C17.0385 25.5574 16.5586 24.7262 16.3453 23.8113C16.1988 23.183 16.2338 22.5432 16.3649 21.8095C16.4932 21.0923 16.7266 20.2211 17.0212 19.1217L17.455 17.5028ZM23.4421 12.8415C22.8042 12.7275 22.3924 12.7251 22.045 12.8061C21.419 12.9521 20.8503 13.2804 20.4109 13.7496C19.9748 14.2152 19.7064 14.9345 19.2397 16.6432C19.1638 16.9209 19.0836 17.2202 18.9967 17.5449L18.479 19.4767C18.1736 20.6167 17.9572 21.4265 17.8415 22.0736C17.7275 22.7114 17.7251 23.1232 17.8061 23.4707C17.9521 24.0967 18.2804 24.6654 18.7496 25.1048C19.01 25.3487 19.3678 25.5525 19.9772 25.7727C20.5954 25.996 21.4049 26.2136 22.5449 26.519C23.5703 26.7938 24.3303 26.997 24.9482 27.1199C25.5635 27.2422 25.981 27.2723 26.3232 27.23C26.3976 27.2209 26.4691 27.2082 26.5389 27.1919C27.1649 27.0459 27.7335 26.7176 28.1729 26.2485C28.4168 25.9881 28.6207 25.6303 28.8408 25.0208C29.0642 24.4026 29.2817 23.5932 29.5872 22.4532L30.1048 20.5213C30.4103 19.3813 30.6266 18.5715 30.7423 17.9245C30.8564 17.2866 30.8587 16.8748 30.7777 16.5273C30.6317 15.9013 30.3034 15.3327 29.8343 14.8933C29.5739 14.6494 29.216 14.4455 28.6066 14.2254C27.9884 14.002 27.1789 13.7845 26.0389 13.479C24.8989 13.1736 24.0892 12.9572 23.4421 12.8415ZM21.0524 19.8059C21.1596 19.4058 21.5709 19.1683 21.971 19.2755L26.8006 20.5696C27.2007 20.6768 27.4381 21.0881 27.3309 21.4882C27.2237 21.8883 26.8125 22.1257 26.4124 22.0185L21.5827 20.7244C21.1826 20.6172 20.9452 20.206 21.0524 19.8059ZM20.2755 22.7036C20.3828 22.3035 20.794 22.066 21.1941 22.1733L24.0919 22.9497C24.492 23.0569 24.7294 23.4682 24.6222 23.8683C24.515 24.2684 24.1038 24.5058 23.7037 24.3986L20.8059 23.6221C20.4058 23.5149 20.1683 23.1037 20.2755 22.7036Z" fill="white"/>
</svg>
