<svg width="32" height="32" viewBox="0 0 32 32" fill="none" xmlns="http://www.w3.org/2000/svg">
<path opacity="0.5" fill-rule="evenodd" clip-rule="evenodd" d="M4 19C4.55229 19 5 19.4477 5 20C5 21.9139 5.00213 23.2487 5.13753 24.2558C5.26907 25.2342 5.50966 25.7523 5.87868 26.1213C6.2477 26.4903 6.76579 26.7309 7.74416 26.8625C8.7513 26.9979 10.0861 27 12 27H20C21.9139 27 23.2487 26.9979 24.2558 26.8625C25.2342 26.7309 25.7523 26.4903 26.1213 26.1213C26.4903 25.7523 26.7309 25.2342 26.8625 24.2558C26.9979 23.2487 27 21.9139 27 20C27 19.4477 27.4477 19 28 19C28.5523 19 29 19.4477 29 20V20.0732C29 21.8966 29.0001 23.3664 28.8446 24.5223C28.6833 25.7225 28.3381 26.733 27.5355 27.5355C26.733 28.3381 25.7225 28.6833 24.5223 28.8446C23.3664 29.0001 21.8966 29 20.0732 29H11.9268C10.1034 29 8.63362 29.0001 7.47767 28.8446C6.27752 28.6833 5.26702 28.3381 4.46447 27.5355C3.66191 26.733 3.31672 25.7225 3.15537 24.5223C2.99995 23.3664 2.99997 21.8966 3 20.0732C3 20.0488 3 20.0245 3 20C3 19.4477 3.44772 19 4 19Z" fill="#3296C8"/>
<path fill-rule="evenodd" clip-rule="evenodd" d="M16 22.332C16.2808 22.332 16.5486 22.214 16.7381 22.0068L22.0714 16.1735C22.4441 15.7659 22.4157 15.1333 22.0081 14.7607C21.6005 14.388 20.968 14.4163 20.5953 14.8239L17 18.7563V3.9987C17 3.44641 16.5523 2.9987 16 2.9987C15.4477 2.9987 15 3.44641 15 3.9987V18.7563L11.4047 14.8239C11.0321 14.4163 10.3995 14.388 9.99192 14.7607C9.58432 15.1333 9.556 15.7659 9.92866 16.1735L15.262 22.0068C15.4514 22.214 15.7193 22.332 16 22.332Z" fill="#3296C8"/>
</svg>
