<svg width="28" height="28" viewBox="0 0 28 28" fill="none" xmlns="http://www.w3.org/2000/svg">
<path fill-rule="evenodd" clip-rule="evenodd" d="M27.3333 13.9993C27.3333 21.3631 21.3638 27.3327 14 27.3327C6.63616 27.3327 0.666626 21.3631 0.666626 13.9993C0.666626 6.63555 6.63616 0.666016 14 0.666016C21.3638 0.666016 27.3333 6.63555 27.3333 13.9993ZM19.3737 9.95891C19.7643 10.3494 19.7643 10.9826 19.3737 11.3731L12.7071 18.0398C12.3165 18.4303 11.6834 18.4303 11.2929 18.0398L8.62619 15.3731C8.23566 14.9826 8.23566 14.3494 8.62619 13.9589C9.01671 13.5684 9.64988 13.5684 10.0404 13.9589L12 15.9185L14.9797 12.9387L17.9595 9.95891C18.35 9.56839 18.9832 9.56839 19.3737 9.95891Z" fill="#4BAF7D"/>
</svg>
