<svg width="24" height="24" viewBox="0 0 24 24" fill="none" xmlns="http://www.w3.org/2000/svg">
<path d="M17.1918 8.66444C18.7352 9.77162 20.6259 10.4231 22.6679 10.4231V6.47959C22.2814 6.47967 21.896 6.43923 21.5179 6.35884V9.46291C19.476 9.46291 17.5856 8.81147 16.0418 7.70438V15.7518C16.0418 19.7776 12.7899 23.0409 8.77871 23.0409C7.28204 23.0409 5.89094 22.5868 4.73535 21.808C6.05426 23.1614 7.89359 24.0009 9.92847 24.0009C13.9399 24.0009 17.192 20.7377 17.192 16.7117V8.66444H17.1918ZM18.6105 4.68597C17.8218 3.8212 17.3039 2.70365 17.1918 1.46815V0.960938H16.102C16.3764 2.53126 17.312 3.87285 18.6105 4.68597ZM7.27244 18.7188C6.83176 18.1389 6.59362 17.4296 6.59469 16.7002C6.59469 14.859 8.0821 13.3661 9.91715 13.3661C10.2591 13.366 10.5991 13.4186 10.925 13.5223V9.49075C10.5441 9.43836 10.1597 9.41612 9.77548 9.42428V12.5623C9.44932 12.4585 9.10922 12.4058 8.76715 12.4061C6.93209 12.4061 5.44477 13.8988 5.44477 15.7403C5.44477 17.0424 6.18822 18.1696 7.27244 18.7188Z" fill="#FF004F"/>
<path d="M16.0416 7.7043C17.5854 8.81139 19.4758 9.46282 21.5176 9.46282V6.35875C20.3779 6.11511 19.3689 5.51738 18.6103 4.68597C17.3117 3.87276 16.3761 2.53118 16.1018 0.960938H13.2392V16.7116C13.2327 18.5478 11.7479 20.0346 9.91676 20.0346C8.83771 20.0346 7.87908 19.5184 7.27196 18.7188C6.18782 18.1696 5.44437 17.0423 5.44437 15.7404C5.44437 13.8991 6.93169 12.4062 8.76675 12.4062C9.11834 12.4062 9.45721 12.4611 9.77509 12.5624V9.42436C5.83435 9.50607 2.66504 12.7375 2.66504 16.7117C2.66504 18.6955 3.45427 20.494 4.7352 21.8081C5.89079 22.5868 7.28189 23.041 8.77856 23.041C12.7898 23.041 16.0417 19.7775 16.0417 15.7518V7.7043H16.0416Z" fill="black"/>
<path d="M21.5177 6.3578V5.51848C20.4899 5.52005 19.4823 5.23119 18.6103 4.68493C19.3822 5.53306 20.3987 6.11787 21.5177 6.3578ZM16.1018 0.959983C16.0757 0.809911 16.0556 0.658851 16.0416 0.507214V0H12.0892V15.7508C12.0828 17.5868 10.5981 19.0736 8.76677 19.0736C8.22913 19.0736 7.72152 18.9455 7.27198 18.7179C7.8791 19.5174 8.83773 20.0335 9.91678 20.0335C11.7477 20.0335 13.2328 18.5469 13.2392 16.7107V0.959983H16.1018ZM9.77527 9.4234V8.52989C9.44501 8.48459 9.11204 8.46186 8.77867 8.46202C4.76705 8.46194 1.51514 11.7254 1.51514 15.7508C1.51514 18.2745 2.7932 20.4987 4.73531 21.807C3.45437 20.493 2.66514 18.6944 2.66514 16.7106C2.66514 12.7365 5.83437 9.50511 9.77527 9.4234Z" fill="#00F2EA"/>
</svg>
