<svg width="20" height="20" viewBox="0 0 20 20" fill="#E1324B" xmlns="http://www.w3.org/2000/svg">
<path fill-rule="evenodd" clip-rule="evenodd" d="M3.11686 5.7517C3.53016 5.72415 3.88754 6.03685 3.91509 6.45015L4.37503 13.3493C4.46489 14.6971 4.52892 15.6349 4.66948 16.3406C4.80583 17.025 4.99617 17.3873 5.26958 17.6431C5.54299 17.8989 5.91715 18.0647 6.60915 18.1552C7.32255 18.2485 8.26256 18.25 9.6134 18.25H10.3868C11.7376 18.25 12.6776 18.2485 13.391 18.1552C14.083 18.0647 14.4572 17.8989 14.7306 17.6431C15.004 17.3873 15.1943 17.025 15.3307 16.3406C15.4713 15.6349 15.5353 14.6971 15.6251 13.3493L16.0851 6.45015C16.1126 6.03685 16.47 5.72415 16.8833 5.7517C17.2966 5.77925 17.6093 6.13663 17.5818 6.54993L17.1183 13.5017C17.0328 14.7844 16.9638 15.8206 16.8018 16.6336C16.6334 17.4789 16.347 18.185 15.7554 18.7385C15.1638 19.2919 14.4402 19.5308 13.5856 19.6425C12.7635 19.7501 11.7251 19.7501 10.4395 19.75H9.56067C8.27508 19.7501 7.23664 19.7501 6.4146 19.6425C5.55995 19.5308 4.8364 19.2919 4.2448 18.7385C3.65321 18.185 3.36679 17.4789 3.19839 16.6336C3.03642 15.8205 2.96736 14.7844 2.88186 13.5017L2.41841 6.54993C2.39086 6.13663 2.70357 5.77925 3.11686 5.7517Z" fill="#E1324B"/>
<path fill-rule="evenodd" clip-rule="evenodd" d="M8.35535 0.250038L8.30936 0.250019C8.09297 0.249881 7.90445 0.249761 7.72643 0.278188C7.02313 0.390494 6.41453 0.829149 6.08559 1.46084C6.00232 1.62074 5.94282 1.79964 5.87452 2.00496L5.86 2.04858L5.76291 2.33984C5.74392 2.39681 5.73863 2.41251 5.73402 2.42524C5.55891 2.90936 5.10488 3.23659 4.59023 3.24964C4.5767 3.24998 4.56013 3.25004 4.50008 3.25004H1.5C1.08579 3.25004 0.75 3.58582 0.75 4.00004C0.75 4.41425 1.08579 4.75004 1.5 4.75004L4.50865 4.75004L4.52539 4.75004H15.4748L15.4915 4.75004L18.5001 4.75004C18.9143 4.75004 19.2501 4.41425 19.2501 4.00004C19.2501 3.58582 18.9143 3.25004 18.5001 3.25004H15.5001C15.44 3.25004 15.4235 3.24998 15.4099 3.24964C14.8953 3.23659 14.4413 2.90933 14.2661 2.42522C14.2616 2.41258 14.2562 2.39653 14.2373 2.33984L14.1402 2.04858L14.1256 2.00494C14.0573 1.79961 13.9978 1.62073 13.9146 1.46084C13.5856 0.829147 12.977 0.390494 12.2737 0.278188C12.0957 0.249761 11.9072 0.249881 11.6908 0.250019L11.6448 0.250038H8.35535ZM7.14458 2.93548C7.10531 3.04404 7.05966 3.14902 7.00815 3.25004H12.992C12.9405 3.14902 12.8949 3.04405 12.8556 2.9355L12.8169 2.82216L12.7171 2.52292C12.626 2.2494 12.605 2.19363 12.5842 2.15364C12.4745 1.94307 12.2716 1.79686 12.0372 1.75942C11.9927 1.75231 11.9331 1.75004 11.6448 1.75004H8.35535C8.06703 1.75004 8.00748 1.75231 7.96296 1.75942C7.72853 1.79686 7.52566 1.94307 7.41601 2.15364C7.39519 2.19363 7.37419 2.24942 7.28302 2.52292L7.18322 2.82234C7.1682 2.86742 7.1565 2.90251 7.14458 2.93548Z" />
</svg>
