<svg width="32" height="32" viewBox="0 0 32 32" fill="none" xmlns="http://www.w3.org/2000/svg">
<path opacity="0.5" d="M4 13.3307C4 8.30241 4 5.78826 5.5621 4.22616C7.12419 2.66406 9.63835 2.66406 14.6667 2.66406H17.3333C22.3616 2.66406 24.8758 2.66406 26.4379 4.22616C28 5.78826 28 8.30241 28 13.3307V18.6641C28 23.6924 28 26.2065 26.4379 27.7686C24.8758 29.3307 22.3616 29.3307 17.3333 29.3307H14.6667C9.63835 29.3307 7.12419 29.3307 5.5621 27.7686C4 26.2065 4 23.6924 4 18.6641V13.3307Z" fill="white"/>
<path d="M22.0252 22.0043C22.2585 21.8223 22.4702 21.6107 22.8934 21.1875L28.1699 15.9109C28.2975 15.7834 28.2391 15.5636 28.0687 15.5045C27.4459 15.2884 26.6356 14.8827 25.8778 14.1248C25.1199 13.367 24.7142 12.5568 24.4981 11.9339C24.439 11.7635 24.2192 11.7051 24.0917 11.8327L18.8151 17.1092L18.8151 17.1092C18.3919 17.5325 18.1803 17.7441 17.9983 17.9774C17.7836 18.2527 17.5995 18.5505 17.4493 18.8656C17.322 19.1328 17.2274 19.4167 17.0381 19.9845L16.7935 20.7183L16.4046 21.885L16.0399 22.979C15.9468 23.2584 16.0195 23.5665 16.2278 23.7748C16.4361 23.9831 16.7442 24.0558 17.0236 23.9627L18.1176 23.598L19.2843 23.2091L20.0181 22.9645L20.0181 22.9645C20.5859 22.7752 20.8698 22.6806 21.137 22.5533C21.4521 22.4031 21.7499 22.219 22.0252 22.0043Z" fill="white"/>
<path d="M29.822 14.2588C30.9482 13.1327 30.9482 11.3068 29.822 10.1806C28.6958 9.05439 26.8699 9.05439 25.7438 10.1806L25.5741 10.3502C25.4104 10.5139 25.3363 10.7426 25.3772 10.9704C25.4029 11.1138 25.4506 11.3233 25.5373 11.5734C25.7108 12.0735 26.0385 12.7299 26.6556 13.347C27.2727 13.9641 27.9292 14.2918 28.4292 14.4653C28.6793 14.552 28.8889 14.5997 29.0322 14.6254C29.26 14.6663 29.4887 14.5922 29.6524 14.4285L29.822 14.2588Z" fill="white"/>
<path fill-rule="evenodd" clip-rule="evenodd" d="M9.66602 12C9.66602 11.4477 10.1137 11 10.666 11H19.3327C19.885 11 20.3327 11.4477 20.3327 12C20.3327 12.5523 19.885 13 19.3327 13H10.666C10.1137 13 9.66602 12.5523 9.66602 12ZM9.66602 17.3333C9.66602 16.781 10.1137 16.3333 10.666 16.3333H14.666C15.2183 16.3333 15.666 16.781 15.666 17.3333C15.666 17.8856 15.2183 18.3333 14.666 18.3333H10.666C10.1137 18.3333 9.66602 17.8856 9.66602 17.3333ZM9.66602 22.6667C9.66602 22.1144 10.1137 21.6667 10.666 21.6667H12.666C13.2183 21.6667 13.666 22.1144 13.666 22.6667C13.666 23.219 13.2183 23.6667 12.666 23.6667H10.666C10.1137 23.6667 9.66602 23.219 9.66602 22.6667Z" fill="white"/>
</svg>
