<svg width="24" height="24" viewBox="0 0 24 24" fill="none" xmlns="http://www.w3.org/2000/svg">
<path d="M21.0566 7.17919C21.0659 7.39039 21.0659 7.59199 21.0659 7.80319C21.0752 14.2064 16.3707 21.5984 7.76744 21.5984C5.22999 21.5984 2.73885 20.84 0.599609 19.4192C0.97004 19.4672 1.34047 19.4864 1.7109 19.4864C3.81309 19.4864 5.85972 18.7568 7.5174 17.4032C5.51707 17.3648 3.75753 16.0112 3.14632 14.0336C3.85014 14.1776 4.57248 14.1488 5.25777 13.9472C3.08149 13.5056 1.51642 11.5184 1.50716 9.2048C1.50716 9.1856 1.50716 9.1664 1.50716 9.1472C2.15542 9.5216 2.88702 9.7328 3.62788 9.752C1.58125 8.3312 0.942258 5.49919 2.1832 3.28158C4.56322 6.31519 8.06378 8.14879 11.8237 8.3504C11.444 6.67039 11.9626 4.90398 13.1757 3.71358C15.0557 1.87997 18.0191 1.97597 19.7972 3.92478C20.8436 3.71358 21.8531 3.31038 22.7699 2.74398C22.418 3.86718 21.6864 4.81758 20.714 5.42239C21.6401 5.30719 22.5476 5.04798 23.3996 4.66398C22.7699 5.64319 21.9734 6.48799 21.0566 7.17919Z" fill="#1D9BF0"/>
</svg>
