<svg width="32" height="32" viewBox="0 0 32 32" fill="none" xmlns="http://www.w3.org/2000/svg">
<path fill-rule="evenodd" clip-rule="evenodd" d="M15.9997 1.66675C12.5019 1.66675 9.66634 4.50228 9.66634 8.00008C9.66634 11.4979 12.5019 14.3334 15.9997 14.3334C19.4975 14.3334 22.333 11.4979 22.333 8.00008C22.333 4.50228 19.4975 1.66675 15.9997 1.66675ZM11.6663 8.00008C11.6663 5.60685 13.6064 3.66675 15.9997 3.66675C18.3929 3.66675 20.333 5.60685 20.333 8.00008C20.333 10.3933 18.3929 12.3334 15.9997 12.3334C13.6064 12.3334 11.6663 10.3933 11.6663 8.00008Z" fill="#197DFA"/>
<path d="M23.9997 4.33341C23.4474 4.33341 22.9997 4.78113 22.9997 5.33341C22.9997 5.8857 23.4474 6.33342 23.9997 6.33342C25.835 6.33342 26.9997 7.54106 26.9997 8.66675C26.9997 9.79244 25.835 11.0001 23.9997 11.0001C23.4474 11.0001 22.9997 11.4478 22.9997 12.0001C22.9997 12.5524 23.4474 13.0001 23.9997 13.0001C26.5826 13.0001 28.9997 11.223 28.9997 8.66675C28.9997 6.11054 26.5826 4.33341 23.9997 4.33341Z" fill="#197DFA"/>
<path d="M8.99967 5.33341C8.99967 4.78113 8.55196 4.33341 7.99967 4.33341C5.41671 4.33341 2.99967 6.11054 2.99967 8.66675C2.99967 11.223 5.41671 13.0001 7.99967 13.0001C8.55196 13.0001 8.99967 12.5524 8.99967 12.0001C8.99967 11.4478 8.55196 11.0001 7.99967 11.0001C6.16436 11.0001 4.99967 9.79244 4.99967 8.66675C4.99967 7.54106 6.16436 6.33342 7.99967 6.33342C8.55196 6.33342 8.99967 5.8857 8.99967 5.33341Z" fill="#197DFA"/>
<path fill-rule="evenodd" clip-rule="evenodd" d="M15.9997 16.3334C13.6206 16.3334 11.4216 16.9745 9.78812 18.0635C8.16162 19.1478 6.99967 20.7556 6.99967 22.6667C6.99967 24.5779 8.16162 26.1857 9.78812 27.27C11.4216 28.359 13.6206 29.0001 15.9997 29.0001C18.3787 29.0001 20.5777 28.359 22.2112 27.27C23.8377 26.1857 24.9997 24.5779 24.9997 22.6667C24.9997 20.7556 23.8377 19.1478 22.2112 18.0635C20.5777 16.9745 18.3787 16.3334 15.9997 16.3334ZM8.99967 22.6667C8.99967 21.6324 9.62859 20.5735 10.8975 19.7276C12.1595 18.8863 13.9604 18.3334 15.9997 18.3334C18.0389 18.3334 19.8399 18.8863 21.1018 19.7276C22.3708 20.5735 22.9997 21.6324 22.9997 22.6667C22.9997 23.7011 22.3708 24.76 21.1018 25.6059C19.8399 26.4472 18.0389 27.0001 15.9997 27.0001C13.9604 27.0001 12.1595 26.4472 10.8975 25.6059C9.62859 24.76 8.99967 23.7011 8.99967 22.6667Z" fill="#197DFA"/>
<path d="M25.6896 18.4525C25.8079 17.9131 26.3411 17.5717 26.8805 17.69C28.1631 17.9712 29.3187 18.4792 30.1767 19.1813C31.034 19.8828 31.6663 20.8471 31.6663 22.0001C31.6663 23.1531 31.034 24.1174 30.1767 24.8189C29.3187 25.521 28.1631 26.029 26.8805 26.3102C26.3411 26.4285 25.8079 26.0871 25.6896 25.5476C25.5712 25.0082 25.9127 24.4749 26.4521 24.3566C27.5086 24.1249 28.3529 23.727 28.9102 23.271C29.4682 22.8144 29.6663 22.3685 29.6663 22.0001C29.6663 21.6317 29.4682 21.1857 28.9102 20.7291C28.3529 20.2732 27.5086 19.8752 26.4521 19.6435C25.9127 19.5252 25.5712 18.992 25.6896 18.4525Z" fill="#197DFA"/>
<path d="M5.1188 17.69C5.65827 17.5717 6.19149 17.9131 6.3098 18.4525C6.4281 18.992 6.08668 19.5252 5.54721 19.6435C4.49073 19.8752 3.64641 20.2732 3.08917 20.7291C2.53118 21.1857 2.33301 21.6317 2.33301 22.0001C2.33301 22.3685 2.53118 22.8144 3.08917 23.271C3.64641 23.727 4.49073 24.1249 5.54721 24.3566C6.08668 24.4749 6.4281 25.0082 6.3098 25.5476C6.19149 26.0871 5.65827 26.4285 5.1188 26.3102C3.83629 26.029 2.68061 25.521 1.8226 24.8189C0.965339 24.1174 0.333008 23.1531 0.333008 22.0001C0.333008 20.8471 0.965339 19.8828 1.8226 19.1813C2.68061 18.4792 3.83629 17.9712 5.1188 17.69Z" fill="#197DFA"/>
</svg>
