<svg width="18" height="22" viewBox="0 0 18 22" fill="#141618" xmlns="http://www.w3.org/2000/svg">
<path fill-rule="evenodd" clip-rule="evenodd" d="M9.00001 0.25C6.37666 0.25 4.25001 2.37665 4.25001 5C4.25001 7.62335 6.37666 9.75 9.00001 9.75C11.6234 9.75 13.75 7.62335 13.75 5C13.75 2.37665 11.6234 0.25 9.00001 0.25ZM5.75001 5C5.75001 3.20507 7.20509 1.75 9.00001 1.75C10.7949 1.75 12.25 3.20507 12.25 5C12.25 6.79493 10.7949 8.25 9.00001 8.25C7.20509 8.25 5.75001 6.79493 5.75001 5Z" />
<path fill-rule="evenodd" clip-rule="evenodd" d="M9.00001 11.25C6.68646 11.25 4.55494 11.7759 2.97546 12.6643C1.4195 13.5396 0.250012 14.8661 0.250012 16.5L0.249946 16.602C0.248816 17.7638 0.247398 19.222 1.52642 20.2635C2.15589 20.7761 3.03649 21.1406 4.22622 21.3815C5.41927 21.6229 6.97424 21.75 9.00001 21.75C11.0258 21.75 12.5808 21.6229 13.7738 21.3815C14.9635 21.1406 15.8441 20.7761 16.4736 20.2635C17.7526 19.222 17.7512 17.7638 17.7501 16.602L17.75 16.5C17.75 14.8661 16.5805 13.5396 15.0246 12.6643C13.4451 11.7759 11.3136 11.25 9.00001 11.25ZM1.75001 16.5C1.75001 15.6487 2.37139 14.7251 3.71085 13.9717C5.02681 13.2315 6.89529 12.75 9.00001 12.75C11.1047 12.75 12.9732 13.2315 14.2892 13.9717C15.6286 14.7251 16.25 15.6487 16.25 16.5C16.25 17.8078 16.2097 18.544 15.5264 19.1004C15.1559 19.4022 14.5365 19.6967 13.4762 19.9113C12.4193 20.1252 10.9742 20.25 9.00001 20.25C7.02579 20.25 5.58075 20.1252 4.5238 19.9113C3.46354 19.6967 2.84413 19.4022 2.4736 19.1004C1.79033 18.544 1.75001 17.8078 1.75001 16.5Z" />
</svg>
