<svg width="20" height="20" viewBox="0 0 20 20" fill="#141618" xmlns="http://www.w3.org/2000/svg">
<path fill-rule="evenodd" clip-rule="evenodd" d="M8.5936 0.318832C9.48301 -0.106277 10.517 -0.106277 11.4064 0.318832C11.7928 0.503514 12.1468 0.805512 12.6371 1.22367C12.6625 1.24538 12.6883 1.2674 12.7146 1.28973C12.9526 1.49262 13.0276 1.555 13.1035 1.60585C13.2965 1.73519 13.5132 1.82495 13.7411 1.86995C13.8307 1.88764 13.9278 1.89654 14.2396 1.92143C14.2739 1.92417 14.3078 1.92685 14.3411 1.92949C14.9834 1.98046 15.4473 2.01727 15.8511 2.15991C16.7807 2.48822 17.5118 3.21935 17.8401 4.14885C17.9827 4.55267 18.0195 5.01656 18.0705 5.6589C18.0732 5.69224 18.0758 5.72607 18.0786 5.76039C18.1035 6.0722 18.1124 6.16933 18.1301 6.25894C18.175 6.48684 18.2648 6.70355 18.3941 6.89652C18.445 6.97239 18.5074 7.04737 18.7103 7.28545C18.7326 7.31166 18.7546 7.33748 18.7763 7.36293C19.1945 7.85316 19.4965 8.20721 19.6812 8.5936C20.1063 9.48302 20.1063 10.517 19.6812 11.4064C19.4965 11.7928 19.1945 12.1468 18.7764 12.6371C18.7546 12.6625 18.7326 12.6883 18.7103 12.7146C18.5074 12.9526 18.445 13.0276 18.3941 13.1035C18.2648 13.2965 18.175 13.5132 18.1301 13.7411C18.1124 13.8307 18.1035 13.9278 18.0786 14.2396C18.0758 14.2739 18.0732 14.3078 18.0705 14.3411C18.0195 14.9834 17.9827 15.4473 17.8401 15.8511C17.5118 16.7807 16.7807 17.5118 15.8511 17.8401C15.4473 17.9827 14.9834 18.0195 14.3411 18.0705C14.3078 18.0732 14.2739 18.0758 14.2396 18.0786C13.9278 18.1035 13.8307 18.1124 13.7411 18.1301C13.5132 18.175 13.2965 18.2648 13.1035 18.3941C13.0276 18.445 12.9526 18.5074 12.7146 18.7103C12.6883 18.7326 12.6625 18.7546 12.6371 18.7763C12.1468 19.1945 11.7928 19.4965 11.4064 19.6812C10.517 20.1063 9.48302 20.1063 8.5936 19.6812C8.20721 19.4965 7.85315 19.1945 7.3629 18.7763C7.33746 18.7546 7.31165 18.7326 7.28545 18.7103C7.04736 18.5074 6.97239 18.445 6.89652 18.3941C6.70355 18.2648 6.48684 18.175 6.25894 18.1301C6.16933 18.1124 6.0722 18.1035 5.76039 18.0786C5.72607 18.0758 5.69225 18.0732 5.6589 18.0705C5.01656 18.0195 4.55267 17.9827 4.14885 17.8401C3.21935 17.5118 2.48822 16.7807 2.15991 15.8511C2.01727 15.4473 1.98046 14.9834 1.92949 14.3411C1.92685 14.3078 1.92417 14.2739 1.92143 14.2396C1.89654 13.9278 1.88764 13.8307 1.86995 13.7411C1.82495 13.5132 1.73519 13.2965 1.60585 13.1035C1.555 13.0276 1.49262 12.9526 1.28973 12.7146C1.2674 12.6884 1.24538 12.6625 1.22368 12.6371C0.805513 12.1468 0.503515 11.7928 0.318832 11.4064C-0.106277 10.517 -0.106277 9.48301 0.318832 8.5936C0.503514 8.20721 0.80551 7.85315 1.22367 7.36291C1.24537 7.33747 1.26739 7.31165 1.28973 7.28545C1.49262 7.04736 1.555 6.97239 1.60585 6.89652C1.73519 6.70355 1.82495 6.48684 1.86995 6.25894C1.88764 6.16933 1.89654 6.0722 1.92143 5.76039C1.92417 5.72607 1.92685 5.69225 1.92949 5.6589C1.98046 5.01657 2.01727 4.55267 2.15991 4.14885C2.48822 3.21935 3.21935 2.48822 4.14885 2.15991C4.55267 2.01727 5.01657 1.98046 5.65891 1.92949C5.69225 1.92685 5.72607 1.92417 5.76039 1.92143C6.0722 1.89654 6.16933 1.88764 6.25894 1.86995C6.48684 1.82495 6.70355 1.73519 6.89652 1.60585C6.97239 1.555 7.04736 1.49262 7.28545 1.28973C7.31165 1.26739 7.33746 1.24538 7.36291 1.22367C7.85315 0.805511 8.20721 0.503514 8.5936 0.318832ZM10.7573 1.6769C10.2784 1.44799 9.72162 1.44799 9.24271 1.6769C9.05755 1.76539 8.86239 1.92352 8.26176 2.43537C8.25189 2.44378 8.24216 2.45207 8.23255 2.46026C8.03544 2.6283 7.89156 2.75097 7.73456 2.8562C7.37619 3.09639 6.97373 3.2631 6.55048 3.34666C6.36505 3.38327 6.17657 3.39827 5.91837 3.41883C5.90579 3.41983 5.89304 3.42084 5.88012 3.42187C5.09348 3.48465 4.84367 3.51084 4.65016 3.57919C4.14966 3.75597 3.75597 4.14966 3.57919 4.65016C3.51084 4.84367 3.48465 5.09348 3.42187 5.88012C3.42084 5.89304 3.41983 5.90579 3.41883 5.91837C3.39827 6.17657 3.38327 6.36505 3.34666 6.55048C3.2631 6.97373 3.09639 7.37619 2.8562 7.73456C2.75097 7.89156 2.6283 8.03545 2.46025 8.23256C2.45207 8.24216 2.44377 8.25189 2.43537 8.26176C1.92352 8.86239 1.76539 9.05755 1.6769 9.24271C1.44799 9.72162 1.44799 10.2784 1.6769 10.7573C1.76539 10.9424 1.92352 11.1376 2.43537 11.7382C2.44378 11.7481 2.45207 11.7578 2.46026 11.7674C2.6283 11.9646 2.75097 12.1084 2.8562 12.2654C3.09639 12.6238 3.2631 13.0263 3.34666 13.4495C3.38327 13.6349 3.39827 13.8234 3.41883 14.0816C3.41983 14.0942 3.42084 14.107 3.42187 14.1199C3.48465 14.9065 3.51084 15.1563 3.57919 15.3498C3.75597 15.8503 4.14966 16.244 4.65016 16.4208C4.84367 16.4892 5.09348 16.5154 5.88012 16.5781L5.91836 16.5812C6.17658 16.6017 6.36506 16.6167 6.55048 16.6533C6.97373 16.7369 7.37619 16.9036 7.73456 17.1438C7.89156 17.249 8.03545 17.3717 8.23256 17.5397L8.26176 17.5646C8.86239 18.0765 9.05755 18.2346 9.24271 18.3231C9.72162 18.552 10.2784 18.552 10.7573 18.3231C10.9424 18.2346 11.1376 18.0765 11.7382 17.5646L11.7675 17.5397C11.9646 17.3717 12.1084 17.249 12.2654 17.1438C12.6238 16.9036 13.0263 16.7369 13.4495 16.6533C13.6349 16.6167 13.8234 16.6017 14.0816 16.5812L14.1199 16.5781C14.9065 16.5154 15.1563 16.4892 15.3498 16.4208C15.8503 16.244 16.244 15.8503 16.4208 15.3498C16.4892 15.1563 16.5154 14.9065 16.5781 14.1199L16.5812 14.0816C16.6017 13.8234 16.6167 13.6349 16.6533 13.4495C16.7369 13.0263 16.9036 12.6238 17.1438 12.2654C17.249 12.1084 17.3717 11.9646 17.5397 11.7675L17.5646 11.7382C18.0765 11.1376 18.2346 10.9424 18.3231 10.7573C18.552 10.2784 18.552 9.72162 18.3231 9.24271C18.2346 9.05755 18.0765 8.86239 17.5646 8.26176L17.5397 8.23254C17.3717 8.03543 17.249 7.89155 17.1438 7.73456C16.9036 7.37619 16.7369 6.97373 16.6533 6.55048C16.6167 6.36505 16.6017 6.17658 16.5812 5.91836L16.5781 5.88012C16.5154 5.09348 16.4892 4.84367 16.4208 4.65016C16.244 4.14966 15.8503 3.75597 15.3498 3.57919C15.1563 3.51084 14.9065 3.48465 14.1199 3.42187C14.107 3.42084 14.0942 3.41983 14.0816 3.41883C13.8234 3.39827 13.6349 3.38327 13.4495 3.34666C13.0263 3.2631 12.6238 3.09639 12.2654 2.8562C12.1084 2.75097 11.9646 2.6283 11.7674 2.46025C11.7578 2.45207 11.7481 2.44377 11.7382 2.43537C11.1376 1.92352 10.9424 1.76539 10.7573 1.6769ZM14.0443 6.95913C14.3383 7.25304 14.3383 7.72957 14.0443 8.02348L9.02696 13.0409C8.73305 13.3348 8.25652 13.3348 7.96261 13.0409L5.95565 11.0339C5.66174 10.74 5.66174 10.2635 5.95565 9.96956C6.24957 9.67565 6.72609 9.67565 7.02 9.96956L8.49478 11.4443L12.98 6.95913C13.2739 6.66522 13.7504 6.66522 14.0443 6.95913Z"/>
</svg>
