<svg width="44" height="44" viewBox="0 0 44 44" fill="none" xmlns="http://www.w3.org/2000/svg">
<path d="M0 16C0 7.16344 7.16344 0 16 0H36C40.4183 0 44 3.58172 44 8V28C44 36.8366 36.8366 44 28 44H8C3.58172 44 0 40.4183 0 36V16Z" fill="#4BAF7D"/>
<path fill-rule="evenodd" clip-rule="evenodd" d="M21.0748 17.5084C19.7462 16.724 18.25 17.7907 18.25 19.2132V24.7868C18.25 26.2093 19.7462 27.276 21.0748 26.4916L25.795 23.7048C27.0683 22.953 27.0683 21.047 25.795 20.2952L21.0748 17.5084ZM19.75 19.2132C19.75 19.0147 19.8461 18.8758 19.9595 18.805C20.0691 18.7364 20.1919 18.729 20.3122 18.8L25.0324 21.5869C25.165 21.6652 25.25 21.8148 25.25 22C25.25 22.1852 25.165 22.3348 25.0324 22.4131L20.3122 25.2C20.1919 25.271 20.0691 25.2636 19.9595 25.195C19.8461 25.1242 19.75 24.9853 19.75 24.7868V19.2132Z" fill="white"/>
<path fill-rule="evenodd" clip-rule="evenodd" d="M22 11.25C16.0629 11.25 11.25 16.0629 11.25 22C11.25 27.9371 16.0629 32.75 22 32.75C27.9371 32.75 32.75 27.9371 32.75 22C32.75 16.0629 27.9371 11.25 22 11.25ZM12.75 22C12.75 16.8914 16.8914 12.75 22 12.75C27.1086 12.75 31.25 16.8914 31.25 22C31.25 27.1086 27.1086 31.25 22 31.25C16.8914 31.25 12.75 27.1086 12.75 22Z" fill="white"/>
</svg>
