<svg width="30" height="30" viewBox="0 0 30 30" fill="#78828C" xmlns="http://www.w3.org/2000/svg">
<path fill-rule="evenodd" clip-rule="evenodd" d="M13.7662 8.76049C11.9948 7.71462 9.99984 9.13689 9.99984 11.0336V18.4651C9.99984 20.3618 11.9948 21.7841 13.7662 20.7382L20.0598 17.0224C21.7576 16.02 21.7576 13.4787 20.0598 12.4763L13.7662 8.76049ZM11.9998 11.0336C11.9998 10.7689 12.128 10.5838 12.2791 10.4893C12.4254 10.3979 12.589 10.388 12.7494 10.4827L19.043 14.1985C19.2199 14.3029 19.3332 14.5024 19.3332 14.7493C19.3332 14.9963 19.2199 15.1958 19.043 15.3002L12.7494 19.016C12.589 19.1107 12.4254 19.1008 12.2791 19.0094C12.128 18.9149 11.9998 18.7298 11.9998 18.4651V11.0336Z" />
<path fill-rule="evenodd" clip-rule="evenodd" d="M14.9998 0.416016C7.08376 0.416016 0.666504 6.83327 0.666504 14.7493C0.666504 22.6654 7.08376 29.0827 14.9998 29.0827C22.9159 29.0827 29.3332 22.6654 29.3332 14.7493C29.3332 6.83327 22.9159 0.416016 14.9998 0.416016ZM2.6665 14.7493C2.6665 7.93784 8.18832 2.41602 14.9998 2.41602C21.8113 2.41602 27.3332 7.93784 27.3332 14.7493C27.3332 21.5609 21.8113 27.0827 14.9998 27.0827C8.18832 27.0827 2.6665 21.5609 2.6665 14.7493Z" />
</svg>
