<svg width="34" height="34" viewBox="0 0 34 34" fill="none" xmlns="http://www.w3.org/2000/svg">
<path fill-rule="evenodd" clip-rule="evenodd" d="M33.6668 16.9987C33.6668 26.2034 26.2049 33.6654 17.0002 33.6654C7.79542 33.6654 0.333496 26.2034 0.333496 16.9987C0.333496 7.79395 7.79542 0.332031 17.0002 0.332031C26.2049 0.332031 33.6668 7.79395 33.6668 16.9987ZM23.7174 11.9481C24.2055 12.4363 24.2055 13.2278 23.7174 13.7159L15.384 22.0492C14.8959 22.5374 14.1044 22.5374 13.6163 22.0492L10.2829 18.7159C9.79479 18.2278 9.79479 17.4363 10.2829 16.9481C10.7711 16.46 11.5626 16.46 12.0507 16.9481L14.5002 19.3976L18.2249 15.6729L21.9496 11.9481C22.4378 11.46 23.2292 11.46 23.7174 11.9481Z" fill="white"/>
</svg>
