<svg width="34" height="34" viewBox="0 0 34 34" fill="none" xmlns="http://www.w3.org/2000/svg">
<path fill-rule="evenodd" clip-rule="evenodd" d="M33.6663 16.9987C33.6663 26.2034 26.2044 33.6654 16.9997 33.6654C7.79493 33.6654 0.333008 26.2034 0.333008 16.9987C0.333008 7.79395 7.79493 0.332031 16.9997 0.332031C26.2044 0.332031 33.6663 7.79395 33.6663 16.9987ZM11.9491 11.9481C12.4372 11.46 13.2287 11.46 13.7168 11.9481L16.9996 15.2309L20.2824 11.9481C20.7705 11.46 21.562 11.46 22.0502 11.9481C22.5383 12.4363 22.5383 13.2278 22.0502 13.7159L18.7674 16.9987L22.0501 20.2814C22.5383 20.7696 22.5383 21.561 22.0501 22.0492C21.562 22.5373 20.7705 22.5373 20.2824 22.0492L16.9996 18.7665L13.7169 22.0492C13.2287 22.5374 12.4372 22.5374 11.9491 22.0492C11.4609 21.5611 11.4609 20.7696 11.9491 20.2814L15.2319 16.9987L11.9491 13.7159C11.4609 13.2277 11.4609 12.4363 11.9491 11.9481Z" fill="white"/>
</svg>
