<svg width="30" height="30" viewBox="0 0 30 30" fill="none" xmlns="http://www.w3.org/2000/svg">
<path fill-rule="evenodd" clip-rule="evenodd" d="M14.3334 2.6665C7.89009 2.6665 2.66675 7.88985 2.66675 14.3332C2.66675 20.7765 7.89009 25.9998 14.3334 25.9998C20.7767 25.9998 26.0001 20.7765 26.0001 14.3332C26.0001 7.88985 20.7767 2.6665 14.3334 2.6665ZM0.666748 14.3332C0.666748 6.78528 6.78552 0.666504 14.3334 0.666504C21.8813 0.666504 28.0001 6.78528 28.0001 14.3332C28.0001 17.7472 26.7483 20.8688 24.6786 23.2641L29.0405 27.6261C29.431 28.0166 29.431 28.6497 29.0405 29.0403C28.65 29.4308 28.0168 29.4308 27.6263 29.0403L23.2644 24.6783C20.8691 26.748 17.7474 27.9998 14.3334 27.9998C6.78552 27.9998 0.666748 21.8811 0.666748 14.3332Z" fill="white"/>
</svg>
