<svg width="20" height="20" viewBox="0 0 20 20" fill="none" xmlns="http://www.w3.org/2000/svg">
<path d="M10.5535 14.5061C10.4114 14.6615 10.2106 14.75 10 14.75C9.78943 14.75 9.58857 14.6615 9.44648 14.5061L5.44648 10.1311C5.16698 9.82538 5.18822 9.35098 5.49392 9.07148C5.79963 8.79198 6.27402 8.81322 6.55352 9.11892L9.25 12.0682V1C9.25 0.585787 9.58579 0.25 10 0.25C10.4142 0.25 10.75 0.585787 10.75 1V12.0682L13.4465 9.11892C13.726 8.81322 14.2004 8.79198 14.5061 9.07148C14.8118 9.35098 14.833 9.82537 14.5535 10.1311L10.5535 14.5061Z" fill="#78828C"/>
<path d="M1.75 13C1.75 12.5858 1.41422 12.25 1 12.25C0.585788 12.25 0.250001 12.5858 0.250001 13V13.0549C0.24998 14.4225 0.249964 15.5248 0.366524 16.3918C0.487541 17.2919 0.746434 18.0497 1.34835 18.6516C1.95027 19.2536 2.70814 19.5125 3.60825 19.6335C4.47522 19.75 5.57754 19.75 6.94513 19.75H13.0549C14.4225 19.75 15.5248 19.75 16.3918 19.6335C17.2919 19.5125 18.0497 19.2536 18.6517 18.6516C19.2536 18.0497 19.5125 17.2919 19.6335 16.3918C19.75 15.5248 19.75 14.4225 19.75 13.0549V13C19.75 12.5858 19.4142 12.25 19 12.25C18.5858 12.25 18.25 12.5858 18.25 13C18.25 14.4354 18.2484 15.4365 18.1469 16.1919C18.0482 16.9257 17.8678 17.3142 17.591 17.591C17.3142 17.8678 16.9257 18.0482 16.1919 18.1469C15.4365 18.2484 14.4354 18.25 13 18.25H7C5.56459 18.25 4.56347 18.2484 3.80812 18.1469C3.07435 18.0482 2.68577 17.8678 2.40901 17.591C2.13225 17.3142 1.9518 16.9257 1.85315 16.1919C1.75159 15.4365 1.75 14.4354 1.75 13Z" fill="#78828C"/>
</svg>
