<svg width="96" height="72" viewBox="0 0 96 72" fill="none" xmlns="http://www.w3.org/2000/svg">
<rect x="1" y="1" width="94" height="70" rx="3" fill="white"/>
<path d="M75.3412 21H20.6588C20.295 21 20 21.2686 20 21.6V23.4C20 23.7314 20.295 24 20.6588 24H75.3412C75.705 24 76 23.7314 76 23.4V21.6C76 21.2686 75.705 21 75.3412 21Z" fill="#E1E6EB"/>
<path d="M80.2235 28H15.7765C15.3476 28 15 28.2686 15 28.6V30.4C15 30.7314 15.3476 31 15.7765 31H80.2235C80.6524 31 81 30.7314 81 30.4V28.6C81 28.2686 80.6524 28 80.2235 28Z" fill="#E1E6EB"/>
<path d="M68.4 42H27.6C27.2686 42 27 42.8059 27 43.8V49.2C27 50.1941 27.2686 51 27.6 51H68.4C68.7314 51 69 50.1941 69 49.2V43.8C69 42.8059 68.7314 42 68.4 42Z" fill="#FF4BC8"/>
<rect x="1" y="1" width="94" height="70" rx="3" stroke="#FF4BC8" stroke-width="2"/>
</svg>
