<svg width="58" height="28" viewBox="0 0 58 28" fill="none"
	xmlns="http://www.w3.org/2000/svg">
	<path d="M27.6162 4.48106L23.2182 2.45955L18.9588 4.77603L23.3559 6.79754L27.6162 4.48106ZM53.2927 12.8683V14.2521C52.3212 13.1332 50.879 12.4567 48.907 12.4567C45.0503 12.4567 41.871 15.8418 41.871 20.2284C41.871 24.614 45.0503 28 48.907 28C50.879 28 52.3212 27.3226 53.2927 26.2037V27.5876H57.7084V12.8683H53.2927ZM49.7901 23.8192C47.7589 23.8192 46.2867 22.4362 46.2867 20.2284C46.2867 18.0205 47.7589 16.6366 49.7901 16.6366C51.8214 16.6366 53.2927 18.0205 53.2927 20.2284C53.2927 22.4362 51.8214 23.8192 49.7901 23.8192ZM41.4294 10.8079V6.56881C36.543 6.27472 34.276 8.74752 34.276 12.8683H32.3039V17.1073H34.276V27.5876H38.6917V17.1073H41.4294V12.8683H38.6917C38.6917 11.1611 39.7806 10.6604 41.4294 10.8079ZM21.8678 28C26.1952 28 29.6695 24.614 29.6695 20.2284C29.6695 15.8418 26.1952 12.4567 21.8678 12.4567C17.5404 12.4567 14.067 15.8418 14.067 20.2284C14.067 24.614 17.5404 28 21.8678 28ZM21.8678 23.7018C19.955 23.7018 18.4828 22.3179 18.4828 20.2284C18.4828 18.138 19.955 16.7541 21.8678 16.7541C23.7816 16.7541 25.2538 18.138 25.2538 20.2284C25.2538 22.3179 23.7816 23.7018 21.8678 23.7018ZM5.50057 17.1665C5.50057 16.6366 5.97129 16.3425 6.73697 16.3425C7.70843 16.3425 8.29749 16.8724 8.70903 17.6372L12.4774 15.606C11.241 13.5165 9.12146 12.4567 6.73697 12.4567C3.67512 12.4567 0.967407 14.0755 0.967407 17.284C0.967407 22.377 8.20917 21.523 8.20917 23.1427C8.20917 23.7309 7.67928 24.055 6.61951 24.055C5.32394 24.055 4.49998 23.4368 4.11669 22.3179L0.290039 24.4966C1.43812 26.8811 3.67512 28 6.61951 28C9.79882 28 12.7423 26.5569 12.7423 23.1719C12.7423 17.7255 5.50057 18.8445 5.50057 17.1665ZM23.6341 0.229617L32.5247 4.31591L23.4389 9.25709L14.0512 4.94118L23.136 0L23.6341 0.229617ZM29.1626 3.5935C29.1758 3.5988 33.8273 5.2856 30.671 9.01864C29.8612 9.97685 29.6192 10.5659 29.6987 10.9236C29.7561 11.1832 30.0987 11.4067 30.5085 11.5974L29.5856 13.5977C28.6256 13.1517 27.7928 12.4929 27.5509 11.3978C27.3301 10.4008 27.6648 9.16259 28.9895 7.5959C30.1014 6.28002 28.4084 5.66535 28.404 5.66359L29.1626 3.5935Z" fill="#ffffff"/>
</svg>
