<svg width="320" height="176" viewBox="0 0 320 176" fill="none" xmlns="http://www.w3.org/2000/svg">
<g filter="url(#filter0_d_3071_16233)">
<path d="M16 28C16 19.1634 23.1634 12 32 12H296C300.418 12 304 15.5817 304 20V140C304 148.837 296.837 156 288 156H24C19.5817 156 16 152.418 16 148V28Z" fill="white" shape-rendering="crispEdges"/>
<path fill-rule="evenodd" clip-rule="evenodd" d="M169.025 49.3906C169.876 50.0176 170.028 51.1777 169.364 51.9817L159.195 64.2893C158.833 64.7285 158.279 64.9896 157.689 64.9997C157.099 65.0098 156.535 64.7679 156.156 64.3413L150.681 58.1875C149.986 57.4068 150.093 56.2422 150.92 55.5865C151.747 54.9307 152.98 55.0319 153.675 55.8126L157.597 60.2203L166.28 49.7108C166.944 48.9068 168.173 48.7635 169.025 49.3906Z" fill="#E1E6EB"/>
<rect x="41.5" y="37.5" width="237" height="39" rx="6.5" stroke="#E1E6EB" stroke-width="3"/>
<path d="M155.151 103.541C154.43 102.82 153.262 102.82 152.541 103.541C151.82 104.262 151.82 105.43 152.541 106.151L157.389 111L152.541 115.849C151.82 116.57 151.82 117.738 152.541 118.459C153.262 119.18 154.43 119.18 155.151 118.459L160 113.611L164.849 118.459C165.57 119.18 166.738 119.18 167.459 118.459C168.18 117.738 168.18 116.57 167.459 115.849L162.611 111L167.459 106.151C168.18 105.43 168.18 104.262 167.459 103.541C166.738 102.82 165.57 102.82 164.849 103.541L160 108.389L155.151 103.541Z" fill="#E1E6EB"/>
<rect x="41.5" y="91.5" width="237" height="39" rx="6.5" stroke="#E1E6EB" stroke-width="3"/>
</g>
<defs>
<filter id="filter0_d_3071_16233" x="0" y="0" width="320" height="176" filterUnits="userSpaceOnUse" color-interpolation-filters="sRGB">
<feFlood flood-opacity="0" result="BackgroundImageFix"/>
<feColorMatrix in="SourceAlpha" type="matrix" values="0 0 0 0 0 0 0 0 0 0 0 0 0 0 0 0 0 0 127 0" result="hardAlpha"/>
<feOffset dy="4"/>
<feGaussianBlur stdDeviation="8"/>
<feComposite in2="hardAlpha" operator="out"/>
<feColorMatrix type="matrix" values="0 0 0 0 0.470588 0 0 0 0 0.509804 0 0 0 0 0.54902 0 0 0 0.05 0"/>
<feBlend mode="normal" in2="BackgroundImageFix" result="effect1_dropShadow_3071_16233"/>
<feBlend mode="normal" in="SourceGraphic" in2="effect1_dropShadow_3071_16233" result="shape"/>
</filter>
</defs>
</svg>
